<?xml version="1.0" encoding="utf-8"?>
<!-- Generator: Adobe Illustrator 25.4.1, SVG Export Plug-In . SVG Version: 6.00 Build 0)  -->
<svg version="1.1" id="Layer_1" xmlns="http://www.w3.org/2000/svg" xmlns:xlink="http://www.w3.org/1999/xlink" x="0px" y="0px"
	 viewBox="0 0 1920 259" style="enable-background:new 0 0 1920 259;" xml:space="preserve">
<style type="text/css">
	.st0{fill:#43493B;}
	.st1{fill:url(#SVGID_1_);}
	.st2{fill:#F7C1B0;}
	.st3{fill:#EDC4A9;}
	.st4{fill:#FFEDE1;}
	.st5{fill:#DA9170;}
	.st6{fill:#FFE4D2;}
	.st7{fill:#F9DCC7;}
	.st8{fill:#F2CFBB;}
	.st9{fill:#FFF7F3;}
	.st10{fill:url(#SVGID_00000003810104929727972090000005301283839631438739_);}
	.st11{fill:url(#SVGID_00000118392511674097857240000010729249670589906603_);}
	.st12{fill:url(#SVGID_00000101803907132825803060000016601846144813178044_);}
	.st13{fill:url(#SVGID_00000152253162913174263590000009004162385588562343_);}
	.st14{fill:url(#SVGID_00000074404129590736634900000011688559815675643811_);}
	.st15{fill:url(#SVGID_00000010293704794516734900000012988875656558896300_);}
	.st16{fill:url(#SVGID_00000150094208353867992630000014476153458824841611_);}
	.st17{fill:url(#SVGID_00000176740413990818872900000007350506684605894334_);}
	.st18{fill:url(#SVGID_00000114046593517890768020000013664865788073226941_);}
	.st19{fill:url(#SVGID_00000159456472805023604500000008660370992410296755_);}
	.st20{fill:#FFFFFF;}
	.st21{fill:#92C846;}
	.st22{fill:#542A75;}
	.st23{fill:url(#SVGID_00000064312277229585364930000014936469116594496668_);}
	.st24{fill:url(#SVGID_00000183941626592357469370000005727646417996986288_);}
	.st25{fill:url(#SVGID_00000065035527176008687140000008577396564675590319_);}
	.st26{fill:url(#SVGID_00000161628716860673543390000013278005695817509047_);}
	.st27{fill:url(#SVGID_00000127726902940598659800000016606522653448364195_);}
	.st28{fill:url(#SVGID_00000128460509480955263900000002273350188931946674_);}
	.st29{fill:url(#SVGID_00000043435803886108926680000013041125996521823904_);}
	.st30{fill:url(#SVGID_00000013189344530445460350000003738312834843252374_);}
	.st31{fill:#F1C40F;}
	.st32{fill:url(#SVGID_00000139296016882508382450000006710330564842226596_);}
	.st33{fill:url(#SVGID_00000108287690669510831010000001433457391125429920_);}
	.st34{fill:url(#SVGID_00000150792681622651249960000016207189835901556892_);}
	.st35{fill:#E6E6E6;}
	.st36{fill:#EA94B0;}
	.st37{fill:url(#SVGID_00000124143693677403997240000006256624583136633258_);}
	.st38{fill:#FFCD86;}
	.st39{fill:#F89AB5;}
	.st40{fill:#C6839E;}
	.st41{fill:url(#SVGID_00000051352328594548411350000018314273219449140387_);}
	.st42{fill:url(#SVGID_00000072272084418260251010000016219160036276845209_);}
	.st43{fill:url(#SVGID_00000015333912762785593720000013484910671291207302_);}
	.st44{fill:url(#SVGID_00000094576688889882269360000012997736170786992287_);}
	.st45{fill:url(#SVGID_00000173854551829343394580000011335774421220691879_);}
	.st46{fill:url(#SVGID_00000181804136339123062250000017572958990778276784_);}
	.st47{fill:#E58761;}
</style>
<g>
	<g id="Capa_1">
		<rect y="0" class="st0" width="1920" height="259"/>
		
			<linearGradient id="SVGID_1_" gradientUnits="userSpaceOnUse" x1="1348.0148" y1="1699" x2="1348.0148" y2="1499.049" gradientTransform="matrix(1 0 0 1 0 -1440)">
			<stop  offset="0" style="stop-color:#F9C476"/>
			<stop  offset="1" style="stop-color:#FCDEB3"/>
		</linearGradient>
		<path class="st1" d="M1388.2,222c0,0-2.1-31.2-1-36.1s19.4-31.3,20.3-36.2s-2.2-42.1-2.2-42.1c2.3-13.6,0-34.9-4.7-36.8
			c-5.4-2.2-13.2,8.8-13.2,8.8L1314,64.3c0,0-20.1-10-24.1-2.4c-6.4,12.1,8.4,17.5,22.6,23.5l-0.7,77.3c0,0,0.2,5.1,1.8,6.9
			s12.5,9.8,12.6,16.2s-3.1,35.7-3.1,35.7L1319,259h70.3L1388.2,222z"/>
		<path class="st2" d="M1289.9,61.8c-0.6,1.1-1,2.2-1.3,3.4c0.1-0.1,8.2-7,23.7-1.7l0.8,0.3C1309.2,62,1293.4,55.2,1289.9,61.8z"/>
		<path class="st3" d="M1312,153.6l63.9,6.8l-64,2.1v-1.1c0-0.9,0-2,0-2L1312,153.6z"/>
		<path class="st2" d="M1304.2,132.9c0,0-5.3-0.5-7,4.1s1.3,14,9.3,16c7.3,1.9,9.5-5.2,9.6-8.6
			C1316,140.9,1309.1,133.3,1304.2,132.9z"/>
		<path class="st4" d="M1318,123.7c0,0-8-5.3-10.7-4.4s-8.1,6.2,2.3,15.6C1309.6,134.9,1320.3,134.6,1318,123.7z"/>
		<path class="st5" d="M1387.2,79.5l0.2,0.1c1-1.4,2.2-2.8,3.4-4.1c-0.2,2.8-0.8,11.3-2.4,16.5c-0.4,1.3-0.4,2.8,0,4.1
			c1.2,3.8,3.7,11.5,4.2,14.9c0.1,0.6-0.2,1.3-0.7,1.7c-1.6,1-2.5,2.7-2.5,4.5c0.2,3.4,2,23.1,1.7,25.2s-2.9,0.4-4.4,8.8
			L1387.2,79.5z"/>
		<path class="st6" d="M1308.7,146.7c-0.9,1.9-0.6,3.8,0.6,4.4s2.9-0.5,3.7-2.4s0.6-3.8-0.6-4.4S1309.5,144.9,1308.7,146.7z"/>
		<path class="st7" d="M1319.2,129.3c-0.6,1.2-0.4,2.4,0.4,2.8s1.8-0.3,2.4-1.5s0.4-2.4-0.4-2.8S1319.8,128.1,1319.2,129.3z"/>
		<path class="st8" d="M1306.6,118.6c2.8-0.9,11.4,4.8,11.4,4.8s0,0.1,0,0.2c-1.9-1.2-8.4-5.2-10.7-4.4c-2.6,0.9-7.5,5.6,0.8,14.1
			C1298.8,124.5,1303.9,119.5,1306.6,118.6z"/>
		<path class="st2" d="M1321,135.5c0,0,7.8-9.5-4.1-16.9s-20-7.4-22.4-3.8s0,12.8,9.5,19.3C1313.5,140.6,1317.6,138.8,1321,135.5z"
			/>
		<path class="st4" d="M1318,123.7c0,0-8-5.3-10.7-4.4s-8.1,6.2,2.3,15.6C1309.6,134.9,1320.3,134.6,1318,123.7z"/>
		<path class="st9" d="M1317.5,123.3l0.5,0.3c2.4,10.9-8.4,11.2-8.4,11.2l-0.7-0.6C1310.5,134.2,1319.2,133,1317.5,123.3z"/>
		<path class="st3" d="M1312,153.6l69.4,5.4l-12.1,2.3l-56.8,5c-0.3-1.6-0.5-3.3-0.5-4.9c0.1-0.7,0.3-1.4,0.6-2L1312,153.6z"/>
		
			<linearGradient id="SVGID_00000000200122548519537080000016581458393246000567_" gradientUnits="userSpaceOnUse" x1="1350.75" y1="1605.1" x2="1350.75" y2="1453.4" gradientTransform="matrix(1 0 0 1 0 -1440)">
			<stop  offset="0" style="stop-color:#838383"/>
			<stop  offset="0.15" style="stop-color:#777777"/>
			<stop  offset="0.71" style="stop-color:#4D4D4D"/>
			<stop  offset="1" style="stop-color:#3D3D3D"/>
		</linearGradient>
		<path style="fill:url(#SVGID_00000000200122548519537080000016581458393246000567_);" d="M1389.1,20.6c0-4-2.8-7.2-6.3-7.2h-64.1
			c-3.5,0-6.3,3.2-6.3,7.2V150l0,0v7.9c0,4,2.8,7.2,6.3,7.2h64.1c3.5,0,6.3-3.2,6.3-7.2V151l0,0V30.3l0,0V20.6z"/>
		
			<linearGradient id="SVGID_00000083046855439094232240000010599203000934457533_" gradientUnits="userSpaceOnUse" x1="1309.8" y1="1528.85" x2="1386.5001" y2="1528.85" gradientTransform="matrix(1 0 0 1 0 -1440)">
			<stop  offset="0" style="stop-color:#333333"/>
			<stop  offset="1" style="stop-color:#000000"/>
		</linearGradient>
		<path style="fill:url(#SVGID_00000083046855439094232240000010599203000934457533_);" d="M1380.3,164.7h-64.1
			c-3.5,0-6.3-3.2-6.3-7.2V20.2c0-4,2.8-7.2,6.3-7.2h64.1c3.5,0,6.3,3.2,6.3,7.2v137.2C1386.6,161.4,1383.8,164.7,1380.3,164.7z"/>
		
			<linearGradient id="SVGID_00000072282311294946267010000007810224256175422643_" gradientUnits="userSpaceOnUse" x1="1348.2" y1="1469.9" x2="1348.2" y2="1590.6" gradientTransform="matrix(1 0 0 1 0 -1440)">
			<stop  offset="0" style="stop-color:#92C846"/>
			<stop  offset="1" style="stop-color:#009DC2"/>
		</linearGradient>
		<polygon style="fill:url(#SVGID_00000072282311294946267010000007810224256175422643_);" points="1386.6,150.6 1309.8,149.6 
			1309.8,29.9 1386.6,29.9 		"/>
		
			<linearGradient id="SVGID_00000036228793866474382690000002642629052229011132_" gradientUnits="userSpaceOnUse" x1="1335.9379" y1="1462.15" x2="1360.4531" y2="1462.15" gradientTransform="matrix(1 0 0 1 0 -1440)">
			<stop  offset="1.000000e-02" style="stop-color:#808080"/>
			<stop  offset="1" style="stop-color:#7C7C7C"/>
		</linearGradient>
		<path style="fill:url(#SVGID_00000036228793866474382690000002642629052229011132_);" d="M1359.5,23.2h-22.7c-0.5,0-0.9-0.5-0.9-1
			l0,0c0-0.5,0.4-1,0.9-1.1h22.7c0.5,0,1,0.5,0.9,1.1l0,0C1360.5,22.7,1360.1,23.1,1359.5,23.2z"/>
		
			<linearGradient id="SVGID_00000155849847774469017320000005404115589044143540_" gradientUnits="userSpaceOnUse" x1="1364.4" y1="1461.9935" x2="1366.51" y2="1461.9935" gradientTransform="matrix(1 0 0 1 0 -1440)">
			<stop  offset="1.000000e-02" style="stop-color:#808080"/>
			<stop  offset="1" style="stop-color:#7C7C7C"/>
		</linearGradient>
		<path style="fill:url(#SVGID_00000155849847774469017320000005404115589044143540_);" d="M1366.5,22.1c-0.1,0.6-0.6,1-1.2,1
			c-0.5,0-0.9-0.4-1-1s0.4-1.1,1-1.2s1.1,0.4,1.2,1C1366.5,22,1366.5,22.1,1366.5,22.1z"/>
		
			<linearGradient id="SVGID_00000123440488875402499910000009591360064126963109_" gradientUnits="userSpaceOnUse" x1="1309.7999" y1="1457.25" x2="1386.5798" y2="1457.25" gradientTransform="matrix(1 0 0 1 0 -1440)">
			<stop  offset="0" style="stop-color:#333333"/>
			<stop  offset="1" style="stop-color:#000000"/>
		</linearGradient>
		<path style="fill:url(#SVGID_00000123440488875402499910000009591360064126963109_);" d="M1316.1,14.3h64.1c3.5,0,6.3,3.2,6.3,7.2
			v-1.3c0-4-2.8-7.2-6.3-7.2h-64.1c-3.5,0-6.3,3.2-6.3,7.2v1.3C1309.8,17.6,1312.6,14.3,1316.1,14.3z"/>
		
			<linearGradient id="SVGID_00000000188631882981701630000018287908057355496639_" gradientUnits="userSpaceOnUse" x1="1309.8" y1="1600.35" x2="1386.58" y2="1600.35" gradientTransform="matrix(1 0 0 1 0 -1440)">
			<stop  offset="0" style="stop-color:#333333"/>
			<stop  offset="1" style="stop-color:#000000"/>
		</linearGradient>
		<path style="fill:url(#SVGID_00000000188631882981701630000018287908057355496639_);" d="M1380.3,163.3h-64.1
			c-3.5,0-6.3-3.2-6.3-7.2v1.3c0,4,2.8,7.2,6.3,7.2h64.1c3.5,0,6.3-3.2,6.3-7.2v-1.3C1386.6,160.1,1383.8,163.3,1380.3,163.3z"/>
		
			<linearGradient id="SVGID_00000143577695899264794230000009614645791529443242_" gradientUnits="userSpaceOnUse" x1="1297.2925" y1="1583.1008" x2="1316.6101" y2="1583.1008" gradientTransform="matrix(1 0 0 1 0 -1440)">
			<stop  offset="0" style="stop-color:#F9C476"/>
			<stop  offset="1" style="stop-color:#FCDEB3"/>
		</linearGradient>
		<path style="fill:url(#SVGID_00000143577695899264794230000009614645791529443242_);" d="M1304.8,132.9c0,0-5.3-0.5-7,4.1
			s1.3,14,9.3,16c7.3,1.9,9.5-5.2,9.6-8.6C1316.7,140.9,1309.7,133.3,1304.8,132.9z"/>
		<path class="st4" d="M1318.6,123.7c0,0-8-5.3-10.7-4.4s-8.1,6.2,2.3,15.6C1310.2,134.9,1321,134.6,1318.6,123.7z"/>
		<path class="st7" d="M1319.8,129.3c-0.6,1.2-0.4,2.4,0.4,2.8s1.8-0.3,2.4-1.5s0.4-2.4-0.4-2.8S1320.4,128.1,1319.8,129.3z"/>
		<path class="st2" d="M1309.8,88.1c0,0-12,2.7-16.7,8.3c-3.1,3.7-1.3,17.8,10.6,19.8s16.9-15.9,6.2-19.8L1309.8,88.1z"/>
		
			<linearGradient id="SVGID_00000047740201936734759640000006625497066122051755_" gradientUnits="userSpaceOnUse" x1="1291.95" y1="1543.1277" x2="1315.8027" y2="1543.1277" gradientTransform="matrix(1 0 0 1 0 -1440)">
			<stop  offset="0" style="stop-color:#F9C476"/>
			<stop  offset="1" style="stop-color:#FCDEB3"/>
		</linearGradient>
		<path style="fill:url(#SVGID_00000047740201936734759640000006625497066122051755_);" d="M1309.9,89.9l0.1,6.5
			c10.7,3.9,5.6,21.8-6.2,19.8c-7.8-1.3-11.2-7.8-11.8-13.2C1294.4,93.9,1304.6,90.9,1309.9,89.9z"/>
		<path class="st8" d="M1307.2,118.6c2.8-0.9,11.4,4.8,11.4,4.8s0,0.1,0,0.2c-1.9-1.2-8.4-5.2-10.7-4.4c-2.6,0.9-7.5,5.6,0.8,14.1
			C1299.4,124.5,1304.5,119.5,1307.2,118.6z"/>
		
			<linearGradient id="SVGID_00000039856740752598558590000003127527902394773136_" gradientUnits="userSpaceOnUse" x1="1294.233" y1="1565.4629" x2="1324.1688" y2="1565.4629" gradientTransform="matrix(1 0 0 1 0 -1440)">
			<stop  offset="0" style="stop-color:#F9C476"/>
			<stop  offset="1" style="stop-color:#FCDEB3"/>
		</linearGradient>
		<path style="fill:url(#SVGID_00000039856740752598558590000003127527902394773136_);" d="M1321.6,135.5c0,0,7.8-9.5-4.1-16.9
			s-20-7.4-22.4-3.8s0,12.8,9.5,19.3C1314.1,140.6,1318.2,138.8,1321.6,135.5z"/>
		<path class="st4" d="M1318.6,123.7c0,0-8-5.3-10.7-4.4s-8.1,6.2,2.3,15.6C1310.2,134.9,1321,134.6,1318.6,123.7z"/>
		<path class="st9" d="M1318.1,123.3l0.5,0.3c2.4,10.9-8.4,11.2-8.4,11.2l-0.6-0.6C1311.1,134.2,1319.8,133,1318.1,123.3z"/>
		<path class="st4" d="M1312.1,141.2c0,0-5.8-3.9-7.8-3.2s-5.9,4.5,1.7,11.4C1306,149.4,1313.9,149.1,1312.1,141.2z"/>
		<path class="st9" d="M1311.8,140.9l0.4,0.2c1.7,8-6.1,8.2-6.1,8.2l-0.5-0.4C1306.7,148.8,1313,148,1311.8,140.9z"/>
		<path class="st4" d="M1312,100.8c0,0-8.6-4.3-11.2-3s-7.2,7.1,4.3,15.2C1305.1,113,1315.7,111.3,1312,100.8z"/>
		<path class="st9" d="M1311.5,100.5l0.5,0.2c3.7,10.5-6.9,12.2-6.9,12.2l-0.7-0.5C1305.9,112.1,1314.4,109.9,1311.5,100.5z"/>
		<path class="st4" d="M1403.1,73.6c1.5,4.7,2.5,9.7,2.8,14.7c-3,1.3-7.2,0.8-8.5-0.3c-2-1.7-2-13-2-13
			C1398.4,71.4,1401.3,72.5,1403.1,73.6z"/>
		<path class="st5" d="M1324.6,181L1324.6,181c1,1.5,1.5,3.1,1.7,4.8c0.1,3.5-0.8,13.7-1.7,22.3v0.6c31.8-5.6,59.9-22.3,59.9-22.3
			C1342.5,194.8,1324.6,181,1324.6,181z"/>
		<path class="st20" d="M1059.7,9.9c-20.2,0-36.5,16.3-36.5,36.5v35l0,0v14.4l0,0v25.8l21.1-25.8H1226c20.2,0,36.5-16.3,36.5-36.5
			l0,0V46.4c0-20.2-16.3-36.5-36.5-36.5C1226,9.9,1059.7,9.9,1059.7,9.9z"/>
		
			<ellipse transform="matrix(0.7071 -0.7071 0.7071 0.7071 317.1231 870.8676)" class="st21" cx="1209.8" cy="52.6" rx="37.6" ry="37.6"/>
		<path class="st22" d="M1182.1,78c1.2,0,2.4,0.2,3.5,0.5c3.9,1.2,7.1,4.2,8.3,8.2C1189.5,84.6,1185.5,81.7,1182.1,78z"/>
		
			<linearGradient id="SVGID_00000018927168375181744790000004961742055617548223_" gradientUnits="userSpaceOnUse" x1="1204.408" y1="1504.4155" x2="1218.166" y2="1504.4155" gradientTransform="matrix(1 0 0 1 -3.293039e-02 -1439.9655)">
			<stop  offset="0" style="stop-color:#FCDEB3"/>
			<stop  offset="1" style="stop-color:#F9A262"/>
		</linearGradient>
		<polygon style="fill:url(#SVGID_00000018927168375181744790000004961742055617548223_);" points="1204.4,87.4 1204.5,41.5 
			1218.1,41.5 1218,87.4 		"/>
		
			<linearGradient id="SVGID_00000161622216133150273700000007130979537611452586_" gradientUnits="userSpaceOnUse" x1="1195" y1="1493.7" x2="1218.05" y2="1493.7" gradientTransform="matrix(1 0 0 1 0 -1440)">
			<stop  offset="0" style="stop-color:#FCDEB3"/>
			<stop  offset="1" style="stop-color:#F9C476"/>
		</linearGradient>
		<path style="fill:url(#SVGID_00000161622216133150273700000007130979537611452586_);" d="M1218,38.5v18.7
			c0,6.5-5.4,11.8-11.9,11.8l0,0h-2.2c-4.9,0-8.9-4-8.9-8.9l0,0l0.1-21.7L1218,38.5z"/>
		
			<linearGradient id="SVGID_00000178187826713419440310000013932070369819284403_" gradientUnits="userSpaceOnUse" x1="1197.04" y1="1493.75" x2="1218.04" y2="1493.75" gradientTransform="matrix(1 0 0 1 0 -1440)">
			<stop  offset="0" style="stop-color:#FCDEB3"/>
			<stop  offset="1" style="stop-color:#F9A262"/>
		</linearGradient>
		<path style="fill:url(#SVGID_00000178187826713419440310000013932070369819284403_);" d="M1203.8,67.1c6.5,0,11.9-5.3,11.9-11.8
			l0,0l0.1-16.8h2.2v18.7c0,6.5-5.4,11.8-11.9,11.8l0,0h-2.2c-2.7,0-5.2-1.2-6.9-3.2c1.4,0.8,3,1.3,4.6,1.3L1203.8,67.1z"/>
		
			<linearGradient id="SVGID_00000024707932207196731420000012536785355187580046_" gradientUnits="userSpaceOnUse" x1="1212.8199" y1="1487.15" x2="1217.2" y2="1487.15" gradientTransform="matrix(1 0 0 1 0 -1440)">
			<stop  offset="0" style="stop-color:#754C24"/>
			<stop  offset="1" style="stop-color:#42210B"/>
		</linearGradient>
		<polygon style="fill:url(#SVGID_00000024707932207196731420000012536785355187580046_);" points="1216.7,49.4 1214.4,49.4 
			1213.3,46.2 1212.8,44.9 1217.2,45.4 		"/>
		
			<linearGradient id="SVGID_00000166651775901700681500000015267924973554144175_" gradientUnits="userSpaceOnUse" x1="1191.4989" y1="1481.4594" x2="1222.3726" y2="1481.4594" gradientTransform="matrix(1 0 0 1 0 -1440)">
			<stop  offset="0" style="stop-color:#754C24"/>
			<stop  offset="1" style="stop-color:#42210B"/>
		</linearGradient>
		<path style="fill:url(#SVGID_00000166651775901700681500000015267924973554144175_);" d="M1222.1,38.4L1222.1,38.4
			c0.8-4.6-2.3-8.9-6.9-9.6l0,0c-1.7-4-6.2-5.8-10.2-4.2c-0.4,0.2-0.8,0.4-1.2,0.6c-2.7-1.6-6.2-0.8-7.8,1.9c-0.2,0.3-0.3,0.6-0.5,1
			c-3.8,2.1-5.1,6.8-3,10.6c2.1,3.8,6.8,5.1,10.6,3c1.1-0.6,2-1.4,2.7-2.5c1.1,4,4.9,6.6,9.1,6.1c0.2,0,0.4-0.1,0.7-0.1
			c0.3,0.6,0.5,1.3,0.7,2c0.8,3.5,1,7,0.7,10.5l1.3,1.2C1220.3,53.3,1223.2,45.5,1222.1,38.4z"/>
		
			<linearGradient id="SVGID_00000168098503169707850150000014223596804878946188_" gradientUnits="userSpaceOnUse" x1="1214.2328" y1="1492.25" x2="1221.9965" y2="1492.25" gradientTransform="matrix(1 0 0 1 0 -1440)">
			<stop  offset="0" style="stop-color:#FCDEB3"/>
			<stop  offset="1" style="stop-color:#F9C476"/>
		</linearGradient>
		<path style="fill:url(#SVGID_00000168098503169707850150000014223596804878946188_);" d="M1215.7,48.6c1.4-1.3,3.6-1.3,4.9,0.1
			c0.2,0.2,0.4,0.4,0.5,0.7c1.3,2,1,4.7-0.7,6.5c-1.4,1.3-3.6,1.3-4.9-0.1c-0.2-0.2-0.4-0.4-0.5-0.7
			C1213.7,53,1214,50.3,1215.7,48.6z"/>
		
			<linearGradient id="SVGID_00000086650160416214443060000007672625044638980519_" gradientUnits="userSpaceOnUse" x1="1215.8301" y1="1492.0895" x2="1221.9901" y2="1492.0895" gradientTransform="matrix(1 0 0 1 0 -1440)">
			<stop  offset="0" style="stop-color:#FCDEB3"/>
			<stop  offset="1" style="stop-color:#F9C476"/>
		</linearGradient>
		<path style="fill:url(#SVGID_00000086650160416214443060000007672625044638980519_);" d="M1221.9,51.4c0.4,2-0.6,4-2.3,5.1
			c1.2-1.2,1.8-2.9,1.5-4.5c-0.4-2.5-2.4-4.2-4.5-3.7c-0.3,0.1-0.5,0.2-0.8,0.3c0.5-0.4,1-0.7,1.6-0.8
			C1219.5,47.2,1221.6,48.9,1221.9,51.4z"/>
		<polygon class="st22" points="1222.6,76.4 1215.9,76.3 1218,73.6 		"/>
		<polygon class="st22" points="1206.2,76.1 1199.5,76 1204.3,73.4 		"/>
		
			<linearGradient id="SVGID_00000009570923583827796490000013812719462777643945_" gradientUnits="userSpaceOnUse" x1="1208.75" y1="1515.22" x2="1208.75" y2="1530.1901" gradientTransform="matrix(1 0 0 1 0 -1440)">
			<stop  offset="0" style="stop-color:#2B3582"/>
			<stop  offset="1" style="stop-color:#150E42"/>
		</linearGradient>
		<path style="fill:url(#SVGID_00000009570923583827796490000013812719462777643945_);" d="M1182.8,78.8c1.2-0.7,2.5-1.1,3.9-1.4
			l12.1-1.4l3.1-0.7c0.4,4.5,4.1,8,8.7,8.1c4.5,0.2,8.4-3,9-7.5h0.9l2.2,0.6l12,4.5C1219.6,94,1196.8,93.1,1182.8,78.8L1182.8,78.8z
			"/>
		<path class="st20" d="M1219.5,75.8l-6.6,14.3c-1,0.1-2,0.1-3.1,0.1c-2.7,0-5.5-0.3-8.2-0.9l0.2-14.1L1219.5,75.8z"/>
		<path class="st31" d="M1205.8,78.5l1.6-3.2l4.1,0.1l0.7,4l-2.5,1.7l-0.8,9c-1.5,0-3-0.2-4.5-0.4l3.2-8.7L1205.8,78.5z"/>
		
			<linearGradient id="SVGID_00000013173591561237779340000008998495314199922843_" gradientUnits="userSpaceOnUse" x1="1217.5" y1="1513.63" x2="1217.5" y2="1530.16" gradientTransform="matrix(1 0 0 1 0 -1440)">
			<stop  offset="0" style="stop-color:#2B3582"/>
			<stop  offset="1" style="stop-color:#150E42"/>
		</linearGradient>
		<path style="fill:url(#SVGID_00000013173591561237779340000008998495314199922843_);" d="M1223.6,81.4l-7.9,8.4
			c-1.4,0.2-2.9,0.4-4.3,0.4l6.7-16.5L1223.6,81.4z"/>
		<polygon class="st20" points="1209.6,75.4 1218,73.6 1217.1,75.7 1203.9,75.3 1204.4,72.6 		"/>
		
			<linearGradient id="SVGID_00000008137336011912302230000001797778369302477460_" gradientUnits="userSpaceOnUse" x1="1201.55" y1="1513.4" x2="1201.55" y2="1529.6" gradientTransform="matrix(1 0 0 1 0 -1440)">
			<stop  offset="0" style="stop-color:#2B3582"/>
			<stop  offset="1" style="stop-color:#150E42"/>
		</linearGradient>
		<path style="fill:url(#SVGID_00000008137336011912302230000001797778369302477460_);" d="M1198.9,77.2l5.3-3.8l-1.2,16.2
			c-0.8-0.2-1.7-0.3-2.5-0.5L1198.9,77.2z"/>
		
			<linearGradient id="SVGID_00000113326757710313375060000002882635355499179913_" gradientUnits="userSpaceOnUse" x1="1228.7" y1="1521.0883" x2="1228.7" y2="1527.8101" gradientTransform="matrix(1 0 0 1 0 -1440)">
			<stop  offset="0" style="stop-color:#2B3582"/>
			<stop  offset="1" style="stop-color:#150E42"/>
		</linearGradient>
		<path style="fill:url(#SVGID_00000113326757710313375060000002882635355499179913_);" d="M1232.7,81.2c0.6-0.1,1.1-0.1,1.7-0.1
			c-3.4,2.9-7.2,5.2-11.4,6.7C1224.9,84.1,1228.6,81.7,1232.7,81.2z"/>
		<path class="st35" d="M1217,51.4c0.7,0,1.2,0.6,1.2,1.2c0,0.7-0.6,1.2-1.2,1.2c-0.7,0-1.2-0.6-1.2-1.2S1216.3,51.4,1217,51.4
			L1217,51.4z"/>
		<path class="st20" d="M1199.2,59.6c0.4-0.2,0.9-0.1,1.2,0.3c0.2,0.5,0.7,0.9,1.2,1c0.8,0.1,1.6-0.1,2.2-0.5
			c0.4-0.3,0.9-0.2,1.2,0.2c0.3,0.4,0.2,0.9-0.2,1.2c-0.8,0.5-1.8,0.8-2.8,0.9c-0.3,0-0.5,0-0.8-0.1c-1-0.2-1.8-0.9-2.3-1.8
			C1198.7,60.3,1198.8,59.8,1199.2,59.6z"/>
		<path class="st20" d="M1262.8,207.3v-0.2l0,0V169c0-20.2-16.4-36.6-36.6-36.6l0,0h-167c-20.2,0-36.6,16.4-36.7,36.6l0,0v16.4
			c0,20.2,16.4,36.6,36.7,36.6l0,0h164.6c11.2,0,21.8,5.2,28.8,14l10.2,13v-27l0,0V207.3z"/>
		<ellipse class="st21" cx="1069.3" cy="176.8" rx="36.3" ry="37.7"/>
		<path class="st36" d="M1085.3,202.9L1085.3,202.9c-0.1-0.3-0.1-0.6-0.2-0.8c-1.4-4.2-6-6.5-10.2-5.1c-0.1,0-0.2,0.1-0.3,0.1
			c-4.3,1.8-6.4,6.6-4.8,10.9c0.8,2.2,1.6,4.3,2.4,6.5c5.3-0.4,10.4-2,15-4.7C1086.4,207.4,1085.8,205.2,1085.3,202.9z"/>
		
			<linearGradient id="SVGID_00000029038204837686321230000001223569765582245048_" gradientUnits="userSpaceOnUse" x1="1044.84" y1="1613.8512" x2="1096.2037" y2="1613.8512" gradientTransform="matrix(1 0 0 1 0 -1440)">
			<stop  offset="0" style="stop-color:#454545"/>
			<stop  offset="1" style="stop-color:#000000"/>
		</linearGradient>
		<path style="fill:url(#SVGID_00000029038204837686321230000001223569765582245048_);" d="M1094.8,173.3c-5-11.8-8.6-7.8-8.6-7.8
			s-0.3-8.9-7-14.9s-18,0.2-18,0.2s-13.9,5.6-11,17.4c0,0-8.9,0.3-3.9,18.5s24,12,24,12l-0.4-2.2
			C1091.1,203.8,1099.7,185,1094.8,173.3z"/>
		<path class="st38" d="M1074.8,190.4l-0.8,13.3l-9.4-8.3l-2.4-2.7l-11.2,16.7c11.5,7,26,6.9,37.4-0.4l-8.1-18.9L1074.8,190.4z"/>
		<path class="st39" d="M1059.3,206c0.8-4.5-2.1-8.9-6.6-9.9c-4.5-0.8-8.7,2.3-9.5,6.7c0,0.1,0,0.1,0,0.2l0,0
			c3.9,4.2,8.8,7.5,14.2,9.5l1.6-5.5C1059.1,206.7,1059.2,206.3,1059.3,206z"/>
		<path class="st40" d="M1064.1,181.6c-0.1,4.2-0.5,10.2-1.9,11.1l2.4,2.7c-1.7-4.1,2.4-11.8,2.4-11.8L1064.1,181.6z"/>
		
			<linearGradient id="SVGID_00000183934863407347363420000014401451166736916651_" gradientUnits="userSpaceOnUse" x1="1080.9485" y1="1629.641" x2="1080.9485" y2="1654.1899" gradientTransform="matrix(1 0 0 1 0 -1440)">
			<stop  offset="0" style="stop-color:#3FCEFC"/>
			<stop  offset="1" style="stop-color:#4C246D"/>
		</linearGradient>
		<path style="fill:url(#SVGID_00000183934863407347363420000014401451166736916651_);" d="M1089.4,200.2c1-4.7-1.9-9.3-6.6-10.3
			s-9.3,1.9-10.3,6.6c-0.2,0.8-0.2,1.6-0.2,2.4c0.2,5.1,0.9,10.3,2,15.3c5.5-0.8,10.7-2.8,15.2-6
			C1089.3,205.5,1089.3,202.9,1089.4,200.2z"/>
		
			<linearGradient id="SVGID_00000026123983921092326250000001257382311277018510_" gradientUnits="userSpaceOnUse" x1="1071.95" y1="1654.55" x2="1071.95" y2="1620.17" gradientTransform="matrix(1 0 0 1 0 -1440)">
			<stop  offset="0" style="stop-color:#FCDEB3"/>
			<stop  offset="1" style="stop-color:#F9A262"/>
		</linearGradient>
		<path style="fill:url(#SVGID_00000026123983921092326250000001257382311277018510_);" d="M1078,192.7l-3.6-2.7l-0.3-7.9l-10-2v2.1
			l0,0c0,0,0,0.1,0,0.3v2.8c-0.1,2.7-0.5,6.4-1.8,7.2l-0.3,21c6.7,1.4,13.6,0.9,19.9-1.5L1078,192.7z"/>
		
			<linearGradient id="SVGID_00000041289204071454733620000013157309352269911171_" gradientUnits="userSpaceOnUse" x1="1069.65" y1="1630.0601" x2="1069.65" y2="1654.55" gradientTransform="matrix(1 0 0 1 0 -1440)">
			<stop  offset="0" style="stop-color:#3FCEFC"/>
			<stop  offset="1" style="stop-color:#4C246D"/>
		</linearGradient>
		<path style="fill:url(#SVGID_00000041289204071454733620000013157309352269911171_);" d="M1088.3,208.9l-8.1-18.9l-5.4,0.3
			l-0.8,13.3l-9.4-8.3l-2.4-2.7l-11.2,16.7C1062.5,216.4,1077,216.3,1088.3,208.9L1088.3,208.9z"/>
		
			<linearGradient id="SVGID_00000078741252602198309170000004945566532120648342_" gradientUnits="userSpaceOnUse" x1="1061.05" y1="1610.8694" x2="1080.95" y2="1610.8694" gradientTransform="matrix(1 0 0 1 0 -1440)">
			<stop  offset="0" style="stop-color:#FCDEB3"/>
			<stop  offset="1" style="stop-color:#F9C476"/>
		</linearGradient>
		<path style="fill:url(#SVGID_00000078741252602198309170000004945566532120648342_);" d="M1067.5,157.9l0.9,1.3
			c0.9,5.8-3.3,12.1-6.8,16.4c1.3,4.4,5.1,7.8,9.2,8.2c5,0.5,8.6-3.9,9.2-9.7l1.1-11.4c0-0.3,0-0.6,0-0.9
			C1075.5,162.5,1070.6,160.1,1067.5,157.9z"/>
		
			<linearGradient id="SVGID_00000153677161564358136900000015796373169841963196_" gradientUnits="userSpaceOnUse" x1="1057.5" y1="1632.7" x2="1057.5" y2="1653.3" gradientTransform="matrix(1 0 0 1 0 -1440)">
			<stop  offset="0" style="stop-color:#3FCEFC"/>
			<stop  offset="1" style="stop-color:#4C246D"/>
		</linearGradient>
		<path style="fill:url(#SVGID_00000153677161564358136900000015796373169841963196_);" d="M1052.8,195.3l3.7,16.8
			c1.2,0.5,2.4,0.9,3.6,1.2l2.1-20.6L1052.8,195.3z"/>
		
			<linearGradient id="SVGID_00000181769117374303518230000005059853107177458084_" gradientUnits="userSpaceOnUse" x1="1052.0271" y1="1634.5836" x2="1052.0271" y2="1652.96" gradientTransform="matrix(1 0 0 1 0 -1440)">
			<stop  offset="0" style="stop-color:#3FCEFC"/>
			<stop  offset="1" style="stop-color:#4C246D"/>
		</linearGradient>
		<path style="fill:url(#SVGID_00000181769117374303518230000005059853107177458084_);" d="M1056,195.5c-4.3-2.1-10.6-0.7-12.6,3.8
			c-0.4,0.9-0.7,1.8-1.1,2.7c4.4,5.1,10.1,8.9,16.5,10.9c1.3-3.3,1.9-4.6,2.2-5.4C1063.2,203.1,1060.3,197.7,1056,195.5z"/>
		<path class="st20" d="M567.8,119.6l-0.1,0.8h-12.9v-0.8c-0.2-7-3.8-10.2-10.8-10.2c-10,0-18,9.5-18,25.2c0,10.7,4.8,15,11.2,15
			c6.7,0,11.3-4,13.9-10.8l0.3-0.8h12.9l-0.2,0.8c-3.6,13.1-13.9,20.4-28.5,20.4c-14.2,0-23.4-8.4-23.3-23.6
			c-0.1-21.8,15-35.8,33-35.8C561.2,99.8,568.6,108.3,567.8,119.6z"/>
		<path class="st20" d="M634.1,124.5c0,20.3-13.5,34.7-32.9,34.7c-16.9,0-26.2-10.8-26.2-24.7c0-20.4,13.5-34.7,32.9-34.7
			C624.8,99.8,634.1,110.6,634.1,124.5z M620.4,124.9c0-9.2-4.6-15.5-13.2-15.5c-12.6,0-18.5,13.5-18.5,24.7
			c0,9.1,4.6,15.5,13.2,15.5C614.5,149.6,620.4,136.1,620.4,124.9L620.4,124.9z"/>
		<path class="st20" d="M689.8,158h-17.3l-14.7-40.8l-7.2,40.8h-12.9l10.1-57h16.6l15.1,42.1l7.4-42.1h13L689.8,158z"/>
		<path class="st20" d="M736.8,111.1l-8.3,47h-12.9l8.3-47h-19l1.8-10.1h51l-1.9,10.1C755.8,111.1,736.8,111.1,736.8,111.1z"/>
		<path class="st20" d="M764,141.9l-8,16.1h-13.9l30.3-57h17l9.9,57h-14.1l-2.3-16.1H764z M778.6,112.7l-9.5,19h12.2L778.6,112.7z"
			/>
		<path class="st20" d="M861.4,119.6l-0.1,0.8h-12.9v-0.8c-0.2-7-3.8-10.2-10.8-10.2c-10,0-18,9.5-18,25.2c0,10.7,4.8,15,11.2,15
			c6.7,0,11.3-4,13.9-10.8l0.3-0.8h13l-0.2,0.8c-3.6,13.1-13.9,20.4-28.5,20.4c-14.2,0-23.4-8.4-23.3-23.6
			c-0.1-21.8,15-35.8,33-35.8C854.8,99.8,862.2,108.3,861.4,119.6z"/>
		<path class="st20" d="M900.7,111.1l-8.3,47h-12.9l8.3-47h-19l1.8-10.1h51l-1.9,10.1C919.7,111.1,900.7,111.1,900.7,111.1z"/>
		<path class="st20" d="M977.5,124.5c0,20.3-13.5,34.7-32.9,34.7c-16.9,0-26.2-10.8-26.2-24.7c0-20.4,13.5-34.7,32.9-34.7
			C968.2,99.8,977.5,110.6,977.5,124.5z M963.8,124.9c0-9.2-4.6-15.5-13.2-15.5c-12.6,0-18.4,13.5-18.4,24.7
			c0,9.1,4.6,15.5,13.2,15.5C957.8,149.6,963.8,136.1,963.8,124.9z"/>
		<path d="M1058.8,53.2l-3.8,22.2h-4.4l4.9-22.2H1058.8z M1055.2,48.1c0-1.8,1.4-3.3,3.3-3.3l0,0c1.2-0.1,2.2,0.8,2.3,2
			c0,0.1,0,0.2,0,0.3c0,1.8-1.5,3.3-3.3,3.3l0,0c-1.2,0.1-2.2-0.8-2.3-2C1055.2,48.3,1055.2,48.2,1055.2,48.1L1055.2,48.1z"/>
		<path d="M1088.3,68.4h-3.7l2.3-13.1h-16.5l-2.3,13.1h-3.7l5.3-30h3.7l-2.4,13.8h16.5l2.4-13.8h3.7L1088.3,68.4z"/>
		<path d="M1118.2,54.9c0,6.2-3.9,14.1-13.3,14.1c-7.1,0-9.9-4.9-9.9-10.2c0-6.2,3.9-14.1,13.3-14.1
			C1115.4,44.8,1118.2,49.7,1118.2,54.9z M1114.1,55c0-4-1.9-7.4-6.3-7.4c-5.8,0-8.7,5.9-8.7,11.1c0,4,1.9,7.4,6.3,7.4
			C1111.1,66.2,1114.1,60.3,1114.1,55L1114.1,55z"/>
		<path d="M1125.3,61.8c-0.2,0.7-0.3,1.5-0.3,2.3c0,1.5,0.8,1.8,2.5,1.6l-0.5,2.8c-0.9,0.1-1.8,0.2-2.7,0.2c-2,0-3.3-0.6-3.3-2.8
			c0.1-1.3,0.3-2.6,0.6-3.8l4.4-25.5h3.7L1125.3,61.8z"/>
		<path d="M1151.6,50.5c0,1.2-0.2,2.3-0.4,3.4l-1.5,8.7c-0.3,1.9-0.5,3.9-0.6,5.9h-3.7l0.2-3.3l-1.7,2.1c-1.4,1.3-3.4,1.8-6,1.8
			c-3.2,0-6.3-1.9-6.3-6c0-6.7,6.9-9.2,15.9-8.5l0.1-0.6c0.2-1,0.4-2.1,0.4-3.1c0-1.8-1-3.2-3.7-3.2c-3.9,0-5.6,1.7-6.3,4.9h-3.9
			c1-4.9,4.8-7.7,10.2-7.7C1149.4,44.8,1151.6,47.1,1151.6,50.5z M1146.4,59.7l0.4-2.4c-6-0.7-11.3,1-11.3,5.4c0,2.3,1.6,3.5,4,3.5
			C1142.4,66.2,1145.8,63.4,1146.4,59.7z"/>
		<path d="M1159.8,65.7c0,1.8-1.5,3.3-3.3,3.3c-1.2,0.1-2.2-0.8-2.3-2c0-0.1,0-0.2,0-0.3c0-1.8,1.4-3.3,3.3-3.3l0,0
			c1.2-0.1,2.2,0.8,2.4,2C1159.8,65.5,1159.8,65.6,1159.8,65.7z M1156.2,60.6l3.8-22.2h4.4l-4.9,22.2H1156.2z"/>
		<path d="M1124.8,175.2l-3.8,22.2h-4.4l4.9-22.2H1124.8z M1121.2,170.1c0-1.8,1.4-3.3,3.3-3.3l0,0c1.2-0.1,2.2,0.8,2.3,2
			c0,0.1,0,0.2,0,0.3c0,1.8-1.5,3.3-3.3,3.3l0,0c-1.2,0.1-2.2-0.8-2.3-2C1121.2,170.3,1121.2,170.2,1121.2,170.1L1121.2,170.1z"/>
		<path d="M1154.3,190.4h-3.7l2.3-13.1h-16.5l-2.3,13.1h-3.7l5.3-30h3.7l-2.4,13.8h16.5l2.4-13.8h3.7L1154.3,190.4z"/>
		<path d="M1184.2,176.9c0,6.2-3.9,14.1-13.3,14.1c-7.1,0-9.9-4.9-9.9-10.2c0-6.2,3.9-14.1,13.3-14.1
			C1181.4,166.8,1184.2,171.7,1184.2,176.9z M1180.1,177c0-4.1-1.9-7.4-6.3-7.4c-5.8,0-8.7,5.9-8.7,11.1c0,4.1,1.9,7.4,6.3,7.4
			C1177.1,188.2,1180.1,182.3,1180.1,177L1180.1,177z"/>
		<path d="M1191.3,183.8c-0.2,0.7-0.3,1.5-0.3,2.3c0,1.5,0.8,1.8,2.5,1.6l-0.5,2.8c-0.9,0.1-1.8,0.2-2.7,0.2c-2,0-3.3-0.6-3.3-2.8
			c0.1-1.3,0.3-2.6,0.6-3.8l4.5-25.5h3.7L1191.3,183.8z"/>
		<path d="M1217.6,172.5c0,1.2-0.2,2.3-0.4,3.4l-1.5,8.7c-0.3,1.9-0.5,3.9-0.6,5.9h-3.7l0.2-3.3l-1.7,2.1c-1.4,1.4-3.4,1.8-6,1.8
			c-3.2,0-6.3-1.9-6.3-6c0-6.7,6.9-9.2,15.9-8.5l0.1-0.6c0.2-1,0.4-2.1,0.4-3.1c0-1.8-1-3.2-3.7-3.2c-3.9,0-5.6,1.7-6.3,4.9h-3.9
			c1-4.9,4.8-7.7,10.2-7.7C1215.4,166.8,1217.6,169.1,1217.6,172.5z M1212.4,181.7l0.4-2.4c-6-0.6-11.3,1-11.3,5.4
			c0,2.3,1.6,3.5,4,3.5C1208.4,188.2,1211.8,185.4,1212.4,181.7z"/>
		<path d="M1225.8,187.7c0,1.8-1.5,3.3-3.3,3.3l0,0c-1.2,0.1-2.2-0.8-2.3-2c0-0.1,0-0.2,0-0.3c0-1.8,1.4-3.3,3.3-3.3l0,0
			c1.2-0.1,2.2,0.8,2.4,2C1225.8,187.5,1225.8,187.6,1225.8,187.7z M1222.2,182.6l3.8-22.2h4.4l-4.9,22.2H1222.2z"/>
		<path class="st20" d="M1071.6,178.7c-1.1-0.5-1.6-1.5-1.2-2.2l3.9,1.9C1073.9,179.1,1072.7,179.3,1071.6,178.7z"/>
		<path d="M1069.5,167.9c-0.2,0.5,0,1.2,0.6,1.4l0,0c0.6,0.2,1.2,0,1.4-0.6c0.2-0.6,0-1.2-0.6-1.4
			C1070.4,167.1,1069.7,167.3,1069.5,167.9L1069.5,167.9z"/>
		<path d="M1076.9,169.4c-0.2,0.5,0,1.2,0.6,1.4c0.5,0.2,1.2,0,1.4-0.6c0.2-0.5,0-1.2-0.6-1.4
			C1077.8,168.6,1077.2,168.9,1076.9,169.4z"/>
		<path d="M1072.4,166.8c-0.1,0-0.2,0-0.3-0.1c-0.3-0.4-0.7-0.6-1.2-0.7c-0.5,0-1,0.2-1.3,0.5c-0.2,0.1-0.4,0.1-0.5,0
			s-0.1-0.4,0-0.5c0.5-0.5,1.2-0.7,1.9-0.7c0.7,0.1,1.3,0.5,1.7,1c0.1,0.2,0.1,0.4-0.1,0.5C1072.5,166.8,1072.4,166.9,1072.4,166.8
			L1072.4,166.8z"/>
		<path d="M1079.8,168.5c-0.1,0-0.2-0.1-0.3-0.1c-0.3-0.4-0.7-0.6-1.2-0.7c-0.5,0-1,0.2-1.3,0.5c-0.1,0.1-0.4,0.1-0.5,0
			s-0.1-0.4,0-0.5l0,0c0.5-0.5,1.2-0.7,1.9-0.7c0.7,0.1,1.3,0.5,1.7,1c0.1,0.2,0.1,0.4-0.1,0.5l0,0
			C1079.9,168.4,1079.9,168.5,1079.8,168.5z"/>
		<path class="st20" d="M1076.7,169.5c-0.1,0.2,0,0.5,0.2,0.5s0.5,0,0.5-0.2c0.1-0.2,0-0.4-0.2-0.5
			C1077.1,169.2,1076.8,169.3,1076.7,169.5z"/>
		<path class="st20" d="M1069.2,168.1c-0.1,0.2,0,0.5,0.2,0.5c0.2,0.1,0.5,0,0.5-0.2c0.1-0.2,0-0.5-0.2-0.5
			C1069.5,167.8,1069.3,167.9,1069.2,168.1L1069.2,168.1z"/>
		<path d="M1079.5,170c-0.1,0-0.2-0.1-0.2-0.1c-0.5-0.8-1.6-1.1-2.4-0.5l0,0c-0.1,0.1-0.3,0-0.4-0.1s0-0.3,0.1-0.4l0,0
			c1.1-0.7,2.5-0.3,3.2,0.7c0.1,0.1,0,0.3-0.1,0.4l0,0C1079.6,170,1079.5,170,1079.5,170z"/>
		<path d="M1072.1,168.4c-0.1,0-0.2,0-0.2-0.1c-0.5-0.8-1.6-1.1-2.4-0.6l0,0c-0.1,0.1-0.3,0-0.4-0.1s0-0.3,0.1-0.4
			c1.1-0.7,2.5-0.3,3.2,0.7l0,0c0.1,0.1,0,0.3-0.1,0.4l0,0C1072.2,168.3,1072.2,168.4,1072.1,168.4z"/>
		<path class="st47" d="M1074.6,168.5l0.3,4.4c0,0.3,0,0.7,0.2,1c0.1,0.2,0.2,0.4,0.2,0.6c0.1,0.2,0.1,0.4,0,0.6
			c-0.2,0.4-0.8,0.4-1.2,0.3c-0.4-0.1-0.7-0.4-0.8-0.9c-0.1-0.4-0.5-0.3-0.5,0c0.2,0.9,1,1.6,2,1.4c0.1,0,0.1,0,0.2,0
			c0.7-0.2,1-0.8,0.8-1.6c-0.1-0.3-0.2-0.5-0.3-0.8l-0.1-0.1c0.2-0.2,0,0.2,0,0.1v-0.1l-0.2-2.6l-0.1-2.4
			C1075.1,168,1074.6,168.1,1074.6,168.5L1074.6,168.5z"/>
		<path d="M1198.5,44.9c0.7,0,1.3,0.3,1.8,0.7c0.4,0.3,0.4,0.8,0.1,1.2l-0.1,0.1l0,0c-0.3,0.3-0.8,0.3-1.1,0
			c-0.2-0.2-0.5-0.3-0.8-0.3c-0.5,0-1,0.2-1.4,0.6l-0.6-0.6l0.6,0.6l-0.5-0.5c-0.3-0.3-0.3-0.9,0-1.2c0.1-0.1,0.1-0.1,0.2-0.2
			C1197.3,45,1197.9,44.9,1198.5,44.9z"/>
		<path d="M1207.5,45.9c0.7,0,1.3,0.3,1.8,0.7c0.4,0.3,0.4,0.8,0.1,1.2l-0.1,0.1l0,0c-0.3,0.3-0.8,0.3-1.1,0
			c-0.2-0.2-0.5-0.3-0.8-0.3c-0.5,0-1,0.2-1.4,0.6l-0.6-0.6l0.6,0.6l-0.5-0.5c-0.3-0.3-0.3-0.9,0-1.2c0.1-0.1,0.1-0.1,0.2-0.2
			C1206.3,46.1,1206.9,45.9,1207.5,45.9z"/>
		<path d="M1208.9,50.3c0.1,0.6-0.3,1.1-0.8,1.2l0,0c-0.6,0.1-1.1-0.3-1.2-0.9c-0.1-0.6,0.3-1.1,0.9-1.2
			C1208.2,49.4,1208.8,49.7,1208.9,50.3L1208.9,50.3z"/>
		<path d="M1199.3,49.8c0.1,0.6-0.3,1.1-0.9,1.2s-1.1-0.3-1.2-0.9c-0.1-0.6,0.3-1.1,0.9-1.2l0,0
			C1198.7,48.8,1199.2,49.2,1199.3,49.8z"/>
		<path class="st20" d="M1199.5,49.9c0,0.2-0.1,0.4-0.3,0.5l0,0c-0.2,0-0.4-0.1-0.5-0.3l0,0c0-0.2,0.1-0.4,0.3-0.5l0,0
			C1199.3,49.5,1199.5,49.6,1199.5,49.9z"/>
		<path class="st20" d="M1209.1,50.6c0,0.2-0.1,0.4-0.3,0.5c-0.2,0-0.4-0.1-0.5-0.3l0,0c0-0.2,0.1-0.4,0.3-0.5
			S1209.1,50.4,1209.1,50.6L1209.1,50.6z"/>
		<path d="M1196.7,49.7c0.1,0,0.2,0,0.3-0.1c0.7-0.7,1.8-0.7,2.4,0l0,0c0.1,0.1,0.3,0.1,0.4,0s0.1-0.3,0-0.4c-0.9-0.9-2.4-0.9-3.3,0
			l0,0c-0.1,0.1-0.1,0.3,0,0.4l0,0L1196.7,49.7z"/>
		<path d="M1206.2,50.2c0.1,0,0.2,0,0.3-0.1c0.7-0.7,1.8-0.7,2.4,0l0,0c0.1,0.1,0.3,0.1,0.4,0l0,0c0.1-0.1,0.1-0.3,0-0.4l0,0
			c-0.9-0.9-2.4-0.9-3.3,0c-0.1,0.1-0.1,0.3,0,0.4C1206.1,50.2,1206.2,50.2,1206.2,50.2z"/>
		<path class="st47" d="M1201.8,49.4l-1.2,4.2c-0.1,0.4-0.2,0.7-0.4,1c-0.1,0.2-0.3,0.4-0.3,0.6c-0.1,0.2-0.2,0.4-0.1,0.6
			c0.1,0.4,0.7,0.5,1.1,0.5s0.8-0.3,1-0.7c0-0.1,0.2-0.2,0.3-0.1c0.1,0,0.2,0.2,0.1,0.3c-0.2,0.5-0.6,0.9-1.2,1
			c-0.4,0.1-0.9,0.1-1.2-0.2c-0.6-0.3-0.8-1.1-0.5-1.6c0,0,0-0.1,0.1-0.1c0.1-0.2,0.3-0.5,0.4-0.7l0.2-0.2c-0.1-0.2-0.1,0.2-0.1,0.1
			V54l0.7-2.5l0.7-2.3C1201.4,48.8,1201.9,49,1201.8,49.4L1201.8,49.4z"/>
	</g>
</g>
</svg>
