<?xml version="1.0" encoding="utf-8"?>
<!-- Generator: Adobe Illustrator 25.4.1, SVG Export Plug-In . SVG Version: 6.00 Build 0)  -->
<svg version="1.1" id="Layer_1" xmlns:serif="http://www.serif.com/"
	 xmlns="http://www.w3.org/2000/svg" xmlns:xlink="http://www.w3.org/1999/xlink" x="0px" y="0px" viewBox="0 0 1360.6 1700.8"
	 style="enable-background:new 0 0 1360.6 1700.8;" xml:space="preserve">
<style type="text/css">
	.st0{fill:none;}
	.st1{clip-path:url(#SVGID_00000163781475120144171050000015609157525963964308_);}
	.st2{fill-rule:evenodd;clip-rule:evenodd;fill:#92C846;}
	.st3{fill:url(#SVGID_00000102524858272906900990000010043934992293161378_);}
	.st4{fill:#009DC2;}
	.st5{fill:#00D5FC;}
	.st6{fill:url(#SVGID_00000091001377333026155380000011268425347623435693_);}
	.st7{fill:url(#SVGID_00000058566649124950763650000001077755874796160908_);}
	.st8{fill:#FFFFFF;}
	.st9{fill:url(#SVGID_00000182527626416541558250000001076405415555560891_);}
	.st10{fill:url(#SVGID_00000007412989962909844490000015520512714285804451_);}
	.st11{fill:url(#SVGID_00000068676905406325208280000011816615031694975635_);}
	.st12{fill:url(#SVGID_00000097477547761503367210000003613203729686450567_);}
	.st13{fill:url(#SVGID_00000025402165766462430520000000629826270592657304_);}
	.st14{fill:url(#SVGID_00000126296208340571362820000000838357531685513406_);}
	.st15{fill:url(#SVGID_00000171700876899766258100000001991641326776540576_);}
	.st16{fill:url(#SVGID_00000112608704830181110660000013650499795862962059_);}
	.st17{fill:url(#SVGID_00000164475151065811230780000005726903865694629035_);}
	.st18{fill:#E58761;}
	.st19{fill:url(#SVGID_00000132810779176903048000000011059342450638606762_);}
	.st20{fill:url(#SVGID_00000000211668789624886450000016088024195514478235_);}
</style>
<g id="Artboard1" transform="matrix(0.978234,0,0,0.97942,12.2902,-511.708)">
	<rect x="-12.6" y="1133.1" class="st0" width="1390.1" height="514.6"/>
	<g>
		<g>
			<defs>
				<rect id="SVGID_1_" x="17.4" y="1143.6" width="1330.2" height="493.6"/>
			</defs>
			<clipPath id="SVGID_00000019650204690914388040000001894098827923367320_">
				<use xlink:href="#SVGID_1_"  style="overflow:visible;"/>
			</clipPath>
			<g style="clip-path:url(#SVGID_00000019650204690914388040000001894098827923367320_);">
				<g transform="matrix(1.02225,0,0,1.02101,-12.0414,-14.0458)">
					<rect x="0.1" y="1404.6" class="st2" width="1363" height="224.1"/>
				</g>
				<g transform="matrix(1.02225,0,0,1.02101,-12.0414,-14.0458)">
					
						<linearGradient id="SVGID_00000120539357084831247790000016717084352672874160_" gradientUnits="userSpaceOnUse" x1="-1.0218" y1="1.647243e-02" x2="-2.179328e-02" y2="1.647243e-02" gradientTransform="matrix(16.9781 -98.8722 98.8725 16.9781 1288.7576 1190.5193)">
						<stop  offset="0" style="stop-color:#FCDEB3"/>
						<stop  offset="0.21" style="stop-color:#FBD59D"/>
						<stop  offset="0.49" style="stop-color:#FACB87"/>
						<stop  offset="0.75" style="stop-color:#F9C67A"/>
						<stop  offset="1" style="stop-color:#F9C476"/>
					</linearGradient>
					<path style="fill:url(#SVGID_00000120539357084831247790000016717084352672874160_);" d="M1276.9,1271.3
						c0,0.8-0.3,6.6-0.9,15.3l28.6-1.5c-0.9-4.5-1.5-8.3-1.9-11.1c-2.6-19.4,4.9-26.8,6.8-38.4s17.8-22.8,14.7-25.8
						c-3.1-3-15.8,15.6-20.2,15.1c-4.3-0.5,8.1-26.8,5.2-29.1c-5.4-4.3-15.3,28.1-17.9,26.3s6.1-35.5-0.5-34.2s-5.5,35.5-9.3,34.9
						c-3.8-0.5,1.8-32.2-5.8-34.8c-4.1-1.4-2.9,54.6-7.7,59c-4.8,4.5-17.9-14.3-22.7-11.2C1240.4,1239.1,1277,1267.8,1276.9,1271.3z
						"/>
				</g>
				<g transform="matrix(1.02225,0,0,1.02101,-12.0414,-14.0458)">
					<path class="st4" d="M423.1,1453l14.5-0.8h0.1c1.1,0,2,0.9,2,2v0.1l-0.4,13.3c0,1-0.9,1.9-2,1.9h-0.1l-13.8-0.7
						c-1-0.1-1.7-0.9-1.7-1.9l-0.3-12C421.4,1454,422.1,1453.1,423.1,1453z"/>
				</g>
				<g transform="matrix(1.02225,0,0,1.02101,-12.0414,-14.0458)">
					<path class="st5" d="M506.8,1481.7l14.5-0.8h0.1c1.1,0,2,0.9,2,2v0.1l-0.4,13.3c0,1-0.9,1.9-2,1.9h-0.1l-13.8-0.7
						c-1-0.1-1.7-0.9-1.7-1.9l-0.3-12C505.1,1482.7,505.8,1481.8,506.8,1481.7z"/>
				</g>
				<g transform="matrix(1.02225,0,0,1.02101,-12.0414,-14.0458)">
					<path class="st5" d="M632.6,1474l26.8-1.4c0.1,0,0.2,0,0.3,0c2,0,3.6,1.6,3.6,3.6c0,0.1,0,0.1,0,0.2l-0.7,24.6
						c-0.1,1.9-1.7,3.5-3.6,3.5c-0.1,0-0.2,0-0.3,0l-25.5-1.2c-1.8-0.2-3.2-1.6-3.2-3.4l-0.6-22.1
						C629.3,1475.9,630.7,1474.2,632.6,1474z"/>
				</g>
				<g transform="matrix(1.02225,0,0,1.02101,-12.0414,-14.0458)">
					
						<linearGradient id="SVGID_00000128476092070641374640000005539695241380171170_" gradientUnits="userSpaceOnUse" x1="-1.0218" y1="37.6858" x2="-2.179328e-02" y2="37.6858" gradientTransform="matrix(4.546129e-15 74.2437 -74.2439 4.546119e-15 3170.2314 9472.0898)">
						<stop  offset="0" style="stop-color:#99CA2F"/>
						<stop  offset="0.13" style="stop-color:#8FC62E"/>
						<stop  offset="0.34" style="stop-color:#74BC2D"/>
						<stop  offset="0.62" style="stop-color:#48AC2B"/>
						<stop  offset="0.94" style="stop-color:#0B9628"/>
						<stop  offset="1" style="stop-color:#009227"/>
					</linearGradient>
					<path style="fill:url(#SVGID_00000128476092070641374640000005539695241380171170_);" d="M368.6,1498.1l7.2-0.4l0,0
						c0.6,0,1,0.5,1,1v0.1l-0.2,7.3l0,0c0,0.6-0.5,1-1,1l0,0l-6.8-0.4c-0.5-0.1-0.9-0.5-0.8-1l-0.2-6.5
						C367.7,1498.7,368.1,1498.2,368.6,1498.1z"/>
				</g>
				<g transform="matrix(1.02225,0,0,1.02101,-12.0414,-14.0458)">
					<path class="st4" d="M583.9,1434.7l7.9-0.4c0,0,0,0,0.1,0c0.6,0,1.1,0.5,1.1,1.1c0,0,0,0,0,0.1l-0.2,7.3c0,0.6-0.5,1-1.1,1
						c0,0,0,0-0.1,0l-7.5-0.4c-0.5,0-0.9-0.5-0.9-1l-0.2-6.5C582.9,1435.2,583.3,1434.8,583.9,1434.7z"/>
				</g>
				<g transform="matrix(1.02225,0,0,1.02101,-12.0414,-14.0458)">
					
						<linearGradient id="SVGID_00000178913300336574275530000007136536700927263411_" gradientUnits="userSpaceOnUse" x1="-1.0218" y1="2.529039e-02" x2="-2.179328e-02" y2="2.529039e-02" gradientTransform="matrix(-198.1641 15.8531 -15.8531 -198.1637 1129.7668 1463.9177)">
						<stop  offset="0" style="stop-color:#2B3582"/>
						<stop  offset="1" style="stop-color:#150E42"/>
					</linearGradient>
					<path style="fill:url(#SVGID_00000178913300336574275530000007136536700927263411_);" d="M1305.3,1266.9l-34.5,5.3l8.8,106.3
						c0,0-46.2,43.6-52,46.7c-9.6,5.2-47.8,10-47.8,10s0.9,0.2,1.2,0.2c3.2,0.3,9.1,113.3,9.6,155.6c0.2,15.8-0.3,28.2-1,37.6h42.6
						c2.1-55.4,4.8-124.9,9.1-133.4c12.6-24.9,80.5-85.2,85.9-99C1332.5,1383.1,1305.3,1266.9,1305.3,1266.9z"/>
				</g>
				<g transform="matrix(1.02225,0,0,1.02101,-12.0414,-14.0458)">
					<path class="st8" d="M124.3,1629H92.8l-0.2-1.7c-0.8-5.8-1.1-11.8-1.3-25.7c0-9.6-2.9-14.7-8.7-15c-2.9-0.2-5.6-0.2-8.5-0.2
						h-8.2l-7.5,42.6H29.8l19.9-112.3h42.8c5.5-0.1,11,0.2,16.4,0.8c16.6,1.9,26.1,11.2,26.1,25.5c0,16-8.5,27.2-24.6,32.7
						c7.8,5.5,9.6,16.3,9.6,31.2c0,8.4,1,14.6,3.1,19.3L124.3,1629z M69.6,1564.4h10.8c3.3,0,5.9,0,8.2-0.1
						c10.3-0.9,15.5-6,15.5-15.2c0-5.6-3-8.4-9.8-9c-2.1-0.1-4.8-0.3-8.1-0.3H74L69.6,1564.4z"/>
				</g>
				<g transform="matrix(1.02225,0,0,1.02101,-12.0414,-14.0458)">
					<path class="st8" d="M217,1629h-84.3l19.9-112.3h82.7l-4.2,23.1h-54.2l-3.7,21.4H224l-4.2,23.1h-50.7l-3.7,21.5h55.8L217,1629z
						"/>
				</g>
				<g transform="matrix(1.02225,0,0,1.02101,-12.0414,-14.0458)">
					<path class="st8" d="M278,1631.2c-26.7,0-42.7-17.2-42.7-46c0-46.5,33.9-70.8,67.5-70.8c15.3,0,27.4,4.2,34.8,12.2
						c6.4,6.9,9.3,16.3,8.5,27.5l-0.3,3.4h-28.4v-3.6c-0.1-12-5.7-17.4-17.9-17.4c-16.8,0-33.9,15.7-33.9,45.8
						c0,16.9,7.3,26.6,20,26.6c11,0,19.8-6.1,25-17.3h-21.5l4.2-23.1h49.5l-10.8,60.3h-23.3l0.7-11l-3,4.8
						C299.1,1628.6,290.4,1631.2,278,1631.2z"/>
				</g>
				<g transform="matrix(1.02225,0,0,1.02101,-12.0414,-14.0458)">
					<path class="st8" d="M379.9,1629h-28.5l19.9-112.3h28.5L379.9,1629z"/>
				</g>
				<g transform="matrix(1.02225,0,0,1.02101,-12.0414,-14.0458)">
					<path class="st8" d="M438,1631.2c-15.5,0-27.5-4.1-34.7-12c-5.7-6.3-8.2-14.7-7.2-24.9l0.2-1.8h28.6v1.9
						c0.1,9.1,6.1,14.6,15.9,14.6c9.6,0,16.3-5.1,16.3-12.3c0-5.5-5.4-9.7-16-12.6c-16.4-4.2-33.2-11-33.2-30.3
						c0-25.8,23.4-39.3,46.6-39.3c13.4,0,23.6,3.6,30.3,10.6c6,6.3,8.8,15.4,8.2,26.1l-0.1,1.9h-28.8l0.1-2.1c0.3-4.8-0.7-8.6-3-11
						s-5.3-3.4-9.5-3.4c-8.4,0-13.4,4.4-13.4,11.7c0,4.2,2.3,8.6,18.9,12.6c20.1,4.9,30.2,15.4,30.2,31.1
						C487.5,1618.9,461.9,1631.2,438,1631.2z"/>
				</g>
				<g transform="matrix(1.02225,0,0,1.02101,-12.0414,-14.0458)">
					<path class="st8" d="M549.6,1629h-28.5l15.7-89.2h-36.2l4.2-23.1h100.8l-4.4,23.1h-36L549.6,1629z"/>
				</g>
				<g transform="matrix(1.02225,0,0,1.02101,-12.0414,-14.0458)">
					<path class="st8" d="M686.9,1629h-31.4l-0.3-1.7c-0.8-5.8-1.1-11.8-1.3-25.7c0-9.6-2.9-14.7-8.7-15c-2.9-0.2-5.6-0.2-8.5-0.2
						h-8.2L621,1629h-28.5l19.8-112.3h42.8c5.5-0.1,11,0.2,16.4,0.8c16.6,1.9,26.1,11.2,26.1,25.5c0,16-8.5,27.2-24.6,32.7
						c7.8,5.5,9.5,16.3,9.5,31.2c0,8.4,1,14.6,3.1,19.3L686.9,1629z M632.3,1564.4H643c3.4,0,5.9,0,8.2-0.1
						c7.1-0.6,15.5-3.8,15.5-15.2c0-5.6-3-8.4-9.8-9c-2.1-0.1-4.8-0.3-8.1-0.3h-12.1L632.3,1564.4z"/>
				</g>
				<g transform="matrix(1.02225,0,0,1.02101,-12.0414,-14.0458)">
					<path class="st8" d="M798.2,1629h-30.8l-4.4-30.6h-32.9l-15.2,30.6H684l59.6-112.3h35L798.2,1629z M741.8,1575.1h17.8l-4-27.7
						L741.8,1575.1z"/>
				</g>
				<polygon class="st8" points="855.2,1649.2 826.1,1649.2 842.2,1558.1 805.2,1558.1 809.5,1534.5 912.6,1534.5 908.1,1558.1 
					871.3,1558.1 				"/>
				<polygon class="st8" points="985.2,1649.2 899,1649.2 919.3,1534.5 1003.9,1534.5 999.6,1558.1 944.2,1558.1 940.4,1580 
					992.3,1580 988,1603.5 936.2,1603.5 932.4,1625.5 989.5,1625.5 				"/>
				<g transform="matrix(1.02225,0,0,1.02101,-12.0414,-14.0458)">
					<path class="st5" d="M1020.4,1136.1l226.6-11.8c0.7,0,1.3-0.1,2-0.1c16.9,0,30.8,13.9,30.8,30.8c0,0.5,0,0.9,0,1.4l-5.9,208.4
						c-0.5,17-15.2,30-32.7,29.2l-215.2-10.6c-14.6-0.7-26.6-13.7-27.1-29l-5.2-186.6C993.2,1151.1,1005.1,1136.8,1020.4,1136.1z"/>
				</g>
				<g transform="matrix(1.02225,0,0,1.02101,-12.0414,-14.0458)">
					<path class="st8" d="M1048.9,1239.5c0,36.8,28.8,59.6,72,82.5c2.8,1.4,6.1,1.4,8.9,0c25.1-13.3,41.3-24.5,52.4-36.1
						c13.2-13.8,19.6-29,19.6-46.4c0-27.5-17.9-44.2-35.6-48.5c-3.5-0.8-7-1.3-10.6-1.3c-9.9,0-19.5,3.4-27.2,9.8l-2.9,2.4l-3-2.4
						c-9.9-8.2-23.4-11.1-36.8-8.2C1067.4,1195.4,1048.9,1211.9,1048.9,1239.5z M1067.8,1239.5c0-18.3,12-27.4,22.1-29.7
						c8.8-1.9,21.1,0.1,26.8,12.4c1.5,3.3,4.8,5.4,8.4,5.5c3.6,0,6.9-1.9,8.6-5.1c4.5-8.8,12.5-13.9,21.9-13.9c2,0,4.1,0.2,6.1,0.7
						c10.2,2.5,21.1,11.7,21.1,30c0,23.1-15,40-55.2,62.2l-2.2,1.2l-2.2-1.2C1082.8,1279.4,1067.8,1262.6,1067.8,1239.5z"/>
				</g>
				<g transform="matrix(1.02225,0,0,1.02101,-12.0414,-14.0458)">
					<path class="st8" d="M782.2,1460l2.6,1.2c0.1,0,0.2,0.1,0.3,0.1c0.3,0,0.6-0.2,0.7-0.5c0.2-0.4,0-0.9-0.4-1.1l-2.6-1.2
						c-0.4-0.2-0.9,0-1.1,0.4c0,0.1-0.1,0.2-0.1,0.3C781.7,1459.6,781.9,1459.9,782.2,1460L782.2,1460z"/>
				</g>
				<g transform="matrix(1.02225,0,0,1.02101,-12.0414,-14.0458)">
					<path class="st8" d="M790.7,1464l2.5,1.3c0.1,0.1,0.3,0.1,0.4,0.1c0.5,0,0.8-0.4,0.8-0.8c0-0.3-0.2-0.6-0.5-0.8l-2.5-1.3
						c-0.1-0.1-0.2-0.1-0.4-0.1c-0.3,0-0.6,0.2-0.7,0.4c-0.1,0.1-0.1,0.2-0.1,0.4C790.2,1463.6,790.4,1463.9,790.7,1464L790.7,1464z
						"/>
				</g>
				<g transform="matrix(1.02225,0,0,1.02101,-12.0414,-14.0458)">
					<path class="st8" d="M798.9,1468.6l2.4,1.4c0.1,0.1,0.2,0.1,0.4,0.1c0.5,0,0.8-0.4,0.8-0.8c0-0.3-0.1-0.5-0.3-0.7l-2.4-1.4
						c-0.1-0.1-0.3-0.1-0.5-0.1c-0.5,0-0.8,0.4-0.8,0.8C798.5,1468.1,798.7,1468.4,798.9,1468.6L798.9,1468.6z"/>
				</g>
				<g transform="matrix(1.02225,0,0,1.02101,-12.0414,-14.0458)">
					<path class="st8" d="M806.8,1473.5l2.3,1.6c0.1,0.1,0.3,0.2,0.5,0.2c0.5,0,0.9-0.4,0.9-0.9c0-0.3-0.1-0.6-0.4-0.7l-2.4-1.6
						c-0.2-0.1-0.4-0.2-0.6-0.2c-0.5,0-0.9,0.4-0.9,0.9C806.3,1473.1,806.5,1473.4,806.8,1473.5L806.8,1473.5z"/>
				</g>
				<g transform="matrix(1.02225,0,0,1.02101,-12.0414,-14.0458)">
					<path class="st8" d="M814.4,1479l2.2,1.7c0.4,0.3,0.9,0.2,1.2-0.2c0.3-0.4,0.2-0.9-0.2-1.2l-2.2-1.8c-0.2-0.1-0.3-0.2-0.5-0.2
						c-0.5,0-0.9,0.4-0.9,0.9C814.1,1478.5,814.2,1478.8,814.4,1479L814.4,1479z"/>
				</g>
				<g transform="matrix(1.02225,0,0,1.02101,-12.0414,-14.0458)">
					<path class="st8" d="M821.7,1484.8l2.1,1.8c0.2,0.1,0.4,0.2,0.6,0.2c0.5,0,0.9-0.4,0.9-0.9c0-0.3-0.1-0.5-0.3-0.7l-2.2-1.9
						c-0.2-0.1-0.4-0.2-0.6-0.2c-0.5,0-0.9,0.4-0.9,0.9C821.4,1484.4,821.5,1484.6,821.7,1484.8L821.7,1484.8z"/>
				</g>
				<g transform="matrix(1.02225,0,0,1.02101,-12.0414,-14.0458)">
					<path class="st8" d="M828.7,1491.1l2,2c0.2,0.2,0.4,0.3,0.6,0.3c0.5,0,0.9-0.4,0.9-0.9c0-0.2-0.1-0.5-0.3-0.7l-2-2
						c-0.2-0.2-0.4-0.3-0.6-0.3s-0.5,0.1-0.6,0.3c-0.2,0.2-0.3,0.4-0.3,0.6C828.4,1490.7,828.5,1490.9,828.7,1491.1L828.7,1491.1z"
						/>
				</g>
				<g transform="matrix(1.02225,0,0,1.02101,-12.0414,-14.0458)">
					<path class="st8" d="M835.3,1497.8l1.9,2.1c0.2,0.1,0.4,0.2,0.6,0.2c0.5,0,0.9-0.4,0.9-0.9c0-0.2,0-0.3-0.1-0.4l-1.9-2.1
						c-0.2-0.2-0.4-0.3-0.7-0.3c-0.5,0-0.9,0.4-0.9,0.9C835,1497.4,835.1,1497.6,835.3,1497.8L835.3,1497.8z"/>
				</g>
				<g transform="matrix(1.02225,0,0,1.02101,-12.0414,-14.0458)">
					<path class="st8" d="M841.5,1504.7l1.8,2.2c0.2,0.3,0.5,0.5,0.8,0.5c0.5,0,1-0.4,1-1c0-0.3-0.1-0.5-0.3-0.7l-1.8-2.2
						c-0.3-0.4-0.9-0.4-1.3-0.1C841.2,1503.8,841.1,1504.4,841.5,1504.7L841.5,1504.7z"/>
				</g>
				<g transform="matrix(1.02225,0,0,1.02101,-12.0414,-14.0458)">
					<path class="st8" d="M847.3,1512.1l1.7,2.3c0.2,0.2,0.5,0.4,0.8,0.4c0.5,0,1-0.4,1-1c0-0.2-0.1-0.4-0.2-0.6l-1.7-2.3
						c-0.2-0.2-0.5-0.4-0.8-0.4c-0.5,0-1,0.4-1,1C847.1,1511.7,847.2,1511.9,847.3,1512.1L847.3,1512.1z"/>
				</g>
				<g transform="matrix(1.02225,0,0,1.02101,-12.0414,-14.0458)">
					<path class="st8" d="M852.7,1519.7l1.5,2.4c0.2,0.3,0.5,0.5,0.9,0.5c0.5,0,1-0.4,1-1c0-0.2-0.1-0.4-0.2-0.6l-1.6-2.4
						c-0.2-0.3-0.5-0.4-0.8-0.4c-0.2,0-0.4,0.1-0.5,0.2c-0.3,0.2-0.4,0.5-0.4,0.8C852.5,1519.4,852.6,1519.5,852.7,1519.7
						L852.7,1519.7z"/>
				</g>
				<g transform="matrix(1.02225,0,0,1.02101,-12.0414,-14.0458)">
					<path class="st8" d="M857.7,1527.6l1.4,2.4c0.2,0.3,0.5,0.5,0.9,0.5c0.2,0,0.4,0,0.5-0.1c0.3-0.2,0.5-0.5,0.5-0.9
						c0-0.2,0-0.4-0.1-0.5l-1.4-2.5c-0.2-0.3-0.5-0.5-0.9-0.5c-0.2,0-0.4,0-0.5,0.1c-0.3,0.2-0.5,0.5-0.5,0.9
						C857.5,1527.2,857.6,1527.4,857.7,1527.6L857.7,1527.6z"/>
				</g>
				<g transform="matrix(1.02225,0,0,1.02101,-12.0414,-14.0458)">
					<path class="st8" d="M862.2,1535.8l1.3,2.5c0.2,0.3,0.5,0.6,0.9,0.6c0.2,0,0.3,0,0.5-0.1c0.5-0.3,0.7-0.9,0.5-1.4l-1.3-2.5
						c-0.2-0.3-0.5-0.5-0.9-0.5c-0.6,0-1,0.5-1,1C862.2,1535.5,862.2,1535.7,862.2,1535.8L862.2,1535.8z"/>
				</g>
				<g transform="matrix(1.02225,0,0,1.02101,-12.0414,-14.0458)">
					<path class="st8" d="M866.3,1544.3l1.1,2.6c0.2,0.5,0.9,0.8,1.4,0.5c0.4-0.2,0.6-0.5,0.6-1c0-0.1,0-0.3-0.1-0.4l-1.2-2.6
						c-0.2-0.5-0.8-0.8-1.4-0.5C866.2,1543.1,866,1543.7,866.3,1544.3L866.3,1544.3z"/>
				</g>
				<g transform="matrix(1.02225,0,0,1.02101,-12.0414,-14.0458)">
					<path class="st8" d="M869.9,1552.9l1,2.6c0.2,0.4,0.5,0.7,1,0.7c0.6,0,1.1-0.5,1.1-1.1c0-0.1,0-0.2-0.1-0.4l-1-2.7
						c-0.2-0.4-0.5-0.7-1-0.7c-0.6,0-1.1,0.5-1.1,1.1C869.8,1552.6,869.8,1552.8,869.9,1552.9L869.9,1552.9z"/>
				</g>
				<g transform="matrix(1.02225,0,0,1.02101,-12.0414,-14.0458)">
					<path class="st8" d="M872.9,1561.7l0.8,2.7c0.2,0.6,0.8,0.9,1.3,0.7c0.6-0.2,0.9-0.8,0.7-1.4l-0.8-2.7c-0.2-0.4-0.6-0.7-1-0.7
						c-0.6,0-1.1,0.5-1.1,1.1C872.9,1561.5,872.9,1561.6,872.9,1561.7L872.9,1561.7z"/>
				</g>
				<g transform="matrix(1.02225,0,0,1.02101,-12.0414,-14.0458)">
					<path class="st8" d="M875.5,1570.7l0.7,2.7c0.1,0.5,0.5,0.9,1.1,0.9s1.1-0.5,1.1-1.1c0-0.1,0-0.2-0.1-0.4l-0.7-2.8
						c-0.1-0.5-0.6-0.8-1.1-0.8c-0.1,0-0.2,0-0.3,0C875.7,1569.5,875.4,1570.1,875.5,1570.7L875.5,1570.7z"/>
				</g>
				<g transform="matrix(1.02225,0,0,1.02101,-12.0414,-14.0458)">
					<path class="st8" d="M877.5,1579.8l0.5,2.8c0.1,0.6,0.5,1,1.1,1s1.1-0.5,1.1-1.1c0-0.1,0-0.2,0-0.2l-0.5-2.8
						c-0.1-0.6-0.5-1-1.1-1s-1.1,0.5-1.1,1.1C877.5,1579.6,877.5,1579.7,877.5,1579.8L877.5,1579.8z"/>
				</g>
				<g transform="matrix(1.02225,0,0,1.02101,-12.0414,-14.0458)">
					<path class="st8" d="M878.9,1589.1l0.3,2.8c0.1,0.5,0.6,0.9,1.1,0.9c0.6,0,1.1-0.5,1.1-1.1l0,0l-0.3-2.8c-0.1-0.6-0.6-1-1.1-1
						C879.4,1587.9,878.9,1588.4,878.9,1589.1C878.9,1588.9,878.9,1589,878.9,1589.1L878.9,1589.1z"/>
				</g>
				<g transform="matrix(1.02225,0,0,1.02101,-12.0414,-14.0458)">
					<path class="st8" d="M879.8,1598.4l0.2,2.8c0.1,0.6,0.6,1.1,1.2,1.1c0.6-0.1,1.1-0.6,1.1-1.2l-0.2-2.8c0-0.1,0-0.2,0-0.3
						c0-0.7-0.5-1.2-1.2-1.2s-1.2,0.5-1.2,1.2C879.7,1598.1,879.8,1598.2,879.8,1598.4L879.8,1598.4z"/>
				</g>
				<g transform="matrix(1.02225,0,0,1.02101,-12.0414,-14.0458)">
					<path class="st8" d="M880.2,1607.7v2.8c0,0.1,0,0.2,0,0.3c0,0.7,0.5,1.2,1.2,1.2s1.2-0.5,1.2-1.2c0-0.1,0-0.2,0-0.3v-2.8
						c0-0.1,0-0.2,0-0.3c0-0.7-0.5-1.2-1.2-1.2s-1.2,0.5-1.2,1.2C880.1,1607.5,880.1,1607.6,880.2,1607.7z"/>
				</g>
				<g transform="matrix(1.02225,0,0,1.02101,-12.0414,-14.0458)">
					<path class="st8" d="M880,1617l-0.2,2.8c0,0.6,0.5,1.1,1.1,1.2c0.6,0,1.1-0.5,1.2-1.1l0.2-2.8c-0.1-0.6-0.6-1-1.2-1
						C880.5,1616.1,880.1,1616.5,880,1617L880,1617z"/>
				</g>
				<g transform="matrix(1.02225,0,0,1.02101,-12.0414,-14.0458)">
					<path class="st8" d="M879.2,1626.4l-0.3,2.8c0,0.1-0.1,0.3-0.1,0.4c0,0.7,0.5,1.2,1.2,1.2s1.2-0.5,1.2-1.2v-0.1l0.3-2.8
						c0.1-0.6-0.4-1.2-1-1.3C879.9,1625.3,879.3,1625.7,879.2,1626.4L879.2,1626.4z"/>
				</g>
				<g transform="matrix(1.02225,0,0,1.02101,-12.0414,-14.0458)">
					<path class="st4" d="M769.3,1441.5l0.5,13.8l-9.6-5.6L769.3,1441.5z"/>
				</g>
				<g transform="matrix(1.02225,0,0,1.02101,-12.0414,-14.0458)">
					<path class="st5" d="M706.9,1435.8l38.5,31.4c0.6,0.5,1.4,0.8,2.2,0.8c1.1,0,2.1-0.5,2.8-1.4l30.1-39.9
						c0.2-0.2,0.3-0.5,0.3-0.8c0-0.8-0.6-1.4-1.4-1.4c-0.1,0-0.1,0-0.2,0L706.9,1435.8z"/>
				</g>
				<g transform="matrix(1.02225,0,0,1.02101,-12.0414,-14.0458)">
					<path class="st4" d="M769.3,1441.5l-62.4-5.7l57.6,12.2l0.3,3.8L769.3,1441.5z"/>
				</g>
				<g transform="matrix(1.02225,0,0,1.02101,-12.0414,-14.0458)">
					<path class="st4" d="M761.5,1451.7l8.2,3.6l-5.3-7.4L761.5,1451.7z"/>
				</g>
				<g transform="matrix(1.02225,0,0,1.02101,-12.0414,-14.0458)">
					
						<linearGradient id="SVGID_00000178182250045579667630000009220643605296474802_" gradientUnits="userSpaceOnUse" x1="-1.0218" y1="1.507586e-02" x2="-2.179328e-02" y2="1.507586e-02" gradientTransform="matrix(-8.0987 -101.234 101.2342 -8.0987 994.5957 1335.156)">
						<stop  offset="0" style="stop-color:#FCDEB3"/>
						<stop  offset="0.14" style="stop-color:#FBD8A5"/>
						<stop  offset="0.47" style="stop-color:#FACD8B"/>
						<stop  offset="0.77" style="stop-color:#F9C67C"/>
						<stop  offset="1" style="stop-color:#F9C476"/>
					</linearGradient>
					<path style="fill:url(#SVGID_00000178182250045579667630000009220643605296474802_);" d="M1030.1,1383.7
						c-1.5,1.6-2.9,2.4-4.4,1.7c-6-2.7-23-56-26.4-53.3c-6.4,4.9,9.1,33,5.7,34.8c-3.4,1.7-13.4-31-20.1-30
						c-6.7,0.9,12.4,30,10.6,32.5c-1.9,2.5-21.8-24.9-25.4-19.1c-2,3.1,18.3,23.9,14.3,25.8c-3.9,1.9-22-11.6-24-7.7
						c-1.9,3.8,16.7,9.2,22.3,19.6c5.5,10.4,15,15,18.9,34.2c0.5,2.8,1.1,6.6,1.8,11.1l27.5-7.8c-3.3-8-5.5-13.4-5.8-14.2
						c-0.7-1.9,7.6-15.9,13.5-27.5L1030.1,1383.7z"/>
				</g>
				<g transform="matrix(1.02225,0,0,1.02101,-12.0414,-14.0458)">
					
						<linearGradient id="SVGID_00000115478057064481784640000008747922559735689877_" gradientUnits="userSpaceOnUse" x1="-1.0218" y1="-42.3115" x2="-2.179328e-02" y2="-42.3115" gradientTransform="matrix(4003.0366 0 0 4003.0283 20425.1973 170906.3438)">
						<stop  offset="0" style="stop-color:#2B3582"/>
						<stop  offset="1" style="stop-color:#150E42"/>
					</linearGradient>
					<path style="fill:url(#SVGID_00000115478057064481784640000008747922559735689877_);" d="M1189.8,1628.8
						c0.7-9.4,1.2-21.8,1-37.6c-0.5-42.3-6.4-155.3-9.6-155.6c-0.3,0-1.2-0.2-1.2-0.2s-0.2,76.5-13.4,193.5h23.2V1628.8z"/>
				</g>
				<g transform="matrix(1.02225,0,0,1.02101,-12.0414,-14.0458)">
					
						<linearGradient id="SVGID_00000011713854398694400840000014354090096482394521_" gradientUnits="userSpaceOnUse" x1="-1.0218" y1="4.992109e-02" x2="-2.179328e-02" y2="4.992109e-02" gradientTransform="matrix(-104.1515 8.3321 -8.3321 -104.1513 1083.4022 1545.5079)">
						<stop  offset="0" style="stop-color:#FDF53F"/>
						<stop  offset="0.18" style="stop-color:#FCEF40"/>
						<stop  offset="0.44" style="stop-color:#F9DD44"/>
						<stop  offset="0.73" style="stop-color:#F3C14A"/>
						<stop  offset="1" style="stop-color:#ED9F51"/>
					</linearGradient>
					<path style="fill:url(#SVGID_00000011713854398694400840000014354090096482394521_);" d="M1189.8,1628.8
						c0.7-9.4,1.2-21.8,1-37.6c-0.5-42.3-6.4-155.3-9.6-155.6c-0.3,0-1.2-0.2-1.2-0.2s-0.2,76.5-13.4,193.5h23.2V1628.8z"/>
				</g>
				<g transform="matrix(1.02225,0,0,1.02101,-12.0414,-14.0458)">
					
						<linearGradient id="SVGID_00000070828912894080220380000008522527636198438530_" gradientUnits="userSpaceOnUse" x1="-1.0218" y1="1.001417e-02" x2="-2.179328e-02" y2="1.001417e-02" gradientTransform="matrix(-6.1924 -77.4051 77.4052 -6.1924 1154.7826 1400.848)">
						<stop  offset="0" style="stop-color:#FCDEB3"/>
						<stop  offset="1" style="stop-color:#F9A262"/>
					</linearGradient>
					<path style="fill:url(#SVGID_00000070828912894080220380000008522527636198438530_);" d="M1176.2,1401.2l3.8,34.1
						c0,0-21.7,45.1-35,40.1c-11.2-4.2-4.2-37.8-4.2-37.8s1.3-7.7,3.2-16.5c1.3-6.2,2.3-12.8,1.9-17.6
						C1144.7,1391.8,1176.2,1401.2,1176.2,1401.2z"/>
				</g>
				<g transform="matrix(1.02225,0,0,1.02101,-12.0414,-14.0458)">
					
						<linearGradient id="SVGID_00000045614824209914624680000001341769598825145995_" gradientUnits="userSpaceOnUse" x1="-1.0218" y1="0.1134" x2="-2.179328e-02" y2="0.1134" gradientTransform="matrix(-43.7243 3.4979 -3.4979 -43.7242 1127.0292 1363.1449)">
						<stop  offset="0" style="stop-color:#FCDEB3"/>
						<stop  offset="1" style="stop-color:#F9C476"/>
					</linearGradient>
					<path style="fill:url(#SVGID_00000045614824209914624680000001341769598825145995_);" d="M1140.2,1325.6c0,0-11.3,20.2-11,36.5
						s4.6,27,4.6,27l37.1-52.1L1140.2,1325.6z"/>
				</g>
				<g transform="matrix(1.02225,0,0,1.02101,-12.0414,-14.0458)">
					
						<linearGradient id="SVGID_00000009587567106191253300000003935627863764057531_" gradientUnits="userSpaceOnUse" x1="-1.0218" y1="-123.0532" x2="-2.179328e-02" y2="-123.0532" gradientTransform="matrix(122.4244 0 0 122.4241 10704.9238 16424.0273)">
						<stop  offset="0" style="stop-color:#FCDEB3"/>
						<stop  offset="1" style="stop-color:#F9C476"/>
					</linearGradient>
					<path style="fill:url(#SVGID_00000009587567106191253300000003935627863764057531_);" d="M1124.8,1359.2
						c-0.1,5.7,2.5,10.4,5.8,10.5s6.1-4.5,6.3-10.2s-2.4-10.4-5.8-10.5C1127.7,1348.9,1124.9,1353.4,1124.8,1359.2z"/>
				</g>
				<g transform="matrix(1.02225,0,0,1.02101,-12.0414,-14.0458)">
					
						<linearGradient id="SVGID_00000129925004370774775360000011084416631217349783_" gradientUnits="userSpaceOnUse" x1="-1.0218" y1="-21.0763" x2="-2.179328e-02" y2="-21.0763" gradientTransform="matrix(2956.679 0 0 2956.6729 47485.6836 63687.5156)">
						<stop  offset="0" style="stop-color:#FCDEB3"/>
						<stop  offset="1" style="stop-color:#F9C476"/>
					</linearGradient>
					<path style="fill:url(#SVGID_00000129925004370774775360000011084416631217349783_);" d="M1184.9,1343.8
						c0.9-0.3,4.5,46.9-8.3,59s-36.5,15-44.3,4.4c-8.6-11.8-5.2-62,14.3-74.1C1166.2,1321,1184.9,1343.8,1184.9,1343.8z"/>
				</g>
				<g transform="matrix(1.02225,0,0,1.02101,-12.0414,-14.0458)">
					
						<linearGradient id="SVGID_00000101790420202583083080000000962668244206890671_" gradientUnits="userSpaceOnUse" x1="-1.0218" y1="6.374529e-02" x2="-2.179328e-02" y2="6.374529e-02" gradientTransform="matrix(-74.5955 5.9676 -5.9676 -74.5953 1137.6198 1367.4257)">
						<stop  offset="0" style="stop-color:#603813"/>
						<stop  offset="1.000000e-02" style="stop-color:#603813"/>
						<stop  offset="1" style="stop-color:#C69C6D"/>
					</linearGradient>
					<path style="fill:url(#SVGID_00000101790420202583083080000000962668244206890671_);" d="M1186.1,1314.3
						c11.1,8.4,16.7,14.6,25,30.3c10.2,19.3-5.4,41.4-19.1,50.7c-13.8,9.4-14.3,19.4-14.3,19.4l-1.1-6.1c-0.4-1.9-0.5-3.8-0.3-5.7
						c0.4-1.8,0.9-3.5,1.7-5.1c1-2.7,4.3-12,5.6-14.5c3.6-6.6,4.3-8,1.8-13.8c-1.9-4.5-0.9-14.7-3.9-22.1l-19.8-2.7
						c0,0-12.4-2-19.1-8.6C1123.6,1317.3,1156.6,1291.9,1186.1,1314.3z"/>
				</g>
				<g transform="matrix(1.02225,0,0,1.02101,-12.0414,-14.0458)">
					
						<linearGradient id="SVGID_00000057864725636960994990000002522264364055630992_" gradientUnits="userSpaceOnUse" x1="-1.0218" y1="-94.847" x2="-2.179328e-02" y2="-94.847" gradientTransform="matrix(156.2739 0 0 156.2736 11228.3672 16199.2881)">
						<stop  offset="0" style="stop-color:#FCDEB3"/>
						<stop  offset="1" style="stop-color:#F9C476"/>
					</linearGradient>
					<path style="fill:url(#SVGID_00000057864725636960994990000002522264364055630992_);" d="M1181.2,1375.1
						c-2,5.4-1.1,10.6,2,11.8c3.1,1.2,7.3-2.2,9.2-7.6c2-5.4,1.1-10.6-2-11.8S1183.2,1369.8,1181.2,1375.1z"/>
				</g>
				<g transform="matrix(1.02225,0,0,1.02101,-12.0414,-14.0458)">
					<path class="st8" d="M1159.9,1391.7l-23.4-2.1c0,0-0.3,8.9,10,10.2C1159,1401.2,1159.9,1391.7,1159.9,1391.7z"/>
				</g>
				<g transform="matrix(1.02225,0,0,1.02101,-12.0414,-14.0458)">
					<path d="M1168.2,1368.2c-0.1,1.5-1.4,2.7-3,2.7s-3-1.3-3-3s1.3-3,3-3c0.1,0,0.2,0,0.3,0
						C1167.2,1365.1,1168.4,1366.6,1168.2,1368.2z"/>
				</g>
				<g transform="matrix(1.02225,0,0,1.02101,-12.0414,-14.0458)">
					<path d="M1143.6,1360.2c0,0.1,0,0.1,0,0.2c0,1.6-1.3,3-3,3c-1.6,0-3-1.3-3-3c0-1.6,1.2-2.9,2.8-3
						C1142.1,1357.4,1143.5,1358.6,1143.6,1360.2z"/>
				</g>
				<g transform="matrix(1.02225,0,0,1.02101,-12.0414,-14.0458)">
					<path d="M1162.6,1361.9c0.3,0.1,0.6,0.1,0.9,0c1.2-0.5,2.7-0.6,3.9-0.2c1.2,0.6,2.2,1.7,2.6,3c0.2,0.4,0.5,0.7,1,0.7
						c0.1,0,0.3,0,0.4-0.1c0.5-0.2,0.8-0.8,0.6-1.4c-0.6-1.9-2-3.4-3.7-4.1c-1.8-0.6-3.8-0.6-5.6,0.2c-0.5,0.2-0.7,0.9-0.5,1.4
						C1162.2,1361.6,1162.4,1361.8,1162.6,1361.9z"/>
				</g>
				<g transform="matrix(1.02225,0,0,1.02101,-12.0414,-14.0458)">
					<path d="M1137,1355.2c0.3,0.1,0.7,0.1,0.9-0.1c1.2-0.7,2.5-1,3.9-0.8c1.3,0.4,2.4,1.3,3,2.5c0.2,0.4,0.5,0.6,0.9,0.6
						c0.6,0,1.1-0.5,1.1-1.1c0-0.2-0.1-0.4-0.2-0.6c-0.9-1.7-2.5-3-4.3-3.5c-1.9-0.3-3.9,0-5.5,1.1c-0.5,0.3-0.6,1-0.3,1.5
						C1136.6,1354.9,1136.8,1355.1,1137,1355.2z"/>
				</g>
				<g transform="matrix(1.02225,0,0,1.02101,-12.0414,-14.0458)">
					<path class="st8" d="M1144.1,1360.5C1144.1,1360.6,1144.1,1360.6,1144.1,1360.5c0,0.8-0.5,1.3-1.2,1.3s-1.2-0.5-1.2-1.2
						s0.5-1.2,1.2-1.2C1143.6,1359.4,1144.1,1359.9,1144.1,1360.5z"/>
				</g>
				<g transform="matrix(1.02225,0,0,1.02101,-12.0414,-14.0458)">
					<path class="st8" d="M1168.7,1369.1c-0.1,0.6-0.6,1.1-1.2,1.1c-0.7,0-1.2-0.5-1.2-1.2v-0.1c0.1-0.6,0.6-1.1,1.2-1.1
						C1168.2,1367.8,1168.7,1368.3,1168.7,1369.1C1168.7,1369,1168.7,1369,1168.7,1369.1z"/>
				</g>
				<g transform="matrix(1.02225,0,0,1.02101,-12.0414,-14.0458)">
					<path d="M1136.5,1359.3c0.3,0.1,0.6,0,0.8-0.1c0.9-0.7,1.9-1.1,3-1.1c1.5,0,2.9,0.7,3.8,1.9c0.2,0.2,0.4,0.3,0.6,0.3
						c0.4,0,0.8-0.4,0.8-0.8c0-0.2-0.1-0.4-0.2-0.5c-2.2-2.7-6.3-3.1-9-0.9c-0.2,0.1-0.3,0.4-0.3,0.6s0.1,0.4,0.2,0.5
						C1136.3,1359.2,1136.4,1359.2,1136.5,1359.3z"/>
				</g>
				<g transform="matrix(1.02225,0,0,1.02101,-12.0414,-14.0458)">
					<path d="M1161.2,1366c0.2,0.1,0.5,0.1,0.8,0c0.7-0.4,1.6-0.7,2.4-0.7c1.8,0,3.4,1,4.2,2.5c0.1,0.2,0.4,0.3,0.6,0.3
						s0.3,0,0.4-0.1c0.4-0.2,0.5-0.7,0.2-1.1c-1.8-3-5.7-4.1-8.8-2.3c-0.2,0.1-0.4,0.4-0.4,0.7c0,0.1,0,0.3,0.1,0.4
						C1161,1365.8,1161.1,1365.9,1161.2,1366z"/>
				</g>
				<g transform="matrix(1.02225,0,0,1.02101,-12.0414,-14.0458)">
					<path class="st18" d="M1154.4,1360.8c-0.2,0.5-0.5,0.9-0.8,1.3c-1.3,1.9-2.5,3.9-3.6,6c-1.7,3.2-3.3,6.7-6.2,9
						c-0.5,0.3-0.9,0.7-1.3,1.2c-1.7,2.3,2.4,4.4,4.1,4.8c1.8,0.4,2.7-0.4,4.1-1.1c0.4-0.2,0.9-0.2,1.3,0c0.4,0.4,0.4,1,0.1,1.4
						s-0.8,0.8-1.3,0.9c-3.7,1.5-9.8,0.1-10.1-4.7c-0.1-2.2,1.1-4.2,3.1-5.1c0.1-0.1,0.3-0.2,0.3-0.3c0-0.2-0.3,0.1-0.2,0.1
						c2.9-4.9,5.9-9.7,8.8-14.6c0.2-0.2,0.4-0.4,0.7-0.4c0.3,0,0.6,0.1,0.7,0.4C1154.5,1360,1154.6,1360.4,1154.4,1360.8z"/>
				</g>
				<g transform="matrix(1.02225,0,0,1.02101,-12.0414,-14.0458)">
					
						<linearGradient id="SVGID_00000041283246773274714120000001500995591614316470_" gradientUnits="userSpaceOnUse" x1="-1.0218" y1="-19.2113" x2="-2.179328e-02" y2="-19.2113" gradientTransform="matrix(8799.7578 0 0 8799.7393 80943.5234 170586.8438)">
						<stop  offset="0" style="stop-color:#FDF53F"/>
						<stop  offset="0.18" style="stop-color:#FCEF40"/>
						<stop  offset="0.44" style="stop-color:#F9DD44"/>
						<stop  offset="0.73" style="stop-color:#F3C14A"/>
						<stop  offset="1" style="stop-color:#ED9F51"/>
					</linearGradient>
					<path style="fill:url(#SVGID_00000041283246773274714120000001500995591614316470_);" d="M1179.9,1435.3l-38.8,0.8
						c0,0-7.7,10.6-16.3,35c-3.7,10.7-7.8,60.6-12.1,88.9c-5.5,36.7-27,68.7-27,68.7h80.9
						C1179.8,1511.9,1179.9,1435.3,1179.9,1435.3z"/>
				</g>
				<g transform="matrix(1.02225,0,0,1.02101,-12.0414,-14.0458)">
					
						<linearGradient id="SVGID_00000001654391191370427420000002870380739675988634_" gradientUnits="userSpaceOnUse" x1="-1.0218" y1="-11.0061" x2="-2.179328e-02" y2="-11.0061" gradientTransform="matrix(16735.1465 0 0 16735.1113 129930.5938 185709.5938)">
						<stop  offset="0" style="stop-color:#2B3582"/>
						<stop  offset="1" style="stop-color:#150E42"/>
					</linearGradient>
					<path style="fill:url(#SVGID_00000001654391191370427420000002870380739675988634_);" d="M1141.5,1436h-0.4
						c0,0-2.2,0.1-13.6,0.7c-4.8,0.2-9.7,0.4-14.2,2.3c-9.3,4.1-59,57.1-63.2,55.4c-1.2-0.5-6-21.5-17.6-79.5
						c-0.5-2.7-33.2,7.9-33.2,7.9s7.7,122.2,33.3,130.5c8.2,2.6,56.5-26,68.8-33.4c-0.9,14.8-1.4,31.6-3.9,47.3
						c-4,25.1-16.3,46.7-26.9,61.6h43c4.8-32.8,23.6-160.2,26-181.7L1141.5,1436z"/>
				</g>
			</g>
		</g>
	</g>
</g>
</svg>
