<?xml version="1.0" encoding="utf-8"?>
<!-- Generator: Adobe Illustrator 25.4.1, SVG Export Plug-In . SVG Version: 6.00 Build 0)  -->
<svg version="1.1" id="Layer_1" xmlns="http://www.w3.org/2000/svg" xmlns:xlink="http://www.w3.org/1999/xlink" x="0px" y="0px"
	 viewBox="0 0 1140 948" style="enable-background:new 0 0 1140 948;" xml:space="preserve">
<style type="text/css">
	.st0{fill:#92C846;}
	.st1{fill:url(#SVGID_1_);}
	.st2{fill:url(#SVGID_00000067211904718999239180000008123643388802871991_);}
	.st3{fill:url(#SVGID_00000142865909429192318970000001745269619617722553_);}
	.st4{fill:url(#SVGID_00000088828761896212491500000015025789780569244570_);}
	.st5{fill:url(#SVGID_00000105391407182322359000000011156020748917334951_);}
	.st6{fill:url(#SVGID_00000085222306927742224140000008147323958215522488_);}
	.st7{fill:url(#SVGID_00000079444186322159842190000010535657963591201178_);}
	.st8{fill:url(#SVGID_00000034803328419610198430000001024265467333713027_);}
	.st9{fill:url(#SVGID_00000083787109857709382870000010766515032961587359_);}
	.st10{fill:url(#SVGID_00000168117216985981981050000005885036899977908096_);}
	.st11{fill:url(#SVGID_00000155831319753967451010000014116061798571045002_);}
	.st12{fill:url(#SVGID_00000136376551257614572680000015576610856369574795_);}
	.st13{fill:#F7CC7F;}
	.st14{fill:url(#SVGID_00000167388812469979239750000013889893864680001698_);}
	.st15{fill:#FFFFFF;}
	.st16{fill:#13375B;}
	.st17{fill:#355389;}
	.st18{fill:url(#SVGID_00000098918963672734792890000004073944756625276582_);}
	.st19{fill:url(#SVGID_00000119087827681317189340000016240015202431375544_);}
	.st20{fill:#E58761;}
	.st21{fill:#43493B;}
	.st22{fill:#009DC2;}
	.st23{fill:url(#SVGID_00000007421317122084337450000007857563354295862431_);}
	.st24{fill:#F48C7F;}
	.st25{fill:url(#SVGID_00000073001121018448066480000014817244260125852546_);}
	.st26{fill:#F7A491;}
	.st27{fill:url(#SVGID_00000054224719203399474240000008211813220320648608_);}
	.st28{fill:url(#SVGID_00000083783346189584683030000008267005807469740681_);}
	.st29{fill:url(#SVGID_00000139976636560818892110000010464215946385482671_);}
	.st30{fill:url(#SVGID_00000054963914340904480210000010125808266671719609_);}
	.st31{fill:url(#SVGID_00000138552667776059951570000012691334237337493674_);}
	.st32{fill:url(#SVGID_00000036961984938337515930000003332766278905114284_);}
	.st33{fill:url(#SVGID_00000026164999234195098590000008136824919690323615_);}
	.st34{fill:url(#SVGID_00000132074802055955119420000017788046019726346371_);}
	.st35{fill:url(#SVGID_00000104704831115673741290000010919011794020944268_);}
	.st36{fill:url(#SVGID_00000087373152061200654370000006182575510101722016_);}
	.st37{fill:url(#SVGID_00000101093161196752584500000010698386249806535049_);}
	.st38{fill:url(#SVGID_00000160191175468793105290000011286233809202706580_);}
	.st39{fill:url(#SVGID_00000005260513438378402240000008233622409799096486_);}
	.st40{fill:url(#SVGID_00000087405210794512645580000009624883550894052002_);}
	.st41{fill:url(#SVGID_00000036237939528012165820000011717306427596572289_);}
	.st42{fill:url(#SVGID_00000056391942781805644510000000124755650798598560_);}
	.st43{fill:url(#SVGID_00000026157694205968384640000001434048552653032622_);}
	.st44{fill:url(#SVGID_00000025433176445807424910000002640750505004129714_);}
	.st45{fill:url(#SVGID_00000116929577078983106010000014750898910011392681_);}
	.st46{fill:url(#SVGID_00000140013794747578450850000003020361443983497649_);}
	.st47{fill:url(#SVGID_00000018954589232880178790000009665504085514558639_);}
	.st48{fill:url(#SVGID_00000132773269451088076010000015463703744814363804_);}
	.st49{fill:url(#SVGID_00000021836412199736226910000004767300419182335360_);}
	.st50{fill:url(#SVGID_00000101077056584225380450000016703496834268216460_);}
	.st51{fill:url(#SVGID_00000044156136512439781090000004164372009436717733_);}
	.st52{fill:url(#SVGID_00000055684542701993157920000011131590009763232407_);}
	.st53{fill:url(#SVGID_00000125562878947299740550000006798073123112281472_);}
	.st54{fill:url(#SVGID_00000160153963062158122060000011490939444870549921_);}
	.st55{fill:url(#SVGID_00000061450766789501599630000009955086219698632625_);}
	.st56{fill:url(#SVGID_00000045599355608902844840000016975795055052527019_);}
	.st57{fill:url(#SVGID_00000053510834897190963980000002460638192563931027_);}
	.st58{fill:url(#SVGID_00000131337035080003711540000010200255907183277703_);}
	.st59{fill:url(#SVGID_00000170257964160134550780000006233284733265035692_);}
	.st60{fill:url(#SVGID_00000134228876322479371760000012010234094793010583_);}
	.st61{fill:url(#SVGID_00000069356242842648229240000013812030893889998758_);}
	.st62{fill:url(#SVGID_00000111878166494688102540000009851340762592712085_);}
	.st63{fill:url(#SVGID_00000165949049006196957600000003791914950090687915_);}
	.st64{fill:url(#SVGID_00000067205466629626562770000013729672862780854188_);}
	.st65{fill:url(#SVGID_00000109020623179537689310000002287660809504142238_);}
	.st66{fill:url(#SVGID_00000107566842972216466410000003379104291063894193_);}
	.st67{fill:url(#SVGID_00000152261647386398659310000011442446173960201349_);}
	.st68{fill:url(#SVGID_00000091726026102184345410000013236450080690531991_);}
	.st69{fill:url(#SVGID_00000019638936846853013440000007516525377190680198_);}
	.st70{fill:url(#SVGID_00000086688454413947963280000001167031667606913437_);}
	.st71{fill:url(#SVGID_00000094608789937424277740000015626749130468598447_);}
	.st72{fill:url(#SVGID_00000169546128211522264970000015150090781776154538_);}
	.st73{fill:url(#SVGID_00000078022260337738545210000006935074200007649414_);}
	.st74{fill:url(#SVGID_00000140011694161223194990000005308509172385331104_);}
	.st75{fill:#00D5FC;}
	.st76{fill:none;stroke:#FFFFFF;stroke-width:0.75;stroke-miterlimit:10;}
	.st77{fill:#FFFFFF;stroke:#FFFFFF;stroke-width:0.75;stroke-miterlimit:10;}
	.st78{fill:url(#SVGID_00000046338057332455839880000012129729551265217197_);}
	.st79{fill:url(#SVGID_00000076581852833571923470000001383217927812622215_);}
	.st80{fill:url(#SVGID_00000082369803039089891280000016125354939579534250_);}
	.st81{fill:#184655;}
	.st82{fill:url(#SVGID_00000062188220139769373370000001634563892021375885_);}
	.st83{fill:url(#SVGID_00000070111707899965464990000005352299170195773838_);}
	.st84{fill:#F79C8D;}
	.st85{fill:url(#SVGID_00000139992039299731717300000012298744311944994732_);}
	.st86{fill:url(#SVGID_00000098179249869038946770000016755152851149522323_);}
	.st87{fill:url(#SVGID_00000153663450240188394950000009963826987984455067_);}
	.st88{fill:url(#SVGID_00000109735210922436141880000010352653283154416269_);}
	.st89{fill:url(#SVGID_00000005253078359435856530000010335075186517805196_);}
	.st90{fill:url(#SVGID_00000147203017338803029120000004913773039501034394_);}
	.st91{fill:url(#SVGID_00000096039320573027468490000005592472754013283232_);}
	.st92{fill:url(#SVGID_00000048489403527849806800000013709462513008020665_);}
	.st93{fill:url(#SVGID_00000082340247779229519560000016388193638640773535_);}
	.st94{fill:url(#SVGID_00000013188725095581425910000016376069772448677260_);}
	.st95{fill:url(#SVGID_00000083811290339516005880000010008476005678176170_);}
	.st96{fill:url(#SVGID_00000141421505543249829070000006116721215147885485_);}
	.st97{fill:url(#SVGID_00000061466949633500084110000012084700072349579967_);}
	.st98{opacity:0.2;fill:#F47458;enable-background:new    ;}
	.st99{fill:url(#SVGID_00000134963590681288364760000010540687010676521406_);}
	.st100{fill:url(#SVGID_00000043436461174768724760000001464256420153815738_);}
	.st101{fill:url(#SVGID_00000134224190015081415850000017217301887441491098_);}
</style>
<g>
	<g id="Capa_1">
		<rect y="760.5" class="st0" width="1140" height="187.5"/>
		
			<linearGradient id="SVGID_1_" gradientUnits="userSpaceOnUse" x1="1052.9" y1="9.7555" x2="1062.45" y2="9.7555" gradientTransform="matrix(1 0 0 -1 0 948.7875)">
			<stop  offset="0" style="stop-color:#FCDEB3"/>
			<stop  offset="1" style="stop-color:#F9C476"/>
		</linearGradient>
		<path class="st1" d="M1058.1,930.9c0,0,0.8,5.4,2.1,7.2c0.7,0.7,1.3,1.5,1.8,2.4c0.8,1.7,0.4,4.1-0.2,5.5c-0.3,0.7,0,0.7-0.7,0.9
			c-2.2,0.6-4.5-0.4-5.3-2.5c-0.6-1.5-1-3-1-4.6c-0.2-4.9-1.8-7.5-1.8-7.5L1058.1,930.9z"/>
		
			<linearGradient id="SVGID_00000003809606794371852830000000268393828090923920_" gradientUnits="userSpaceOnUse" x1="1019.9454" y1="8.4174" x2="1035.4709" y2="8.4174" gradientTransform="matrix(1 0 0 -1 0 948.7875)">
			<stop  offset="0" style="stop-color:#FCDEB3"/>
			<stop  offset="1" style="stop-color:#F9C476"/>
		</linearGradient>
		<path style="fill:url(#SVGID_00000003809606794371852830000000268393828090923920_);" d="M1034.6,933.4c0,0-0.5,6.1-0.1,8.1
			c0.2,1.1,1.4,3.3,0.8,4.3c-0.2,0.5-0.6,1-1.1,1.3l-13.9,0.2c-0.8,0-0.3-0.5,0.3-0.9c1.6-1.1,3.2-2,5-2.8c0.2-0.1,1-0.6,1.2-0.8
			c0.7-0.5,1.4-1.1,2-1.8c1-1.1,1.1-6.5,1.1-6.5L1034.6,933.4z"/>
		
			<linearGradient id="SVGID_00000052813321967530338720000014067386544667942036_" gradientUnits="userSpaceOnUse" x1="1022.7628" y1="55.7324" x2="1036.9928" y2="55.7324" gradientTransform="matrix(1 0 0 -1 0 948.7875)">
			<stop  offset="0" style="stop-color:#2B3582"/>
			<stop  offset="1" style="stop-color:#150E42"/>
		</linearGradient>
		<path style="fill:url(#SVGID_00000052813321967530338720000014067386544667942036_);" d="M1023.8,851.9c0,0-1.7,10-0.6,16.5
			s6.7,67.1,6.7,67.1l6.1,0.3c0,0,1.3-25.3,1-28.8c-0.4-3.2-1.1-6.3-2-9.4l0.6-20.4l-7.7-26.8L1023.8,851.9z"/>
		
			<linearGradient id="SVGID_00000092458694830525040690000000653959227081407403_" gradientUnits="userSpaceOnUse" x1="1024.53" y1="58.4574" x2="1058.8199" y2="58.4574" gradientTransform="matrix(1 0 0 -1 0 948.7875)">
			<stop  offset="0" style="stop-color:#2B3582"/>
			<stop  offset="1" style="stop-color:#150E42"/>
		</linearGradient>
		<path style="fill:url(#SVGID_00000092458694830525040690000000653959227081407403_);" d="M1041.7,849.8c0,0,4.8,7.3,6,13.3
			s-0.8,24.5,1.4,32.5c1.2,4.3,5.7,10.9,6.4,16.4s3.4,20,3.4,20l-6.1,1.2l-14.2-36.2l-11.1-32.7l-2.8-16.8L1041.7,849.8z"/>
		
			<linearGradient id="SVGID_00000104682384772009325890000008894940937769043857_" gradientUnits="userSpaceOnUse" x1="1055.29" y1="4.4724" x2="1062.9233" y2="4.4724" gradientTransform="matrix(1 0 0 -1 0 948.7875)">
			<stop  offset="0" style="stop-color:#333333"/>
			<stop  offset="1" style="stop-color:#000000"/>
		</linearGradient>
		<path style="fill:url(#SVGID_00000104682384772009325890000008894940937769043857_);" d="M1055.3,943.7c3.3,0.7,5.5-1.5,6.7-3.2
			c0.8,1.9,1.3,4.7,0.6,6.2c-0.5,1.4-2.2,1.3-3.4,1.4c-1.3,0-2.5-0.9-3-2.1C1055.8,945.3,1055.5,944.5,1055.3,943.7z"/>
		
			<linearGradient id="SVGID_00000106129769854333104180000017203757155350874776_" gradientUnits="userSpaceOnUse" x1="1018.9516" y1="3.4574" x2="1035.5048" y2="3.4574" gradientTransform="matrix(1 0 0 -1 0 948.7875)">
			<stop  offset="0" style="stop-color:#333333"/>
			<stop  offset="1" style="stop-color:#000000"/>
		</linearGradient>
		<path style="fill:url(#SVGID_00000106129769854333104180000017203757155350874776_);" d="M1026.9,942.9c2.6,0.9,5.4,0.7,7.9-0.4
			c0.4,1.3,0.9,2.9,0.6,3.9c-0.3,1.2-0.8,1.4-1.2,1.4c-3.3,0.1-12.3,0.2-14.8,0.3c-0.3,0-0.5-0.5-0.3-0.8
			C1019.7,946.4,1026.6,943.1,1026.9,942.9z"/>
		
			<linearGradient id="SVGID_00000012458653725279889380000008590774050675673245_" gradientUnits="userSpaceOnUse" x1="1000.2954" y1="114.8077" x2="1032.7999" y2="114.8077" gradientTransform="matrix(1 0 0 -1 0 948.7875)">
			<stop  offset="0" style="stop-color:#FCDEB3"/>
			<stop  offset="1" style="stop-color:#F9C476"/>
		</linearGradient>
		<path style="fill:url(#SVGID_00000012458653725279889380000008590774050675673245_);" d="M1001.8,834.7c-0.3-0.5,2.4-1.3,2.5-1.9
			s-3.5-0.3-3.7-0.8c-0.3-0.9,3.9-0.6,3.8-1s-4.5-1-4.1-1.7s4.5,1,4.5,0.5s-4-1.3-4-2.4c0-0.6,6.7,2.3,7.4,1.9s-1.1-3-0.6-3.5
			s2.9,5,3.3,5.1s9.7,3,12.8,3.4c0.3-1.1,2.6-6.9,2.9-7.9c1.8,1,4.2-0.2,6.1,0.7c-1,3.4-3.1,14.4-3.9,14.9c-2.6,1.5-16.3-5.7-18.5-7
			s-3.4-0.7-4.9-1S1002.1,835.2,1001.8,834.7z"/>
		
			<linearGradient id="SVGID_00000113329926871049717810000016217234008292494492_" gradientUnits="userSpaceOnUse" x1="1025.4158" y1="142.1192" x2="1067.3585" y2="142.1192" gradientTransform="matrix(1 0 0 -1 0 948.7875)">
			<stop  offset="1.000000e-02" style="stop-color:#603813"/>
			<stop  offset="1" style="stop-color:#C69C6D"/>
		</linearGradient>
		<path style="fill:url(#SVGID_00000113329926871049717810000016217234008292494492_);" d="M1026.1,802.1c-0.7-3.1-1.4-6.3,0.4-9.7
			c1.4-2.6,4-4.4,6.9-4.7c8.3-1,6.5,6.8,18.2,8.5c3.6,0.5,7,1,10,2.8c5.4,3.2,7.5,8.4,3.9,16.9c-8.8,20.8-30,2.7-33.2-1
			S1026.6,804.2,1026.1,802.1z"/>
		
			<linearGradient id="SVGID_00000124129245020206263280000009184301008521307536_" gradientUnits="userSpaceOnUse" x1="1035.7332" y1="136.7874" x2="1035.7332" y2="90.7388" gradientTransform="matrix(1 0 0 -1 0 948.7875)">
			<stop  offset="0" style="stop-color:#FDF53F"/>
			<stop  offset="0.18" style="stop-color:#FCEF40"/>
			<stop  offset="0.44" style="stop-color:#F9DD44"/>
			<stop  offset="0.73" style="stop-color:#F3C14A"/>
			<stop  offset="1" style="stop-color:#ED9F51"/>
		</linearGradient>
		<path style="fill:url(#SVGID_00000124129245020206263280000009184301008521307536_);" d="M1039.2,812c0,0,4.2,0.5,6.7,3.2
			s-4.1,24.7-4.5,28.2s4.4,13.1,4.4,13.1s-16.4,3.3-20.7,0.4c0,0-0.4-26.9,0.1-29.3s4.3-12.6,5.2-13.6S1039.2,812,1039.2,812z"/>
		
			<linearGradient id="SVGID_00000083068533123508774180000016588285760178128040_" gradientUnits="userSpaceOnUse" x1="1035.4242" y1="130.3574" x2="1035.4242" y2="145.3873" gradientTransform="matrix(1 0 0 -1 0 948.7875)">
			<stop  offset="0" style="stop-color:#FCDEB3"/>
			<stop  offset="1" style="stop-color:#F9A262"/>
		</linearGradient>
		<path style="fill:url(#SVGID_00000083068533123508774180000016588285760178128040_);" d="M1037.1,803.5c0,0,0,0.2,0.1,0.5
			c0.3,1.5,1.4,6.6,2.1,8c0.9,1.7-3,7-6.8,6.4c-1.1-0.2,1-4.9,0.8-5.4c-0.2-1-0.4-2.3-0.7-3.6l-0.4-2.2c-0.4-2-0.7-3.7-0.7-3.7
			L1037.1,803.5z"/>
		
			<linearGradient id="SVGID_00000057863151393912988670000016292211655367575188_" gradientUnits="userSpaceOnUse" x1="1026.79" y1="150.0023" x2="1029.12" y2="150.0023" gradientTransform="matrix(1 0 0 -1 0 948.7875)">
			<stop  offset="0" style="stop-color:#FCDEB3"/>
			<stop  offset="1" style="stop-color:#F9C476"/>
		</linearGradient>
		<path style="fill:url(#SVGID_00000057863151393912988670000016292211655367575188_);" d="M1026.9,799.1c0.3,1.1,0.9,1.8,1.5,1.6
			s0.8-1.2,0.6-2.2s-1-1.8-1.5-1.6S1026.6,798.1,1026.9,799.1z"/>
		
			<linearGradient id="SVGID_00000036227848187006009060000011480312420497586823_" gradientUnits="userSpaceOnUse" x1="1027.87" y1="150.3879" x2="1039.5442" y2="150.3879" gradientTransform="matrix(1 0 0 -1 0 948.7875)">
			<stop  offset="0" style="stop-color:#FCDEB3"/>
			<stop  offset="1" style="stop-color:#F9C476"/>
		</linearGradient>
		<path style="fill:url(#SVGID_00000036227848187006009060000011480312420497586823_);" d="M1031.4,790.4c-3.8,1.2-3.8,6.1-3.3,9.8
			c0.6,4.4,4.7,8.5,8.9,4.8c2.6-2.2,2.8-5.6,2.3-8.4c-0.1,0-0.1,0-0.2,0C1036.9,796.4,1032.5,791.6,1031.4,790.4z"/>
		<path class="st13" d="M1042,800.2L1042,800.2z"/>
		
			<linearGradient id="SVGID_00000129903540558749362680000012763254125864552126_" gradientUnits="userSpaceOnUse" x1="1038.22" y1="150.3973" x2="1040.9481" y2="150.3973" gradientTransform="matrix(1 0 0 -1 0 948.7875)">
			<stop  offset="0" style="stop-color:#FCDEB3"/>
			<stop  offset="1" style="stop-color:#F9C476"/>
		</linearGradient>
		<path style="fill:url(#SVGID_00000129903540558749362680000012763254125864552126_);" d="M1038.3,798.1c-0.2,1.1,0.2,2.2,0.9,2.3
			s1.5-0.7,1.7-1.8s-0.2-2.2-0.9-2.3S1038.5,797,1038.3,798.1z"/>
		<path class="st15" d="M1020.7,832.4l17.6-2.6c0.5-0.1,1,0.3,1.1,0.8l3.4,23.4c0.1,0.5-0.3,1-0.8,1.1l-17.6,2.6
			c-0.5,0.1-1-0.3-1.1-0.8l-3.4-23.4C1019.8,833,1020.2,832.5,1020.7,832.4z"/>
		<path class="st16" d="M1025.2,831c0-0.1,0.1-0.2,0.2-0.2l7.3-1.1c0.1,0,0.2,0.1,0.2,0.2c0,0,0,0,0,0l0.1,0.8l-7.7,1.1L1025.2,831z
			"/>
		<path class="st16" d="M1028,830.6c0.1,0.6,0.7,1.1,1.3,1c0,0,0,0,0,0c0.6-0.1,1.1-0.6,1-1.3c0,0,0,0,0,0c-0.1-0.6-0.6-1.1-1.3-1.1
			c-0.6,0.1-1.1,0.6-1.1,1.3C1028,830.5,1028,830.6,1028,830.6L1028,830.6z M1028.4,830.5c-0.1-0.4,0.2-0.8,0.6-0.8
			c0.4-0.1,0.8,0.2,0.8,0.6c0.1,0.4-0.2,0.8-0.6,0.8C1028.9,831.3,1028.5,831,1028.4,830.5C1028.4,830.6,1028.4,830.6,1028.4,830.5
			L1028.4,830.5z"/>
		<path class="st17" d="M1025.3,830.8c-0.1,0-0.1,0.1-0.1,0.2l0.1,0.8l7.7-1.1c0.1,0.5-0.3,1-0.8,1.1l-5.8,0.8
			c-0.5,0.1-1-0.3-1.1-0.8l-0.1-0.8C1025.2,830.9,1025.3,830.8,1025.3,830.8z"/>
		<path class="st15" d="M1030.7,802.4h4c-0.1,0.9-0.9,1.6-1.8,1.6C1030.7,804,1030.7,802.4,1030.7,802.4z"/>
		
			<linearGradient id="SVGID_00000034773542768109131300000015951362567031622290_" gradientUnits="userSpaceOnUse" x1="1021.02" y1="105.6261" x2="1050.6992" y2="105.6261" gradientTransform="matrix(1 0 0 -1 0 948.7875)">
			<stop  offset="0" style="stop-color:#FCDEB3"/>
			<stop  offset="1" style="stop-color:#F9C476"/>
		</linearGradient>
		<path style="fill:url(#SVGID_00000034773542768109131300000015951362567031622290_);" d="M1050.7,835.8l-6.4,0.7c0,0,0.1,5.4,0,6
			c0,0-10.9,3-15.4,3.8c0,0-2.1-1.2-2.9-1.5c-1.2-0.4-2.4-0.7-3.6-0.8c-0.5-0.1-0.3,0.5,0.1,0.7c0.7,0.3,1.4,0.7,1.9,1.3
			c-0.5,0.1-0.9,0-1.4-0.1c-0.5-0.2-1.1-0.7-1.1-0.9s-0.1-0.8-0.3-0.8s-0.1,0.2-0.2,0.4l-0.2,0.5c-0.1,0.3-0.2,0.8-0.2,1
			c0,0.8,0.1,1.6,0.3,2.3c0.1,0.9,0.3,1.3,0.8,1.5c0.9,0.3,1.8,0.5,2.7,0.5c1.7,0.1,3.4-0.1,5-0.5c0.9-0.1,14.7-1.5,14.7-1.5
			s5.5-0.8,5.9-1.7S1050.7,835.8,1050.7,835.8z"/>
		
			<linearGradient id="SVGID_00000152247856663276886040000017730574375974231451_" gradientUnits="userSpaceOnUse" x1="1045.3506" y1="134.4838" x2="1045.3506" y2="105.8674" gradientTransform="matrix(1 0 0 -1 0 948.7875)">
			<stop  offset="0" style="stop-color:#FDF53F"/>
			<stop  offset="0.18" style="stop-color:#FCEF40"/>
			<stop  offset="0.44" style="stop-color:#F9DD44"/>
			<stop  offset="0.73" style="stop-color:#F3C14A"/>
			<stop  offset="1" style="stop-color:#ED9F51"/>
		</linearGradient>
		<path style="fill:url(#SVGID_00000152247856663276886040000017730574375974231451_);" d="M1045.2,814.4c0,0,2,1,3.8,5.1
			c1.7,3.9,2.2,23.4,2.2,23.4l-6.7-1.1l-3.4-9.1c-2.4-5.4-1.8-11.8,1.7-16.6C1043.7,814.8,1044.6,814,1045.2,814.4z"/>
		<path d="M1034.2,797.5c0.1,0.3-0.1,0.5-0.3,0.6c0,0,0,0,0,0c-0.3,0.1-0.5-0.1-0.6-0.3c0,0,0,0,0,0c-0.1-0.3,0.1-0.5,0.3-0.6
			c0,0,0,0,0,0C1033.8,797.1,1034.1,797.3,1034.2,797.5C1034.2,797.5,1034.2,797.5,1034.2,797.5z"/>
		<path d="M1029.9,797.7c0.1,0.2,0,0.5-0.3,0.6c-0.2,0.1-0.5,0-0.6-0.2c0,0,0,0,0,0c-0.1-0.2,0-0.5,0.3-0.6
			S1029.8,797.5,1029.9,797.7L1029.9,797.7z"/>
		<path d="M1032.9,796.9c0,0,0.1,0,0.2,0c0.2-0.2,0.4-0.2,0.6-0.2c0.2,0,0.4,0.1,0.6,0.3c0.1,0.1,0.2,0.1,0.2,0c0,0,0,0,0,0
			c0.1-0.1,0.1-0.2,0-0.2c-0.2-0.3-0.5-0.4-0.8-0.4c-0.3,0-0.6,0.1-0.9,0.3c-0.1,0.1-0.1,0.2,0,0.2
			C1032.9,796.9,1032.9,796.9,1032.9,796.9z"/>
		<path d="M1028.6,797.3c0.1,0,0.1,0,0.1-0.1c0.1-0.2,0.3-0.3,0.6-0.3c0.2,0,0.4,0.1,0.6,0.2c0.1,0.1,0.2,0.1,0.2,0c0,0,0,0,0,0
			c0.1-0.1,0.1-0.2,0-0.2c-0.2-0.2-0.6-0.3-0.9-0.3c-0.3,0.1-0.6,0.2-0.8,0.5c-0.1,0.1-0.1,0.2,0,0.2
			C1028.5,797.3,1028.5,797.3,1028.6,797.3z"/>
		<path class="st15" d="M1030,797.7c0.1,0.1,0,0.2,0,0.3s-0.2,0-0.3,0c0,0,0-0.1,0-0.1c0-0.1,0-0.2,0.1-0.2c0,0,0,0,0,0
			C1029.8,797.6,1030,797.6,1030,797.7z"/>
		<path class="st15" d="M1034.3,797.6c0,0.1,0,0.2-0.1,0.2c-0.1,0-0.2,0-0.2-0.1c0,0,0,0,0,0c0-0.1,0-0.2,0.1-0.2
			C1034.2,797.5,1034.3,797.5,1034.3,797.6z"/>
		<path d="M1028.7,798c0,0,0.1,0,0.1-0.1c0.2-0.4,0.7-0.5,1.1-0.3c0.1,0,0.1,0,0.2,0c0,0,0,0,0,0c0,0,0-0.1,0-0.2c0,0,0,0,0,0
			c-0.5-0.3-1.1-0.1-1.4,0.4c0,0,0,0,0,0C1028.6,797.9,1028.6,797.9,1028.7,798C1028.7,798,1028.7,798,1028.7,798L1028.7,798z"/>
		<path d="M1033,797.6c0,0,0.1,0,0.1,0c0.3-0.3,0.8-0.4,1.1-0.1c0,0,0,0,0,0c0.1,0,0.1,0,0.2,0c0-0.1,0-0.1,0-0.2
			c-0.4-0.4-1-0.4-1.4,0c0,0-0.1,0.1-0.1,0.1C1032.9,797.5,1032.9,797.5,1033,797.6C1032.9,797.6,1032.9,797.6,1033,797.6
			L1033,797.6z"/>
		<path class="st20" d="M1031.6,797.2c0,0.1,0,0.2,0,0.2c-0.1,0.4-0.2,0.8-0.2,1.1c0,0.6-0.2,1.2-0.4,1.7c-0.1,0.1-0.1,0.2-0.1,0.2
			c-0.1,0.5,0.6,0.6,0.9,0.5s0.4-0.2,0.6-0.4c0.1-0.1,0.1-0.1,0.2-0.1c0.1,0,0.1,0.1,0.1,0.2c0,0.1-0.1,0.2-0.1,0.2
			c-0.5,0.5-1.5,0.6-1.8-0.2c-0.1-0.3-0.1-0.7,0.2-1c0,0,0,0,0-0.1s0,0,0,0c0.2-0.9,0.4-1.8,0.5-2.8c0-0.1,0.1-0.1,0.2-0.1
			c0,0,0,0,0,0C1031.6,797,1031.6,797.1,1031.6,797.2z"/>
		<path class="st21" d="M58,908.8l26.2-1.4c2-0.1,3.6,1.4,3.7,3.4c0,0.1,0,0.2,0,0.3l-0.7,24.1c-0.1,2-1.7,3.5-3.7,3.4
			c0,0-0.1,0-0.1,0l-24.9-1.2c-1.8-0.1-3.1-1.6-3.1-3.4l-0.6-21.6C54.7,910.6,56.1,909,58,908.8z"/>
		<path class="st22" d="M40.8,873l12.1-0.6c0.9-0.1,1.7,0.6,1.7,1.5c0,0.1,0,0.1,0,0.2l-0.3,11.2c0,0.9-0.8,1.6-1.7,1.6c0,0,0,0,0,0
			l-11.5-0.6c-0.8-0.1-1.4-0.7-1.5-1.5l-0.3-10C39.3,873.8,40,873.1,40.8,873z"/>
		<path class="st21" d="M72.3,853.7l6.6-0.3c0.5-0.1,0.9,0.3,1,0.8c0,0.1,0,0.1,0,0.2l-0.2,6.1c0,0.5-0.4,0.9-0.9,0.9
			c0,0-0.1,0-0.1,0l-6.3-0.3c-0.4,0-0.8-0.4-0.8-0.8l-0.2-5.5C71.5,854.1,71.8,853.7,72.3,853.7z"/>
		<path class="st22" d="M1075.8,776.8l26.2-1.4c2-0.1,3.7,1.4,3.8,3.3c0,0.1,0,0.3,0,0.4l-0.7,24.1c-0.1,2-1.7,3.5-3.7,3.4
			c0,0-0.1,0-0.1,0l-24.9-1.2c-1.8-0.1-3.1-1.6-3.1-3.4l-0.6-21.6C1072.6,778.6,1073.9,777,1075.8,776.8z"/>
		<path class="st21" d="M1107.7,832l12.1-0.6c0.9-0.1,1.7,0.6,1.7,1.5c0,0.1,0,0.1,0,0.2l-0.3,11.2c0,0.9-0.8,1.6-1.7,1.6
			c0,0,0,0,0,0l-11.5-0.6c-0.8-0.1-1.4-0.7-1.4-1.5l-0.3-10C1106.2,832.8,1106.8,832.1,1107.7,832z"/>
		<path class="st21" d="M1079.1,863.7l6.6-0.3c0.5-0.1,0.9,0.3,1,0.8c0,0.1,0,0.1,0,0.2l-0.2,6.1c0,0.5-0.4,0.9-0.9,0.9
			c0,0-0.1,0-0.1,0l-6.3-0.3c-0.4,0-0.8-0.4-0.8-0.8l-0.2-5.5C1078.3,864.1,1078.6,863.7,1079.1,863.7z"/>
		<path class="st22" d="M474.8,811l12.1-0.6c0.9-0.1,1.7,0.6,1.7,1.5c0,0.1,0,0.1,0,0.2l-0.3,11.2c0,0.9-0.8,1.6-1.7,1.6
			c0,0,0,0,0,0l-11.5-0.6c-0.8-0.1-1.4-0.7-1.5-1.5l-0.3-10C473.3,811.8,474,811.1,474.8,811z"/>
		<path class="st21" d="M553.8,818l12.1-0.6c0.9-0.1,1.7,0.6,1.7,1.5c0,0.1,0,0.1,0,0.2l-0.3,11.2c0,0.9-0.8,1.6-1.7,1.6
			c0,0,0,0,0,0l-11.5-0.6c-0.8-0.1-1.4-0.7-1.5-1.5l-0.3-10C552.3,818.8,553,818.1,553.8,818z"/>
		<path class="st21" d="M409.8,737l38.3-2c2.9-0.2,5.3,2,5.5,4.8c0,0.2,0,0.4,0,0.6l-1,35.2c-0.1,2.9-2.5,5.1-5.4,4.9
			c0,0-0.1,0-0.1,0l-36.3-1.8c-2.6-0.2-4.5-2.3-4.6-4.9l-0.9-31.5C405.1,739.6,407.1,737.3,409.8,737z"/>
		<path class="st22" d="M774.7,706.1l-58.4-3c-4.4-0.3-8.2,3-8.4,7.4c0,0.3,0,0.6,0,0.9l1.5,53.7c0.2,4.4,3.9,7.7,8.2,7.5
			c0.1,0,0.1,0,0.2,0l55.5-2.7c3.9-0.3,6.9-3.6,7-7.5l1.3-48.1C781.7,709.9,778.7,706.3,774.7,706.1z"/>
		<path class="st21" d="M688,805.5l22.4-1.2c1.7-0.1,3.1,1.1,3.2,2.7c0,0.1,0,0.3,0,0.4l-0.6,20.6c-0.1,1.7-1.4,3-3.1,2.9
			c0,0-0.1,0-0.1,0l-21.3-1c-1.5-0.1-2.6-1.4-2.7-2.9l-0.5-18.5C685.3,807.1,686.4,805.7,688,805.5z"/>
		<path class="st22" d="M307.3,825.7l6.6-0.3c0.5,0,0.9,0.3,0.9,0.8c0,0,0,0.1,0,0.1l-0.2,6.1c0,0.5-0.4,0.9-0.9,0.9c0,0,0,0,0,0
			l-6.3-0.3c-0.4,0-0.8-0.4-0.8-0.8l-0.2-5.5C306.5,826.1,306.8,825.7,307.3,825.7z"/>
		<path class="st22" d="M612.3,801.7l6.6-0.3c0.5-0.1,0.9,0.3,1,0.8c0,0.1,0,0.1,0,0.2l-0.2,6.1c0,0.5-0.4,0.9-0.9,0.9c0,0,0,0,0,0
			l-6.3-0.3c-0.4,0-0.8-0.4-0.8-0.8l-0.2-5.5C611.5,802.1,611.8,801.7,612.3,801.7z"/>
		
			<linearGradient id="SVGID_00000121260173356401116530000007805259767196215733_" gradientUnits="userSpaceOnUse" x1="877.6208" y1="199.0762" x2="911.4409" y2="199.0762" gradientTransform="matrix(1 0 0 -1 0 948.7875)">
			<stop  offset="0" style="stop-color:#FCDEB3"/>
			<stop  offset="1" style="stop-color:#F9C476"/>
		</linearGradient>
		<path style="fill:url(#SVGID_00000121260173356401116530000007805259767196215733_);" d="M878.4,737.1c1-0.8,8.9,2.6,8.8,3.8
			s5.5,12.9,5.5,12.9l9.7-7.7l0,0c0.1-0.3,1-3.3,1-3.8s1.7-1.5,2.4-1.4s-0.7,1.1-0.7,1.3c-0.2,0.5,0.7,0.7,0.7,0.7s2.8-1.5,2.9-2.4
			s0.6-2.8,1.2-2.4c0.3,0.2,0.3,1.5,0.2,2.2c0.2-0.7,0.4-1.5,0.7-1.6c0.5-0.2,0.7,0.4,0.6,0.7s-0.8,3.3-1,3.7s-4.7,4-5.4,4.8
			c0,0-12.5,14.3-13.4,14.7s-3.6-4.6-6.2-7.9S875.2,739.7,878.4,737.1z"/>
		<path class="st24" d="M853.1,842.3c0,0-1.7,1.7-1.8,2.3s-0.2,7.2,0.5,7.8s2.8,1.1,2.1,1.8c-0.5,0.5-4.4,0.4-6.9,0.3
			c-0.8,0-1.7-6-2-6.9c-0.4-1.3-1.5-4.1-1.1-5c0.6-0.9,1.4-1.6,2.4-2.2c1-0.8,1.9-1.7,2.6-2.8L853.1,842.3z"/>
		
			<linearGradient id="SVGID_00000140716900922944164890000016920163967675970727_" gradientUnits="userSpaceOnUse" x1="843.1201" y1="101.2674" x2="854.8426" y2="101.2674" gradientTransform="matrix(1 0 0 -1 0 948.7875)">
			<stop  offset="0" style="stop-color:#333333"/>
			<stop  offset="1" style="stop-color:#000000"/>
		</linearGradient>
		<path style="fill:url(#SVGID_00000140716900922944164890000016920163967675970727_);" d="M846.5,840.4c0,0,4,11.2,5.5,11.7
			c0.4,0.1,2.4,0.5,2.8,1.4c0.1,0.4,0.1,0.8,0,1.1h-8.3c0,0-1-4.9-1.5-7.1c0,0-2.2-5.3-1.9-5.8S846.5,840.4,846.5,840.4z"/>
		<path class="st26" d="M871.2,845.3c0,0-1.6,4.3-1.6,4.4c-0.2,1-0.4,2-0.6,3c0,2.4,9.3-1.2,9-1.6c-0.6-1-1.1-2-1.4-3.1
			c0-1,0.4-2,0.9-2.8L871.2,845.3z"/>
		
			<linearGradient id="SVGID_00000116937234162599329250000017805809345347754408_" gradientUnits="userSpaceOnUse" x1="869.99" y1="142.1074" x2="890.4361" y2="142.1074" gradientTransform="matrix(1 0 0 -1 0 948.7875)">
			<stop  offset="0" style="stop-color:#2B3582"/>
			<stop  offset="1" style="stop-color:#150E42"/>
		</linearGradient>
		<path style="fill:url(#SVGID_00000116937234162599329250000017805809345347754408_);" d="M887.6,765.3c0,0,0.8,7.8,0.8,7.9
			c0,12.6,2.5,37.2,2,39.6c-1.2,5.8-13.6,35.3-13.6,35.3l-6.7-0.8l8.8-35.3l-3.2-14.2l-4.6-28.1L887.6,765.3z"/>
		
			<linearGradient id="SVGID_00000123434267168993354790000001242179904064445369_" gradientUnits="userSpaceOnUse" x1="847" y1="143.2624" x2="885.59" y2="143.2624" gradientTransform="matrix(1 0 0 -1 0 948.7875)">
			<stop  offset="0" style="stop-color:#2B3582"/>
			<stop  offset="1" style="stop-color:#150E42"/>
		</linearGradient>
		<path style="fill:url(#SVGID_00000123434267168993354790000001242179904064445369_);" d="M865,772.2l-1.3,7.4l-3.5,30.4L847,839.7
			c0,0,1.8,4.3,4.6,4.9l21-30.5l13-39l-0.5-8.7L865,772.2z"/>
		
			<linearGradient id="SVGID_00000073692724053922525410000000683502714332158602_" gradientUnits="userSpaceOnUse" x1="880.5" y1="211.7339" x2="890.29" y2="211.7339" gradientTransform="matrix(1 0 0 -1 0 948.7875)">
			<stop  offset="0" style="stop-color:#FDF53F"/>
			<stop  offset="0.18" style="stop-color:#FCEF40"/>
			<stop  offset="0.44" style="stop-color:#F9DD44"/>
			<stop  offset="0.73" style="stop-color:#F3C14A"/>
			<stop  offset="1" style="stop-color:#ED9F51"/>
		</linearGradient>
		<path style="fill:url(#SVGID_00000073692724053922525410000000683502714332158602_);" d="M890.3,746.7l-9.4,1
			c0,0-0.4-7.7-0.4-11.3c0-4.4,0.4-10.2,0.9-10c1.9,0.4,3.5,1.4,4.7,2.8C890.3,734.9,890.3,746.7,890.3,746.7z"/>
		
			<linearGradient id="SVGID_00000080911486912081005230000009531748324129738889_" gradientUnits="userSpaceOnUse" x1="875.9725" y1="222.765" x2="875.9725" y2="171.0054" gradientTransform="matrix(1 0 0 -1 0 948.7875)">
			<stop  offset="0" style="stop-color:#FDF53F"/>
			<stop  offset="0.18" style="stop-color:#FCEF40"/>
			<stop  offset="0.44" style="stop-color:#F9DD44"/>
			<stop  offset="0.73" style="stop-color:#F3C14A"/>
			<stop  offset="1" style="stop-color:#ED9F51"/>
		</linearGradient>
		<path style="fill:url(#SVGID_00000080911486912081005230000009531748324129738889_);" d="M885.7,735.6c0.2,1.3,3.8,38.1,3.8,38.1
			c-17,8.2-26.4,1.5-26.4,1.5s0.5-25.8-0.1-29.3c-0.4-2.3-1-17.8,0.5-18.2c2.1-0.7,4.3-1.1,6.6-1.4c2.1-0.2,10.1-0.3,11.5,0.2
			C883.8,729,885.2,732.2,885.7,735.6z"/>
		
			<linearGradient id="SVGID_00000139294589327911801170000000855069364181413800_" gradientUnits="userSpaceOnUse" x1="901.87" y1="224.8824" x2="931.91" y2="224.8824" gradientTransform="matrix(1 0 0 -1 0 948.7875)">
			<stop  offset="4.000000e-02" style="stop-color:#F7D9CF"/>
			<stop  offset="0.46" style="stop-color:#FFE1C2"/>
			<stop  offset="0.87" style="stop-color:#F7CFC1"/>
		</linearGradient>
		<polygon style="fill:url(#SVGID_00000139294589327911801170000000855069364181413800_);" points="916.5,735.6 931.9,712.2 
			905.4,721.5 901.9,731.7 		"/>
		
			<linearGradient id="SVGID_00000031913060859458104730000016365702346709538726_" gradientUnits="userSpaceOnUse" x1="901.87" y1="226.3524" x2="931.91" y2="226.3524" gradientTransform="matrix(1 0 0 -1 0 948.7875)">
			<stop  offset="4.000000e-02" style="stop-color:#F7D9CF"/>
			<stop  offset="0.46" style="stop-color:#FFE1C2"/>
			<stop  offset="0.87" style="stop-color:#F7CFC1"/>
		</linearGradient>
		<polygon style="fill:url(#SVGID_00000031913060859458104730000016365702346709538726_);" points="901.9,731.7 905.6,732.7 
			931.9,712.2 905.4,721.5 		"/>
		
			<linearGradient id="SVGID_00000152234504882228318840000008075240568259157412_" gradientUnits="userSpaceOnUse" x1="823.73" y1="193.6524" x2="912.26" y2="193.6524" gradientTransform="matrix(1 0 0 -1 0 948.7875)">
			<stop  offset="0" style="stop-color:#00D5FC"/>
			<stop  offset="0.8575" style="stop-color:#009DC2"/>
			<stop  offset="1" style="stop-color:#009DC2"/>
		</linearGradient>
		<polygon style="fill:url(#SVGID_00000152234504882228318840000008075240568259157412_);" points="905.4,721.5 912.3,719.1 
			908.5,725.5 824.3,791.2 823.7,785.2 		"/>
		
			<linearGradient id="SVGID_00000036933939964142466140000000150717912008296846_" gradientUnits="userSpaceOnUse" x1="870.335" y1="224.4774" x2="870.335" y2="151.3874" gradientTransform="matrix(1 0 0 -1 0 948.7875)">
			<stop  offset="0" style="stop-color:#00D5FC"/>
			<stop  offset="0.8575" style="stop-color:#009DC2"/>
			<stop  offset="1" style="stop-color:#009DC2"/>
		</linearGradient>
		<polygon style="fill:url(#SVGID_00000036933939964142466140000000150717912008296846_);" points="908.5,725.5 916.4,724.3 
			913.3,731.6 829.1,797.4 824.3,791.2 		"/>
		
			<linearGradient id="SVGID_00000127738329234408359900000014650801939479845261_" gradientUnits="userSpaceOnUse" x1="829.13" y1="184.2974" x2="920.47" y2="184.2974" gradientTransform="matrix(1 0 0 -1 0 948.7875)">
			<stop  offset="0" style="stop-color:#00D5FC"/>
			<stop  offset="0.8575" style="stop-color:#009DC2"/>
			<stop  offset="1" style="stop-color:#009DC2"/>
		</linearGradient>
		<polygon style="fill:url(#SVGID_00000127738329234408359900000014650801939479845261_);" points="913.3,731.6 920.5,729.6 
			916.5,735.6 834.8,799.4 829.1,797.4 		"/>
		
			<linearGradient id="SVGID_00000095307671408236907350000008879295614618622877_" gradientUnits="userSpaceOnUse" x1="823.73" y1="157.8924" x2="838.46" y2="157.8924" gradientTransform="matrix(1 0 0 -1 0 948.7875)">
			<stop  offset="1.000000e-02" style="stop-color:#ED5EB6"/>
			<stop  offset="0.13" style="stop-color:#F783C5"/>
			<stop  offset="0.25" style="stop-color:#FFA3D2"/>
			<stop  offset="0.62" style="stop-color:#DC5199"/>
			<stop  offset="0.72" style="stop-color:#DF589E"/>
			<stop  offset="0.81" style="stop-color:#E463A6"/>
			<stop  offset="1" style="stop-color:#DC3D8F"/>
		</linearGradient>
		<polygon style="fill:url(#SVGID_00000095307671408236907350000008879295614618622877_);" points="835.3,792.6 830.5,786.4 
			827.4,782.4 823.7,785.2 824.3,791.2 829.1,797.4 834.8,799.4 838.5,796.6 		"/>
		
			<linearGradient id="SVGID_00000088097717552426525580000002338714373069352110_" gradientUnits="userSpaceOnUse" x1="827.8448" y1="167.2125" x2="845.2977" y2="157.1366" gradientTransform="matrix(1 0 0 -1 0 948.7875)">
			<stop  offset="0" style="stop-color:#BEC5D8"/>
			<stop  offset="0.21" style="stop-color:#EBEDF3"/>
			<stop  offset="0.24" style="stop-color:#E2E4EC"/>
			<stop  offset="0.5" style="stop-color:#9097B3"/>
			<stop  offset="0.62" style="stop-color:#70789C"/>
			<stop  offset="0.68" style="stop-color:#767EA3"/>
			<stop  offset="0.77" style="stop-color:#888EB5"/>
			<stop  offset="0.82" style="stop-color:#949AC2"/>
			<stop  offset="1" style="stop-color:#8B90B5"/>
		</linearGradient>
		<polygon style="fill:url(#SVGID_00000088097717552426525580000002338714373069352110_);" points="842.6,786.9 837.8,780.7 
			834.7,776.7 827.4,782.4 830.5,786.4 835.3,792.6 838.5,796.6 845.8,790.9 		"/>
		
			<linearGradient id="SVGID_00000023986454229515439060000005872254840911251635_" gradientUnits="userSpaceOnUse" x1="922.92" y1="232.6474" x2="931.91" y2="232.6474" gradientTransform="matrix(1 0 0 -1 0 948.7875)">
			<stop  offset="0" style="stop-color:#333333"/>
			<stop  offset="1" style="stop-color:#000000"/>
		</linearGradient>
		<path style="fill:url(#SVGID_00000023986454229515439060000005872254840911251635_);" d="M926.7,720.1c0.1-0.1,5.2-8,5.2-8l-9,3.2
			l3.2,1.4L926.7,720.1z"/>
		
			<linearGradient id="SVGID_00000118363325251451147040000003642368838731876012_" gradientUnits="userSpaceOnUse" x1="845.4706" y1="188.9837" x2="863.39" y2="188.9837" gradientTransform="matrix(1 0 0 -1 0 948.7875)">
			<stop  offset="0" style="stop-color:#FCDEB3"/>
			<stop  offset="1" style="stop-color:#F9C476"/>
		</linearGradient>
		<path style="fill:url(#SVGID_00000118363325251451147040000003642368838731876012_);" d="M846.2,774.1c0-0.1,0-0.2,0-0.2
			c0.2-2.5,2.4-23.9,2.7-24.8s9.8-14.4,9.8-14.4l4.7,6.3l-9.1,12.2c-0.2,0.8-3.5,15.2-3.5,15.2s-0.7,2.6-1,4.2
			c0.1,0.4,0.3,0.7,0.4,1c0.3,0.6,0.6,1.1,1,1.6c0.5,0.6,0.8,1.3,1.2,2.1c0.1,0.4,0.3,1.1,0.4,1.6s0.2,1,0.3,1.3
			c0.1,0.2,0.2,0.5,0.3,0.7c0.1,0.2,0,0.4-0.1,0.5c-0.1,0.1-0.2,0.1-0.3,0c-0.3-0.1-0.6-0.5-0.8-0.8c-0.5-0.8-0.7-2.1-0.8-2.1
			s-0.5,2.4-0.6,2.7c-0.2,1.2-0.5,2.3-0.8,3.5c-0.3,0.5-0.6,0.4-0.7,0.1s0.3-4.1,0.3-4.1s0-0.5-0.2-0.3s-0.6,3.6-0.7,4.1
			s-0.5,0.8-0.8,0.4s0.2-4.2,0.2-4.2s0.1-0.5-0.1-0.4s-0.5,3-0.6,3.2c-0.1,0.2-0.3,0.3-0.5,0.2c-0.1-0.1-0.2-0.1-0.2-0.2
			c0-1.3,0.1-2.5,0.3-3.8c0,0,0-0.3-0.2-0.2s-0.5,2.6-0.8,2.8c-0.1,0.1-0.3,0.1-0.4,0c0,0,0,0,0,0c-0.5-0.3,0.2-2.7,0.2-3.9
			s0.5-2.5,0.4-3.9C846.2,774.5,846.2,774.2,846.2,774.1z"/>
		
			<linearGradient id="SVGID_00000111901542346118052140000009045884333966217876_" gradientUnits="userSpaceOnUse" x1="859.3998" y1="221.1591" x2="859.3998" y2="200.1274" gradientTransform="matrix(1 0 0 -1 0 948.7875)">
			<stop  offset="0" style="stop-color:#FDF53F"/>
			<stop  offset="0.18" style="stop-color:#FCEF40"/>
			<stop  offset="0.44" style="stop-color:#F9DD44"/>
			<stop  offset="0.73" style="stop-color:#F3C14A"/>
			<stop  offset="1" style="stop-color:#ED9F51"/>
		</linearGradient>
		<path style="fill:url(#SVGID_00000111901542346118052140000009045884333966217876_);" d="M851.3,743.2l8.1,5.4c0,0,4.6-6.8,7-9.2
			c3.1-3-1.1-12.3-3.1-11.8C858.9,728.8,851.3,743.2,851.3,743.2z"/>
		
			<linearGradient id="SVGID_00000026154597304531199850000010949201884832295099_" gradientUnits="userSpaceOnUse" x1="874.9821" y1="214.5323" x2="874.9821" y2="230.1176" gradientTransform="matrix(1 0 0 -1 0 948.7875)">
			<stop  offset="0" style="stop-color:#FCDEB3"/>
			<stop  offset="1" style="stop-color:#F9A262"/>
		</linearGradient>
		<path style="fill:url(#SVGID_00000026154597304531199850000010949201884832295099_);" d="M872.3,719.1l-1.1,7.2c0,0,4,8.6,6.4,7.9
			c2-0.6,0.8-8.2,0.8-8.2s-1.1-4.1-0.8-6.2S872.3,719.1,872.3,719.1z"/>
		
			<linearGradient id="SVGID_00000164479799415724865480000009103509182797169291_" gradientUnits="userSpaceOnUse" x1="870.9419" y1="234.6752" x2="881.0066" y2="234.6752" gradientTransform="matrix(1 0 0 -1 0 948.7875)">
			<stop  offset="0" style="stop-color:#FCDEB3"/>
			<stop  offset="1" style="stop-color:#F9C476"/>
		</linearGradient>
		<path style="fill:url(#SVGID_00000164479799415724865480000009103509182797169291_);" d="M871.4,708.9c-0.2-0.1-1.3,8.2,0.8,10.5
			s6.3,3,7.7,1.2c1.6-2,1.6-10.9-1.7-13.2S871.4,708.9,871.4,708.9z"/>
		
			<linearGradient id="SVGID_00000134942168848695508720000015927947586183605171_" gradientUnits="userSpaceOnUse" x1="866.86" y1="236.4583" x2="879.83" y2="236.4583" gradientTransform="matrix(1 0 0 -1 0 948.7875)">
			<stop  offset="1.000000e-02" style="stop-color:#603813"/>
			<stop  offset="1" style="stop-color:#C69C6D"/>
		</linearGradient>
		<path style="fill:url(#SVGID_00000134942168848695508720000015927947586183605171_);" d="M877,702.9c-1.8,0.4-3.5,1.4-4.8,2.7
			c-1.2,0.1-2.7,0.8-4.4,3.5c-1.7,3-0.9,6.7,1.8,8.8c1.3,0.9,2.1,2.3,2.3,3.9l0.4-1.1c0.3-0.8,0.4-1.7,0.3-2.5c0-0.5-0.2-1-0.4-1.5
			c-0.6-1.2,1.2-2,1.7-3c0.4-0.8,0.4-2.5,1-3.8l0.7-1c0.9-0.7,2.1-1.1,3.3-0.9C880.5,708.3,880.2,702.3,877,702.9z"/>
		
			<linearGradient id="SVGID_00000166660557820293975640000013502056865944895630_" gradientUnits="userSpaceOnUse" x1="871.65" y1="233.6324" x2="873.77" y2="233.6324" gradientTransform="matrix(1 0 0 -1 0 948.7875)">
			<stop  offset="0" style="stop-color:#FCDEB3"/>
			<stop  offset="1" style="stop-color:#F9C476"/>
		</linearGradient>
		<path style="fill:url(#SVGID_00000166660557820293975640000013502056865944895630_);" d="M873.8,715.1c0,1-0.4,1.8-1,1.8
			s-1.1-0.8-1.1-1.8s0.4-1.8,1-1.8S873.8,714.1,873.8,715.1z"/>
		<path class="st15" d="M876.2,718.5l3.2-0.2c0,0.8-0.7,1.3-1.4,1.3C876.3,719.8,876.2,718.5,876.2,718.5z"/>
		
			<linearGradient id="SVGID_00000067959069862518744950000014808488908504520088_" gradientUnits="userSpaceOnUse" x1="868.24" y1="96.3044" x2="885.6078" y2="96.3044" gradientTransform="matrix(1 0 0 -1 0 948.7875)">
			<stop  offset="0" style="stop-color:#333333"/>
			<stop  offset="1" style="stop-color:#000000"/>
		</linearGradient>
		<path style="fill:url(#SVGID_00000067959069862518744950000014808488908504520088_);" d="M868.2,855l1.2-4.8c0,0,2.5,1.4,3.8,1.1
			c1.3-0.4,2.5-0.8,3.7-1.3c1-0.4,9.3,3.3,8.6,5H868.2z"/>
		<path class="st15" d="M262.3,903.2c8,3,10.6,10.5,10.6,26.5c0,7.2,0.9,12.8,2.8,16.8h-22.3c-0.7-4.6-0.9-9.3-1.1-21.3
			c0-8.5-2.8-13.8-8.8-14.2c-2.5-0.1-4.7-0.1-7.2-0.1H228l-6.3,35.6h-20.5l16-90.7h34.4c4.5-0.1,9,0.2,13.5,0.7
			c11.3,1.3,20.4,7.1,20.4,19.7C285.5,890.5,276.9,899.5,262.3,903.2z M263.1,881.3c0-6.3-4.1-8.7-9.7-9.2c-1.8-0.1-4.1-0.3-7-0.3
			h-11.5l-4.2,23.9h10.9c2.9,0,5,0,7-0.1C256.1,895,263.1,891.3,263.1,881.3L263.1,881.3z"/>
		<path class="st15" d="M278.2,948.2h-26.3l-0.2-1.4c-0.7-4.8-0.9-9.9-1.1-21.5c0-8-2.4-12.3-7.3-12.6c-2.4-0.1-4.7-0.1-7.1-0.1
			h-6.9l-6.3,35.6h-23.8l16.6-94h35.8c4.6-0.1,9.2,0.2,13.7,0.7c13.9,1.6,21.8,9.4,21.8,21.3c0,13.4-7.1,22.8-20.6,27.4
			c6.5,4.6,8,13.6,8,26.1c0,7,0.9,12.2,2.6,16.1L278.2,948.2z M254.8,944.9h18.5c-1.5-4.9-2.1-10-2-15.2c0-15.8-2.5-22.3-9.6-25
			l-4.9-1.8l5.1-1.3c10-2.5,22-9,22-25.3c0-13.1-10.3-17.1-18.9-18.1c-4.4-0.5-8.9-0.7-13.3-0.6h-33l-15.4,87.4h17.2l6.3-35.6h9.6
			c2.5,0,4.8,0,7.3,0.1c4.7,0.3,10.4,3.3,10.4,15.8C254,935.6,254.2,940.6,254.8,944.9L254.8,944.9z M241.5,897.4h-12.9l4.8-27.2
			h12.9c2.9,0,5.2,0.1,7.1,0.3c7.5,0.7,11.3,4.3,11.3,10.8c0,9.4-5.7,15.1-16.1,16C246.6,897.4,244.4,897.4,241.5,897.4L241.5,897.4
			z M232.6,894.2h8.9c2.8,0,4.9,0,6.9-0.1c8.7-0.8,13.1-5,13.1-12.7c0-4.7-2.5-7-8.2-7.6c-1.8-0.1-4-0.3-6.8-0.3h-10.2L232.6,894.2z
			"/>
		<path class="st15" d="M317.2,893h42.5l-2.9,16h-42.5l-3.7,21.3h46.6l-2.9,16.2h-67.1l16-90.7h65.8l-2.9,16h-45.3L317.2,893z"/>
		<path class="st15" d="M355.8,948.2h-70.5l16.6-94h69.2l-3.5,19.3h-45.3l-3.1,17.9h42.5l-3.5,19.3h-42.4l-3.1,18h46.7L355.8,948.2z
			 M289.2,944.9H353l2.3-12.9h-46.6l4.2-24.6h42.5l2.3-12.7h-42.4l4.2-24.4h45.3l2.3-12.8h-62.5L289.2,944.9z"/>
		<path class="st15" d="M462.1,885.4l-0.1,1.3h-20.6v-1.3c-0.1-11.2-5.8-16.2-16.7-16.2c-15.9,0-30,14.7-30,40
			c0,16.4,7.8,23.9,18.4,23.9s18.9-6.2,23.4-17.8H418l2.9-16H459l-8.4,47.2h-16.3l0.9-14.2l-5.6,9.3c-5.9,4.7-12.9,6.7-22.7,6.7
			c-21.1,0-34-13.5-34-36.8c0-36.4,26.3-57.5,54.8-57.5C452.8,854,463.5,867.5,462.1,885.4z"/>
		<path class="st15" d="M406.8,950c-22.3,0-35.7-14.4-35.7-38.4c0-38.9,28.4-59.2,56.4-59.2c12.8,0,22.9,3.5,29.1,10.2
			c5.3,5.7,7.8,13.7,7.1,23l-0.3,2.8h-23.8v-3c-0.1-10-4.8-14.5-15-14.5c-14.1,0-28.3,13.2-28.3,38.3c0,14.2,6.1,22.3,16.8,22.3
			c9.2,0,16.6-5.1,20.9-14.5h-18l3.5-19.3H461l-9,50.5h-19.5l0.6-9.2l-2.5,4C424.5,947.8,417.1,950,406.8,950z M427.6,855.7
			c-26.4,0-53.2,19.2-53.2,55.9c0,22,12.1,35.2,32.4,35.2c9.5,0,16-1.8,21.5-6.2l9-14.8l-1.3,19.1h13.2L457,901h-34.7l-2.3,12.7h19
			l-0.9,2.2c-4.7,12.1-13.5,18.8-24.9,18.8c-12.5,0-20-9.6-20-25.6c0-27.3,15.9-41.6,31.6-41.6c11.9,0,18.1,5.9,18.3,17.5h17.5
			c0.6-8.3-1.6-15.3-6.2-20.3C448.7,858.8,439.5,855.7,427.6,855.7z"/>
		<path class="st15" d="M470.2,946.5l16-90.7h20.5l-16,90.7H470.2z"/>
		<path class="st15" d="M492,948.2h-23.8l16.6-94h23.8L492,948.2z M472.1,944.9h17.2l15.5-87.4h-17.1L472.1,944.9z"/>
		<path class="st15" d="M585,883.1h-20.8c0.5-8.4-3.4-13.8-12.1-13.8c-7.4,0-12.9,3.9-12.9,11.4c0,5.5,4.5,9.1,17.1,12.1
			c16.6,4.1,24,12.3,24,24.4c0,20.2-18.8,31.2-39.8,31.2s-35.2-9.5-33.4-29H528c0.1,9.3,6.7,13.8,15,13.8s15.2-4.6,15.2-12
			c0-5.1-4.2-9.3-14.6-12.1c-16.6-4.2-26.5-10.4-26.5-23.8c0-20,17.9-31.3,37.3-31.3C577,854,585.9,866.6,585,883.1z"/>
		<path class="st15" d="M540.6,950c-13,0-23-3.5-29-10c-4.8-5.3-6.8-12.3-6-20.8l0.1-1.5h23.9v1.6c0.1,7.6,5.1,12.2,13.3,12.2
			c8,0,13.6-4.2,13.6-10.3c0-4.6-4.5-8.2-13.4-10.5c-13.7-3.5-27.8-9.2-27.8-25.4c0-21.6,19.6-32.9,39-32.9c11.2,0,19.8,3,25.3,8.9
			c5,5.3,7.4,12.9,6.9,21.9l-0.1,1.5h-24.1l0.1-1.7c0.2-4-0.6-7.2-2.5-9.2s-4.4-2.8-7.9-2.8c-7,0-11.2,3.7-11.2,9.8
			c0,3.5,1.9,7.2,15.8,10.5c16.8,4.1,25.3,12.9,25.3,26C582.1,939.7,560.6,950,540.6,950z M508.7,921c-0.4,6.9,1.4,12.5,5.3,16.8
			c5.3,5.9,14.5,9,26.5,9c18.4,0,38.2-9.2,38.2-29.5c0-11.6-7.5-19.1-22.8-22.8c-13-3.1-18.3-7.1-18.3-13.7
			c0-7.9,5.7-13.1,14.5-13.1c4.5,0,7.9,1.3,10.3,3.9c2.2,2.4,3.4,5.8,3.5,9.9h17.5c0.1-7.4-2-13.5-6.1-17.9
			c-4.9-5.2-12.7-7.9-23-7.9c-17.7,0-35.7,10.2-35.7,29.6c0,11.2,7.3,17.6,25.3,22.2c10.5,2.8,15.8,7.4,15.8,13.7
			c0,7.9-7.1,13.6-16.9,13.6c-9.5,0-15.7-5.2-16.5-13.8L508.7,921z"/>
		<path class="st15" d="M645.7,871.9l-13.1,74.6h-20.5l13.1-74.6H595l2.9-16h81l-3,16H645.7z"/>
		<path class="st15" d="M634,948.2h-23.9l13.1-74.6H593l3.5-19.3h84.3l-3.6,19.3h-30L634,948.2z M614,944.9h17.2l13.1-74.6h30.1
			l2.4-12.8h-77.5l-2.3,12.8h30.2L614,944.9z"/>
		<path class="st15" d="M732.8,903.2c8,3,10.6,10.5,10.6,26.5c0,7.2,0.9,12.8,2.8,16.8h-22.3c-0.7-4.6-0.9-9.3-1-21.3
			c0-8.5-2.8-13.8-8.8-14.2c-2.5-0.1-4.7-0.1-7.2-0.1h-8.3l-6.3,35.6h-20.5l16-90.7h34.4c4.5-0.1,9,0.2,13.5,0.7
			c11.3,1.3,20.4,7.1,20.4,19.7C756.1,890.5,747.4,899.5,732.8,903.2z M733.6,881.3c0-6.3-4.1-8.7-9.7-9.2c-1.8-0.1-4.1-0.3-7-0.3
			h-11.5l-4.2,23.9h10.9c2.9,0,5,0,7-0.1C726.7,895,733.6,891.3,733.6,881.3L733.6,881.3z"/>
		<path class="st15" d="M748.8,948.2h-26.3l-0.2-1.4c-0.7-4.8-0.9-9.9-1.1-21.5c0-8-2.4-12.3-7.3-12.6c-2.4-0.1-4.7-0.1-7.1-0.1
			h-6.9l-6.3,35.6h-23.8l16.6-94h35.8c4.6-0.1,9.2,0.2,13.7,0.7c13.9,1.6,21.8,9.4,21.8,21.3c0,13.4-7.1,22.8-20.6,27.4
			c6.5,4.6,8,13.6,8,26.1c0,7,0.8,12.2,2.6,16.1L748.8,948.2z M725.3,944.9h18.5c-1.5-4.9-2.1-10-2-15.2c0-15.8-2.5-22.3-9.6-25
			l-4.9-1.8l5.1-1.3c10-2.5,22-9,22-25.3c0-13.1-10.3-17.1-18.9-18.1c-4.4-0.5-8.9-0.7-13.3-0.6h-33l-15.5,87.4h17.2l6.3-35.6h9.7
			c2.5,0,4.8,0,7.3,0.1c4.7,0.3,10.4,3.3,10.4,15.8C724.6,935.6,724.8,940.6,725.3,944.9L725.3,944.9z M712.1,897.4h-12.9l4.8-27.2
			h13c2.9,0,5.2,0.1,7.1,0.3c7.5,0.7,11.2,4.3,11.2,10.8c0,9.4-5.7,15.1-16.1,16C717.2,897.4,715,897.4,712.1,897.4L712.1,897.4z
			 M703.1,894.2h9c2.8,0,4.9,0,6.8-0.1c5.9-0.5,13.1-3.1,13.1-12.7c0-4.7-2.5-7-8.2-7.6c-1.8-0.1-4-0.3-6.8-0.3h-10.2L703.1,894.2z"
			/>
		<path class="st15" d="M784,920.9l-12.8,25.6h-22.1l48.1-90.7h26.9l15.8,90.7h-22.4l-3.7-25.6H784z M807.1,874.5L792,904.7h19.4
			L807.1,874.5z"/>
		<path class="st15" d="M841.9,948.2h-25.7l-3.7-25.6H785l-12.8,25.6h-25.8l49.8-94h29.3L841.9,948.2z M819,944.9h19l-15.2-87.4
			h-24.6l-46.3,87.4h18.3l12.8-25.6h32.4L819,944.9z M813.3,906.4h-24l18.7-37.3L813.3,906.4z M794.6,903.1h14.9l-3.3-23.2
			L794.6,903.1z"/>
		<path class="st15" d="M895.7,871.9l-13.1,74.6H862l13.1-74.6h-30.2l2.9-16h80.9l-3,16H895.7z"/>
		<path class="st15" d="M883.9,948.2h-23.8l13.1-74.6H843l3.5-19.3h84.3l-3.6,19.3H897L883.9,948.2z M864,944.9h17.2l13.1-74.6h30.1
			l2.4-12.8h-77.6l-2.3,12.8h30.2L864,944.9z"/>
		<path class="st15" d="M951.7,893h42.4l-2.9,16h-42.4l-3.7,21.3h46.7l-2.9,16.2h-67.2l16-90.7h65.8l-2.9,16h-45.3L951.7,893z"/>
		<path class="st15" d="M990.2,948.2h-70.5l16.6-94h69.2l-3.5,19.3h-45.3l-3.1,17.9h42.5l-3.5,19.3h-42.4l-3.1,18h46.7L990.2,948.2z
			 M923.7,944.9h63.8l2.3-12.9h-46.6l4.2-24.6h42.5l2.3-12.7h-42.4l4.3-24.4h45.3l2.3-12.8h-62.5L923.7,944.9z"/>
		
			<linearGradient id="SVGID_00000029741559228667451380000001144576693342653607_" gradientUnits="userSpaceOnUse" x1="404.09" y1="85.7798" x2="427.2179" y2="85.7798" gradientTransform="matrix(1 0 0 -1 0 948.7875)">
			<stop  offset="0" style="stop-color:#FCDEB3"/>
			<stop  offset="1" style="stop-color:#F9C476"/>
		</linearGradient>
		<path style="fill:url(#SVGID_00000029741559228667451380000001144576693342653607_);" d="M404.1,858.9c0,0,12.8,10,13.2,11.8
			c0.6,2.5,12.3-0.8,9.5-1.3c-0.6-0.1-2.7-0.6-2.9-0.7c-0.9-0.5-12.3-14.2-12.3-14.2L404.1,858.9z"/>
		
			<linearGradient id="SVGID_00000059285049702629679970000004391083939997942707_" gradientUnits="userSpaceOnUse" x1="416.8315" y1="76.0821" x2="438.1102" y2="76.0821" gradientTransform="matrix(1 0 0 -1 0 948.7875)">
			<stop  offset="0" style="stop-color:#333333"/>
			<stop  offset="1" style="stop-color:#000000"/>
		</linearGradient>
		<path style="fill:url(#SVGID_00000059285049702629679970000004391083939997942707_);" d="M432.3,869.3l-8.1-0.7
			c-2,1.4-4.4,2.1-6.8,2c-0.4,1.4-0.6,2.9-0.4,4.4c0.1,0.4,0.1,1.7,0.5,1.6c1.5-0.1,5.5-1.1,10.1-2c0,0,6.1-1.3,9.7-3.4
			S432.3,869.3,432.3,869.3z"/>
		
			<linearGradient id="SVGID_00000133520651275703533210000011256194220805159596_" gradientUnits="userSpaceOnUse" x1="343.6428" y1="101.0331" x2="418.26" y2="101.0331" gradientTransform="matrix(1 0 0 -1 0 948.7875)">
			<stop  offset="0" style="stop-color:#2B3582"/>
			<stop  offset="1" style="stop-color:#150E42"/>
		</linearGradient>
		<path style="fill:url(#SVGID_00000133520651275703533210000011256194220805159596_);" d="M346.9,833.8c6.6,0.9,13.2,0.6,19.7-0.8
			c12-2.8,25.2-5.4,29.1-3.1c3.1,1.8,22.6,31.3,22.6,31.3l-7.5,5.5l-21.5-24c0,0-27.4,10.1-33.5,9
			C341.7,849,341.5,837.8,346.9,833.8z"/>
		
			<linearGradient id="SVGID_00000121968232370008003760000017599754493723202751_" gradientUnits="userSpaceOnUse" x1="375.1771" y1="56.9726" x2="382.7" y2="56.9726" gradientTransform="matrix(1 0 0 -1 0 948.7875)">
			<stop  offset="0" style="stop-color:#FCDEB3"/>
			<stop  offset="1" style="stop-color:#F9C476"/>
		</linearGradient>
		<path style="fill:url(#SVGID_00000121968232370008003760000017599754493723202751_);" d="M376.1,878.6c0,0-0.6,15.4-0.9,18.1
			s6.6,10.5,5.7,7.7c-0.2-0.6-0.7-2.7-0.7-2.9c0-1,2.6-18.7,2.6-18.7L376.1,878.6z"/>
		
			<linearGradient id="SVGID_00000132063924946894438110000006472478234640192924_" gradientUnits="userSpaceOnUse" x1="368.622" y1="42.9042" x2="386.0567" y2="42.9042" gradientTransform="matrix(1 0 0 -1 0 948.7875)">
			<stop  offset="0" style="stop-color:#333333"/>
			<stop  offset="1" style="stop-color:#000000"/>
		</linearGradient>
		<path style="fill:url(#SVGID_00000132063924946894438110000006472478234640192924_);" d="M385.3,910.1l-5.1-8.3
			c-2.2-1.1-3.9-2.8-5-5c-1.5,0.3-2.9,0.9-4.1,1.8c-0.3,0.2-2.6,1.9-2.5,2.3c0.6,1.4,3.7,4.5,7.1,7.8c2.7,2.2,5.5,4.2,8.4,6
			C387.6,916.7,385.3,910.1,385.3,910.1z"/>
		
			<linearGradient id="SVGID_00000083077537446271761370000011513780311443671979_" gradientUnits="userSpaceOnUse" x1="338.37" y1="89.5678" x2="392.1174" y2="89.5678" gradientTransform="matrix(1 0 0 -1 0 948.7875)">
			<stop  offset="0" style="stop-color:#2B3582"/>
			<stop  offset="1" style="stop-color:#150E42"/>
		</linearGradient>
		<path style="fill:url(#SVGID_00000083077537446271761370000011513780311443671979_);" d="M391.3,848.2c-3.3-4.4-29.7-8.5-29.7-8.5
			l-7.4-14.1l-15.9,10c0,0,1.2,13,2.5,16.4c1.6,4.6,12.6,4.8,19.2,4.8c6.1-0.1,17.4,1.2,17.4,1.2l-3.8,33.5c0,0,7.5,1.7,9.6,1.4
			C383.4,892.8,395.3,853.6,391.3,848.2z"/>
		
			<linearGradient id="SVGID_00000129180529598186598650000012893065377075079297_" gradientUnits="userSpaceOnUse" x1="357.865" y1="153.7274" x2="357.865" y2="182.7274" gradientTransform="matrix(1 0 0 -1 0 948.7875)">
			<stop  offset="0" style="stop-color:#FCDEB3"/>
			<stop  offset="1" style="stop-color:#F9A262"/>
		</linearGradient>
		<polygon style="fill:url(#SVGID_00000129180529598186598650000012893065377075079297_);" points="361.9,794.7 354.3,795.1 
			353.9,783.9 353.8,766.6 360.8,766.1 		"/>
		
			<linearGradient id="SVGID_00000072963648344227848250000001077946311002886019_" gradientUnits="userSpaceOnUse" x1="352.6413" y1="176.1458" x2="366.4813" y2="176.1458" gradientTransform="matrix(1 0 0 -1 0 948.7875)">
			<stop  offset="0" style="stop-color:#FCDEB3"/>
			<stop  offset="1" style="stop-color:#F9C476"/>
		</linearGradient>
		<path style="fill:url(#SVGID_00000072963648344227848250000001077946311002886019_);" d="M365.3,778.6c-0.1,1.4-0.8,2.8-1.9,3.7
			c-1,0.9-2.4,1.3-3.7,1.1l-1.2-0.2c-3.6-0.5-6.2-4.2-5.8-8.2l0.8-7.6c0.2-1.6,0.9-3.1,2.1-4.2c1.2-1,2.7-1.5,4.2-1.3l2.6,0.3
			c2.7,0.5,4.4,3,4,5.7L365.3,778.6z"/>
		
			<linearGradient id="SVGID_00000107587340965994390070000011283918812408414349_" gradientUnits="userSpaceOnUse" x1="352.66" y1="175.829" x2="363.74" y2="175.829" gradientTransform="matrix(1 0 0 -1 0 948.7875)">
			<stop  offset="0" style="stop-color:#FCDEB3"/>
			<stop  offset="1" style="stop-color:#F9C476"/>
		</linearGradient>
		<path style="fill:url(#SVGID_00000107587340965994390070000011283918812408414349_);" d="M361.1,782.4l-1.2-0.2
			c-3.6-0.5-6.2-4.2-5.8-8.3c0.3-3,2-6.5,6.3-11.5l-4,1c-1.6,0.5-2.8,1.9-2.9,3.6l-0.9,7.8c-0.5,4.1,2.1,7.8,5.8,8.3l1.2,0.2
			c1.5,0.2,3-0.4,4-1.5C362.9,782.3,362,782.5,361.1,782.4z"/>
		
			<linearGradient id="SVGID_00000153683243364682095160000016436546788846892694_" gradientUnits="userSpaceOnUse" x1="358.45" y1="180.5429" x2="361.35" y2="180.5429" gradientTransform="matrix(1 0 0 -1 0 948.7875)">
			<stop  offset="1.000000e-02" style="stop-color:#603813"/>
			<stop  offset="1" style="stop-color:#C69C6D"/>
		</linearGradient>
		<path style="fill:url(#SVGID_00000153683243364682095160000016436546788846892694_);" d="M360.6,769c-0.2-0.2-0.5-0.4-0.8-0.5
			c-0.3,0-0.6,0.2-0.8,0.4l-0.6-0.8c0.4-0.4,0.9-0.7,1.5-0.7c0.6,0.1,1.1,0.4,1.4,0.8L360.6,769l0.4-0.3L360.6,769z"/>
		
			<linearGradient id="SVGID_00000058584046333804891820000003318128231039130509_" gradientUnits="userSpaceOnUse" x1="363.84" y1="179.7429" x2="366.74" y2="179.7429" gradientTransform="matrix(1 0 0 -1 0 948.7875)">
			<stop  offset="1.000000e-02" style="stop-color:#603813"/>
			<stop  offset="1" style="stop-color:#C69C6D"/>
		</linearGradient>
		<path style="fill:url(#SVGID_00000058584046333804891820000003318128231039130509_);" d="M366,769.8c-0.2-0.2-0.5-0.4-0.8-0.5
			c-0.3,0-0.6,0.2-0.8,0.4l-0.6-0.8c0.4-0.4,0.9-0.7,1.5-0.7c0.6,0.1,1.1,0.4,1.4,0.8L366,769.8l0.4-0.3L366,769.8z"/>
		<path d="M366.3,771.1c-0.1,0-0.2,0-0.2-0.1c-0.3-0.6-1.1-0.8-1.6-0.5c-0.1,0-0.1,0.1-0.1,0.1c-0.1,0-0.2,0-0.2-0.1c0,0,0,0,0,0
			c0-0.1,0-0.2,0.1-0.3c0.7-0.5,1.7-0.3,2.2,0.3c0,0,0.1,0.1,0.1,0.1C366.5,770.8,366.4,771,366.3,771.1L366.3,771.1z"/>
		<path d="M360.8,770.5c-0.1,0-0.2,0-0.2-0.1c-0.3-0.6-1-0.8-1.6-0.5c-0.1,0-0.1,0.1-0.2,0.1c-0.1,0-0.2,0-0.2-0.1c0,0,0,0,0,0
			c-0.1-0.1,0-0.2,0.1-0.3c0.7-0.5,1.7-0.3,2.2,0.4c0,0,0.1,0.1,0.1,0.1C361,770.3,361,770.4,360.8,770.5L360.8,770.5z"/>
		
			<linearGradient id="SVGID_00000075120337468915797650000008520087558064064435_" gradientUnits="userSpaceOnUse" x1="350.804" y1="176.9231" x2="355.1741" y2="176.9231" gradientTransform="matrix(1 0 0 -1 0 948.7875)">
			<stop  offset="0" style="stop-color:#FCDEB3"/>
			<stop  offset="1" style="stop-color:#F9C476"/>
		</linearGradient>
		<path style="fill:url(#SVGID_00000075120337468915797650000008520087558064064435_);" d="M351.4,773.9c0.5,0.9,1.7,1.1,2.5,0.6
			c0.2-0.1,0.4-0.3,0.6-0.6c0.9-1.2,0.9-2.8,0.1-4.1c-0.5-0.9-1.7-1.1-2.5-0.6c-0.2,0.1-0.4,0.3-0.6,0.6
			C350.6,771,350.6,772.7,351.4,773.9z"/>
		
			<linearGradient id="SVGID_00000171719778557576085200000002566764683737000380_" gradientUnits="userSpaceOnUse" x1="350.81" y1="177.1317" x2="354.52" y2="177.1317" gradientTransform="matrix(1 0 0 -1 0 948.7875)">
			<stop  offset="0" style="stop-color:#FCDEB3"/>
			<stop  offset="1" style="stop-color:#F9C476"/>
		</linearGradient>
		<path style="fill:url(#SVGID_00000171719778557576085200000002566764683737000380_);" d="M351.3,771.4c0.4-1.5,1.6-2.4,2.8-1.9
			c0.2,0.1,0.3,0.1,0.4,0.2c-0.2-0.3-0.5-0.5-0.8-0.7c-1.1-0.5-2.4,0.4-2.8,2c-0.4,1.2,0,2.5,0.9,3.3
			C351.2,773.5,351.1,772.4,351.3,771.4z"/>
		
			<linearGradient id="SVGID_00000132070275378003670070000001143795601436529544_" gradientUnits="userSpaceOnUse" x1="354.35" y1="185.8201" x2="366.3185" y2="185.8201" gradientTransform="matrix(1 0 0 -1 0 948.7875)">
			<stop  offset="1.000000e-02" style="stop-color:#603813"/>
			<stop  offset="1" style="stop-color:#C69C6D"/>
		</linearGradient>
		<path style="fill:url(#SVGID_00000132070275378003670070000001143795601436529544_);" d="M354.4,764.8c0,0,2.2-5.4,6.8-4.8
			s5.2,4,5.1,5.9C366.3,765.9,362.6,759.5,354.4,764.8z"/>
		
			<linearGradient id="SVGID_00000158010813865551815690000016162641518787535760_" gradientUnits="userSpaceOnUse" x1="352.64" y1="170.213" x2="365.4943" y2="170.213" gradientTransform="matrix(1 0 0 -1 0 948.7875)">
			<stop  offset="1.000000e-02" style="stop-color:#603813"/>
			<stop  offset="1" style="stop-color:#C69C6D"/>
		</linearGradient>
		<path style="fill:url(#SVGID_00000158010813865551815690000016162641518787535760_);" d="M364,776.2l-1.4,0.2l-2.9,0.3l-0.9,0.9
			l-4.5-4.8l-1.6,1.4l-0.1,0.8c-0.3,2.4,0.6,4.9,2.4,6.6l0,0c0,0,4,5.4,8.9,1.1c0.8-0.7,1.3-1.8,1.4-2.9l0.1-3.1L364,776.2z"/>
		<path class="st15" d="M363,778.8c-0.8,0-1.4-0.6-1.4-1.3c0,0,0,0,0,0l2.6-0.2C364.3,777.9,363.8,778.6,363,778.8z"/>
		
			<linearGradient id="SVGID_00000155831418414464122770000012569560784303700913_" gradientUnits="userSpaceOnUse" x1="2118.2485" y1="144.2849" x2="2118.2485" y2="192.4373" gradientTransform="matrix(-1 0 0 -1 2492.96 948.7875)">
			<stop  offset="0" style="stop-color:#FDF53F"/>
			<stop  offset="0.18" style="stop-color:#FCEF40"/>
			<stop  offset="0.44" style="stop-color:#F9DD44"/>
			<stop  offset="0.73" style="stop-color:#F3C14A"/>
			<stop  offset="1" style="stop-color:#ED9F51"/>
		</linearGradient>
		<path style="fill:url(#SVGID_00000155831418414464122770000012569560784303700913_);" d="M363.3,790.7c0.8-0.3,1.7-0.7,2.5-1.1
			l2.5-1.1c1.7-0.8,3.4-1.5,5-2.3s3.2-1.7,4.7-2.5c0.7-0.4,1.4-0.9,2-1.3l0.6-0.5c0,0,0,0,0,0.1c0,0-0.1,0.1-0.1,0.2
			c0,0.1-0.1,0.2-0.1,0.3l-0.1,0.2c0,0.1-0.1,0.2-0.1,0.2l0,0.2l0,0.2c0,0.1-0.1,0.3-0.1,0.4l-0.1,1.3c0-0.5,0.1-0.9,0.1-1.5
			s0.1-1.1,0.1-1.6c0.1-1.1,0.1-2.2,0.2-3.3l0.2-6.7c0.2-4.5,0.3-8.9,0.4-13.4l0,0c0-1.1,0.9-2,1.9-2c0.9,0.1,1.6,0.7,1.8,1.6
			c0.9,4.4,1.9,8.7,2.8,13.1l1.4,6.6c0.2,1.1,0.4,2.2,0.6,3.3c0.1,0.5,0.2,1.1,0.3,1.7s0.2,1.2,0.3,1.8c0,0.3,0,0.5,0,0.8l-0.1,0.5
			c0,0.2-0.1,0.4-0.1,0.6l-0.1,0.3v0.1v0.1c0,0.1-0.1,0.3-0.1,0.4c0,0.1-0.1,0.3-0.2,0.4c-0.1,0.2-0.2,0.4-0.3,0.6l-0.3,0.5
			c-0.3,0.4-0.6,0.9-1,1.3c-0.5,0.6-1,1.1-1.5,1.6c-0.9,0.9-1.8,1.6-2.7,2.2c-1.7,1.3-3.4,2.5-5.1,3.6s-3.4,2.2-5.1,3.2l-2.5,1.5
			c-0.9,0.5-1.7,1-2.6,1.5l0,0c-3.1,1.8-7,0.4-8.6-3.1c-1.6-3.4-0.4-7.6,2.8-9.6C362.9,790.9,363.1,790.8,363.3,790.7z"/>
		
			<linearGradient id="SVGID_00000085248812357579826760000009453519784266045364_" gradientUnits="userSpaceOnUse" x1="379.29" y1="193.5207" x2="385.5" y2="193.5207" gradientTransform="matrix(1 0 0 -1 0 948.7875)">
			<stop  offset="0" style="stop-color:#FCDEB3"/>
			<stop  offset="1" style="stop-color:#F9C476"/>
		</linearGradient>
		<path style="fill:url(#SVGID_00000085248812357579826760000009453519784266045364_);" d="M383.1,759.8c-1.4,0.4-2.8-0.5-3.2-1.9
			c0,0,0,0,0-0.1l-0.6-4.1c-0.1-1.5,1-2.8,2.5-2.9c1.3-0.3,2.7,0.5,3,1.8c0,0,0,0,0,0l0.6,4.4C385.5,758.4,384.5,759.6,383.1,759.8z
			"/>
		
			<linearGradient id="SVGID_00000016067362944458838470000003463397217560114825_" gradientUnits="userSpaceOnUse" x1="381.2" y1="199.2588" x2="384.77" y2="199.2588" gradientTransform="matrix(1 0 0 -1 0 948.7875)">
			<stop  offset="0" style="stop-color:#FCDEB3"/>
			<stop  offset="1" style="stop-color:#F9C476"/>
		</linearGradient>
		<path style="fill:url(#SVGID_00000016067362944458838470000003463397217560114825_);" d="M383.5,752.9c0.1,0.1,0.3,0.2,0.4,0.2
			c0.4,0,0.8-0.3,0.8-0.7c0,0,0,0,0,0c0-0.2,0.3-3.9-2.4-6.2c-0.3-0.2-0.7-0.2-1,0.1c0,0,0,0,0,0c-0.2,0.4-0.2,0.8,0.1,1.1
			c1.3,1.2,1.9,2.9,1.8,4.7C383.3,752.4,383.4,752.7,383.5,752.9z"/>
		
			<linearGradient id="SVGID_00000128443912346016945680000004313051611630555573_" gradientUnits="userSpaceOnUse" x1="378.29" y1="198.6988" x2="383.99" y2="198.6988" gradientTransform="matrix(1 0 0 -1 0 948.7875)">
			<stop  offset="0" style="stop-color:#FCDEB3"/>
			<stop  offset="1" style="stop-color:#F9C476"/>
		</linearGradient>
		<path style="fill:url(#SVGID_00000128443912346016945680000004313051611630555573_);" d="M378.5,749c0.1,0.1,0.2,0.2,0.4,0.2
			c2.5,0.3,3.6,3,3.6,3c0.1,0.4,0.5,0.6,0.9,0.5c0,0,0.1,0,0.1,0c0.4-0.2,0.5-0.7,0.4-1.1c-0.1-0.2-1.5-3.6-4.8-4
			c-0.4,0-0.8,0.3-0.8,0.7c0,0,0,0,0,0C378.3,748.5,378.4,748.8,378.5,749z"/>
		
			<linearGradient id="SVGID_00000120523902715805460790000015725998912326060687_" gradientUnits="userSpaceOnUse" x1="376.64" y1="197.0443" x2="382.9778" y2="197.0443" gradientTransform="matrix(1 0 0 -1 0 948.7875)">
			<stop  offset="0" style="stop-color:#FCDEB3"/>
			<stop  offset="1" style="stop-color:#F9C476"/>
		</linearGradient>
		<path style="fill:url(#SVGID_00000120523902715805460790000015725998912326060687_);" d="M376.9,751.2c0.2,0.1,0.4,0.2,0.6,0.2
			c2.5-0.4,4.2,2,4.2,2c0.2,0.3,0.6,0.4,0.9,0.2c0,0,0,0,0.1,0c0.3-0.3,0.4-0.8,0.1-1.2c-0.1-0.1-2.2-3.1-5.5-2.6
			c-0.4,0.1-0.7,0.5-0.6,0.9C376.7,750.9,376.8,751.1,376.9,751.2z"/>
		
			<linearGradient id="SVGID_00000070799349865675514550000003788617928592940184_" gradientUnits="userSpaceOnUse" x1="376.5955" y1="195.5282" x2="382.7526" y2="195.5282" gradientTransform="matrix(1 0 0 -1 0 948.7875)">
			<stop  offset="0" style="stop-color:#FCDEB3"/>
			<stop  offset="1" style="stop-color:#F9C476"/>
		</linearGradient>
		<path style="fill:url(#SVGID_00000070799349865675514550000003788617928592940184_);" d="M376.9,754.4c0.3,0.2,0.6,0.2,0.9,0
			c1.1-0.9,2.7-1,3.9-0.2c0.3,0.2,0.7,0.2,1-0.1c0,0,0-0.1,0-0.1c0.2-0.4,0.2-0.9-0.2-1.1c-1.7-1.2-4-1.1-5.5,0.2
			c-0.3,0.3-0.4,0.8-0.1,1.1C376.8,754.3,376.8,754.3,376.9,754.4z"/>
		
			<linearGradient id="SVGID_00000006689956069724250980000005288644553513107597_" gradientUnits="userSpaceOnUse" x1="2155.0896" y1="145.7357" x2="2155.0896" y2="192.4517" gradientTransform="matrix(-1 0 0 -1 2492.96 948.7875)">
			<stop  offset="0" style="stop-color:#FDF53F"/>
			<stop  offset="0.18" style="stop-color:#FCEF40"/>
			<stop  offset="0.44" style="stop-color:#F9DD44"/>
			<stop  offset="0.73" style="stop-color:#F3C14A"/>
			<stop  offset="1" style="stop-color:#ED9F51"/>
		</linearGradient>
		<path style="fill:url(#SVGID_00000006689956069724250980000005288644553513107597_);" d="M341.5,801.6c-0.8-0.6-1.5-1.2-2.2-1.8
			l-2.1-1.9c-1.4-1.3-2.8-2.5-4.2-3.9s-2.8-2.7-4.2-4.3c-0.7-0.8-1.4-1.6-2.2-2.6c-0.4-0.6-0.8-1.2-1.2-1.8l-0.3-0.6
			c-0.1-0.2-0.2-0.5-0.3-0.8c-0.3-0.8-0.6-1.6-0.6-2.5V781c-0.1-0.3-0.1-0.6,0-0.9c0.1-0.7,0.3-1.3,0.5-2c0.2-0.6,0.4-1.1,0.6-1.6
			c0.4-1,0.8-2,1.2-2.9c0.8-1.9,1.6-3.7,2.5-5.5c1.7-3.6,3.5-7.1,5.3-10.7c0.4-0.9,1.4-1.3,2.3-0.9c0.1,0,0.1,0.1,0.2,0.1
			c0.7,0.5,1.1,1.4,0.9,2.3l0,0c-0.8,3.9-1.5,7.8-2.2,11.7c-0.3,1.9-0.6,3.9-0.9,5.8c-0.1,1-0.2,1.9-0.3,2.8c0,0.5-0.1,0.9-0.1,1.3
			c0,0.3,0,0.6,0,0.9V780c0-0.4-0.1-0.8-0.2-1.1c0-0.1,0-0.1,0-0.1s0,0,0,0l0.5,0.5c0.4,0.4,1,1,1.6,1.5c1.2,1,2.5,2.1,3.9,3.1
			s2.8,2,4.3,3l2.2,1.4c0.7,0.5,1.5,1,2.2,1.4c3.2,2.1,4.2,6.3,2.5,9.7c-1.3,3.1-4.8,4.5-7.8,3.2C342.5,802.4,342,802.1,341.5,801.6
			L341.5,801.6z"/>
		
			<linearGradient id="SVGID_00000139259587408166334420000015417032033805909633_" gradientUnits="userSpaceOnUse" x1="333.18" y1="193.2855" x2="339.4" y2="193.2855" gradientTransform="matrix(1 0 0 -1 0 948.7875)">
			<stop  offset="0" style="stop-color:#FCDEB3"/>
			<stop  offset="1" style="stop-color:#F9C476"/>
		</linearGradient>
		<path style="fill:url(#SVGID_00000139259587408166334420000015417032033805909633_);" d="M335.6,760c1.4,0.4,2.8-0.5,3.2-1.8
			c0,0,0-0.1,0-0.1l0.6-4.1c0.1-1.5-1-2.8-2.5-2.9c-1.3-0.3-2.7,0.5-3,1.8c0,0,0,0,0,0l-0.6,4.4C333.2,758.6,334.2,759.8,335.6,760z
			"/>
		
			<linearGradient id="SVGID_00000072970976944926795020000004191722722812867495_" gradientUnits="userSpaceOnUse" x1="333.9293" y1="199.0561" x2="337.5093" y2="199.0561" gradientTransform="matrix(1 0 0 -1 0 948.7875)">
			<stop  offset="0" style="stop-color:#FCDEB3"/>
			<stop  offset="1" style="stop-color:#F9C476"/>
		</linearGradient>
		<path style="fill:url(#SVGID_00000072970976944926795020000004191722722812867495_);" d="M335.1,753.1c-0.1,0.1-0.2,0.2-0.4,0.2
			c-0.4,0-0.8-0.3-0.8-0.7c0,0,0,0,0,0c0-0.2-0.3-3.9,2.4-6.1c0.3-0.2,0.7-0.2,1,0.1c0,0,0,0,0,0.1c0.2,0.4,0.2,0.9-0.2,1.1
			c-1.3,1.2-1.9,2.9-1.8,4.7C335.4,752.6,335.3,752.9,335.1,753.1z"/>
		
			<linearGradient id="SVGID_00000023993134035356323870000016909018568943460480_" gradientUnits="userSpaceOnUse" x1="334.7" y1="198.4669" x2="340.42" y2="198.4669" gradientTransform="matrix(1 0 0 -1 0 948.7875)">
			<stop  offset="0" style="stop-color:#FCDEB3"/>
			<stop  offset="1" style="stop-color:#F9C476"/>
		</linearGradient>
		<path style="fill:url(#SVGID_00000023993134035356323870000016909018568943460480_);" d="M340.1,749.2c-0.1,0.1-0.2,0.2-0.4,0.2
			c-2.5,0.3-3.7,3-3.7,3c-0.1,0.4-0.5,0.6-0.9,0.5c0,0-0.1,0-0.1-0.1c-0.4-0.2-0.5-0.7-0.4-1.1c0.1-0.2,1.5-3.6,4.8-4
			c0.4,0,0.8,0.3,0.8,0.7c0,0,0,0,0,0C340.4,748.7,340.4,749,340.1,749.2z"/>
		
			<linearGradient id="SVGID_00000066487056844201054960000003429039251104710800_" gradientUnits="userSpaceOnUse" x1="335.72" y1="196.8154" x2="342.065" y2="196.8154" gradientTransform="matrix(1 0 0 -1 0 948.7875)">
			<stop  offset="0" style="stop-color:#FCDEB3"/>
			<stop  offset="1" style="stop-color:#F9C476"/>
		</linearGradient>
		<path style="fill:url(#SVGID_00000066487056844201054960000003429039251104710800_);" d="M341.8,751.5c-0.1,0.1-0.4,0.2-0.6,0.2
			c-2.5-0.4-4.2,1.9-4.2,2c-0.2,0.3-0.6,0.4-0.9,0.2c0,0,0,0-0.1,0c-0.3-0.3-0.4-0.8-0.1-1.2c0.1-0.1,2.2-3.1,5.5-2.6
			c0.4,0.1,0.7,0.5,0.6,0.9C342,751.2,341.9,751.3,341.8,751.5z"/>
		
			<linearGradient id="SVGID_00000151508303242535019380000004912998761867584173_" gradientUnits="userSpaceOnUse" x1="335.93" y1="195.3015" x2="342.0839" y2="195.3015" gradientTransform="matrix(1 0 0 -1 0 948.7875)">
			<stop  offset="0" style="stop-color:#FCDEB3"/>
			<stop  offset="1" style="stop-color:#F9C476"/>
		</linearGradient>
		<path style="fill:url(#SVGID_00000151508303242535019380000004912998761867584173_);" d="M341.8,754.6c-0.3,0.2-0.6,0.2-0.9,0
			c-1.1-1-2.7-1.1-3.9-0.2c-0.3,0.2-0.7,0.2-1-0.1c0,0,0-0.1,0-0.1c-0.2-0.4-0.1-0.9,0.2-1.1c1.7-1.2,4-1.1,5.5,0.3
			c0.3,0.3,0.4,0.8,0.1,1.1C341.9,754.5,341.9,754.6,341.8,754.6z"/>
		<path d="M359.4,770.3c0,0.4,0.2,0.7,0.6,0.8c0.4,0,0.7-0.3,0.7-0.6c0-0.4-0.2-0.7-0.6-0.8C359.7,769.7,359.4,770,359.4,770.3
			C359.4,770.3,359.4,770.3,359.4,770.3z"/>
		<path d="M364.7,770.9c-0.1,0.4,0.2,0.7,0.6,0.7c0,0,0,0,0,0c0.3,0,0.6-0.2,0.7-0.6c0,0,0,0,0,0c0-0.4-0.2-0.7-0.6-0.8
			C365,770.2,364.7,770.5,364.7,770.9C364.7,770.9,364.7,770.9,364.7,770.9z"/>
		
			<linearGradient id="SVGID_00000183953775952292668450000007323789829538931587_" gradientUnits="userSpaceOnUse" x1="2137.96" y1="161.5974" x2="2137.96" y2="78.8874" gradientTransform="matrix(-1 0 0 -1 2492.96 948.7875)">
			<stop  offset="0" style="stop-color:#FDF53F"/>
			<stop  offset="0.18" style="stop-color:#FCEF40"/>
			<stop  offset="0.44" style="stop-color:#F9DD44"/>
			<stop  offset="0.73" style="stop-color:#F3C14A"/>
			<stop  offset="1" style="stop-color:#ED9F51"/>
		</linearGradient>
		<path style="fill:url(#SVGID_00000183953775952292668450000007323789829538931587_);" d="M341,824.2c-0.6-7.1-1.8-18.8-1-25.9
			c0.4-3.5,2.5-6.8,5.2-7.8l6.1-1.3l2.7-1.9c0.3,3.5,2.1,5.2,3.8,5.3c2.2,0.1,3.1-1.2,3.8-4.1l1.1,1.6c0.7,0.3,0.9,0.8,1.5,1.5
			l7.7,4.7l-2.9,29.5c-0.2,2.5-0.2,4.9,0.1,7.4l-31.1,2.7L341,824.2z"/>
		<path class="st15" d="M210.5,824.9l-2.1,1l0,0c-0.3,0.2-0.7,0-0.9-0.3c-0.2-0.3,0-0.7,0.3-0.9l0,0l2.2-1c0.3-0.1,0.7,0,0.9,0.3
			C211,824.3,210.9,824.7,210.5,824.9L210.5,824.9L210.5,824.9z"/>
		<path class="st15" d="M203.5,828.2l-2.1,1.1l0,0c-0.3,0.2-0.8,0.1-0.9-0.2c-0.2-0.3-0.1-0.8,0.2-0.9c0,0,0,0,0.1,0l0,0l2.1-1.1
			c0.3-0.2,0.8,0,0.9,0.3C204,827.6,203.8,828,203.5,828.2C203.5,828.2,203.5,828.2,203.5,828.2L203.5,828.2z"/>
		<path class="st15" d="M196.6,832l-2,1.2l0,0c-0.3,0.2-0.8,0.1-1-0.2c-0.2-0.3-0.1-0.8,0.2-1l0,0l0,0l2-1.2c0.3-0.2,0.8-0.1,1,0.2
			c0,0,0,0,0,0C197.1,831.3,197,831.8,196.6,832C196.7,832,196.7,832,196.6,832L196.6,832z"/>
		<path class="st15" d="M190,836.2l-1.9,1.3l0,0c-0.3,0.2-0.8,0.1-1-0.2c-0.2-0.3-0.1-0.8,0.2-1l0,0l2-1.3c0.3-0.2,0.8-0.1,1,0.2
			C190.5,835.5,190.4,835.9,190,836.2L190,836.2L190,836.2z"/>
		<path class="st15" d="M183.6,840.7l-1.9,1.4l0,0c-0.3,0.2-0.8,0.2-1-0.1c-0.2-0.3-0.2-0.8,0.1-1l0,0l1.9-1.4
			c0.3-0.2,0.8-0.2,1,0.1C184,840,184,840.5,183.6,840.7L183.6,840.7z"/>
		<path class="st15" d="M177.5,845.6l-1.8,1.5l0,0c-0.3,0.3-0.8,0.2-1.1-0.1s-0.2-0.8,0.1-1.1l0,0l1.8-1.5c0.3-0.2,0.7-0.2,1,0.1
			C177.8,844.8,177.8,845.3,177.5,845.6C177.5,845.6,177.5,845.6,177.5,845.6L177.5,845.6z"/>
		<path class="st15" d="M171.7,850.9l-1.7,1.6l0,0c-0.3,0.3-0.8,0.3-1.1,0c0,0,0,0,0,0c-0.3-0.3-0.3-0.8,0-1.1l0,0l1.7-1.6
			c0.3-0.3,0.8-0.3,1.1,0S172,850.6,171.7,850.9L171.7,850.9z"/>
		<path class="st15" d="M166.2,856.4l-1.6,1.7l0,0c-0.3,0.3-0.8,0.3-1.1,0c-0.3-0.3-0.3-0.8,0-1.1c0,0,0,0,0,0l0,0l1.6-1.7
			c0.3-0.3,0.8-0.3,1.1,0C166.5,855.6,166.5,856.1,166.2,856.4L166.2,856.4L166.2,856.4z"/>
		<path class="st15" d="M161,862.3l-1.5,1.8l0,0c-0.3,0.3-0.8,0.4-1.1,0.1c-0.3-0.3-0.4-0.8-0.1-1.1c0,0,0,0,0,0l0,0l1.5-1.8
			c0.2-0.4,0.7-0.5,1.1-0.3c0.4,0.2,0.5,0.7,0.3,1.1C161.1,862.1,161.1,862.2,161,862.3L161,862.3z"/>
		<path class="st15" d="M156.1,868.4l-1.4,1.9l0,0c-0.3,0.4-0.8,0.4-1.2,0.2c-0.4-0.3-0.4-0.8-0.1-1.2l0,0l0,0l1.4-1.9
			c0.3-0.4,0.8-0.4,1.1-0.2C156.3,867.5,156.4,868,156.1,868.4L156.1,868.4z"/>
		<path class="st15" d="M151.6,874.8l-1.3,2l0,0c-0.2,0.4-0.8,0.5-1.1,0.2c0,0,0,0,0,0c-0.4-0.3-0.5-0.8-0.2-1.2l0,0l1.3-2
			c0.2-0.4,0.8-0.5,1.1-0.2c0,0,0,0,0,0C151.7,873.9,151.9,874.4,151.6,874.8C151.6,874.8,151.6,874.8,151.6,874.8L151.6,874.8z"/>
		<path class="st15" d="M147.4,881.4l-1.2,2l0,0c-0.2,0.4-0.8,0.5-1.2,0.3c-0.4-0.2-0.5-0.8-0.3-1.2l0,0l0,0l1.2-2
			c0.2-0.4,0.7-0.5,1.1-0.3C147.5,880.4,147.7,880.9,147.4,881.4C147.4,881.3,147.4,881.3,147.4,881.4L147.4,881.4z"/>
		<path class="st15" d="M143.6,888.3l-1.1,2.1l0,0c-0.2,0.4-0.7,0.6-1.2,0.4c-0.4-0.2-0.6-0.7-0.4-1.2l0,0l0,0l1.1-2.1
			c0.2-0.4,0.7-0.6,1.1-0.4C143.7,887.3,143.9,887.8,143.6,888.3L143.6,888.3L143.6,888.3z"/>
		<path class="st15" d="M140.2,895.3l-0.9,2.2l0,0c-0.2,0.4-0.7,0.6-1.1,0.5c-0.4-0.2-0.6-0.7-0.4-1.2l0,0l1-2.2
			c0.2-0.4,0.7-0.7,1.1-0.5s0.7,0.7,0.5,1.1C140.3,895.2,140.3,895.3,140.2,895.3L140.2,895.3z"/>
		<path class="st15" d="M137.2,902.5l-0.8,2.2l0,0c-0.2,0.5-0.7,0.7-1.1,0.5s-0.7-0.7-0.5-1.1l0,0l0.8-2.2c0.2-0.5,0.7-0.7,1.1-0.5
			S137.4,902.1,137.2,902.5L137.2,902.5L137.2,902.5z"/>
		<path class="st15" d="M134.7,909.9l-0.7,2.2l0,0c-0.2,0.5-0.7,0.7-1.1,0.6c-0.5-0.1-0.7-0.7-0.6-1.1c0,0,0,0,0,0l0,0l0.7-2.3
			c0.2-0.5,0.7-0.7,1.2-0.5C134.5,909,134.8,909.5,134.7,909.9L134.7,909.9z"/>
		<path class="st15" d="M132.5,917.4l-0.6,2.3l0,0c-0.1,0.5-0.6,0.8-1.1,0.7c-0.5-0.1-0.8-0.6-0.7-1.1l0,0l0.6-2.3
			c0.1-0.5,0.6-0.8,1.1-0.7C132.4,916.4,132.7,916.9,132.5,917.4L132.5,917.4z"/>
		<path class="st15" d="M130.9,925.1l-0.4,2.3l0,0c-0.1,0.5-0.6,0.8-1.1,0.8s-0.8-0.6-0.8-1.1l0,0l0.4-2.3c0.1-0.5,0.6-0.8,1.1-0.7
			C130.6,924.1,130.9,924.5,130.9,925.1C130.9,925,130.9,925,130.9,925.1L130.9,925.1z"/>
		<path class="st15" d="M129.6,932.8l-0.3,2.3l0,0c0,0.5-0.5,0.9-1,0.9c-0.5,0-0.9-0.5-0.9-1c0-0.1,0-0.1,0-0.2l0,0l0.3-2.4
			c0.1-0.5,0.5-0.9,1-0.8C129.3,931.8,129.7,932.2,129.6,932.8L129.6,932.8z"/>
		<path class="st15" d="M128.9,940.6l-0.1,2.3l0,0c0.1,0.5-0.2,1.1-0.7,1.2c-0.5,0.1-1.1-0.2-1.2-0.7c0-0.2,0-0.4,0-0.6l0,0l0.2-2.4
			c-0.1-0.5,0.2-1.1,0.7-1.2s1.1,0.2,1.2,0.7C129,940.1,129,940.3,128.9,940.6L128.9,940.6z"/>
		<path class="st15" d="M128.6,948.4v2.3l0,0c0,0.6-0.4,1-1,1c-0.6,0-1-0.4-1-1l0,0v-2.4c0-0.6,0.4-1,1-1
			C128.2,947.3,128.6,947.8,128.6,948.4L128.6,948.4z"/>
		<polygon class="st22" points="221.4,809.4 221,820.9 229,816.2 		"/>
		
			<linearGradient id="SVGID_00000071544418546084860460000006432128929295733150_" gradientUnits="userSpaceOnUse" x1="211.8591" y1="813.3101" x2="273.6" y2="813.3101">
			<stop  offset="0" style="stop-color:#00D5FC"/>
			<stop  offset="0.8575" style="stop-color:#009DC2"/>
			<stop  offset="1" style="stop-color:#009DC2"/>
		</linearGradient>
		<path style="fill:url(#SVGID_00000071544418546084860460000006432128929295733150_);" d="M273.6,804.6l-32.2,26.3
			c-1.2,1-3.1,0.8-4.1-0.4c0,0-0.1-0.1-0.1-0.1L212.1,797c-0.4-0.5-0.3-1.3,0.2-1.7c0.2-0.2,0.6-0.3,0.9-0.2L273.6,804.6z"/>
		<polygon class="st22" points="221.4,809.4 273.6,804.6 225.4,814.8 225.2,818 		"/>
		<polygon class="st75" points="227.9,817.9 221,820.9 225.4,814.8 		"/>
		<path class="st15" d="M74.1,912.3c-1-0.2-2,0.4-2.2,1.4c0,0.1,0,0.3,0,0.4c0,1.2-0.5,2.5-1.3,3.4l-2.4,2.7
			c-0.2-0.2-0.4-0.4-0.7-0.4h-4.7c-0.5,0-0.9,0.4-0.9,0.9c0,0,0,0,0,0v10.5c0,0.5,0.4,0.9,0.9,0.9c0,0,0,0,0,0h4.7
			c0.3,0,0.6-0.2,0.8-0.5c1,0.6,2.1,0.9,3.2,0.9h8.3c1.3,0,2.3-1.1,2.3-2.3c0,0,0,0,0,0c0-0.6,0-8.1,0-8.2c0-1.2-1-2.2-2.2-2.2h-4.3
			l0.2-0.4c0.8-1.9,0.7-4.2-0.4-6C75,912.7,74.6,912.4,74.1,912.3L74.1,912.3z M66.6,930.3h-2.9v-8.8h2.9V930.3z M79.7,921.3
			c0.3,0,0.5,0.2,0.5,0.5c0,0,0,0,0,0c0,0.2,0,0.6,0,1.2c0,3.4,0,6.6,0,7.1c0,0.1,0,0.3-0.1,0.4c-0.1,0.1-0.2,0.2-0.4,0.2h-8.3
			c-1,0-2-0.4-2.7-1l-0.4-0.3v-6.8l3.6-4c1.1-1.3,1.7-2.9,1.7-4.5c0,0,0.1-0.1,0.1,0c0.8,1.4,0.9,3,0.3,4.5l-0.7,1.6
			c-0.1,0.3-0.1,0.6,0.1,0.8c0.2,0.2,0.4,0.4,0.7,0.4L79.7,921.3z"/>
		<path class="st15" d="M767.8,732.4h-0.8c-0.4-1.6-1.1-3.1-1.8-4.5l0.5-0.5c1.3-1.3,1.3-3.3,0-4.6l-3.5-3.5c-1.3-1.3-3.3-1.3-4.6,0
			l-0.5,0.5c-1.4-0.8-2.9-1.4-4.5-1.8v-0.8c0-1.8-1.4-3.2-3.2-3.2h-5c-1.8,0-3.2,1.5-3.2,3.2v0.8c-1.6,0.4-3.1,1.1-4.5,1.8l-0.5-0.5
			c-1.3-1.3-3.3-1.3-4.6,0l-3.5,3.5c-1.3,1.3-1.3,3.3,0,4.6l0.5,0.5c-0.8,1.4-1.4,2.9-1.8,4.5H726c-1.8,0-3.2,1.5-3.2,3.2v5
			c0,1.8,1.4,3.2,3.2,3.2h0.8c0.4,1.6,1.1,3,1.8,4.5l-0.5,0.5c-1.3,1.3-1.3,3.3,0,4.6l3.5,3.5c1.3,1.3,3.3,1.3,4.6,0l0.5-0.5
			c1.4,0.8,2.9,1.4,4.5,1.8v0.8c0,1.8,1.5,3.2,3.2,3.2h5c1.8,0,3.2-1.5,3.2-3.2v-0.8c1.6-0.4,3.1-1.1,4.5-1.8l0.5,0.5
			c1.3,1.3,3.3,1.3,4.6,0l3.5-3.5c1.3-1.3,1.3-3.3,0-4.6l-0.5-0.5c0.8-1.4,1.4-2.9,1.8-4.5h0.8c1.8,0,3.2-1.5,3.2-3.2v-5
			C771.1,733.9,769.6,732.4,767.8,732.4L767.8,732.4z M749.8,759.1c0,0.2-0.2,0.3-0.3,0.3h-5c-0.2,0-0.3-0.2-0.3-0.3v-11
			c0-0.6-0.4-1.1-0.9-1.4c-5.1-1.9-7.7-7.6-5.9-12.7c0.7-1.9,2-3.6,3.7-4.8c0.1-0.1,0.2-0.1,0.3-0.2c0,0.2,0,0.4,0,0.5s0,0.3,0,0.4
			v6.8c0,3.1,2.4,5.8,5.6,6h0.1c3.1-0.2,5.6-2.9,5.6-6v-6.8c0-0.1,0-0.2,0-0.4s0-0.3,0-0.5l0.3,0.2c4.5,3.1,5.7,9.2,2.7,13.7
			c-1.2,1.7-2.8,3-4.8,3.7c-0.6,0.2-1,0.7-1,1.4L749.8,759.1z M768.2,740.7c0,0.2-0.2,0.3-0.3,0.3H766c-0.7,0-1.3,0.5-1.4,1.1
			c-0.5,2-1.3,3.9-2.4,5.7c-0.4,0.6-0.3,1.3,0.2,1.8l1.3,1.3c0.1,0.1,0.1,0.2,0.1,0.2c0,0.1,0,0.2-0.1,0.2l-3.6,3.6
			c-0.1,0.1-0.1,0.1-0.2,0.1c-0.1,0-0.2,0-0.2-0.1l-1.3-1.3c-0.5-0.5-1.2-0.6-1.8-0.2c-1.2,0.8-2.5,1.4-3.9,1.9v-6.2
			c6.4-3,9.2-10.6,6.2-17c-1-2.1-2.5-3.9-4.4-5.2c-0.5-0.4-2.2-1.5-3.6-0.7s-1.3,2.7-1.2,3.5c0,0.1,0,0.1,0,0.2v6.8
			c0.2,1.5-0.9,2.9-2.5,3.1c-1.5,0.2-2.9-0.9-3.1-2.5c0-0.2,0-0.4,0-0.6v-6.8c0,0,0-0.1,0-0.2c0.1-0.8,0.2-2.7-1.2-3.5
			s-3.1,0.3-3.6,0.7c-5.8,4-7.4,11.9-3.4,17.8c1.3,1.9,3.1,3.5,5.2,4.4v6.2c-1.4-0.5-2.7-1.1-3.9-1.9c-0.6-0.4-1.3-0.3-1.8,0.2
			l-1.3,1.3c-0.1,0.1-0.1,0.1-0.2,0.1c-0.1,0-0.2,0-0.2-0.1l-3.5-3.5c-0.1-0.1-0.1-0.2-0.1-0.2c0-0.1,0-0.2,0.1-0.2l1.3-1.3
			c0.5-0.5,0.6-1.2,0.2-1.8c-1.1-1.7-1.9-3.7-2.3-5.7c-0.1-0.7-0.7-1.1-1.4-1.1H726c-0.2,0-0.3-0.2-0.3-0.3v-5
			c0-0.2,0.2-0.3,0.3-0.3h1.9c0.7,0,1.3-0.5,1.4-1.1c0.4-2,1.2-3.9,2.3-5.7c0.4-0.6,0.3-1.3-0.2-1.8l-1.3-1.3
			c-0.1-0.1-0.1-0.2-0.1-0.2c0-0.1,0-0.2,0.1-0.2l3.6-3.6c0.1-0.1,0.2-0.1,0.2-0.1c0.1,0,0.2,0,0.2,0.1l1.3,1.3
			c0.5,0.5,1.2,0.6,1.8,0.2c1.7-1.1,3.7-1.9,5.7-2.4c0.7-0.1,1.1-0.7,1.1-1.4v-1.9c0-0.2,0.2-0.3,0.3-0.3h5c0.2,0,0.3,0.2,0.3,0.3
			v1.9c0,0.7,0.5,1.3,1.1,1.4c2,0.4,3.9,1.2,5.7,2.3c0.6,0.4,1.3,0.3,1.8-0.2l1.3-1.3c0.1-0.1,0.2-0.1,0.2-0.1c0.1,0,0.2,0,0.2,0.1
			l3.5,3.5c0.1,0.1,0.1,0.1,0.1,0.2c0,0.1,0,0.2-0.1,0.2l-1.3,1.3c-0.5,0.5-0.6,1.2-0.2,1.8c1.1,1.7,1.9,3.7,2.3,5.7
			c0.2,0.7,0.7,1.1,1.4,1.1h1.9c0.2,0,0.3,0.2,0.3,0.3L768.2,740.7z"/>
		<path class="st15" d="M435.2,760.5l-4.2-6.2c-0.1-0.2-0.4-0.3-0.6-0.1c-0.1,0-0.1,0.1-0.1,0.1l-4.3,6.2c-0.1,0.1-0.1,0.3-0.1,0.4
			l1.2,3.6h-0.3c-0.3,0-0.5,0.2-0.5,0.5v1.4c0,0.3,0.2,0.5,0.5,0.5c0,0,0,0,0,0h0.5v5.2c0,0.3,0.2,0.5,0.5,0.5h5.7
			c0.3,0,0.5-0.2,0.5-0.5V767h0.5c0.3,0,0.5-0.2,0.5-0.5c0,0,0,0,0,0v-1.4c0-0.3-0.2-0.5-0.5-0.5h-0.3l1.2-3.6
			C435.4,760.9,435.3,760.7,435.2,760.5L435.2,760.5z M430.6,759.9c0.2,0,0.4,0.1,0.4,0.3c0.1,0.2,0,0.4-0.1,0.5
			c-0.1,0.1-0.3,0.2-0.5,0.1c-0.2-0.1-0.3-0.2-0.3-0.4C430.1,760.1,430.3,759.9,430.6,759.9C430.6,759.8,430.6,759.9,430.6,759.9z
			 M433,771.7h-4.7V767h4.7V771.7z M434,766h-6.6v-0.5h6.6V766z M433.1,764.6h-5l-1.2-3.7l3.3-4.7v2.8c0,0,0,0.1,0,0.1
			c-0.7,0.3-1.1,1.1-0.9,1.8s1.1,1.1,1.8,0.9s1.1-1.1,0.9-1.8c-0.1-0.4-0.5-0.7-0.9-0.9c0,0,0-0.1,0-0.1v-2.8l3.3,4.7L433.1,764.6z"
			/>
		<path class="st15" d="M433.4,772.9h-5.7c-0.4,0-0.7-0.3-0.7-0.8v-4.9h-0.2c-0.4,0-0.7-0.3-0.8-0.7v-1.4c0-0.4,0.3-0.7,0.7-0.7
			l-1.1-3.3c-0.1-0.2,0-0.5,0.1-0.7l4.3-6.2c0.3-0.3,0.7-0.4,1.1-0.2c0.1,0,0.1,0.1,0.2,0.2l4.3,6.2c0.1,0.2,0.2,0.4,0.1,0.7
			l-1.1,3.3c0.4,0,0.7,0.4,0.7,0.7v1.4c0,0.4-0.3,0.7-0.8,0.7h-0.2v4.9C434.2,772.6,433.8,772.9,433.4,772.9
			C433.4,772.9,433.4,772.9,433.4,772.9z M426.8,764.9c-0.1,0-0.2,0.1-0.2,0.2l0,0v1.4c0,0.1,0.1,0.2,0.2,0.2c0,0,0,0,0,0h0.7v5.5
			c0,0.1,0.1,0.2,0.2,0.2c0,0,0,0,0,0h5.7c0.1,0,0.2-0.1,0.2-0.2c0,0,0,0,0,0v-5.5h0.7c0.1,0,0.2-0.1,0.2-0.2c0,0,0,0,0,0v-1.4
			c0-0.1-0.1-0.2-0.2-0.2l0,0h-0.7l1.3-4c0-0.1,0-0.1,0-0.2l-4.3-6.2c-0.1-0.1-0.2-0.1-0.3,0c0,0,0,0,0,0l-4.3,6.2
			c0,0.1,0,0.1,0,0.2l1.3,4H426.8z M433.2,772H428v-5.3h5.3L433.2,772z M428.5,771.4h4.2v-4.2h-4.2V771.4z M434.2,766.3H427v-1h7.2
			L434.2,766.3z M433.3,764.9h-5.4l-1.3-4l3.8-5.5v3.6v0.2l-0.2,0.1c-0.5,0.2-0.9,0.7-0.8,1.3c0.1,0.6,0.7,1,1.3,0.9
			c0.6-0.1,1-0.7,0.9-1.3c-0.1-0.4-0.4-0.8-0.8-0.9l-0.2-0.1V759v-3.6l3.8,5.5L433.3,764.9z M428.3,764.3h4.6l1.1-3.4l-2.7-3.9v1.8
			c0.8,0.4,1.2,1.4,0.8,2.3c-0.4,0.8-1.4,1.2-2.3,0.8s-1.2-1.4-0.8-2.3c0.2-0.3,0.4-0.6,0.8-0.8V757l-2.7,3.9L428.3,764.3z
			 M430.6,761.1c-0.1,0-0.2,0-0.3,0c-0.4-0.1-0.6-0.6-0.4-1c0.1-0.3,0.4-0.5,0.7-0.5c0.3,0,0.6,0.2,0.7,0.5c0.1,0.4,0,0.8-0.4,0.9
			C430.8,761.1,430.7,761.1,430.6,761.1L430.6,761.1z M430.6,760.1c-0.1,0-0.2,0.1-0.2,0.2c0,0,0,0,0,0c0,0.1,0.1,0.2,0.1,0.2
			c0.1,0,0.2,0,0.2,0c0.1-0.1,0.1-0.2,0-0.3C430.7,760.2,430.6,760.2,430.6,760.1L430.6,760.1z"/>
		<path class="st15" d="M444.8,748.5h-1.9c-0.3,0-0.5,0.2-0.5,0.5v0.5H432V749c0-0.3-0.2-0.5-0.5-0.5H431v-2.4h0.5
			c0.3,0,0.5-0.2,0.5-0.5v-1.9c0-0.3-0.2-0.5-0.5-0.5h-1.9c-0.3,0-0.5,0.2-0.5,0.5v1.9c0,0.3,0.2,0.5,0.5,0.5h0.5v2.4h-0.5
			c-0.3,0-0.5,0.2-0.5,0.5v0.5h-10.4V749c0-0.3-0.2-0.5-0.5-0.5h-1.9c-0.3,0-0.5,0.2-0.5,0.5c0,0,0,0,0,0v1.9c0,0.3,0.2,0.5,0.5,0.5
			c0,0,0,0,0,0h1.9c0.3,0,0.5-0.2,0.5-0.5v-0.5h7.8c-0.6,0.4-1.2,0.9-1.6,1.5c-1.2,1.4-1.9,3.2-1.9,5.1h-0.5c-0.3,0-0.5,0.2-0.5,0.5
			v1.9c0,0.3,0.2,0.5,0.5,0.5c0,0,0,0,0,0h1.9c0.3,0,0.5-0.2,0.5-0.5c0,0,0,0,0,0v-1.9c0-0.3-0.2-0.5-0.5-0.5H424
			c0-3.5,2.7-6.3,5.2-6.6v0.5c0,0.3,0.2,0.5,0.5,0.5h1.9c0.3,0,0.5-0.2,0.5-0.5v-0.5c1.4,0.2,2.7,1,3.5,2.2c1,1.3,1.6,2.8,1.7,4.4
			h-0.5c-0.3,0-0.5,0.2-0.5,0.5v1.9c0,0.3,0.2,0.5,0.5,0.5c0,0,0,0,0,0h1.9c0.3,0,0.5-0.2,0.5-0.5c0,0,0,0,0,0v-1.9
			c0-0.3-0.2-0.5-0.5-0.5h-0.5c-0.1-1.8-0.8-3.6-1.9-5c-0.5-0.6-1.1-1.2-1.7-1.7h7.9v0.5c0,0.3,0.2,0.5,0.5,0.5h1.9
			c0.3,0,0.5-0.2,0.5-0.5V749C445.3,748.7,445.1,748.5,444.8,748.5L444.8,748.5z M417.8,750.4h-1v-0.9h1V750.4z M424,758.9h-1V758h1
			V758.9z M430.2,744.2h1v0.9h-1V744.2z M431.1,750.4h-1v-0.9h1V750.4z M437.3,758h0.9v1h-0.9V758z M444.4,750.4h-1v-0.9h1V750.4z"
			/>
		<path class="st15" d="M438.6,760.1h-1.9c-0.4,0-0.7-0.3-0.7-0.8v-1.9c0-0.4,0.3-0.7,0.7-0.7h0.2c-0.2-1.5-0.7-2.8-1.6-4
			c-0.7-1-1.8-1.7-3-2v0.1c0,0.4-0.3,0.7-0.7,0.7h-1.9c-0.4,0-0.7-0.3-0.7-0.7v-0.1c-2.7,0.8-4.6,3.2-4.7,6h0.2
			c0.4,0,0.7,0.3,0.7,0.7v1.9c0,0.4-0.3,0.7-0.7,0.8h-1.9c-0.4,0-0.7-0.3-0.7-0.8v-1.9c0-0.4,0.3-0.7,0.7-0.7h0.2
			c0.1-1.8,0.8-3.6,2-5c0.3-0.4,0.7-0.7,1-1.1H419v0.2c0,0.4-0.3,0.7-0.7,0.7h-1.9c-0.4,0-0.7-0.3-0.8-0.7V749
			c0-0.4,0.3-0.7,0.8-0.7h1.9c0.4,0,0.7,0.3,0.7,0.7v0.2h9.9V749c0-0.4,0.3-0.7,0.7-0.7h0.2v-1.8h-0.2c-0.4,0-0.7-0.3-0.7-0.7v-1.9
			c0-0.4,0.3-0.7,0.7-0.7h1.9c0.4,0,0.7,0.3,0.7,0.7v1.9c0,0.4-0.3,0.7-0.7,0.7h-0.2v1.8h0.2c0.4,0,0.7,0.3,0.7,0.7v0.2h9.9V749
			c0-0.4,0.3-0.7,0.7-0.7h1.9c0.4,0,0.7,0.3,0.7,0.7v1.9c0,0.4-0.3,0.7-0.7,0.7h-1.9c-0.4,0-0.7-0.3-0.7-0.7v-0.2h-6.8
			c0.4,0.4,0.8,0.8,1.2,1.2c1.1,1.4,1.8,3.1,1.9,4.9h0.2c0.4,0,0.7,0.3,0.7,0.7v1.9C439.3,759.8,439,760.1,438.6,760.1z
			 M436.7,757.3c-0.1,0-0.2,0.1-0.2,0.2v1.9c0,0.1,0.1,0.2,0.2,0.2c0,0,0,0,0,0h1.9c0.1,0,0.2-0.1,0.2-0.2c0,0,0,0,0,0v-1.9
			c0-0.1-0.1-0.2-0.2-0.2h-0.7V757c-0.1-1.8-0.8-3.4-1.8-4.8c-0.5-0.6-1-1.2-1.7-1.6l-0.7-0.5h8.7h0.3v0.3v0.5
			c0,0.1,0.1,0.2,0.2,0.2h0h1.9c0.1,0,0.2-0.1,0.2-0.2l0,0V749c0-0.1-0.1-0.2-0.2-0.2h0h-1.9c-0.1,0-0.2,0.1-0.2,0.2l0,0v0.8h-0.3
			h-10.6V749c0-0.1-0.1-0.2-0.2-0.2c0,0,0,0,0,0h-0.7v-2.9h0.7c0.1,0,0.2-0.1,0.2-0.2c0,0,0,0,0,0v-1.9c0-0.1-0.1-0.2-0.2-0.2
			c0,0,0,0,0,0h-1.9c-0.1,0-0.2,0.1-0.2,0.2v1.9c0,0.1,0.1,0.2,0.2,0.2h0.7v2.9h-0.7c-0.1,0-0.2,0.1-0.2,0.2v0.8h-11V749
			c0-0.1-0.1-0.2-0.2-0.2h0h-1.9c-0.1,0-0.2,0.1-0.2,0.2c0,0,0,0,0,0v1.9c0,0.1,0.1,0.2,0.2,0.2c0,0,0,0,0,0h1.9
			c0.1,0,0.2-0.1,0.2-0.2l0,0v-0.7h9l-0.8,0.5c-0.6,0.4-1.1,0.9-1.6,1.4c-1.2,1.4-1.8,3.2-1.9,5v0.3h-0.8c-0.1,0-0.2,0.1-0.2,0.2
			v1.9c0,0.1,0.1,0.2,0.2,0.2c0,0,0,0,0,0h1.9c0.1,0,0.2-0.1,0.2-0.2c0,0,0,0,0,0v-1.9c0-0.1-0.1-0.2-0.2-0.2h-0.7V757
			c0-3.7,2.8-6.5,5.4-6.9h0.3v0.8c0,0.1,0.1,0.2,0.2,0.2h1.9c0.1,0,0.2-0.1,0.2-0.2c0,0,0,0,0,0v-0.8h0.3c1.5,0.2,2.8,1.1,3.7,2.3
			c1,1.3,1.6,2.9,1.7,4.5v0.3L436.7,757.3z M438.4,759.2H437v-1.5h1.5L438.4,759.2z M437.5,758.6h0.4v-0.4h-0.4V758.6z M424.2,759.2
			h-1.5v-1.5h1.5V759.2z M423.3,758.6h0.4v-0.4h-0.4V758.6z M444.6,750.6h-1.5v-1.5h1.5V750.6z M443.6,750.1h0.4v-0.4h-0.4V750.1z
			 M431.3,750.6h-1.5v-1.5h1.5V750.6z M430.4,750.1h0.4v-0.4h-0.4V750.1z M418.1,750.6h-1.5v-1.5h1.5V750.6z M417.1,750.1h0.4v-0.4
			h-0.4V750.1z M431.3,745.4h-1.5V744h1.5V745.4z M430.4,744.9h0.4v-0.4h-0.4V744.9z"/>
		<path class="st76" d="M1088.9,783.9c0,0.2-0.2,0.4-0.4,0.4l0,0h-6.5v12.1l2.9-3.6c0.2-0.2,0.4-0.2,0.6-0.1c0,0,0,0,0.1,0.1
			l2.3,2.8l2.2-2.7c0.2-0.2,0.4-0.2,0.6,0c0.2,0.1,0.2,0.4,0.1,0.6l-4.6,5.6h10.7v-5.8l-3-3.7l-2,2.4c-0.1,0.2-0.4,0.2-0.6,0.1
			c-0.2-0.1-0.2-0.4-0.1-0.6c0,0,0,0,0,0l2.3-2.8c0.1-0.2,0.4-0.2,0.6-0.1c0,0,0,0,0.1,0.1l2.7,3.3v-7.7h-6.5
			c-0.2,0-0.4-0.2-0.4-0.4c0-0.2,0.2-0.4,0.4-0.4h6.9c0.2,0,0.4,0.2,0.4,0.4l0,0v-0.4h-9.2C1088.6,783.4,1088.9,783.5,1088.9,783.9
			C1088.9,783.8,1088.9,783.8,1088.9,783.9z M1090.7,788.8c0,1.7-1.4,3.1-3.1,3.1c-1.7,0-3.1-1.4-3.1-3.1s1.4-3.1,3.1-3.1
			c0.8,0,1.6,0.3,2.2,0.9C1090.4,787.2,1090.7,788,1090.7,788.8L1090.7,788.8z"/>
		<polygon class="st76" points="1085.3,793.8 1082,797.7 1082,799.1 1085,799.1 1087.3,796.3 		"/>
		<path class="st76" d="M1086,787.2c-0.9,0.9-0.9,2.3,0,3.2c0,0,0,0,0,0c0.4,0.4,1,0.7,1.6,0.7c1.3,0,2.3-1,2.3-2.3
			c0-1.3-1-2.3-2.3-2.3c0,0,0,0,0,0C1087,786.5,1086.4,786.8,1086,787.2z"/>
		<path class="st76" d="M1097.3,800h0.4v-0.4C1097.7,799.8,1097.5,800,1097.3,800L1097.3,800z"/>
		<path class="st76" d="M1081.2,799.6v-15.7c0-0.2,0.2-0.4,0.4-0.4l0,0h-0.6V800h0.6C1081.4,800,1081.2,799.8,1081.2,799.6
			C1081.2,799.6,1081.2,799.6,1081.2,799.6z"/>
		<path class="st77" d="M1097.3,783.4h-6.9c-0.2,0-0.4,0.2-0.4,0.4c0,0.2,0.2,0.4,0.4,0.4h6.5v7.7l-2.7-3.3
			c-0.1-0.2-0.4-0.2-0.6-0.1c0,0,0,0-0.1,0.1l-2.3,2.8c-0.2,0.2-0.1,0.4,0,0.6s0.4,0.1,0.6,0c0,0,0,0,0,0l2-2.4l3,3.7v5.8h-10.7
			l4.6-5.6c0.1-0.2,0.1-0.5-0.1-0.6c-0.2-0.1-0.4-0.1-0.6,0.1l-2.2,2.7l-2.3-2.8c-0.2-0.2-0.4-0.2-0.6-0.1c0,0,0,0-0.1,0.1l-2.9,3.6
			v-12.1h6.5c0.2,0,0.4-0.2,0.4-0.4c0-0.2-0.2-0.4-0.4-0.4h-6.9c-0.2,0-0.4,0.2-0.4,0.4l0,0v15.7c0,0.2,0.2,0.4,0.4,0.4l0,0h15.7
			c0.2,0,0.4-0.2,0.4-0.4l0,0v-15.7C1097.8,783.6,1097.6,783.4,1097.3,783.4C1097.3,783.4,1097.3,783.4,1097.3,783.4z M1082,799.1
			v-1.4l3.2-4l2.1,2.6l-2.3,2.8L1082,799.1z"/>
		<path class="st77" d="M1085.4,786.6c-1.2,1.2-1.2,3.2,0,4.4s3.2,1.2,4.4,0c1.2-1.2,1.2-3.2,0-4.4c-0.6-0.6-1.4-0.9-2.2-0.9
			C1086.8,785.7,1086,786,1085.4,786.6z M1089.9,788.8c0,1.2-1,2.2-2.3,2.2s-2.2-1-2.2-2.3c0-1.2,1-2.2,2.3-2.2
			c0.6,0,1.2,0.2,1.6,0.7C1089.6,787.6,1089.9,788.2,1089.9,788.8z"/>
		<rect x="1088.1" y="783.4" class="st77" width="3.6" height="0.8"/>
		<polygon class="st77" points="1089.7,793.5 1091.5,791.2 1092.2,791.7 1090.4,793.9 		"/>
		<path class="st20" d="M362.5,768.4l0.9,3.5c0,0.3,0.1,0.6,0.3,0.8c0.1,0.1,0.3,0.3,0.4,0.5c0.1,0.2,0.1,0.4,0,0.5
			c-0.2,0.4-0.9,0.5-1.3,0.6s-1-0.1-1.1-0.5s-0.6-0.1-0.5,0.2c0.3,0.4,0.7,0.7,1.2,0.7c0.5,0,1,0,1.5-0.3c0.8-0.3,1-1,0.7-1.5
			c-0.1-0.2-0.3-0.4-0.4-0.5l-0.1-0.1c0.2-0.2,0,0.2,0.1,0.1c0,0,0-0.1,0-0.1l-0.5-2.1l-0.5-1.9
			C362.9,767.9,362.4,768.1,362.5,768.4L362.5,768.4z"/>
		
			<linearGradient id="SVGID_00000155120798600552794050000013953891624443932802_" gradientUnits="userSpaceOnUse" x1="114.0869" y1="32.4007" x2="122.4269" y2="32.4007" gradientTransform="matrix(0.9982 -4.220469e-03 3.226768e-03 -1.0375 1.8883 964.4926)">
			<stop  offset="0" style="stop-color:#808080"/>
			<stop  offset="0.14" style="stop-color:#8A8A8A"/>
			<stop  offset="0.39" style="stop-color:#A5A5A5"/>
			<stop  offset="0.71" style="stop-color:#D1D1D1"/>
			<stop  offset="0.99" style="stop-color:#FFFFFF"/>
		</linearGradient>
		<polygon style="fill:url(#SVGID_00000155120798600552794050000013953891624443932802_);" points="119.5,911.6 121.1,911.9 
			114,949.2 112.5,948.9 		"/>
		
			<linearGradient id="SVGID_00000180343394002485714000000013464827475940380057_" gradientUnits="userSpaceOnUse" x1="180.05" y1="19.0174" x2="188.63" y2="19.0174" gradientTransform="matrix(1 0 0 -1 0 948.7875)">
			<stop  offset="0" style="stop-color:#808080"/>
			<stop  offset="0.14" style="stop-color:#8A8A8A"/>
			<stop  offset="0.39" style="stop-color:#A5A5A5"/>
			<stop  offset="0.71" style="stop-color:#D1D1D1"/>
			<stop  offset="0.99" style="stop-color:#FFFFFF"/>
		</linearGradient>
		<polygon style="fill:url(#SVGID_00000180343394002485714000000013464827475940380057_);" points="186.8,948 188.6,948 
			181.6,911.6 180,911.9 		"/>
		
			<linearGradient id="SVGID_00000160869892860147307720000000098378724264787367_" gradientUnits="userSpaceOnUse" x1="125.04" y1="19.0174" x2="133.63" y2="19.0174" gradientTransform="matrix(1 0 0 -1 0 948.7875)">
			<stop  offset="0" style="stop-color:#808080"/>
			<stop  offset="0.14" style="stop-color:#8A8A8A"/>
			<stop  offset="0.39" style="stop-color:#A5A5A5"/>
			<stop  offset="0.71" style="stop-color:#D1D1D1"/>
			<stop  offset="0.99" style="stop-color:#FFFFFF"/>
		</linearGradient>
		<polygon style="fill:url(#SVGID_00000160869892860147307720000000098378724264787367_);" points="131.8,948 133.6,948 
			126.6,911.6 125,911.9 		"/>
		<polygon class="st81" points="169.6,948 168.1,948 174.8,911.8 176.4,912.1 		"/>
		
			<linearGradient id="SVGID_00000047038935524073227190000000954252898398680478_" gradientUnits="userSpaceOnUse" x1="148.8672" y1="116.1966" x2="148.8672" y2="25.8867" gradientTransform="matrix(1 0 0 -1 0 948.7875)">
			<stop  offset="0" style="stop-color:#909090"/>
			<stop  offset="0.2" style="stop-color:#A1A1A1"/>
			<stop  offset="0.61" style="stop-color:#CFCFCF"/>
			<stop  offset="0.99" style="stop-color:#FFFFFF"/>
		</linearGradient>
		<path style="fill:url(#SVGID_00000047038935524073227190000000954252898398680478_);" d="M142.5,832.8c-8.4,0.9-19.2,1.8-30,20.3
			c-11.9,20.2-5.6,50.2,3.8,58.6s40,18.7,65.7,3.2c0,0,15.5-9.4,7.6-24.9c-12.3-23.9-10.5-28.9-16-38.3S160.2,830.9,142.5,832.8z"/>
		
			<linearGradient id="SVGID_00000149378709184956235160000014906576326204027811_" gradientUnits="userSpaceOnUse" x1="105.9105" y1="70.2207" x2="186.68" y2="70.2207" gradientTransform="matrix(1 0 0 -1 0 948.7875)">
			<stop  offset="0" style="stop-color:#808080"/>
			<stop  offset="0.14" style="stop-color:#8A8A8A"/>
			<stop  offset="0.39" style="stop-color:#A5A5A5"/>
			<stop  offset="0.71" style="stop-color:#D1D1D1"/>
			<stop  offset="0.99" style="stop-color:#FFFFFF"/>
		</linearGradient>
		<path style="fill:url(#SVGID_00000149378709184956235160000014906576326204027811_);" d="M112.4,853.1c7.4-12.6,14.8-17,21.4-18.8
			c-3,3.2-5.6,6.7-7.7,10.4c-11.9,20.2-5.6,50.3,3.8,58.6c8.3,7.4,33.3,16.4,56.8,7.5c-1.4,1.6-3,3-4.8,4.1
			c-25.7,15.5-56.3,5.1-65.7-3.2S100.6,873.2,112.4,853.1z"/>
		<polygon class="st84" points="169.3,863.4 171.5,869.9 164.9,867.3 		"/>
		
			<linearGradient id="SVGID_00000070109948257986932140000008490080066388765571_" gradientUnits="userSpaceOnUse" x1="164.92" y1="104.5475" x2="164.92" y2="80.2974" gradientTransform="matrix(1 0 0 -1 0 948.7875)">
			<stop  offset="0" style="stop-color:#FDF53F"/>
			<stop  offset="0.18" style="stop-color:#FCEF40"/>
			<stop  offset="0.44" style="stop-color:#F9DD44"/>
			<stop  offset="0.73" style="stop-color:#F3C14A"/>
			<stop  offset="1" style="stop-color:#ED9F51"/>
		</linearGradient>
		<path style="fill:url(#SVGID_00000070109948257986932140000008490080066388765571_);" d="M162.6,844.2c0.4,0,1.6,0.4,3.4,3.7
			c2.2,4.2,5.5,16.9,5.5,16.9l-9.8,3.6l-1.2-2.7l-2.1-20.4C158.4,845.4,162.4,844.2,162.6,844.2z"/>
		
			<linearGradient id="SVGID_00000084489517719058172090000000314745938703421319_" gradientUnits="userSpaceOnUse" x1="147.7887" y1="106.3874" x2="147.7887" y2="54.8873" gradientTransform="matrix(1 0 0 -1 0 948.7875)">
			<stop  offset="0" style="stop-color:#FDF53F"/>
			<stop  offset="0.18" style="stop-color:#FCEF40"/>
			<stop  offset="0.44" style="stop-color:#F9DD44"/>
			<stop  offset="0.73" style="stop-color:#F3C14A"/>
			<stop  offset="1" style="stop-color:#ED9F51"/>
		</linearGradient>
		<path style="fill:url(#SVGID_00000084489517719058172090000000314745938703421319_);" d="M149.7,842.4c4.4,0.1,8.7,0.8,12.9,1.8
			c0,0,2.4,20.2-2.1,35.5c-1,3.4,0.8,14.2,0.8,14.2l-28.9-0.4c0,0,3.4-26.1,2.1-30.3s-1.3-18.9-1.3-18.9l6.5-1.1
			C143,842.7,146.3,842.4,149.7,842.4z"/>
		
			<linearGradient id="SVGID_00000025434536138422613060000006038660413375457467_" gradientUnits="userSpaceOnUse" x1="138.1014" y1="9.3633" x2="148.637" y2="9.3633" gradientTransform="matrix(1 0 0 -1 0 948.7875)">
			<stop  offset="0" style="stop-color:#FCDEB3"/>
			<stop  offset="1" style="stop-color:#F9C476"/>
		</linearGradient>
		<path style="fill:url(#SVGID_00000025434536138422613060000006038660413375457467_);" d="M146.3,931.3c0,0,0.6,7.4,1.8,9.4
			s-0.1,5.5-0.1,6s-2.5,1.2-6.3,0.8s-3.8-1.3-3.5-2.7s2.4-3.2,2.5-4.6s-1.2-6.2-1.2-6.2L146.3,931.3z"/>
		
			<linearGradient id="SVGID_00000091724007569256867540000004050516401209412527_" gradientUnits="userSpaceOnUse" x1="131.8729" y1="51.986" x2="184.1797" y2="51.986" gradientTransform="matrix(1 0 0 -1 0 948.7875)">
			<stop  offset="0" style="stop-color:#2B3582"/>
			<stop  offset="1" style="stop-color:#150E42"/>
		</linearGradient>
		<path style="fill:url(#SVGID_00000091724007569256867540000004050516401209412527_);" d="M158,887.8c0,0,19.9-1.1,24.4,1.6
			s-0.8,8.2-0.8,8.2s-16.2,7-43.4,8.6c-6.4,0.4-7-16.7-5.8-18.1S158,887.8,158,887.8z"/>
		
			<linearGradient id="SVGID_00000009551607358466745030000007169720985151983793_" gradientUnits="userSpaceOnUse" x1="137.8705" y1="4.1667" x2="149.0397" y2="4.1667" gradientTransform="matrix(1 0 0 -1 0 948.7875)">
			<stop  offset="0" style="stop-color:#333333"/>
			<stop  offset="1" style="stop-color:#000000"/>
		</linearGradient>
		<path style="fill:url(#SVGID_00000009551607358466745030000007169720985151983793_);" d="M141.2,948c-3.9-0.4-3.5-2.3-3.1-3.8
			c0.2-0.9,1.3-2,2-3c0.8,0.6,1.7,1.1,2.6,1.3c1.8,0.5,4.2-0.5,5.8-1.2c0.4,1.7,0.6,3.4,0.5,5.1C149,946.8,145.2,948.4,141.2,948z"
			/>
		
			<linearGradient id="SVGID_00000109000543050238575530000009221598712114854066_" gradientUnits="userSpaceOnUse" x1="128.2983" y1="35.4453" x2="148.14" y2="35.4453" gradientTransform="matrix(1 0 0 -1 0 948.7875)">
			<stop  offset="0" style="stop-color:#2B3582"/>
			<stop  offset="1" style="stop-color:#150E42"/>
		</linearGradient>
		<path style="fill:url(#SVGID_00000109000543050238575530000009221598712114854066_);" d="M143.4,902.1c0.8,6,4.7,35.9,4.7,35.9
			l-9.1,1.1c0,0-11.3-39-10.7-45c0.6-6,4.8-6.5,4.8-6.5S141.3,886.2,143.4,902.1z"/>
		
			<linearGradient id="SVGID_00000181071105796539607700000001500298465819674248_" gradientUnits="userSpaceOnUse" x1="128.3806" y1="81.4624" x2="166.4347" y2="81.4624" gradientTransform="matrix(1 0 0 -1 0 948.7875)">
			<stop  offset="0" style="stop-color:#FCDEB3"/>
			<stop  offset="1" style="stop-color:#F9C476"/>
		</linearGradient>
		<path style="fill:url(#SVGID_00000181071105796539607700000001500298465819674248_);" d="M132.9,846.6c2.7-1,4,23.2,4.4,33.2
			c5.1,0.3,10.1,0.2,15.2-0.2c1-0.1,3.2-0.9,4.2-1c0.8-0.1,1.6-0.2,2.4-0.1c1.9,0.7,3.8,1.5,5.6,2.5c0.5,0.6,2,2,1.7,2.5
			s-2.8-1.7-2.8-1.7l-1.2-0.7c1.5,1.5,4.4,3.4,4,4.2s-3-1.3-4.9-2.6c1.6,1.4,3.6,4,3.1,4.4s-2.7-2.6-5.1-3.5
			c-0.9-0.3-1.8,0.6-2.5,0.7c-0.6,0.1-1.2,0.2-1.8,0.1l-2.6-0.7c-0.9,0.1-0.9,0.6-1.8,0.8s-2.8,0.5-4.1,0.8
			c-7.7,1.9-10.2,2.7-12.6,2.7C126.9,888.1,126.5,849,132.9,846.6z"/>
		
			<linearGradient id="SVGID_00000090988347225092009980000017326163654809374382_" gradientUnits="userSpaceOnUse" x1="133.1393" y1="104.4674" x2="133.1393" y2="78.9365" gradientTransform="matrix(1 0 0 -1 0 948.7875)">
			<stop  offset="0" style="stop-color:#FDF53F"/>
			<stop  offset="0.18" style="stop-color:#FCEF40"/>
			<stop  offset="0.44" style="stop-color:#F9DD44"/>
			<stop  offset="0.73" style="stop-color:#F3C14A"/>
			<stop  offset="1" style="stop-color:#ED9F51"/>
		</linearGradient>
		<path style="fill:url(#SVGID_00000090988347225092009980000017326163654809374382_);" d="M127.8,869.4c-0.5-10.2-0.4-22.8,5.3-25
			c2.3-0.8,6.3,4.3,5.6,25.2C135,870,131.4,869.9,127.8,869.4z"/>
		
			<linearGradient id="SVGID_00000029011644044734127480000010656165335877325978_" gradientUnits="userSpaceOnUse" x1="165.91" y1="6.1124" x2="182.58" y2="6.1124" gradientTransform="matrix(1 0 0 -1 0 948.7875)">
			<stop  offset="0" style="stop-color:#FCDEB3"/>
			<stop  offset="1" style="stop-color:#F9C476"/>
		</linearGradient>
		<path style="fill:url(#SVGID_00000029011644044734127480000010656165335877325978_);" d="M173.1,937.6c0,0-0.8,2.5,0.6,4.2
			s7.4,3.3,8.1,4.3c0.4,0.5,0.7,1.1,0.7,1.7l-16.7-0.5l0.2-5l0.8-3.6L173.1,937.6z"/>
		
			<linearGradient id="SVGID_00000121996866747175205120000010250988596599056033_" gradientUnits="userSpaceOnUse" x1="164.97" y1="3.5825" x2="185.175" y2="3.5825" gradientTransform="matrix(1 0 0 -1 0 948.7875)">
			<stop  offset="0" style="stop-color:#333333"/>
			<stop  offset="1" style="stop-color:#000000"/>
		</linearGradient>
		<path style="fill:url(#SVGID_00000121996866747175205120000010250988596599056033_);" d="M174.8,942.7c0,0-4.3,1.7-6.4,0.7
			s-2-1.3-2.6-0.9S165,948,165,948l18.8,0.1c1.3,0,2-1,0.9-1.8c-0.6-0.5-1.3-0.9-2-1.2C181.1,944.2,174.8,942.7,174.8,942.7z"/>
		
			<linearGradient id="SVGID_00000098941944690972026200000009002693223724422273_" gradientUnits="userSpaceOnUse" x1="166.23" y1="35.0471" x2="187.1342" y2="35.0471" gradientTransform="matrix(1 0 0 -1 0 948.7875)">
			<stop  offset="0" style="stop-color:#2B3582"/>
			<stop  offset="1" style="stop-color:#150E42"/>
		</linearGradient>
		<path style="fill:url(#SVGID_00000098941944690972026200000009002693223724422273_);" d="M172.4,892.5c1.3-2.7,4.2-6.2,9.4-4.1
			c4.9,2,6.2,7,4.7,12.1s-11.8,35-12.1,39.1l-8.2,0c0,0,1.5-23.7,1.8-29.4C168.5,904.2,170,898.2,172.4,892.5z"/>
		
			<linearGradient id="SVGID_00000067236070320041370340000015086341622460891022_" gradientUnits="userSpaceOnUse" x1="132.61" y1="72.2325" x2="187.5017" y2="72.2325" gradientTransform="matrix(1 0 0 -1 0 948.7875)">
			<stop  offset="0" style="stop-color:#4D4D4D"/>
			<stop  offset="1" style="stop-color:#1A1A1A"/>
		</linearGradient>
		<path style="fill:url(#SVGID_00000067236070320041370340000015086341622460891022_);" d="M185.7,865h-27.3c-0.7,0-1.4,0.4-1.6,1.1
			l-8.4,20.5h-15c-0.4,0-0.8,0.3-0.8,0.8l0,0l0,0c0,0.4,0.3,0.8,0.8,0.8l0,0h42.8c1.2,0,2.2-0.7,2.7-1.8l8.5-18.8
			c0.4-0.9,0-2-0.9-2.4C186.2,865,185.9,865,185.7,865z"/>
		
			<linearGradient id="SVGID_00000074423441123782601270000017716822420634559402_" gradientUnits="userSpaceOnUse" x1="149.5881" y1="96.6014" x2="149.5881" y2="115.5414" gradientTransform="matrix(1 0 0 -1 0 948.7875)">
			<stop  offset="0" style="stop-color:#FCDEB3"/>
			<stop  offset="1" style="stop-color:#F9A262"/>
		</linearGradient>
		<path style="fill:url(#SVGID_00000074423441123782601270000017716822420634559402_);" d="M146.4,833.8l-1.4,8.8
			c0,0,4.9,10.5,7.8,9.6c2.4-0.8,0.9-10,0.9-10s-1.3-5-0.9-7.5S146.4,833.8,146.4,833.8z"/>
		<path class="st98" d="M152.8,834.6c0.4-2.5-6.5-0.9-6.5-0.9l-0.1,0.7c0.2,0.4,0.4,0.9,0.8,1.2c1.6,1.6,3.7,2.6,6,2.7
			C152.8,837.2,152.7,835.9,152.8,834.6z"/>
		
			<linearGradient id="SVGID_00000160150243715105596900000017451220596821357189_" gradientUnits="userSpaceOnUse" x1="144.7082" y1="121.0791" x2="156.9482" y2="121.0791" gradientTransform="matrix(1 0 0 -1 0 948.7875)">
			<stop  offset="0" style="stop-color:#FCDEB3"/>
			<stop  offset="1" style="stop-color:#F9C476"/>
		</linearGradient>
		<path style="fill:url(#SVGID_00000160150243715105596900000017451220596821357189_);" d="M145.2,821.3c-0.2-0.1-1.6,10,1,12.8
			s7.6,3.7,9.4,1.5c2-2.4,1.9-13.3-2.1-16.1S145.2,821.3,145.2,821.3z"/>
		
			<linearGradient id="SVGID_00000022560438429257615730000005325468818642204824_" gradientUnits="userSpaceOnUse" x1="139.7562" y1="123.2535" x2="155.5275" y2="123.2535" gradientTransform="matrix(1 0 0 -1 0 948.7875)">
			<stop  offset="1.000000e-02" style="stop-color:#603813"/>
			<stop  offset="1" style="stop-color:#C69C6D"/>
		</linearGradient>
		<path style="fill:url(#SVGID_00000022560438429257615730000005325468818642204824_);" d="M152,814.1c-2.2,0.5-4.3,1.7-5.8,3.3
			c-1.4,0.2-3.3,0.9-5.3,4.2c-2.1,3.6-1.1,8.2,2.2,10.7c1.6,1.1,2.6,2.8,2.8,4.7l0.4-1.3c0.3-1,0.5-2,0.4-3.1c0-0.6-0.2-1.3-0.5-1.8
			c-0.7-1.5,1.5-2.4,2.1-3.7c0.5-0.9,0.5-3.1,1.2-4.6l0.9-1.2c0,0,2-1.6,4-1.1S156,813.3,152,814.1z"/>
		
			<linearGradient id="SVGID_00000170274514152947791600000006946940326783363748_" gradientUnits="userSpaceOnUse" x1="145.5695" y1="119.7673" x2="148.14" y2="119.7673" gradientTransform="matrix(1 0 0 -1 0 948.7875)">
			<stop  offset="0" style="stop-color:#FCDEB3"/>
			<stop  offset="1" style="stop-color:#F9C476"/>
		</linearGradient>
		<path style="fill:url(#SVGID_00000170274514152947791600000006946940326783363748_);" d="M148.1,829c0,1.2-0.5,2.2-1.2,2.2
			s-1.3-1-1.3-2.2s0.5-2.2,1.2-2.2S148.1,827.7,148.1,829z"/>
		<path class="st15" d="M151.6,832.4l3.9-0.2c0,0.9-0.8,1.6-1.7,1.6C151.7,833.9,151.6,832.4,151.6,832.4z"/>
		<path d="M150.7,826.5c-0.1,0.3,0.1,0.6,0.4,0.6s0.6-0.1,0.6-0.4c0.1-0.3-0.1-0.6-0.4-0.6c0,0,0,0,0,0
			C151,826,150.7,826.2,150.7,826.5z"/>
		<path d="M154.5,826.5c0,0.3,0.1,0.6,0.4,0.6c0.3,0.1,0.6-0.1,0.6-0.4c0.1-0.3-0.1-0.6-0.4-0.6S154.5,826.2,154.5,826.5
			C154.5,826.5,154.5,826.5,154.5,826.5z"/>
		<path d="M152,825.7c-0.1,0-0.1,0-0.2,0c-0.2-0.2-0.4-0.2-0.7-0.2c-0.2,0-0.5,0.2-0.6,0.4c-0.1,0.1-0.2,0.1-0.3,0c0,0,0,0,0,0
			c-0.1-0.1-0.1-0.2,0-0.3c0,0,0,0,0,0c0.2-0.3,0.5-0.5,0.9-0.5c0.4,0,0.7,0.1,1,0.3c0.1,0.1,0.1,0.2,0,0.3
			C152.1,825.6,152.1,825.6,152,825.7z"/>
		<path d="M155.8,825.7c-0.1,0-0.1,0-0.2,0c-0.2-0.2-0.4-0.2-0.7-0.2c-0.2,0-0.5,0.2-0.6,0.4c-0.1,0.1-0.2,0.1-0.3,0c0,0,0,0,0,0
			c-0.1-0.1-0.1-0.2,0-0.3c0.2-0.3,0.5-0.5,0.9-0.5c0.4,0,0.7,0.1,1,0.3c0.1,0.1,0.1,0.2,0,0.3c0,0,0,0,0,0
			C155.9,825.7,155.9,825.7,155.8,825.7z"/>
		<path class="st15" d="M154.4,826.5c0,0.1,0.1,0.2,0.2,0.2c0.1,0,0.2-0.1,0.2-0.2c0-0.1,0-0.2-0.2-0.2c0,0,0,0,0,0
			C154.5,826.3,154.4,826.4,154.4,826.5z"/>
		<path class="st15" d="M150.6,826.6c0,0.1,0,0.2,0.2,0.2c0,0,0,0,0,0c0.1,0,0.2-0.1,0.2-0.2c0-0.1-0.1-0.2-0.2-0.2
			C150.7,826.4,150.6,826.5,150.6,826.6z"/>
		<path d="M155.8,826.5c-0.1,0-0.1,0-0.1,0c-0.3-0.3-0.9-0.3-1.2,0c0,0,0,0,0,0c-0.1,0.1-0.1,0-0.2,0s0-0.1,0-0.2
			c0.5-0.5,1.2-0.5,1.6,0C155.9,826.2,155.9,826.3,155.8,826.5C155.9,826.4,155.9,826.4,155.8,826.5L155.8,826.5z"/>
		<path d="M152,826.4c0,0-0.1,0-0.1,0c-0.3-0.3-0.9-0.3-1.2,0c0,0,0,0,0,0c-0.1,0.1-0.1,0.1-0.2,0c-0.1-0.1-0.1-0.1,0-0.2
			c0,0,0,0,0,0c0.5-0.5,1.2-0.5,1.6,0C152.1,826.3,152.1,826.4,152,826.4C152.1,826.4,152.1,826.4,152,826.4L152,826.4z"/>
		<path class="st20" d="M153.5,826.8l0.7,2.5c0,0.2,0.1,0.4,0.2,0.6c0.1,0.1,0.2,0.2,0.2,0.3c0.1,0.1,0.1,0.3,0,0.4
			c-0.1,0.3-0.6,0.3-0.9,0.4c-0.3,0-0.6-0.1-0.7-0.4c-0.1-0.2-0.4-0.1-0.4,0.1c0.2,0.3,0.5,0.5,0.8,0.6c0.3,0,0.7,0,0.9-0.2
			c0.4-0.1,0.6-0.6,0.5-1c0-0.1,0-0.1-0.1-0.2c-0.1-0.1-0.2-0.3-0.3-0.4l-0.1-0.1c0.1-0.1,0,0.2,0,0s0,0,0-0.1l-0.4-1.5l-0.4-1.4
			C153.8,826.4,153.4,826.5,153.5,826.8L153.5,826.8z"/>
		<path d="M875.5,713.7c0,0.3,0.2,0.5,0.4,0.5c0.3,0,0.5-0.2,0.5-0.4c0,0,0,0,0,0c0.1-0.3-0.1-0.5-0.4-0.6
			C875.8,713.2,875.5,713.3,875.5,713.7C875.5,713.6,875.5,713.6,875.5,713.7z"/>
		<path d="M878.8,713.4c0,0.3,0.2,0.5,0.4,0.5c0.3,0,0.5-0.2,0.5-0.4c0-0.3-0.2-0.5-0.4-0.5C879,712.9,878.8,713.1,878.8,713.4
			C878.8,713.4,878.8,713.4,878.8,713.4z"/>
		<path d="M876.5,712.8c0,0-0.1,0-0.2,0c-0.2-0.1-0.4-0.2-0.6-0.2c-0.2,0.1-0.4,0.2-0.5,0.4c0,0.1-0.1,0.1-0.2,0.1c0,0,0,0,0,0
			c-0.1-0.1-0.1-0.2,0-0.2c0.1-0.3,0.4-0.5,0.7-0.6c0.3,0,0.6,0,0.9,0.2C876.7,712.6,876.7,712.7,876.5,712.8
			C876.6,712.8,876.6,712.8,876.5,712.8z"/>
		<path d="M879.9,712.6c0,0-0.1,0-0.2,0c-0.2-0.1-0.4-0.2-0.6-0.2c-0.2,0.1-0.4,0.2-0.5,0.4c0,0.1-0.1,0.1-0.2,0.1c0,0,0,0,0,0
			c-0.1-0.1-0.1-0.2-0.1-0.2c0.1-0.3,0.4-0.5,0.7-0.6c0.3-0.1,0.6,0,0.9,0.2C880,712.4,880,712.5,879.9,712.6
			C879.9,712.5,879.9,712.6,879.9,712.6z"/>
		<path class="st15" d="M878.7,713.4c0,0.1,0.1,0.2,0.2,0.2c0,0,0,0,0,0c0.1,0,0.2-0.1,0.2-0.2c0,0,0,0,0,0c0-0.1-0.1-0.2-0.2-0.2
			c0,0,0,0,0,0C878.8,713.2,878.7,713.3,878.7,713.4C878.7,713.4,878.7,713.4,878.7,713.4z"/>
		<path class="st15" d="M875.4,713.8c0,0.1,0.1,0.2,0.2,0.2c0.1,0,0.2-0.1,0.2-0.2c0-0.1-0.1-0.1-0.2-0.2
			C875.5,713.6,875.4,713.7,875.4,713.8z"/>
		<path d="M879.9,713.3c0,0-0.1,0-0.1,0c-0.3-0.3-0.7-0.3-1,0c0,0,0,0-0.1,0.1c0,0-0.1,0.1-0.2,0c0,0,0,0,0,0c0-0.1,0-0.1,0-0.2
			c0.3-0.4,1-0.5,1.4-0.2c0,0,0,0,0.1,0C880,713.1,880,713.1,879.9,713.3L879.9,713.3z"/>
		<path d="M876.6,713.5c0,0-0.1,0-0.1,0c-0.3-0.3-0.8-0.3-1,0c0,0,0,0,0,0.1c0,0-0.1,0-0.2,0c0,0,0,0,0,0c0-0.1,0-0.1,0-0.2
			c0.4-0.4,1-0.5,1.4-0.1c0,0,0,0,0,0C876.7,713.4,876.7,713.5,876.6,713.5C876.7,713.5,876.6,713.5,876.6,713.5z"/>
		<path class="st20" d="M877.9,714.5l0.4,1.4c0,0.1,0,0.2,0.2,0.3c0.1,0,0.1,0.1,0.2,0.2c0,0.1,0,0.2,0,0.2
			c-0.2,0.2-0.4,0.3-0.7,0.4c-0.2,0.1-0.5,0-0.6-0.1s-0.3,0-0.3,0.1s0.4,0.2,0.7,0.2c0.3,0,0.5-0.1,0.8-0.3c0.4-0.2,0.6-0.5,0.4-0.7
			c-0.1-0.1-0.1-0.1-0.2-0.2h0c0.1-0.1,0,0.1,0,0s0,0,0,0l-0.2-0.8l-0.2-0.7C878.2,714.3,877.9,714.4,877.9,714.5L877.9,714.5z"/>
	</g>
</g>
</svg>
