<?xml version="1.0" encoding="utf-8"?>
<!-- Generator: Adobe Illustrator 25.4.1, SVG Export Plug-In . SVG Version: 6.00 Build 0)  -->
<svg version="1.1" id="Capa_1" xmlns="http://www.w3.org/2000/svg" xmlns:xlink="http://www.w3.org/1999/xlink" x="0px" y="0px"
	 viewBox="0 0 585 210" style="enable-background:new 0 0 585 210;" xml:space="preserve">
<style type="text/css">
	.st0{fill:#43493B;}
	.st1{opacity:0.6;fill:#A7AE9C;enable-background:new    ;}
	.st2{fill:#92C846;}
	.st3{fill:#3F3D56;}
	.st4{fill:#FFFFFF;}
	.st5{fill:#2F2E41;}
	.st6{fill:#CACACA;}
	.st7{fill:#F2F2F2;}
	.st8{fill:#E6E6E6;}
	.st9{fill:#E4E4E4;}
	.st10{fill:#FFB6B6;}
	.st11{fill:#009DC2;}
	.st12{opacity:0.4;enable-background:new    ;}
	.st13{opacity:0.17;enable-background:new    ;}
	.st14{fill:#FFB8B8;}
	.st15{fill:#CCCCCC;}
	.st16{fill:#FF6584;}
	.st17{fill:#00D5FC;}
</style>
<rect y="0" class="st0" width="585" height="210"/>
<path class="st1" d="M435.1,92.6c-3.4-2-7-3.5-10.7-4.6c-7.4-2.2-15.8-1.6-23-4.9c-11.2-5.2-6.7-14.9-4-24.5
	c2.6-9.3-4.5-22.8-11-28.8c-27-24.6-66.6-10.4-96.4-0.5c-19.4,6.5-41.1,7.1-61,2.8c-17.5-3.8-34.4-14.6-52-5.2
	c-16.5,8.7-27.4,28.8-25.6,47.5c1,10.4,6,20.3,5.8,30.8c-0.3,10.2-5.7,18.6-10.8,27.1c-10.2,17.2-1.1,39.8,16,47.6
	c14.8,6.8,33.4,6,49.1,3.8c8.8-1.2,17.5-3,26.2-4.6c17.2-3.3,34.8-3.5,51.8,0.8c16.2,4.1,31.6,11.5,48.8,10.5
	c12.5-0.8,23.3-8.2,29.7-19c9.8-16.3,22.6-14,39.2-14.6c19.3-0.8,33.8-16,39.8-33.7C451.7,108.9,445.7,98.8,435.1,92.6z"/>
<path class="st2" d="M155.3,93.6c5.9-3,12.2-5.3,18.7-6.6c4.1-1,17.9-1.7,20.4-4.6c5.8-6.6,1.1-14.7-0.9-21.7
	c-4.7-16.5,11-29.7,23.7-37.1c12.3-7.2,26.9-6,40.5-4.2c14.6,1.9,28.4,5.2,41.7,11.6c12.1,5.8,24.4,16.7,38.5,17.2
	c13.6,0.4,24-10,34.3-17.2c32.1-22.3,70.7,10.1,67.4,45.6c-1.7,18.4-13.9,37,1.8,53c0.7,0.7,1.3,1.4,1.9,2.2
	c5.2,6.6,6.1,11.1,5.6,19.9c-1.1,23.1-21.8,33.4-42.2,36c-17.5,2.2-31.6-10.9-47.4-15.8c-15.2-4.7-31.7,2.7-46.2,7
	c-29.2,8.7-69.7,28.6-90.1-5.4c-9.8-16.3-22.6-14-39.2-14.6c-19.3-0.8-33.8-16-39.8-33.7C138.6,109.2,144.5,99.7,155.3,93.6z"/>
<g>
	<path class="st3" d="M201.1,72.3v109.2c0,2.9,2.9,5.2,6.6,5.2h202.1c3.6,0,6.6-2.4,6.6-5.2V72.3c0-2.9-2.9-5.2-6.6-5.2H207.7
		C204.1,67.1,201.1,69.4,201.1,72.3z"/>
	<path class="st4" d="M205.9,73.7v106.5c0,1.5,1.6,2.8,3.5,2.8h198.7c1.9,0,3.5-1.3,3.5-2.8V73.7c0-1.6-1.6-2.8-3.5-2.8H209.4
		C207.4,70.8,205.9,72.1,205.9,73.7z"/>
	<path class="st5" d="M196.9,202.8c0.7,0.8,1.9,1.2,3.1,1.2h216.4c2.2,0,4-1.4,4-3.2c0-0.2,0-0.4-0.1-0.7l-3.4-12.8
		c-0.3-1.1-1.2-1.9-2.5-2.3c-0.5-0.1-0.9-0.2-1.4-0.2H203.3c-0.5,0-1,0.1-1.4,0.2c-1.3,0.4-2.2,1.3-2.5,2.3l-3.4,12.8
		C195.9,201.1,196.2,202.1,196.9,202.8z"/>
	<path class="st3" d="M411.2,190.4H405c-0.1,0-0.2-0.1-0.2-0.2v-2.8c0-0.1,0.1-0.2,0.2-0.2h6.2c0.1,0,0.2,0.1,0.2,0.2v2.8
		C411.5,190.3,411.4,190.4,411.2,190.4z"/>
	<path class="st3" d="M397.9,190.4h-6.2c-0.1,0-0.2-0.1-0.2-0.2v-2.8c0-0.1,0.1-0.2,0.2-0.2h6.2c0.1,0,0.2,0.1,0.2,0.2v2.8
		C398.1,190.3,398,190.4,397.9,190.4z"/>
	<path class="st3" d="M384.6,190.4h-6.2c-0.1,0-0.2-0.1-0.2-0.2v-2.8c0-0.1,0.1-0.2,0.2-0.2h6.2c0.1,0,0.2,0.1,0.2,0.2v2.8
		C384.8,190.3,384.7,190.4,384.6,190.4z"/>
	<path class="st3" d="M371.3,190.4h-6.2c-0.1,0-0.2-0.1-0.2-0.2v-2.8c0-0.1,0.1-0.2,0.2-0.2h6.2c0.1,0,0.2,0.1,0.2,0.2v2.8
		C371.5,190.3,371.4,190.4,371.3,190.4z"/>
	<path class="st3" d="M357.9,190.4h-6.2c-0.1,0-0.2-0.1-0.2-0.2v-2.8c0-0.1,0.1-0.2,0.2-0.2h6.2c0.1,0,0.2,0.1,0.2,0.2v2.8
		C358.2,190.3,358.1,190.4,357.9,190.4z"/>
	<path class="st3" d="M344.6,190.4h-6.2c-0.1,0-0.2-0.1-0.2-0.2v-2.8c0-0.1,0.1-0.2,0.2-0.2h6.2c0.1,0,0.2,0.1,0.2,0.2v2.8
		C344.8,190.3,344.7,190.4,344.6,190.4z"/>
	<path class="st3" d="M331.3,190.4h-6.2c-0.1,0-0.2-0.1-0.2-0.2v-2.8c0-0.1,0.1-0.2,0.2-0.2h6.2c0.1,0,0.2,0.1,0.2,0.2v2.8
		C331.5,190.3,331.4,190.4,331.3,190.4z"/>
	<path class="st3" d="M317.9,190.4h-6.2c-0.1,0-0.2-0.1-0.2-0.2v-2.8c0-0.1,0.1-0.2,0.2-0.2h6.2c0.1,0,0.2,0.1,0.2,0.2v2.8
		C318.2,190.3,318.1,190.4,317.9,190.4z"/>
	<path class="st3" d="M304.6,190.4h-6.2c-0.1,0-0.2-0.1-0.2-0.2v-2.8c0-0.1,0.1-0.2,0.2-0.2h6.2c0.1,0,0.2,0.1,0.2,0.2v2.8
		C304.8,190.3,304.7,190.4,304.6,190.4z"/>
	<path class="st3" d="M291.3,190.4h-6.2c-0.1,0-0.2-0.1-0.2-0.2v-2.8c0-0.1,0.1-0.2,0.2-0.2h6.2c0.1,0,0.2,0.1,0.2,0.2v2.8
		C291.5,190.3,291.4,190.4,291.3,190.4z"/>
	<path class="st3" d="M278,190.4h-6.2c-0.1,0-0.2-0.1-0.2-0.2v-2.8c0-0.1,0.1-0.2,0.2-0.2h6.2c0.1,0,0.2,0.1,0.2,0.2v2.8
		C278.2,190.3,278.1,190.4,278,190.4z"/>
	<path class="st3" d="M264.6,190.4h-6.2c-0.1,0-0.2-0.1-0.2-0.2v-2.8c0-0.1,0.1-0.2,0.2-0.2h6.2c0.1,0,0.2,0.1,0.2,0.2v2.8
		C264.9,190.3,264.8,190.4,264.6,190.4z"/>
	<path class="st3" d="M251.3,190.4h-6.2c-0.1,0-0.2-0.1-0.2-0.2v-2.8c0-0.1,0.1-0.2,0.2-0.2h6.2c0.1,0,0.2,0.1,0.2,0.2v2.8
		C251.5,190.3,251.4,190.4,251.3,190.4z"/>
	<path class="st3" d="M238,190.4h-6.2c-0.1,0-0.2-0.1-0.2-0.2v-2.8c0-0.1,0.1-0.2,0.2-0.2h6.2c0.1,0,0.2,0.1,0.2,0.2v2.8
		C238.2,190.3,238.1,190.4,238,190.4z"/>
	<path class="st3" d="M224.7,190.4h-6.2c-0.1,0-0.2-0.1-0.2-0.2v-2.8c0-0.1,0.1-0.2,0.2-0.2h6.2c0.1,0,0.2,0.1,0.2,0.2v2.8
		C224.9,190.3,224.8,190.4,224.7,190.4z"/>
	<path class="st3" d="M211.3,190.4h-6.2c-0.1,0-0.2-0.1-0.2-0.2v-2.8c0-0.1,0.1-0.2,0.2-0.2h6.2c0.1,0,0.2,0.1,0.2,0.2v2.8
		C211.6,190.3,211.5,190.4,211.3,190.4z"/>
	<path class="st3" d="M411.4,195.7h-6.2c-0.1,0-0.2-0.1-0.2-0.2v-2.8c0-0.1,0.1-0.2,0.2-0.2h6.2c0.1,0,0.2,0.1,0.2,0.2v2.8
		C411.6,195.6,411.5,195.7,411.4,195.7z"/>
	<path class="st3" d="M398.1,195.7h-6.2c-0.1,0-0.2-0.1-0.2-0.2v-2.8c0-0.1,0.1-0.2,0.2-0.2h6.2c0.1,0,0.2,0.1,0.2,0.2v2.8
		C398.3,195.6,398.2,195.7,398.1,195.7z"/>
	<path class="st3" d="M384.7,195.7h-6.2c-0.1,0-0.2-0.1-0.2-0.2v-2.8c0-0.1,0.1-0.2,0.2-0.2h6.2c0.1,0,0.2,0.1,0.2,0.2v2.8
		C385,195.6,384.9,195.7,384.7,195.7z"/>
	<path class="st3" d="M371.4,195.7h-6.2c-0.1,0-0.2-0.1-0.2-0.2v-2.8c0-0.1,0.1-0.2,0.2-0.2h6.2c0.1,0,0.2,0.1,0.2,0.2v2.8
		C371.6,195.6,371.5,195.7,371.4,195.7z"/>
	<path class="st3" d="M358.1,195.7h-6.2c-0.1,0-0.2-0.1-0.2-0.2v-2.8c0-0.1,0.1-0.2,0.2-0.2h6.2c0.1,0,0.2,0.1,0.2,0.2v2.8
		C358.3,195.6,358.2,195.7,358.1,195.7z"/>
	<path class="st3" d="M344.8,195.7h-6.2c-0.1,0-0.2-0.1-0.2-0.2v-2.8c0-0.1,0.1-0.2,0.2-0.2h6.2c0.1,0,0.2,0.1,0.2,0.2v2.8
		C345,195.6,344.9,195.7,344.8,195.7z"/>
	<path class="st3" d="M331.4,195.7h-6.2c-0.1,0-0.2-0.1-0.2-0.2v-2.8c0-0.1,0.1-0.2,0.2-0.2h6.2c0.1,0,0.2,0.1,0.2,0.2v2.8
		C331.7,195.6,331.6,195.7,331.4,195.7z"/>
	<path class="st3" d="M318.1,195.7h-6.2c-0.1,0-0.2-0.1-0.2-0.2v-2.8c0-0.1,0.1-0.2,0.2-0.2h6.2c0.1,0,0.2,0.1,0.2,0.2v2.8
		C318.3,195.6,318.2,195.7,318.1,195.7z"/>
	<path class="st3" d="M304.8,195.7h-6.2c-0.1,0-0.2-0.1-0.2-0.2v-2.8c0-0.1,0.1-0.2,0.2-0.2h6.2c0.1,0,0.2,0.1,0.2,0.2v2.8
		C305,195.6,304.9,195.7,304.8,195.7z"/>
	<path class="st3" d="M291.4,195.7h-6.2c-0.1,0-0.2-0.1-0.2-0.2v-2.8c0-0.1,0.1-0.2,0.2-0.2h6.2c0.1,0,0.2,0.1,0.2,0.2v2.8
		C291.7,195.6,291.6,195.7,291.4,195.7z"/>
	<path class="st3" d="M278.1,195.7h-6.2c-0.1,0-0.2-0.1-0.2-0.2v-2.8c0-0.1,0.1-0.2,0.2-0.2h6.2c0.1,0,0.2,0.1,0.2,0.2v2.8
		C278.3,195.6,278.2,195.7,278.1,195.7z"/>
	<path class="st3" d="M264.8,195.7h-6.2c-0.1,0-0.2-0.1-0.2-0.2v-2.8c0-0.1,0.1-0.2,0.2-0.2h6.2c0.1,0,0.2,0.1,0.2,0.2v2.8
		C265,195.6,264.9,195.7,264.8,195.7z"/>
	<path class="st3" d="M251.5,195.7h-6.2c-0.1,0-0.2-0.1-0.2-0.2v-2.8c0-0.1,0.1-0.2,0.2-0.2h6.2c0.1,0,0.2,0.1,0.2,0.2v2.8
		C251.7,195.6,251.6,195.7,251.5,195.7z"/>
	<path class="st3" d="M238.1,195.7h-6.2c-0.1,0-0.2-0.1-0.2-0.2v-2.8c0-0.1,0.1-0.2,0.2-0.2h6.2c0.1,0,0.2,0.1,0.2,0.2v2.8
		C238.4,195.6,238.3,195.7,238.1,195.7z"/>
	<path class="st3" d="M224.8,195.7h-6.2c-0.1,0-0.2-0.1-0.2-0.2v-2.8c0-0.1,0.1-0.2,0.2-0.2h6.2c0.1,0,0.2,0.1,0.2,0.2v2.8
		C225,195.6,224.9,195.7,224.8,195.7z"/>
	<path class="st3" d="M211.5,195.7h-6.2c-0.1,0-0.2-0.1-0.2-0.2v-2.8c0-0.1,0.1-0.2,0.2-0.2h6.2c0.1,0,0.2,0.1,0.2,0.2v2.8
		C211.7,195.6,211.6,195.7,211.5,195.7z"/>
	<path class="st3" d="M332.7,202.1h-52.8c-0.1,0-0.2-0.1-0.2-0.2v-2.8c0-0.1,0.1-0.2,0.2-0.2h52.8c0.1,0,0.2,0.1,0.2,0.2v2.8
		C332.9,202,332.8,202.1,332.7,202.1z"/>
	<path class="st6" d="M400.7,90.1h-184c-0.3,0-0.5-0.2-0.5-0.4c0-0.2,0.2-0.4,0.5-0.4h184c0.3,0,0.5,0.2,0.5,0.4
		C401.2,90,401,90.1,400.7,90.1z"/>
	<ellipse class="st3" cx="227.3" cy="80.5" rx="5.2" ry="4.3"/>
	<ellipse class="st3" cx="245.3" cy="80.5" rx="5.2" ry="4.3"/>
	<ellipse class="st3" cx="263.2" cy="80.5" rx="5.2" ry="4.3"/>
	<path class="st3" d="M390,77.3h-12.7c-0.5,0-1,0.4-0.9,0.8c0,0.4,0.4,0.7,0.9,0.8H390c0.5,0,1-0.4,0.9-0.8
		C390.9,77.6,390.5,77.3,390,77.3z"/>
	<path class="st3" d="M390,80.2h-12.7c-0.5,0-1,0.4-0.9,0.8c0,0.4,0.4,0.7,0.9,0.8H390c0.5,0,1-0.4,0.9-0.8
		C390.9,80.5,390.5,80.2,390,80.2z"/>
	<path class="st3" d="M390,83.1h-12.7c-0.5,0-1,0.4-0.9,0.8c0,0.4,0.4,0.7,0.9,0.8H390c0.5,0,1-0.4,0.9-0.8
		C390.9,83.4,390.5,83.1,390,83.1z"/>
</g>
<g>
	<path class="st0" d="M307.6,109.2c0-6.6,5.2-11.2,11.8-11.2l73.5,0.5c6.6,0,11.2,5.2,11.2,11.8c0,6.6-5.2,11.2-11.8,11.2l-73.5-0.5
		C312.4,119.9,307.8,114.7,307.6,109.2z"/>
	<path class="st0" d="M308.3,137c0-6.6,5.2-11.2,11.8-11.2l73.5,0.5c6.6,0,11.2,5.2,11.2,11.8c0,6.6-5.2,11.2-11.8,11.2l-73.5-0.5
		C313,147.7,308.4,142.5,308.3,137z"/>
	<path class="st0" d="M308.3,166.1c0-6.6,5.2-11.2,11.8-11.2l73.5,0.5c6.6,0,11.2,5.2,11.2,11.8c0,6.6-5.2,11.2-11.8,11.2l-73.5-0.5
		C313,176.8,308.4,171.6,308.3,166.1z"/>
</g>
<path class="st4" d="M260.7,122.7l1.1-3.8c0.1-0.5,0.5-0.8,1-0.9c3.5-0.7,13.1-0.9,13.2-0.9v-0.4c-0.4,0-9.8,0.2-13.3,0.9
	c-0.6,0.1-1.1,0.6-1.3,1.2l-1.1,3.8L260.7,122.7z"/>
<path class="st4" d="M262.3,95c0,0.1,0.1,0.1,0.2,0.1s0.1-0.1,0.1-0.2s-0.1-0.1-0.2-0.1S262.3,94.9,262.3,95L262.3,95z"/>
<path class="st4" d="M259,96.3c0,0.1,0.1,0.1,0.2,0.1s0.2-0.1,0.1-0.2l0,0c0-0.1-0.1-0.1-0.2-0.1C259,96.1,259,96.2,259,96.3
	L259,96.3z"/>
<path class="st3" d="M329,65.2c2.1-1.4,4.8,1.7,3.3,3.7s-4.7,1.4-5.8-0.6c-1.4-2.6,0-5.7,2.3-7.2c2.6-1.7,5.8-1.8,8.8-1.6
	s6,0.4,9-0.1c2.6-0.4,5.1-1.1,7.5-2.1c4.9-2.1,9.2-5.3,12.5-9.5c1.5-2,3-4.2,3.9-6.5c0.7-1.8,1-4.2,0-6c-0.8-1.5-2.6-2-4.1-1.3
	c-0.2,0.1-0.4,0.2-0.5,0.3c-1.6,1.3-2,3.8-0.8,5.5c1.3,1.8,3.8,2.5,6,2.1c3-0.5,5.4-2.6,7.7-4.4l16.9-13.4c2.8-2.2,5.5-4.5,8.4-6.6
	c2.3-1.8,5.1-3.5,8.1-2.5c1.2,0.4,2.4,1.3,2.7,2.6c0.2,1.2-0.2,2.4-1.2,3.2c-0.9,0.7-2.1,0.6-2.9-0.2l-0.1-0.1
	c-0.6-0.9-0.7-2.1-0.3-3.1c1-2.7,4.5-2.9,6.9-2.7c2.8,0.3,5.5,1.2,7.9,2.6c5,2.9,8.7,7.7,10.9,13c2.4,5.9,3.2,12.4,3.1,18.8
	c0,1.3-0.1,2.7-0.8,3.8c-0.7,1.1-2,1.4-3.1,0.7c-0.4-0.2-0.8-0.7-0.7-1.2c0.1-0.6,1.3-0.6,1.8-0.6c1.3,0.1,2.6,0.7,3.6,1.6
	c2.3,2.2,2.5,5.5,2.2,8.4c-0.3,3.2-1.3,6.4-0.9,9.7c0.6,5.4,5,8.3,9.3,10.8c2.2,1.3,4.5,2.5,6.5,4.1s3.8,3.6,5.3,5.7
	c2.9,4.3,4.6,9.2,4.9,14.4c0.2,2.6,0,5.1-0.6,7.7c-0.6,2.5-1.5,5.5-3.8,6.9c-1.2,0.7-2.6,0.5-3.6-0.3s-1.4-2.1-0.4-3.1
	c0.8-0.8,2.1-0.6,3.1-0.3c1.2,0.4,2.1,1.1,3,2c1.7,1.6,3.7,3.6,6.2,3.1c0.5-0.1,0.3-0.8-0.2-0.7c-3.1,0.6-5-3-7.3-4.4
	c-1.7-1-4.5-1.8-5.8,0.2c-1.4,2.1,0.8,4.4,2.9,4.7c2.7,0.4,4.6-2.3,5.5-4.5c2.1-5.1,2.2-11,0.9-16.3c-1.3-5.4-4.1-10.3-8-14.1
	c-2-1.9-4.3-3.4-6.7-4.7c-2.4-1.4-4.9-2.7-7-4.6c-2.3-2-3.6-5-3.6-8.1c0-3.5,1.2-6.9,1.1-10.5c-0.1-2.9-1.1-5.8-3.6-7.4
	c-1-0.7-2.3-1.1-3.6-1c-0.5,0-1.2,0.1-1.7,0.5c-0.3,0.3-0.4,0.9-0.3,1.3c0.2,0.9,1,1.6,1.9,1.8c1.1,0.3,2.2,0,2.9-0.9
	c0.8-1,1.1-2.2,1.2-3.4c0.2-1.7,0.1-3.4,0-5c-0.3-6.7-1.6-13.6-5.1-19.5c-3-5-7.6-9.1-13.1-11c-2.6-0.9-5.7-1.4-8.4-0.6
	c-2.3,0.7-4.1,2.6-3.7,5.1c0.3,2.1,2.5,3.6,4.5,2.3c1.8-1.2,2.2-3.6,1-5.4c-0.1-0.2-0.2-0.3-0.4-0.5c-1.9-2-5-2-7.3-1
	c-1.4,0.6-2.7,1.5-3.9,2.5c-1.5,1.2-3.1,2.4-4.6,3.6l-18.5,14.7c-1.5,1.2-2.9,2.4-4.4,3.4c-1.4,1-3,2-4.7,2.3
	c-2.4,0.5-6.3-0.7-6-3.8c0.1-1.2,0.9-2.5,2.1-2.9c1.2-0.3,2.3,0.4,2.8,1.5c1,2.4-0.2,5.1-1.3,7.2c-2.8,5.2-7.3,9.4-12.5,12.2
	c-2.6,1.4-5.4,2.4-8.3,2.9c-3.3,0.6-6.4,0.5-9.7,0.3c-3.2-0.2-6.5-0.2-9.4,1.5c-2.3,1.4-3.9,3.8-3.5,6.6c0.3,2.4,2.2,4.2,4.7,4
	c2.1-0.2,4.2-1.9,3.4-4.2c-0.6-1.9-3-3.3-4.8-2.1C328.2,64.8,328.6,65.4,329,65.2L329,65.2z"/>
<path class="st7" d="M488.5,119.5h-18.2c-0.6,0-1.1,0.5-1.1,1.1V132c0,0.6,0.5,1.1,1.1,1.1h18.2c0.6,0,1.1-0.5,1.1-1.1v-11.4
	C489.6,120,489.1,119.5,488.5,119.5z"/>
<path class="st8" d="M488.5,119.5h-18.2c-0.6,0-1.1,0.5-1.1,1.1V132c0,0.6,0.5,1.1,1.1,1.1h18.2c0.6,0,1.1-0.5,1.1-1.1v-11.4
	C489.6,120,489.1,119.5,488.5,119.5z M488.9,127.7c0,2.4-1.9,4.4-4.3,4.4c-1.9,0,1,0-1.2,0c-5.1,0-10.4,0-12.4-0.1c-0.5,0-1-0.5-1-1
	v-10.4c0-0.2,0.2-0.4,0.4-0.4h18.2c0.2,0,0.4,0.2,0.4,0.4v7.1H488.9z"/>
<path class="st8" d="M486.3,113h-13.9c-0.3,0-0.5,0.2-0.6,0.4l-2.1,6c-0.1,0.3,0.1,0.7,0.4,0.8c0.1,0,0.1,0,0.2,0h18.6l0,0
	c0.3,0,0.6-0.3,0.6-0.6c0-0.1,0-0.2,0-0.2l0,0l0,0l-2.6-6.1C486.7,113.1,486.5,113,486.3,113z"/>
<path class="st8" d="M489.5,119.5c0,0.1,0,0.2,0,0.2l-2.6,4.7c-0.1,0.2-0.3,0.4-0.5,0.4h-13.9c-0.3,0-0.5-0.2-0.6-0.4l-2.1-4.6
	c-0.1-0.3,0.1-0.7,0.4-0.8l0,0c0.1,0,0.1,0,0.2,0h2.3h0.9h12.2h0.9h2.3l0,0C489.2,118.9,489.5,119.2,489.5,119.5z"/>
<path class="st8" d="M471.6,128c0.3,0,4.1,0.2,4.1,0.5s-3.8,0.5-4.1,0.5c-0.3,0-0.5-0.2-0.5-0.5C471.1,128.3,471.4,128,471.6,128z"
	/>
<path class="st7" d="M485.4,109.3h-11.7c-0.7,0-1.2,0.5-1.2,1.2v14.3h13.8c0.1,0,0.2,0,0.3-0.1v-14.2
	C486.6,109.8,486.1,109.3,485.4,109.3z"/>
<path class="st4" d="M480.9,110.3h-6.4c-0.6,0-1.1,0.5-1.1,1.1v13.4h12.2V115C485.7,112.4,483.5,110.3,480.9,110.3z"/>
<path class="st9" d="M483.6,123.6h-8.1c-0.1,0-0.3,0.1-0.3,0.3c0,0.1,0.1,0.3,0.3,0.3l0,0h8.1c0.1,0,0.3-0.1,0.3-0.3
	C483.8,123.7,483.7,123.6,483.6,123.6L483.6,123.6z"/>
<path class="st9" d="M483.6,122.5h-8.1c-0.1,0-0.3,0.1-0.3,0.3c0,0.1,0.1,0.3,0.3,0.3h8.1c0.1,0,0.3-0.1,0.3-0.3
	C483.8,122.7,483.7,122.5,483.6,122.5L483.6,122.5z"/>
<path class="st9" d="M479,121.5h-3.5c-0.1,0-0.3,0.1-0.3,0.3c0,0.1,0.1,0.3,0.3,0.3l0,0h3.5c0.1,0,0.3-0.1,0.3-0.3
	S479.2,121.5,479,121.5L479,121.5z"/>
<path class="st9" d="M483.6,119.3h-8.1c-0.1,0-0.3,0.1-0.3,0.3c0,0.1,0.1,0.3,0.3,0.3h8.1c0.1,0,0.3-0.1,0.3-0.3
	C483.8,119.4,483.7,119.3,483.6,119.3L483.6,119.3z"/>
<path class="st9" d="M483.6,118.3h-8.1c-0.1,0-0.3,0.1-0.3,0.3c0,0.1,0.1,0.3,0.3,0.3l0,0h8.1c0.1,0,0.3-0.1,0.3-0.3
	C483.8,118.4,483.7,118.3,483.6,118.3L483.6,118.3z"/>
<path class="st9" d="M479,117.3h-3.5c-0.1,0-0.3,0.1-0.3,0.3c0,0.1,0.1,0.3,0.3,0.3h3.5c0.1,0,0.3-0.1,0.3-0.3
	S479.2,117.3,479,117.3L479,117.3z"/>
<path class="st9" d="M483.6,115.1h-8.1c-0.1,0-0.3,0.1-0.3,0.3c0,0.1,0.1,0.3,0.3,0.3h8.1c0.1,0,0.3-0.1,0.3-0.3
	C483.8,115.2,483.7,115.1,483.6,115.1L483.6,115.1z"/>
<path class="st9" d="M483.6,114h-8.1c-0.1,0-0.3,0.1-0.3,0.3c0,0.1,0.1,0.3,0.3,0.3h8.1c0.1,0,0.3-0.1,0.3-0.3
	C483.8,114.2,483.7,114,483.6,114L483.6,114z"/>
<path class="st9" d="M479,113h-3.5c-0.1,0-0.3,0.1-0.3,0.3c0,0.1,0.1,0.3,0.3,0.3h3.5c0.1,0,0.3-0.1,0.3-0.3S479.2,113,479,113
	L479,113z"/>
<circle class="st10" cx="392.2" cy="56" r="7.8"/>
<path class="st5" d="M401.1,51.5c-0.8-1.3-2.4-2.1-3.8-1.9c-0.4-2.9-3.1-4.9-5.9-4.4c-1.1,0.2-2.1,0.6-2.8,1.4
	c-0.5-0.3-1.1-0.4-1.6-0.2s-1,0.6-1.3,1c-1.7,2.2-2.1,5.1-1.1,7.7c-0.2-0.7,0.5-1.3,1.2-1.4c0.7-0.1,1.4,0,2.1-0.1
	c0.9-0.1,1.7-0.6,2.5-0.7c0.7-0.1,1.5,0.1,2.2,0.3s1.4,0.4,2.2,0.3c0.7-0.1,1.7,2.7,1.7,4.7c0,0.4,0.1,0.8,0.4,0.9
	c0.4,0.1,0.7-0.5,1.1-0.7c0.4-0.1,0.8,0.1,1,0.5c0.1,0.4,0,0.8-0.2,1.1c-0.3,0.3-0.6,0.6-0.9,0.8l0.2,0.1c0.3,0.4,0.9,0.4,1.3,0.2
	c0.4-0.3,0.7-0.6,0.9-1.1c0.8-1.3,1.5-2.7,1.7-4.1S401.9,52.8,401.1,51.5z"/>
<polygon class="st10" points="401.3,192.2 397.1,192.2 395.1,176 401.3,176 "/>
<path class="st3" d="M401.5,196.6h-12.9v-0.2c0-2.8,2.3-5,5-5l0,0l2.4-1.8l4.4,1.8h1.1V196.6z"/>
<polygon class="st10" points="408.9,184.8 405.6,187.4 394,175.9 398.9,172.1 "/>
<path class="st3" d="M411.7,188.1l-10.1,8l-0.1-0.1c-1.7-2.2-1.4-5.3,0.8-7.1l0,0l0.7-2.9l4.6-1.3l0.9-0.7L411.7,188.1z"/>
<polygon class="st5" points="379.6,116.2 379.3,121 380.6,122.5 380.5,127.2 381.7,130.3 382.5,140.1 394.4,181.2 405.2,177.8 
	393.4,139.5 407.6,139.1 408,117.5 405.5,112.7 "/>
<polygon class="st5" points="406.2,135.9 407.6,139.1 402.3,185 394.9,185.5 391.8,134.3 "/>
<polygon class="st11" points="399,68.3 396.6,65 388.8,65.3 388.6,67.9 383.4,116.8 388.5,116.7 394.8,118.2 407,113.9 "/>
<path class="st3" d="M385.4,117.7h-12l3.1-22l1.3-8.9c0,0-0.9-6.4-1.3-9.7c0-0.4,0-0.7,0.2-1c0.1-0.3,0.3-0.6,0.6-0.8
	c1.5-1.7,4.7-3.1,6.8-3.9c1.1-0.4,1.8-0.6,1.8-0.6l2.8-2.7C392.6,72.9,385.4,117.7,385.4,117.7z"/>
<path class="st3" d="M397.5,66.5l3.8,2.2c0,0,11.2,1.8,12.3,6.1l-4.1,12.5v26.3l-10,4C399.4,117.5,390.8,75.1,397.5,66.5z"/>
<polyline class="st12" points="393.6,133.2 391.8,154.7 394.9,179.7 "/>
<path class="st10" d="M348.8,93.2c1.2-0.8,2.8-0.6,3.6,0.6c0.1,0.1,0.2,0.3,0.2,0.4l9.2-1l-2.2,4.3l-8.4,0.3
	c-1.3,0.5-2.9-0.1-3.4-1.5C347.4,95.1,347.8,93.9,348.8,93.2L348.8,93.2z"/>
<polygon class="st3" points="387.4,74.4 390.1,75.9 375.3,96.7 357.3,98.2 356.6,93.1 369.9,89.1 376.4,76.4 "/>
<path class="st10" d="M441.1,91.4c-1.2-0.8-2.8-0.6-3.6,0.6c-0.1,0.1-0.2,0.3-0.2,0.4l-9.2-1l2.2,4.3l8.4,0.3
	c1.3,0.5,2.9-0.1,3.4-1.5C442.5,93.4,442.1,92.1,441.1,91.4L441.1,91.4z"/>
<polygon class="st3" points="402.5,72.6 399.9,74.2 414.6,95 432.6,96.5 433.3,91.4 420.1,87.4 413.5,74.7 "/>
<path class="st8" d="M366.6,67.7v-0.3H362V61h-0.3v6.4h-5.3v-4.9c-0.1,0.1-0.2,0.1-0.3,0.2v4.7h-3.5c0,0.1-0.1,0.2-0.1,0.3h3.6v5.4
	h-4.5c0,0.1,0,0.2,0,0.3h4.4v4.3h-3.3c0,0.1,0.1,0.2,0.1,0.3h3.2v3.6h0.3V78h5.3v3.6h0.3V78h4.6v-0.3H362c0-2.4,1.9-4.3,4.3-4.3l0,0
	h0.3v-0.3H362v-5.4C362,67.7,366.6,67.7,366.6,67.7z M361.8,77.7h-5.3v-4.3h5.3V77.7z M361.8,73.1h-5.3V73c0-2.9,2.4-5.3,5.3-5.3
	l0,0V73.1z"/>
<path class="st3" d="M406.6,29.7c-0.1,0-0.2,0-0.2-0.1l-0.4-0.9c0-0.1,0-0.2,0.1-0.2s0.2,0,0.2,0.1l0.4,0.9
	C406.7,29.6,406.7,29.7,406.6,29.7z"/>
<path class="st3" d="M414.3,22.9L414.3,22.9l-1.1-2.7c-0.4-0.9-1.4-1.3-2.2-0.9l0,0l0,0l-5.8,2.4c-0.9,0.4-1.3,1.4-0.9,2.2l0,0l0,0
	l6.2,15.1c0.4,0.9,1.4,1.3,2.2,0.9l0,0l0,0l5.8-2.4c0.9-0.4,1.3-1.4,0.9-2.2l0,0l0,0l-4.3-10.4l0,0c0.1,0,0.1-0.1,0.1-0.1l0,0
	l-0.7-1.8C414.4,22.9,414.4,22.9,414.3,22.9L414.3,22.9z"/>
<path class="st11" d="M412.9,20.3l6.2,15.1c0.3,0.7,0,1.4-0.7,1.7l0,0l-5.9,2.4c-0.7,0.3-1.4,0-1.7-0.7l-6.2-15.1
	c-0.3-0.7,0-1.4,0.7-1.7l0,0l0.7-0.3c0,0.3,0.3,0.6,0.6,0.6c0.1,0,0.2,0,0.2,0l3.3-1.4c0.1,0,0.1-0.1,0.2-0.1c0.2-0.2,0.2-0.6,0-0.9
	l0,0l0.8-0.3C411.8,19.3,412.6,19.6,412.9,20.3z"/>
<path class="st3" d="M406,28.1c-0.1,0-0.2,0-0.2-0.1l-0.4-0.9c0-0.1,0-0.2,0.1-0.2s0.2,0,0.2,0.1l0.4,0.9
	C406.1,28,406.1,28.1,406,28.1z"/>
<path class="st3" d="M405.2,26.4c-0.1,0-0.2,0-0.2-0.1l-0.4-0.9c0-0.1,0-0.2,0.1-0.2s0.2,0,0.2,0.1l0,0l0.4,0.9
	C405.3,26.2,405.3,26.3,405.2,26.4z"/>
<path class="st4" d="M407.4,21.4c0-0.1,0-0.2,0.1-0.2l0.9-0.4c0.1,0,0.2,0,0.2,0.1s0,0.2-0.1,0.2l-0.9,0.4
	C407.5,21.5,407.4,21.4,407.4,21.4z"/>
<circle class="st4" cx="408.9" cy="20.7" r="0.1"/>
<path class="st11" d="M440.7,85.9L440.7,85.9c-0.5,0-0.9-0.2-1.1-0.6c-0.9-1.3-2-2.5-3.2-3.5c-0.8-0.6-1.5-1.2-2.3-1.7
	c-2-1.4-3.8-2.7-4.9-4.5c-2.2-4,0.4-9.5,4.2-12c4.2-2.8,9.8-3.2,15.2-3.3c0.6,0,1.1,0,1.7,0l0,0c9.7,0,19.4,0.9,28.9,2.6
	c3.2,0.6,6.5,1.3,9.2,3c2.7,1.7,4.3,4.5,4.1,6.9c-0.2,3.6-4.1,6.3-7.6,7.1c-3.3,0.7-6.8,0.2-10.5-0.3c-0.8-0.1-1.6-0.2-2.5-0.3
	c-9-1-25.9,2.2-26.7,2.3l-0.7,0.1l-2.8,3.5C441.5,85.7,441.1,85.9,440.7,85.9z"/>
<path class="st4" d="M480.9,68.2h-38.1c-0.5,0-0.8-0.4-0.8-0.8c0-0.5,0.4-0.8,0.8-0.8h38.1c0.5,0,0.8,0.4,0.8,0.8
	C481.7,67.8,481.3,68.2,480.9,68.2z"/>
<path class="st4" d="M480.9,73.3h-38.1c-0.5,0-0.8-0.4-0.8-0.8c0-0.5,0.4-0.8,0.8-0.8h38.1c0.5,0,0.8,0.4,0.8,0.8
	C481.7,72.9,481.3,73.3,480.9,73.3z"/>
<path class="st4" d="M447.2,78.4h-4.4c-0.5,0-0.8-0.4-0.8-0.8c0-0.5,0.4-0.8,0.8-0.8h4.4c0.5,0,0.8,0.4,0.8,0.8
	S447.7,78.4,447.2,78.4z"/>
<circle class="st4" cx="441.2" cy="87.6" r="4"/>
<path class="st3" d="M441.2,91.7c-2.3,0-4.1-1.8-4.1-4.1s1.8-4.1,4.1-4.1c2.3,0,4.1,1.8,4.1,4.1C445.3,89.9,443.5,91.7,441.2,91.7z"
	/>
<path class="st4" d="M440.9,89.3L440.9,89.3c-0.2,0-0.3-0.1-0.4-0.2l-0.7-0.9c-0.2-0.2-0.1-0.6,0.1-0.7l0,0l0,0
	c0.2-0.2,0.6-0.1,0.7,0.1l0,0c0.1,0.2,0.4,0.2,0.5,0.1l0,0l1.4-1.4c0.2-0.2,0.5-0.2,0.7,0l0,0c0.2,0.2,0.2,0.5,0,0.7l0,0l-2.1,2.2
	C441.2,89.2,441,89.3,440.9,89.3z"/>
<path class="st3" d="M366,35.6l-2.5-14.8c-0.1-0.6,0.3-1.2,0.9-1.3l11.2-1.9c0.6-0.1,1.2,0.3,1.3,0.9l2.5,14.8
	c0.1,0.6-0.3,1.2-0.9,1.3l-11.2,1.9C366.7,36.6,366.1,36.2,366,35.6z"/>
<path class="st4" d="M366.1,30.9l-1.6-9.5c-0.1-0.6,0.3-1.1,0.9-1.2l9.6-1.6c0.6-0.1,1.1,0.3,1.2,0.9l2.2,13.2
	c0.1,0.6-0.3,1.1-0.9,1.2l-6,1C369,35.3,366.5,33.6,366.1,30.9z"/>
<path class="st11" d="M366.5,23.8c-0.1-0.6,0.3-1.1,0.9-1.2l6.7-1.1c0.6-0.1,1.1,0.3,1.2,0.9s-0.3,1.1-0.9,1.2l-6.7,1.1
	C367.1,24.8,366.6,24.4,366.5,23.8z"/>
<path class="st11" d="M367,27c-0.1-0.6,0.3-1.1,0.9-1.2l6.7-1.1c0.6-0.1,1.1,0.3,1.2,0.9s-0.3,1.1-0.9,1.2l0,0l-6.7,1.1
	C367.7,28,367.1,27.6,367,27z"/>
<path class="st11" d="M367.6,30.3c-0.1-0.6,0.3-1.1,0.9-1.2l6.7-1.1c0.6-0.1,1.1,0.3,1.2,0.9s-0.3,1.1-0.9,1.2l-6.7,1.1
	C368.2,31.2,367.7,30.8,367.6,30.3z"/>
<path class="st3" d="M351.5,91.1c-1.9,0-11.9-0.3-13.5-0.3c-0.1-0.3-3.2,3.7-3.3,3.7c-0.2,0.2-0.2,0.5,0,0.6l0.1,0.1
	c0.2,0.1,16.3-0.2,16.5-0.1c0.2,0,0.3-0.1,0.4-0.3l0.1-0.2c0-0.4,0.1-2.5,0-2.9c0.1-0.2,0-0.5-0.2-0.6
	C351.6,91.2,351.5,91.1,351.5,91.1z"/>
<path class="st13" d="M351.8,94.7c-0.1,0.2-0.2,0.5-0.5,0.5L335,95.3c-0.2,0-0.4-0.2-0.4-0.5c0-0.1,0-0.1,0.1-0.2L351.8,94.7z"/>
<path class="st3" d="M338,90.8c-0.2-0.3-4.5-21.9-4.9-22.1l-3-3.6l-0.3-0.2c-0.4-0.2-1.3-0.1-1.2,0.5l0,0c0.7,3.4,5.2,22.5,5.3,25.4
	l0.5,3.8c0,0.3,0.3,0.4,0.5,0.4l0,0c0.3,0,0.6-0.2,0.7-0.5C335.9,94.4,338.2,90.9,338,90.8z"/>
<path class="st13" d="M330.2,65.1l5.7,29.4c-0.2,0.5-1.1,0.8-1.3,0.2c0,0-5.8-29.3-5.9-29.3C328.7,64.7,329.8,64.7,330.2,65.1z"/>
<polygon class="st11" points="330.3,66.3 333.2,70.4 336.5,85.8 335,87.1 "/>
<path class="st5" d="M349.6,93.2h0.8c0-0.2,0.1-0.5,0.1-0.7c0.1-0.6,0.2-1.3-0.3-1.2c-0.3,0-0.5,0.4-0.5,0.9
	C349.7,92.5,349.7,92.9,349.6,93.2z"/>
<path class="st5" d="M345,92.1h0.5h0.3c0-0.3,0.1-0.9-0.2-1c-0.1,0-0.1,0-0.2,0c-0.3,0-0.4,0.2-0.4,0.5C345,91.8,345,91.9,345,92.1
	L345,92.1z"/>
<path class="st5" d="M343.4,92.1h0.5h0.3c0-0.3,0.2-1-0.4-1.1C343.4,91,343.4,91.7,343.4,92.1C343.4,92,343.4,92.1,343.4,92.1z"/>
<path class="st5" d="M341.8,92h0.5h0.3c0-0.3,0.2-1-0.4-1.1C341.8,91,341.8,91.6,341.8,92L341.8,92z"/>
<path class="st5" d="M340.2,92h0.5h0.3c0-0.3,0.2-1-0.4-1.1C340.2,90.9,340.2,91.5,340.2,92C340.2,91.9,340.2,91.9,340.2,92z"/>
<path class="st5" d="M338.6,91.9h0.5h0.3c0-0.3,0.1-0.9-0.2-1l0,0h-0.1H339l0,0C338.6,91,338.6,91.5,338.6,91.9
	C338.6,91.8,338.6,91.9,338.6,91.9z"/>
<path class="st5" d="M348,91.7h0.8v-0.1c0-0.2,0-0.4,0-0.6s-0.1-0.4-0.4-0.4S348,90.8,348,91v0.1l0,0C348,91.4,348,91.6,348,91.7z"
	/>
<path class="st5" d="M346.4,91.7h0.8c0-0.2,0-0.4,0-0.6s-0.1-0.4-0.4-0.4s-0.4,0.2-0.4,0.4C346.4,91.2,346.4,91.5,346.4,91.7z"/>
<path class="st5" d="M344.8,91.6h0.2h0.6c0-0.1,0-0.3,0-0.5c0-0.1,0-0.1,0-0.2c0-0.2-0.1-0.4-0.4-0.4s-0.4,0.2-0.4,0.4
	C344.8,91.2,344.8,91.4,344.8,91.6z"/>
<path class="st5" d="M348,93.2h0.8c0-0.3,0.2-1-0.4-1.1C347.9,92.1,348,92.8,348,93.2z"/>
<path class="st5" d="M346.4,93.1h0.8c0-0.3,0.2-1-0.4-1.1C346.3,92,346.4,92.8,346.4,93.1z"/>
<path class="st5" d="M344.8,93h0.8c0-0.2,0.1-0.7-0.1-0.9c-0.1-0.1-0.2-0.2-0.3-0.2c-0.1,0-0.2,0-0.2,0.1
	C344.7,92.2,344.8,92.8,344.8,93z"/>
<path class="st5" d="M343.2,93h0.8c0-0.2,0.1-0.7-0.1-0.9c-0.1-0.1-0.2-0.2-0.3-0.2c-0.1,0-0.2,0-0.2,0.1
	C343.1,92.2,343.2,92.7,343.2,93z"/>
<path class="st5" d="M341.6,92.9h0.8c0-0.2,0.1-0.7-0.1-0.9c-0.1-0.1-0.2-0.2-0.3-0.2c-0.1,0-0.2,0-0.2,0.1
	C341.6,92.1,341.6,92.6,341.6,92.9z"/>
<path class="st5" d="M340,92.8h0.8c0-0.2,0.1-0.7-0.1-0.9c-0.1-0.1-0.2-0.2-0.3-0.2c-0.1,0-0.2,0-0.2,0.1C340,92,340,92.6,340,92.8z
	"/>
<path class="st5" d="M338.4,92.8h0.8c0-0.2,0.1-0.7-0.1-0.9c-0.1-0.1-0.2-0.2-0.3-0.2c-0.1,0-0.2,0-0.2,0.1
	C338.4,92,338.4,92.5,338.4,92.8z"/>
<ellipse transform="matrix(0.1602 -0.9871 0.9871 0.1602 199.621 258.6265)" class="st5" cx="251.8" cy="12" rx="9.5" ry="9.5"/>
<polygon class="st14" points="241.4,72.7 241.2,68.4 257.8,65.7 258,72.1 "/>
<path class="st5" d="M242.4,65.3l0.3,8.3l0,0l-5.2,0.2l0,0L237,60.2l0,0l0,0C239.8,60.1,242.3,62.4,242.4,65.3z"/>
<polygon class="st14" points="248.6,72.8 245.7,76.1 231.8,66.8 236,62 "/>
<path class="st5" d="M242.8,77.6l5.4-6.3l0,0l4,3.4l0,0L243.3,85l0,0l0,0C241.2,83.1,240.9,79.8,242.8,77.6z"/>
<path class="st5" d="M241,57.1l-2.1,8.8c-0.2,0.8,0.3,1.5,1,1.7c0.1,0,0.2,0,0.3,0l18.4,0.7c0.8,0,1.4-0.6,1.5-1.3
	c0-0.1,0-0.2,0-0.3l-1.4-9.1c-0.1-0.7-0.7-1.2-1.4-1.2l-14.9-0.3C241.8,56,241.2,56.5,241,57.1z"/>
<path class="st5" d="M244,60.3c0,0-17.7-11.7-21.3-5.8c-1.8,2.9-1,5.9,0.3,8c1.2,2,2.9,3.6,5,4.6l14.4,7.5l5.4-5.5l-3.4-3.2
	L244,60.3z"/>
<path class="st5" d="M253.2,58.8c0,0,23.4-6.1,18.5,6.4s-22,7.2-22,7.2l-1.6-5.3l6.1-4.1L253.2,58.8z"/>
<circle class="st14" cx="251.9" cy="14.1" r="8.6"/>
<path class="st15" d="M251.3,60.1c-3.6-0.1-7.1-0.7-10.6-1.6h-0.1l-4.3-22.3c-0.8-4.1,1.5-8.1,5.5-9.3c5.9-1.9,12.2-1.9,18,0.1l0,0
	c4.1,1.4,6.4,5.7,5.3,9.9L259.2,59h-0.1C256.8,59.9,254,60.2,251.3,60.1z"/>
<path class="st14" d="M244.8,61.7c0.7-1.8,2.8-2.7,4.6-2c0.2,0.1,0.4,0.2,0.6,0.3l9.7-8l0.7,6.5L251,65c-1.1,1.6-3.3,2-5,0.9
	C244.7,65,244.2,63.2,244.8,61.7L244.8,61.7z"/>
<path class="st15" d="M253.8,63.7c-0.2,0-0.3,0-0.5-0.1c-0.5-0.2-0.9-0.5-1-1l-1.1-3.3c-0.2-0.6,0-1.3,0.5-1.7l13.1-7.5l-4.6-22.8
	h0.1c0.1,0,5.3-1.1,7.3,4.7c1.4,4,6.7,12.8,6.2,18.7c-0.2,2.4-2,4.4-4.4,4.7l-14.7,8C254.5,63.6,254.1,63.7,253.8,63.7z"/>
<path class="st14" d="M255.3,61.2c-0.6-1.9-2.6-2.9-4.5-2.2c-0.2,0.1-0.4,0.1-0.6,0.2l-9.3-8.5l-1,6.4l9,7c1.1,1.7,3.2,2.2,4.9,1.1
	C255.2,64.4,255.8,62.7,255.3,61.2L255.3,61.2z"/>
<path class="st15" d="M247.1,63.5c-0.3,0-0.7-0.1-0.9-0.4l-15.4-8c-2.4-0.5-4.1-2.5-4.2-4.9c-0.3-5.9,6.6-15.1,8.2-19.1
	c2.3-5.7,7.5-4.3,7.5-4.3h0.1l-6.7,23.3l13.8,7.4c0.5,0.4,0.7,1.1,0.4,1.7l-1.2,3.2c-0.2,0.5-0.6,0.8-1.1,1
	C247.4,63.5,247.3,63.6,247.1,63.5z"/>
<path class="st11" d="M265.7,67.5l-31.3-0.7c-1.4,0-2.4-1.2-2.4-2.5l0.4-17.2c0-1.4,1.2-2.4,2.5-2.4l31.3,0.7c1.4,0,2.4,1.2,2.4,2.5
	l-0.4,17.2C268.1,66.5,267,67.5,265.7,67.5z"/>
<circle class="st4" cx="250.3" cy="56.1" r="2.1"/>
<path class="st5" d="M243.2,13.6c-0.5-1.3,0.4-2.8,1.7-3.4c1.3-0.6,2.8-0.4,4.1,0c1.1,0.4,2.1,0.9,3.2,1.4c1.1,0.5,2.2,0.7,3.4,0.7
	c1.2-0.1,2.3-0.7,2.8-1.8s0.2-2.5-0.5-3.4c-0.8-0.9-1.8-1.6-3-2c-2.5-1-5.5-1.1-7.9,0.2s-4.1,4-3.7,6.7"/>
<path class="st8" d="M212,63.1c0.5-4.7,1.8-9.2,3.9-13.5c0.6-1.2,1.2-2.3,1.8-3.5c0.1-0.1,0-0.3-0.1-0.4c-0.1-0.1-0.3,0-0.3,0.1
	c-2.4,4.1-4.2,8.6-5.2,13.2c-0.3,1.3-0.5,2.6-0.6,3.9C211.4,63.4,212,63.4,212,63.1L212,63.1z"/>
<circle class="st11" cx="219" cy="43.7" r="3.3"/>
<path class="st8" d="M212.3,63.2c0.4-3,1.2-6,2.5-8.7c0.4-0.8,0.8-1.5,1.2-2.2c0-0.1,0-0.2-0.1-0.2s-0.2,0-0.2,0.1
	c-1.6,2.7-2.7,5.6-3.3,8.6c-0.2,0.8-0.3,1.7-0.4,2.6C212,63.4,212.3,63.4,212.3,63.2z"/>
<circle class="st11" cx="216.9" cy="50.6" r="2.1"/>
<path class="st8" d="M211.9,63c-1.6-2.6-2.7-5.5-3.4-8.4c-0.2-0.8-0.3-1.7-0.4-2.5c0-0.1-0.1-0.2-0.2-0.1c-0.1,0-0.2,0.1-0.1,0.2
	c0.4,3.1,1.3,6,2.6,8.8c0.4,0.8,0.8,1.5,1.2,2.3C211.7,63.4,212,63.2,211.9,63L211.9,63z"/>
<circle class="st11" cx="207.8" cy="50.3" r="2.1"/>
<path class="st7" d="M205.3,64.7l0.1-4.2c0-0.9,0.7-1.6,1.6-1.5l9.8,0.2c0.9,0,1.6,0.7,1.5,1.6l-0.1,4.2c0,0.9-0.7,1.6-1.6,1.5
	l-9.8-0.2C205.9,66.3,205.3,65.6,205.3,64.7z"/>
<path class="st16" d="M286.8,65.2c-0.1,2.3-2,3.3-4.3,3.3c-2.3-0.1-4.2-1.1-4.1-3.5c0.1-2.4,1-5,4.3-4
	C286,59.7,286.9,62.9,286.8,65.2z"/>
<path class="st3" d="M282.5,62.1c-0.3,0-0.6-0.3-0.7-0.6c-0.1-1.2-0.8-3.4-1.1-4.4l0,0c-0.1-0.2,0-0.4,0.1-0.5
	c0.2-0.3,0.6-0.3,0.9-0.1c0,0,0,0,0.1,0c0.1,0.1,0.2,0.3,0.2,0.5c-0.1,1.2,0.7,3.1,1.2,4.1c0.2,0.3,0,0.7-0.3,0.9
	C282.7,62.1,282.7,62.1,282.5,62.1C282.6,62.1,282.5,62.1,282.5,62.1z"/>
<path class="st3" d="M285.7,59.6c1.5-1.2,0.4-3.6-1.4-3.2c-0.2,0.1-0.5,0.2-0.7,0.3c-1.1,1-1.4,3.7-1.4,3.7S284.2,60.8,285.7,59.6z"
	/>
<g>
	<polygon class="st3" points="273.5,109.1 273.1,109.1 273.1,91 307.2,91 307.2,91.4 273.5,91.4 	"/>
	<circle class="st11" cx="312.4" cy="89.8" r="6.5"/>
	<path class="st4" d="M311.5,93.2c-0.2,0-0.4-0.1-0.6-0.3l-1.8-2.4c-0.2-0.3-0.2-0.8,0.1-1c0.3-0.2,0.8-0.2,1,0.1l0,0l1.2,1.6l3-4.5
		c0.2-0.3,0.7-0.4,1-0.2c0.3,0.2,0.4,0.7,0.2,1l0,0l-3.6,5.4C312,93.1,311.8,93.2,311.5,93.2L311.5,93.2z"/>
	<polygon class="st3" points="250.4,153.2 250,153.2 250,171.4 284.1,171.4 284.1,170.9 250.4,170.9 	"/>
	<circle class="st11" cx="289.3" cy="171.4" r="6.5"/>
	<path class="st4" d="M288.4,174.8c-0.2,0-0.4-0.1-0.6-0.3l-1.8-2.4c-0.2-0.3-0.2-0.8,0.1-1c0.3-0.2,0.8-0.2,1,0.1l0,0l1.2,1.6
		l3-4.5c0.2-0.3,0.7-0.4,1-0.2s0.4,0.7,0.2,1l-3.6,5.4C288.9,174.7,288.7,174.8,288.4,174.8L288.4,174.8z"/>
	<path class="st7" d="M231.4,119.5c0-3.5,1.3-7,3.8-9.5l-8.3-11.5c-1.3-1.8-3.9-2.2-5.7-0.9c-0.2,0.1-0.3,0.2-0.5,0.4
		c-5.8,5.6-9,13.4-9,21.4c0,1.5,0.1,3,0.3,4.5c0.2,1.2,0.9,2.2,1.9,2.9c1,0.6,2.3,0.8,3.4,0.4l14.4-4.7
		C231.5,121.5,231.4,120.5,231.4,119.5z"/>
	<path class="st8" d="M232.2,124.1l-15,4.9c-2.1,0.7-3.3,3-2.6,5.1c0.1,0.2,0.1,0.4,0.2,0.5c4.3,8.8,12.7,14.9,22.4,16.4
		c1.2,0.2,2.4-0.2,3.3-0.9c0.9-0.8,1.4-1.9,1.4-3.1v-14C237.3,131.8,233.7,128.5,232.2,124.1z"/>
	<path class="st17" d="M277.3,132.8c-0.5-1.2-1.5-2.1-2.8-2.6l-16.3-5.3c-1.9,4.6-6.2,7.8-11.1,8.4v17c0,2.5,2,4.5,4.5,4.5
		c0.2,0,0.5,0,0.7-0.1c10.8-1.7,20.1-8.5,24.9-18.3C277.7,135.4,277.8,134,277.3,132.8z"/>
	<path class="st11" d="M273.2,93.8c-1.8-1.8-4.7-1.7-6.4,0.1c-0.2,0.2-0.3,0.3-0.4,0.5l-11.2,15.4c2.6,2.6,4.1,6.1,4,9.8
		c0,0.3,0,0.7,0,1l17.8,5.8c2.4,0.8,4.9-0.5,5.7-2.9c0.1-0.2,0.1-0.5,0.2-0.7c0.2-1.7,0.4-3.3,0.4-5
		C283.2,108.6,279.6,100,273.2,93.8z"/>
	<path class="st8" d="M245.3,105.6c2.4,0,4.7,0.6,6.8,1.8L259,98c0.7-1,0.9-2.2,0.7-3.4c-0.3-1.1-1-2.1-2.1-2.6
		c-8.5-4.3-18.6-4.4-27.2,0c-1.1,0.5-1.9,1.5-2.1,2.7c-0.3,1.2,0,2.4,0.7,3.3l7.7,10.6C239.1,106.7,242.2,105.6,245.3,105.6z"/>
</g>
</svg>
