<?xml version="1.0" encoding="utf-8"?>
<!-- Generator: Adobe Illustrator 16.0.3, SVG Export Plug-In . SVG Version: 6.00 Build 0)  -->
<!DOCTYPE svg PUBLIC "-//W3C//DTD SVG 1.1//EN" "http://www.w3.org/Graphics/SVG/1.1/DTD/svg11.dtd">
<svg version="1.1" id="Layer_1" xmlns:serif="http://www.serif.com/"
	 xmlns="http://www.w3.org/2000/svg" xmlns:xlink="http://www.w3.org/1999/xlink" x="0px" y="0px" width="38.254px"
	 height="15.375px" viewBox="5.862 34.625 38.254 15.375" enable-background="new 5.862 34.625 38.254 15.375" xml:space="preserve"
	>
<g id="Artboard1" transform="matrix(0.978234,0,0,0.97942,12.2902,-511.708)">
	<rect x="-7.453" y="558.273" fill="none" width="40.867" height="15.128"/>
	<g>
		<g>
			<g>
				<defs>
					<rect id="SVGID_1_" x="-6.145" y="558.732" width="38.254" height="14.212"/>
				</defs>
				<clipPath id="SVGID_2_">
					<use xlink:href="#SVGID_1_"  overflow="visible"/>
				</clipPath>
				<g clip-path="url(#SVGID_2_)">
					<g transform="matrix(1.02225,0,0,1.02101,-12.0414,-14.0458)">
						<rect x="4.508" y="568.805" fill="#92C846" width="40.069" height="6.588"/>
					</g>
					<g transform="matrix(1.02225,0,0,1.02101,-12.0414,-14.0458)">
						
							<linearGradient id="SVGID_3_" gradientUnits="userSpaceOnUse" x1="-114.5988" y1="459.9457" x2="-113.5988" y2="459.9457" gradientTransform="matrix(0.4991 -2.9066 -2.9066 -0.4991 1436.0264 461.9612)">
							<stop  offset="0" style="stop-color:#FCDEB3"/>
							<stop  offset="0.21" style="stop-color:#FBD59D"/>
							<stop  offset="0.49" style="stop-color:#FACB87"/>
							<stop  offset="0.75" style="stop-color:#F9C67A"/>
							<stop  offset="1" style="stop-color:#F9C476"/>
						</linearGradient>
						<path fill="url(#SVGID_3_)" d="M42.043,564.886c0,0.023-0.009,0.194-0.026,0.45l0.841-0.044
							c-0.026-0.133-0.044-0.244-0.056-0.326c-0.076-0.57,0.145-0.789,0.199-1.129c0.057-0.342,0.523-0.671,0.433-0.759
							c-0.091-0.089-0.464,0.458-0.594,0.444c-0.126-0.016,0.237-0.789,0.153-0.855c-0.159-0.127-0.45,0.825-0.527,0.772
							c-0.076-0.053,0.18-1.044-0.014-1.005c-0.194,0.037-0.162,1.043-0.273,1.025c-0.112-0.015,0.053-0.946-0.171-1.023
							c-0.12-0.041-0.085,1.605-0.227,1.734c-0.142,0.133-0.526-0.42-0.667-0.328C40.97,563.94,42.046,564.784,42.043,564.886z"/>
					</g>
					<g transform="matrix(1.02225,0,0,1.02101,-12.0414,-14.0458)">
						<path fill="#009DC2" d="M16.943,570.228l0.426-0.023h0.003c0.033,0,0.059,0.026,0.059,0.059v0.003l-0.012,0.392
							c0,0.029-0.026,0.055-0.059,0.055h-0.003l-0.405-0.02c-0.03-0.004-0.05-0.027-0.05-0.057l-0.009-0.353
							C16.893,570.257,16.913,570.231,16.943,570.228z"/>
					</g>
					<g transform="matrix(1.02225,0,0,1.02101,-12.0414,-14.0458)">
						<path fill="#00D5FC" d="M19.404,571.072l0.426-0.023h0.003c0.032,0,0.059,0.026,0.059,0.059v0.003l-0.012,0.392
							c0,0.029-0.026,0.055-0.059,0.055h-0.003l-0.406-0.02c-0.029-0.004-0.05-0.027-0.05-0.057l-0.009-0.353
							C19.353,571.101,19.374,571.075,19.404,571.072z"/>
					</g>
					<g transform="matrix(1.02225,0,0,1.02101,-12.0414,-14.0458)">
						<path fill="#00D5FC" d="M23.102,570.845l0.788-0.041c0.003,0,0.006,0,0.009,0c0.059,0,0.106,0.047,0.106,0.105
							c0,0.004,0,0.004,0,0.006l-0.021,0.724c-0.003,0.056-0.05,0.103-0.106,0.103c-0.003,0-0.006,0-0.009,0l-0.75-0.035
							c-0.053-0.006-0.094-0.047-0.094-0.1l-0.018-0.65C23.005,570.902,23.046,570.851,23.102,570.845z"/>
					</g>
					<g transform="matrix(1.02225,0,0,1.02101,-12.0414,-14.0458)">
						
							<linearGradient id="SVGID_4_" gradientUnits="userSpaceOnUse" x1="176.3231" y1="666.7965" x2="177.3192" y2="666.7965" gradientTransform="matrix(1.336468e-016 2.1826 2.1826 -1.336462e-016 -1439.9108 418.0032)">
							<stop  offset="0" style="stop-color:#99CA2F"/>
							<stop  offset="0.13" style="stop-color:#8FC62E"/>
							<stop  offset="0.34" style="stop-color:#74BC2D"/>
							<stop  offset="0.62" style="stop-color:#48AC2B"/>
							<stop  offset="0.94" style="stop-color:#0B9628"/>
							<stop  offset="1" style="stop-color:#009227"/>
						</linearGradient>
						<path fill="url(#SVGID_4_)" d="M15.341,571.554l0.212-0.012l0,0c0.018,0,0.029,0.014,0.029,0.029v0.002l-0.006,0.215l0,0
							c0,0.018-0.015,0.029-0.029,0.029l0,0l-0.2-0.012c-0.015-0.002-0.026-0.014-0.023-0.029l-0.006-0.191
							C15.314,571.572,15.326,571.556,15.341,571.554z"/>
					</g>
					<g transform="matrix(1.02225,0,0,1.02101,-12.0414,-14.0458)">
						<path fill="#009DC2" d="M21.67,569.69l0.232-0.012c0,0,0,0,0.003,0c0.018,0,0.033,0.015,0.033,0.032c0,0,0,0,0,0.003
							l-0.006,0.215c0,0.018-0.015,0.029-0.033,0.029c0,0,0,0-0.003,0l-0.22-0.012c-0.015,0-0.026-0.015-0.026-0.029l-0.006-0.191
							C21.641,569.705,21.653,569.693,21.67,569.69z"/>
					</g>
					<g transform="matrix(1.02225,0,0,1.02101,-12.0414,-14.0458)">
						
							<linearGradient id="SVGID_5_" gradientUnits="userSpaceOnUse" x1="-43.5817" y1="645.947" x2="-42.5817" y2="645.947" gradientTransform="matrix(-5.8256 0.466 0.466 5.8256 -511.274 -3172.7832)">
							<stop  offset="0" style="stop-color:#2B3582"/>
							<stop  offset="1" style="stop-color:#150E42"/>
						</linearGradient>
						<path fill="url(#SVGID_5_)" d="M42.878,564.758l-1.014,0.155l0.258,3.125c0,0-1.357,1.282-1.528,1.373
							c-0.282,0.153-1.405,0.294-1.405,0.294s0.026,0.006,0.035,0.006c0.094,0.009,0.268,3.331,0.282,4.574
							c0.006,0.465-0.009,0.829-0.029,1.105h1.253c0.061-1.629,0.141-3.672,0.268-3.922c0.369-0.732,2.365-2.504,2.525-2.91
							C43.678,568.174,42.878,564.758,42.878,564.758z"/>
					</g>
					<g transform="matrix(1.02225,0,0,1.02101,-12.0414,-14.0458)">
						<path fill="#FFFFFF" d="M8.159,575.402H7.233l-0.006-0.05c-0.023-0.171-0.032-0.347-0.038-0.755
							c0-0.283-0.085-0.433-0.256-0.441c-0.085-0.006-0.165-0.006-0.25-0.006H6.442l-0.221,1.252H5.381l0.585-3.301h1.258
							c0.162-0.004,0.323,0.006,0.482,0.023c0.488,0.056,0.768,0.329,0.768,0.749c0,0.471-0.25,0.8-0.723,0.962
							c0.229,0.161,0.282,0.479,0.282,0.917c0,0.247,0.029,0.429,0.091,0.567L8.159,575.402z M6.551,573.504h0.318
							c0.097,0,0.173,0,0.241-0.004c0.303-0.025,0.456-0.176,0.456-0.446c0-0.165-0.088-0.247-0.289-0.265
							c-0.062-0.003-0.141-0.009-0.238-0.009H6.68L6.551,573.504z"/>
					</g>
					<g transform="matrix(1.02225,0,0,1.02101,-12.0414,-14.0458)">
						<path fill="#FFFFFF" d="M10.884,575.402H8.406l0.585-3.301h2.431l-0.124,0.679H9.705l-0.109,0.629h1.493l-0.124,0.679h-1.49
							l-0.109,0.633h1.641L10.884,575.402z"/>
					</g>
					<g transform="matrix(1.02225,0,0,1.02101,-12.0414,-14.0458)">
						<path fill="#FFFFFF" d="M12.677,575.467c-0.785,0-1.255-0.506-1.255-1.352c0-1.367,0.997-2.082,1.984-2.082
							c0.45,0,0.805,0.123,1.023,0.359c0.188,0.202,0.273,0.479,0.25,0.809l-0.009,0.1h-0.835v-0.105
							c-0.003-0.354-0.168-0.512-0.526-0.512c-0.494,0-0.997,0.461-0.997,1.346c0,0.497,0.214,0.782,0.588,0.782
							c0.323,0,0.582-0.179,0.735-0.509h-0.632l0.124-0.679h1.455l-0.317,1.772H13.58l0.021-0.323l-0.088,0.142
							C13.298,575.391,13.042,575.467,12.677,575.467z"/>
					</g>
					<g transform="matrix(1.02225,0,0,1.02101,-12.0414,-14.0458)">
						<path fill="#FFFFFF" d="M15.673,575.402h-0.838l0.585-3.301h0.838L15.673,575.402z"/>
					</g>
					<g transform="matrix(1.02225,0,0,1.02101,-12.0414,-14.0458)">
						<path fill="#FFFFFF" d="M17.381,575.467c-0.456,0-0.809-0.12-1.021-0.353c-0.167-0.185-0.241-0.433-0.211-0.731l0.006-0.053
							h0.841v0.055c0.003,0.268,0.179,0.43,0.467,0.43c0.282,0,0.479-0.15,0.479-0.361c0-0.162-0.159-0.285-0.47-0.371
							c-0.482-0.123-0.976-0.322-0.976-0.891c0-0.758,0.688-1.154,1.37-1.154c0.394,0,0.694,0.105,0.891,0.311
							c0.177,0.186,0.259,0.453,0.241,0.768l-0.003,0.057h-0.847l0.003-0.063c0.009-0.141-0.021-0.253-0.088-0.323
							c-0.067-0.071-0.156-0.101-0.279-0.101c-0.247,0-0.394,0.13-0.394,0.345c0,0.123,0.067,0.253,0.556,0.37
							c0.591,0.145,0.888,0.453,0.888,0.914C18.836,575.106,18.084,575.467,17.381,575.467z"/>
					</g>
					<g transform="matrix(1.02225,0,0,1.02101,-12.0414,-14.0458)">
						<path fill="#FFFFFF" d="M20.662,575.402h-0.838l0.461-2.622h-1.064l0.123-0.679h2.963l-0.129,0.679H21.12L20.662,575.402z"/>
					</g>
					<g transform="matrix(1.02225,0,0,1.02101,-12.0414,-14.0458)">
						<path fill="#FFFFFF" d="M24.698,575.402h-0.923l-0.009-0.05c-0.024-0.171-0.033-0.347-0.039-0.755
							c0-0.283-0.085-0.433-0.256-0.441c-0.085-0.006-0.165-0.006-0.25-0.006h-0.241l-0.221,1.252h-0.837l0.582-3.301h1.258
							c0.162-0.004,0.323,0.006,0.482,0.023c0.488,0.056,0.767,0.329,0.767,0.749c0,0.471-0.25,0.8-0.723,0.962
							c0.229,0.161,0.279,0.479,0.279,0.917c0,0.247,0.029,0.429,0.091,0.567L24.698,575.402z M23.093,573.504h0.314
							c0.1,0,0.173,0,0.241-0.004c0.208-0.018,0.456-0.111,0.456-0.446c0-0.165-0.088-0.247-0.288-0.265
							c-0.062-0.003-0.141-0.009-0.238-0.009h-0.355L23.093,573.504z"/>
					</g>
					<g transform="matrix(1.02225,0,0,1.02101,-12.0414,-14.0458)">
						<path fill="#FFFFFF" d="M27.97,575.402h-0.904l-0.13-0.899h-0.968l-0.446,0.899h-0.908l1.752-3.301h1.028L27.97,575.402z
							 M26.311,573.818h0.523l-0.117-0.814L26.311,573.818z"/>
					</g>
					<polygon fill="#FFFFFF" points="18.058,573.447 17.203,573.447 17.677,570.769 16.588,570.769 16.715,570.075 19.746,570.075 
						19.613,570.769 18.532,570.769 					"/>
					<polygon fill="#FFFFFF" points="21.88,573.447 19.346,573.447 19.943,570.075 22.43,570.075 22.304,570.769 20.675,570.769 
						20.564,571.412 22.089,571.412 21.963,572.104 20.44,572.104 20.328,572.75 22.007,572.75 					"/>
					<g transform="matrix(1.02225,0,0,1.02101,-12.0414,-14.0458)">
						<path fill="#00D5FC" d="M34.503,560.912l6.661-0.347c0.021,0,0.038-0.003,0.059-0.003c0.497,0,0.905,0.408,0.905,0.905
							c0,0.015,0,0.026,0,0.042l-0.173,6.126c-0.015,0.499-0.447,0.882-0.962,0.858l-6.326-0.312
							c-0.43-0.021-0.781-0.403-0.797-0.853l-0.152-5.486C33.702,561.354,34.053,560.933,34.503,560.912z"/>
					</g>
					<g transform="matrix(1.02225,0,0,1.02101,-12.0414,-14.0458)">
						<path fill="#FFFFFF" d="M35.341,563.952c0,1.081,0.846,1.752,2.116,2.425c0.082,0.041,0.179,0.041,0.262,0
							c0.737-0.391,1.214-0.72,1.54-1.061c0.389-0.406,0.576-0.854,0.576-1.364c0-0.809-0.525-1.3-1.047-1.426
							c-0.102-0.023-0.205-0.038-0.311-0.038c-0.291,0-0.574,0.1-0.801,0.287l-0.084,0.071l-0.089-0.071
							c-0.291-0.24-0.688-0.326-1.081-0.24C35.884,562.656,35.341,563.141,35.341,563.952z M35.895,563.952
							c0-0.538,0.354-0.806,0.65-0.873c0.258-0.056,0.62,0.003,0.787,0.364c0.045,0.098,0.142,0.158,0.248,0.162
							c0.105,0,0.202-0.057,0.252-0.15c0.133-0.259,0.367-0.408,0.645-0.408c0.059,0,0.12,0.006,0.179,0.021
							c0.3,0.073,0.62,0.344,0.62,0.882c0,0.679-0.44,1.176-1.623,1.828l-0.064,0.035l-0.064-0.035
							C36.337,565.125,35.895,564.631,35.895,563.952z"/>
					</g>
					<g transform="matrix(1.02225,0,0,1.02101,-12.0414,-14.0458)">
						<path fill="#FFFFFF" d="M27.5,570.434l0.076,0.036c0.003,0,0.006,0.003,0.009,0.003c0.009,0,0.018-0.006,0.021-0.015
							c0.006-0.013,0-0.026-0.013-0.032l-0.076-0.035c-0.012-0.006-0.026,0-0.032,0.012c0,0.002-0.003,0.006-0.003,0.008
							C27.485,570.422,27.491,570.432,27.5,570.434L27.5,570.434z"/>
					</g>
					<g transform="matrix(1.02225,0,0,1.02101,-12.0414,-14.0458)">
						<path fill="#FFFFFF" d="M27.75,570.552l0.073,0.038c0.003,0.003,0.009,0.003,0.012,0.003c0.015,0,0.023-0.012,0.023-0.023
							c0-0.009-0.006-0.018-0.015-0.023l-0.073-0.038c-0.003-0.003-0.006-0.003-0.012-0.003c-0.009,0-0.018,0.006-0.021,0.012
							c-0.002,0.003-0.002,0.006-0.002,0.012C27.735,570.54,27.741,570.549,27.75,570.552L27.75,570.552z"/>
					</g>
					<g transform="matrix(1.02225,0,0,1.02101,-12.0414,-14.0458)">
						<path fill="#FFFFFF" d="M27.991,570.688l0.07,0.041c0.003,0.002,0.006,0.002,0.012,0.002c0.015,0,0.023-0.012,0.023-0.023
							c0-0.008-0.003-0.014-0.009-0.02l-0.071-0.041c-0.002-0.004-0.008-0.004-0.014-0.004c-0.016,0-0.023,0.012-0.023,0.023
							C27.979,570.672,27.985,570.682,27.991,570.688L27.991,570.688z"/>
					</g>
					<g transform="matrix(1.02225,0,0,1.02101,-12.0414,-14.0458)">
						<path fill="#FFFFFF" d="M28.223,570.831l0.066,0.047c0.004,0.003,0.01,0.006,0.016,0.006c0.015,0,0.026-0.012,0.026-0.026
							c0-0.009-0.003-0.018-0.012-0.021l-0.071-0.047c-0.006-0.003-0.012-0.006-0.018-0.006c-0.014,0-0.025,0.012-0.025,0.026
							C28.208,570.819,28.214,570.828,28.223,570.831L28.223,570.831z"/>
					</g>
					<g transform="matrix(1.02225,0,0,1.02101,-12.0414,-14.0458)">
						<path fill="#FFFFFF" d="M28.446,570.992l0.064,0.051c0.012,0.009,0.027,0.006,0.035-0.006c0.01-0.012,0.006-0.027-0.006-0.035
							l-0.064-0.053c-0.006-0.004-0.008-0.006-0.014-0.006c-0.016,0-0.027,0.012-0.027,0.025
							C28.437,570.979,28.44,570.986,28.446,570.992L28.446,570.992z"/>
					</g>
					<g transform="matrix(1.02225,0,0,1.02101,-12.0414,-14.0458)">
						<path fill="#FFFFFF" d="M28.661,571.163l0.062,0.054c0.006,0.002,0.012,0.006,0.019,0.006c0.014,0,0.025-0.012,0.025-0.027
							c0-0.008-0.002-0.014-0.008-0.02l-0.065-0.057c-0.006-0.003-0.012-0.006-0.018-0.006c-0.015,0-0.026,0.012-0.026,0.026
							C28.652,571.151,28.655,571.157,28.661,571.163L28.661,571.163z"/>
					</g>
					<g transform="matrix(1.02225,0,0,1.02101,-12.0414,-14.0458)">
						<path fill="#FFFFFF" d="M28.866,571.349l0.06,0.059c0.006,0.006,0.012,0.009,0.018,0.009c0.015,0,0.026-0.012,0.026-0.026
							c0-0.006-0.003-0.015-0.009-0.021l-0.059-0.059c-0.006-0.006-0.012-0.01-0.018-0.01s-0.015,0.004-0.019,0.01
							c-0.006,0.006-0.008,0.012-0.008,0.018C28.858,571.337,28.86,571.343,28.866,571.349L28.866,571.349z"/>
					</g>
					<g transform="matrix(1.02225,0,0,1.02101,-12.0414,-14.0458)">
						<path fill="#FFFFFF" d="M29.061,571.545l0.055,0.063c0.006,0.003,0.012,0.006,0.018,0.006c0.016,0,0.027-0.012,0.027-0.027
							c0-0.006,0-0.008-0.004-0.012l-0.055-0.061c-0.006-0.006-0.012-0.01-0.021-0.01c-0.014,0-0.025,0.012-0.025,0.027
							C29.052,571.533,29.056,571.539,29.061,571.545L29.061,571.545z"/>
					</g>
					<g transform="matrix(1.02225,0,0,1.02101,-12.0414,-14.0458)">
						<path fill="#FFFFFF" d="M29.243,571.748l0.053,0.064c0.006,0.01,0.016,0.016,0.023,0.016c0.016,0,0.029-0.012,0.029-0.029
							c0-0.01-0.002-0.016-0.008-0.021l-0.054-0.064c-0.009-0.012-0.026-0.012-0.038-0.003
							C29.234,571.722,29.231,571.739,29.243,571.748L29.243,571.748z"/>
					</g>
					<g transform="matrix(1.02225,0,0,1.02101,-12.0414,-14.0458)">
						<path fill="#FFFFFF" d="M29.413,571.966l0.051,0.067c0.006,0.006,0.015,0.012,0.023,0.012c0.015,0,0.029-0.012,0.029-0.029
							c0-0.006-0.003-0.012-0.006-0.018l-0.05-0.067c-0.006-0.006-0.015-0.012-0.024-0.012c-0.014,0-0.029,0.012-0.029,0.029
							C29.407,571.954,29.411,571.96,29.413,571.966L29.413,571.966z"/>
					</g>
					<g transform="matrix(1.02225,0,0,1.02101,-12.0414,-14.0458)">
						<path fill="#FFFFFF" d="M29.572,572.19l0.044,0.07c0.006,0.009,0.016,0.015,0.027,0.015c0.014,0,0.029-0.012,0.029-0.029
							c0-0.006-0.004-0.012-0.006-0.018l-0.047-0.071c-0.006-0.008-0.016-0.012-0.023-0.012c-0.006,0-0.013,0.004-0.016,0.006
							c-0.009,0.006-0.012,0.016-0.012,0.024C29.566,572.181,29.569,572.184,29.572,572.19L29.572,572.19z"/>
					</g>
					<g transform="matrix(1.02225,0,0,1.02101,-12.0414,-14.0458)">
						<path fill="#FFFFFF" d="M29.72,572.422l0.041,0.07c0.006,0.009,0.015,0.015,0.026,0.015c0.006,0,0.012,0,0.015-0.003
							c0.009-0.006,0.015-0.015,0.015-0.026c0-0.006,0-0.012-0.003-0.015l-0.041-0.074c-0.006-0.008-0.015-0.014-0.026-0.014
							c-0.006,0-0.012,0-0.015,0.002c-0.01,0.006-0.016,0.016-0.016,0.027C29.714,572.41,29.716,572.416,29.72,572.422
							L29.72,572.422z"/>
					</g>
					<g transform="matrix(1.02225,0,0,1.02101,-12.0414,-14.0458)">
						<path fill="#FFFFFF" d="M29.851,572.662l0.038,0.074c0.006,0.009,0.016,0.018,0.027,0.018c0.006,0,0.008,0,0.014-0.003
							c0.016-0.009,0.021-0.026,0.016-0.042l-0.039-0.072c-0.006-0.01-0.014-0.016-0.025-0.016c-0.019,0-0.03,0.016-0.03,0.029
							C29.851,572.654,29.851,572.66,29.851,572.662L29.851,572.662z"/>
					</g>
					<g transform="matrix(1.02225,0,0,1.02101,-12.0414,-14.0458)">
						<path fill="#FFFFFF" d="M29.972,572.912l0.033,0.076c0.006,0.016,0.026,0.024,0.041,0.016
							c0.012-0.006,0.018-0.016,0.018-0.029c0-0.004,0-0.01-0.003-0.012l-0.035-0.076c-0.006-0.016-0.024-0.024-0.042-0.016
							C29.97,572.877,29.964,572.895,29.972,572.912L29.972,572.912z"/>
					</g>
					<g transform="matrix(1.02225,0,0,1.02101,-12.0414,-14.0458)">
						<path fill="#FFFFFF" d="M30.078,573.166l0.029,0.076c0.006,0.012,0.015,0.02,0.029,0.02c0.018,0,0.032-0.014,0.032-0.031
							c0-0.004,0-0.006-0.002-0.012l-0.03-0.08c-0.006-0.012-0.015-0.021-0.029-0.021c-0.018,0-0.032,0.015-0.032,0.032
							C30.075,573.156,30.075,573.162,30.078,573.166L30.078,573.166z"/>
					</g>
					<g transform="matrix(1.02225,0,0,1.02101,-12.0414,-14.0458)">
						<path fill="#FFFFFF" d="M30.167,573.424l0.023,0.08c0.006,0.018,0.023,0.025,0.037,0.02c0.018-0.006,0.027-0.023,0.021-0.041
							l-0.023-0.079c-0.006-0.012-0.018-0.021-0.029-0.021c-0.018,0-0.033,0.015-0.033,0.032
							C30.167,573.418,30.167,573.421,30.167,573.424L30.167,573.424z"/>
					</g>
					<g transform="matrix(1.02225,0,0,1.02101,-12.0414,-14.0458)">
						<path fill="#FFFFFF" d="M30.243,573.689l0.02,0.079c0.004,0.016,0.016,0.027,0.033,0.027s0.032-0.016,0.032-0.033
							c0-0.002,0-0.006-0.003-0.012l-0.021-0.082c-0.003-0.015-0.019-0.023-0.032-0.023c-0.004,0-0.006,0-0.01,0
							C30.249,573.653,30.239,573.671,30.243,573.689L30.243,573.689z"/>
					</g>
					<g transform="matrix(1.02225,0,0,1.02101,-12.0414,-14.0458)">
						<path fill="#FFFFFF" d="M30.302,573.956l0.015,0.083c0.003,0.018,0.015,0.029,0.032,0.029s0.032-0.016,0.032-0.033
							c0-0.002,0-0.006,0-0.006l-0.015-0.082c-0.003-0.018-0.015-0.029-0.032-0.029s-0.032,0.015-0.032,0.032
							C30.302,573.95,30.302,573.953,30.302,573.956L30.302,573.956z"/>
					</g>
					<g transform="matrix(1.02225,0,0,1.02101,-12.0414,-14.0458)">
						<path fill="#FFFFFF" d="M30.343,574.23l0.009,0.083c0.003,0.014,0.018,0.025,0.032,0.025c0.018,0,0.032-0.014,0.032-0.031l0,0
							l-0.009-0.083c-0.003-0.018-0.018-0.029-0.032-0.029C30.357,574.194,30.343,574.209,30.343,574.23
							C30.343,574.224,30.343,574.227,30.343,574.23L30.343,574.23z"/>
					</g>
					<g transform="matrix(1.02225,0,0,1.02101,-12.0414,-14.0458)">
						<path fill="#FFFFFF" d="M30.369,574.503l0.006,0.083c0.003,0.018,0.018,0.031,0.035,0.031
							c0.018-0.002,0.032-0.018,0.032-0.035l-0.006-0.082c0-0.003,0-0.006,0-0.009c0-0.021-0.015-0.035-0.035-0.035
							s-0.035,0.015-0.035,0.035C30.366,574.494,30.369,574.497,30.369,574.503L30.369,574.503z"/>
					</g>
					<g transform="matrix(1.02225,0,0,1.02101,-12.0414,-14.0458)">
						<path fill="#FFFFFF" d="M30.381,574.776v0.082c0,0.003,0,0.006,0,0.009c0,0.021,0.015,0.035,0.035,0.035
							s0.036-0.014,0.036-0.035c0-0.003,0-0.006,0-0.009v-0.082c0-0.003,0-0.006,0-0.009c0-0.021-0.016-0.035-0.036-0.035
							s-0.035,0.015-0.035,0.035C30.378,574.771,30.378,574.773,30.381,574.776z"/>
					</g>
					<g transform="matrix(1.02225,0,0,1.02101,-12.0414,-14.0458)">
						<path fill="#FFFFFF" d="M30.375,575.05l-0.006,0.082c0,0.018,0.015,0.032,0.032,0.036c0.018,0,0.032-0.016,0.035-0.033
							l0.006-0.082c-0.003-0.018-0.018-0.029-0.035-0.029S30.378,575.035,30.375,575.05L30.375,575.05z"/>
					</g>
					<g transform="matrix(1.02225,0,0,1.02101,-12.0414,-14.0458)">
						<path fill="#FFFFFF" d="M30.351,575.326l-0.009,0.082c0,0.003-0.003,0.009-0.003,0.012c0,0.021,0.015,0.035,0.035,0.035
							s0.035-0.014,0.035-0.035v-0.003l0.009-0.082c0.003-0.018-0.012-0.035-0.029-0.038S30.354,575.306,30.351,575.326
							L30.351,575.326z"/>
					</g>
					<g transform="matrix(1.02225,0,0,1.02101,-12.0414,-14.0458)">
						<path fill="#009DC2" d="M27.12,569.891l0.016,0.405l-0.283-0.165L27.12,569.891z"/>
					</g>
					<g transform="matrix(1.02225,0,0,1.02101,-12.0414,-14.0458)">
						<path fill="#00D5FC" d="M25.286,569.723l1.132,0.924c0.018,0.014,0.041,0.023,0.065,0.023c0.031,0,0.061-0.016,0.082-0.041
							l0.885-1.174c0.006-0.006,0.009-0.015,0.009-0.023c0-0.023-0.019-0.041-0.042-0.041c-0.002,0-0.002,0-0.006,0L25.286,569.723z
							"/>
					</g>
					<g transform="matrix(1.02225,0,0,1.02101,-12.0414,-14.0458)">
						<path fill="#009DC2" d="M27.12,569.891l-1.834-0.168l1.693,0.359l0.009,0.111L27.12,569.891z"/>
					</g>
					<g transform="matrix(1.02225,0,0,1.02101,-12.0414,-14.0458)">
						<path fill="#009DC2" d="M26.891,570.19l0.24,0.105l-0.155-0.218L26.891,570.19z"/>
					</g>
					<g transform="matrix(1.02225,0,0,1.02101,-12.0414,-14.0458)">
						
							<linearGradient id="SVGID_6_" gradientUnits="userSpaceOnUse" x1="-138.0675" y1="492.6631" x2="-137.0675" y2="492.6631" gradientTransform="matrix(-0.2381 -2.9761 -2.9761 0.2381 1467.3633 41.6096)">
							<stop  offset="0" style="stop-color:#FCDEB3"/>
							<stop  offset="0.14" style="stop-color:#FBD8A5"/>
							<stop  offset="0.47" style="stop-color:#FACD8B"/>
							<stop  offset="0.77" style="stop-color:#F9C67C"/>
							<stop  offset="1" style="stop-color:#F9C476"/>
						</linearGradient>
						<path fill="url(#SVGID_6_)" d="M34.788,568.191c-0.045,0.047-0.086,0.07-0.13,0.05c-0.177-0.079-0.677-1.646-0.776-1.567
							c-0.188,0.145,0.268,0.971,0.168,1.023c-0.1,0.05-0.395-0.911-0.591-0.882c-0.197,0.026,0.364,0.882,0.312,0.956
							c-0.056,0.072-0.641-0.732-0.746-0.563c-0.06,0.092,0.537,0.703,0.42,0.759c-0.115,0.056-0.646-0.341-0.705-0.227
							c-0.057,0.112,0.49,0.271,0.654,0.576c0.162,0.306,0.441,0.441,0.557,1.006c0.014,0.082,0.031,0.194,0.053,0.326l0.809-0.229
							c-0.098-0.234-0.162-0.395-0.171-0.418c-0.021-0.055,0.224-0.467,0.397-0.808L34.788,568.191z"/>
					</g>
					<g transform="matrix(1.02225,0,0,1.02101,-12.0414,-14.0458)">
						
							<linearGradient id="SVGID_7_" gradientUnits="userSpaceOnUse" x1="1.3509" y1="614.9815" x2="2.3509" y2="614.9815" gradientTransform="matrix(117.681 0 0 -117.6805 325.7471 72943.8828)">
							<stop  offset="0" style="stop-color:#2B3582"/>
							<stop  offset="1" style="stop-color:#150E42"/>
						</linearGradient>
						<path fill="url(#SVGID_7_)" d="M39.482,575.397c0.021-0.276,0.035-0.641,0.029-1.105c-0.015-1.243-0.188-4.565-0.282-4.574
							c-0.009,0-0.035-0.006-0.035-0.006s-0.006,2.249-0.395,5.688h0.683V575.397z"/>
					</g>
					<g transform="matrix(1.02225,0,0,1.02101,-12.0414,-14.0458)">
						
							<linearGradient id="SVGID_8_" gradientUnits="userSpaceOnUse" x1="-81.9884" y1="709.1133" x2="-80.9901" y2="709.1133" gradientTransform="matrix(-3.0618 0.2449 0.2449 3.0618 -385.2608 -1578.5527)">
							<stop  offset="0" style="stop-color:#FDF53F"/>
							<stop  offset="0.18" style="stop-color:#FCEF40"/>
							<stop  offset="0.44" style="stop-color:#F9DD44"/>
							<stop  offset="0.73" style="stop-color:#F3C14A"/>
							<stop  offset="1" style="stop-color:#ED9F51"/>
						</linearGradient>
						<path fill="url(#SVGID_8_)" d="M39.482,575.397c0.021-0.276,0.035-0.641,0.029-1.105c-0.015-1.243-0.188-4.565-0.282-4.574
							c-0.009,0-0.035-0.006-0.035-0.006s-0.006,2.249-0.395,5.688h0.683V575.397z"/>
					</g>
					<g transform="matrix(1.02225,0,0,1.02101,-12.0414,-14.0458)">
						
							<linearGradient id="SVGID_9_" gradientUnits="userSpaceOnUse" x1="-180.2531" y1="467.0284" x2="-179.2531" y2="467.0284" gradientTransform="matrix(-0.182 -2.2755 -2.2756 0.182 1068.5936 75.8258)">
							<stop  offset="0" style="stop-color:#FCDEB3"/>
							<stop  offset="1" style="stop-color:#F9A262"/>
						</linearGradient>
						<path fill="url(#SVGID_9_)" d="M39.083,568.705l0.111,1.003c0,0-0.638,1.326-1.029,1.179
							c-0.328-0.123-0.123-1.111-0.123-1.111s0.038-0.227,0.094-0.484c0.039-0.183,0.068-0.377,0.057-0.518
							C38.157,568.43,39.083,568.705,39.083,568.705z"/>
					</g>
					<g transform="matrix(1.02225,0,0,1.02101,-12.0414,-14.0458)">
						
							<linearGradient id="SVGID_10_" gradientUnits="userSpaceOnUse" x1="-193.8708" y1="893.127" x2="-192.8708" y2="893.127" gradientTransform="matrix(-1.2854 0.1028 0.1028 1.2854 -302.105 -560.7529)">
							<stop  offset="0" style="stop-color:#FCDEB3"/>
							<stop  offset="1" style="stop-color:#F9C476"/>
						</linearGradient>
						<path fill="url(#SVGID_10_)" d="M38.024,566.483c0,0-0.332,0.594-0.323,1.073c0.009,0.479,0.136,0.793,0.136,0.793l1.09-1.531
							L38.024,566.483z"/>
					</g>
					<g transform="matrix(1.02225,0,0,1.02101,-12.0414,-14.0458)">
						
							<linearGradient id="SVGID_11_" gradientUnits="userSpaceOnUse" x1="76.5243" y1="591.2139" x2="77.5193" y2="591.2139" gradientTransform="matrix(3.599 0 0 -3.599 38.7461 2695.2595)">
							<stop  offset="0" style="stop-color:#FCDEB3"/>
							<stop  offset="1" style="stop-color:#F9C476"/>
						</linearGradient>
						<path fill="url(#SVGID_11_)" d="M37.571,567.471c-0.002,0.168,0.074,0.307,0.171,0.309c0.097,0.004,0.179-0.132,0.185-0.299
							c0.006-0.168-0.07-0.307-0.17-0.31S37.575,567.301,37.571,567.471z"/>
					</g>
					<g transform="matrix(1.02225,0,0,1.02101,-12.0414,-14.0458)">
						
							<linearGradient id="SVGID_12_" gradientUnits="userSpaceOnUse" x1="2.1942" y1="592.5782" x2="3.1942" y2="592.5782" gradientTransform="matrix(86.9202 0 0 -86.9199 1120.9304 52074.7383)">
							<stop  offset="0" style="stop-color:#FCDEB3"/>
							<stop  offset="1" style="stop-color:#F9C476"/>
						</linearGradient>
						<path fill="url(#SVGID_12_)" d="M39.339,567.018c0.025-0.008,0.132,1.379-0.244,1.735c-0.377,0.355-1.073,0.44-1.303,0.129
							c-0.253-0.347-0.152-1.822,0.42-2.179C38.788,566.348,39.339,567.018,39.339,567.018z"/>
					</g>
					<g transform="matrix(1.02225,0,0,1.02101,-12.0414,-14.0458)">
						
							<linearGradient id="SVGID_13_" gradientUnits="userSpaceOnUse" x1="-114.0656" y1="761.8741" x2="-113.0651" y2="761.8741" gradientTransform="matrix(-2.193 0.1754 0.1754 2.1929 -343.6201 -1083.3425)">
							<stop  offset="0" style="stop-color:#603813"/>
							<stop  offset="0.01" style="stop-color:#603813"/>
							<stop  offset="1" style="stop-color:#C69C6D"/>
						</linearGradient>
						<path fill="url(#SVGID_13_)" d="M39.374,566.15c0.326,0.248,0.49,0.43,0.734,0.891c0.301,0.568-0.158,1.218-0.561,1.491
							c-0.406,0.276-0.421,0.57-0.421,0.57l-0.032-0.179c-0.012-0.057-0.016-0.112-0.01-0.168c0.012-0.053,0.027-0.104,0.051-0.15
							c0.029-0.079,0.127-0.353,0.164-0.426c0.106-0.194,0.127-0.235,0.053-0.406c-0.055-0.132-0.025-0.432-0.114-0.649
							l-0.582-0.079c0,0-0.364-0.059-0.562-0.253C37.536,566.239,38.507,565.492,39.374,566.15z"/>
					</g>
					<g transform="matrix(1.02225,0,0,1.02101,-12.0414,-14.0458)">
						
							<linearGradient id="SVGID_14_" gradientUnits="userSpaceOnUse" x1="60.0233" y1="586.3585" x2="61.0233" y2="586.3585" gradientTransform="matrix(4.5941 0 0 -4.5941 54.1469 3261.7979)">
							<stop  offset="0" style="stop-color:#FCDEB3"/>
							<stop  offset="1" style="stop-color:#F9C476"/>
						</linearGradient>
						<path fill="url(#SVGID_14_)" d="M39.229,567.939c-0.059,0.159-0.032,0.312,0.059,0.347c0.092,0.035,0.215-0.064,0.271-0.223
							c0.059-0.159,0.031-0.313-0.06-0.348S39.288,567.783,39.229,567.939z"/>
					</g>
					<g transform="matrix(1.02225,0,0,1.02101,-12.0414,-14.0458)">
						<path fill="#FFFFFF" d="M38.603,568.426l-0.688-0.061c0,0-0.008,0.262,0.295,0.299
							C38.577,568.705,38.603,568.426,38.603,568.426z"/>
					</g>
					<g transform="matrix(1.02225,0,0,1.02101,-12.0414,-14.0458)">
						<path d="M38.848,567.735c-0.003,0.044-0.042,0.079-0.089,0.079s-0.088-0.037-0.088-0.088c0-0.05,0.039-0.088,0.088-0.088
							c0.004,0,0.006,0,0.01,0C38.817,567.645,38.853,567.689,38.848,567.735z"/>
					</g>
					<g transform="matrix(1.02225,0,0,1.02101,-12.0414,-14.0458)">
						<path d="M38.124,567.5c0,0.004,0,0.004,0,0.006c0,0.047-0.038,0.088-0.088,0.088c-0.047,0-0.088-0.037-0.088-0.088
							c0-0.047,0.035-0.085,0.082-0.088C38.08,567.418,38.122,567.453,38.124,567.5z"/>
					</g>
					<g transform="matrix(1.02225,0,0,1.02101,-12.0414,-14.0458)">
						<path d="M38.682,567.551c0.01,0.002,0.018,0.002,0.027,0c0.035-0.016,0.078-0.018,0.114-0.006
							c0.035,0.018,0.064,0.049,0.076,0.088c0.006,0.012,0.015,0.021,0.029,0.021c0.003,0,0.009,0,0.012-0.003
							c0.015-0.006,0.024-0.023,0.018-0.041c-0.018-0.057-0.059-0.1-0.108-0.121c-0.053-0.018-0.111-0.018-0.164,0.006
							c-0.016,0.006-0.021,0.027-0.016,0.041C38.671,567.541,38.677,567.547,38.682,567.551z"/>
					</g>
					<g transform="matrix(1.02225,0,0,1.02101,-12.0414,-14.0458)">
						<path d="M37.931,567.354c0.008,0.003,0.02,0.003,0.025-0.003c0.036-0.021,0.074-0.03,0.115-0.024
							c0.038,0.013,0.07,0.039,0.088,0.074c0.006,0.012,0.016,0.018,0.027,0.018c0.018,0,0.031-0.015,0.031-0.032
							c0-0.006-0.002-0.012-0.006-0.018c-0.025-0.05-0.072-0.089-0.126-0.103c-0.056-0.01-0.114,0-0.161,0.031
							c-0.016,0.01-0.018,0.029-0.01,0.045C37.919,567.345,37.925,567.351,37.931,567.354z"/>
					</g>
					<g transform="matrix(1.02225,0,0,1.02101,-12.0414,-14.0458)">
						<path fill="#FFFFFF" d="M38.139,567.51C38.139,567.512,38.139,567.512,38.139,567.51c0,0.023-0.016,0.037-0.036,0.037
							s-0.035-0.014-0.035-0.035c0-0.02,0.015-0.035,0.035-0.035S38.139,567.492,38.139,567.51z"/>
					</g>
					<g transform="matrix(1.02225,0,0,1.02101,-12.0414,-14.0458)">
						<path fill="#FFFFFF" d="M38.862,567.762c-0.003,0.018-0.018,0.033-0.035,0.033c-0.021,0-0.035-0.016-0.035-0.036v-0.003
							c0.002-0.018,0.018-0.032,0.035-0.032C38.848,567.724,38.862,567.738,38.862,567.762
							C38.862,567.759,38.862,567.759,38.862,567.762z"/>
					</g>
					<g transform="matrix(1.02225,0,0,1.02101,-12.0414,-14.0458)">
						<path d="M37.915,567.474c0.01,0.003,0.018,0,0.023-0.003c0.027-0.021,0.057-0.032,0.089-0.032
							c0.044,0,0.085,0.021,0.112,0.056c0.006,0.006,0.012,0.01,0.018,0.01c0.012,0,0.023-0.012,0.023-0.023
							c0-0.007-0.004-0.013-0.006-0.016c-0.065-0.079-0.186-0.091-0.266-0.026c-0.006,0.003-0.008,0.012-0.008,0.018
							s0.002,0.012,0.006,0.015C37.909,567.471,37.913,567.471,37.915,567.474z"/>
					</g>
					<g transform="matrix(1.02225,0,0,1.02101,-12.0414,-14.0458)">
						<path d="M38.641,567.671c0.006,0.003,0.015,0.003,0.023,0c0.021-0.012,0.047-0.021,0.07-0.021
							c0.053,0,0.101,0.029,0.124,0.073c0.003,0.006,0.012,0.009,0.018,0.009s0.009,0,0.012-0.003
							c0.012-0.006,0.015-0.021,0.006-0.032c-0.053-0.088-0.167-0.121-0.259-0.067c-0.006,0.003-0.012,0.012-0.012,0.021
							c0,0.003,0,0.009,0.003,0.012C38.636,567.665,38.639,567.668,38.641,567.671z"/>
					</g>
					<g transform="matrix(1.02225,0,0,1.02101,-12.0414,-14.0458)">
						<path fill="#E58761" d="M38.442,567.518c-0.006,0.016-0.016,0.027-0.023,0.039c-0.039,0.056-0.074,0.114-0.106,0.176
							c-0.05,0.094-0.097,0.197-0.183,0.265c-0.014,0.009-0.026,0.021-0.038,0.035c-0.05,0.067,0.071,0.13,0.12,0.142
							c0.054,0.012,0.08-0.012,0.121-0.033c0.012-0.006,0.026-0.006,0.038,0c0.012,0.012,0.012,0.029,0.003,0.042
							c-0.009,0.012-0.023,0.023-0.038,0.026c-0.108,0.044-0.288,0.003-0.297-0.139c-0.003-0.064,0.032-0.123,0.091-0.149
							c0.004-0.003,0.01-0.006,0.01-0.009c0-0.006-0.01,0.003-0.006,0.003c0.084-0.144,0.173-0.285,0.258-0.429
							c0.006-0.006,0.012-0.013,0.021-0.013c0.008,0,0.018,0.003,0.02,0.013C38.444,567.494,38.448,567.506,38.442,567.518z"/>
					</g>
					<g transform="matrix(1.02225,0,0,1.02101,-12.0414,-14.0458)">
						
							<linearGradient id="SVGID_15_" gradientUnits="userSpaceOnUse" x1="0.0516" y1="593.6778" x2="1.0516" y2="593.6778" gradientTransform="matrix(258.6946 0 0 -258.6935 2106.4424 154153.2656)">
							<stop  offset="0" style="stop-color:#FDF53F"/>
							<stop  offset="0.18" style="stop-color:#FCEF40"/>
							<stop  offset="0.44" style="stop-color:#F9DD44"/>
							<stop  offset="0.73" style="stop-color:#F3C14A"/>
							<stop  offset="1" style="stop-color:#ED9F51"/>
						</linearGradient>
						<path fill="url(#SVGID_15_)" d="M39.191,569.708l-1.141,0.023c0,0-0.227,0.312-0.479,1.029
							c-0.108,0.314-0.229,1.781-0.355,2.613c-0.162,1.079-0.793,2.02-0.793,2.02H38.8C39.188,571.96,39.191,569.708,39.191,569.708
							z"/>
					</g>
					<g transform="matrix(1.02225,0,0,1.02101,-12.0414,-14.0458)">
						
							<linearGradient id="SVGID_16_" gradientUnits="userSpaceOnUse" x1="-0.4626" y1="586.1837" x2="0.5375" y2="586.1837" gradientTransform="matrix(491.9785 0 0 -491.9765 3549.1353 288961.1875)">
							<stop  offset="0" style="stop-color:#2B3582"/>
							<stop  offset="1" style="stop-color:#150E42"/>
						</linearGradient>
						<path fill="url(#SVGID_16_)" d="M38.062,569.729h-0.012c0,0-0.064,0.003-0.399,0.021c-0.142,0.007-0.285,0.013-0.418,0.067
							c-0.273,0.121-1.734,1.68-1.857,1.629c-0.035-0.015-0.177-0.632-0.518-2.337c-0.015-0.079-0.977,0.232-0.977,0.232
							s0.227,3.593,0.979,3.837c0.241,0.076,1.661-0.766,2.022-0.982c-0.026,0.436-0.041,0.929-0.115,1.391
							c-0.117,0.738-0.479,1.373-0.79,1.811h1.264c0.142-0.965,0.694-4.709,0.765-5.342L38.062,569.729z"/>
					</g>
				</g>
			</g>
		</g>
	</g>
</g>
</svg>
