<?xml version="1.0" encoding="utf-8"?>
<!-- Generator: Adobe Illustrator 25.3.1, SVG Export Plug-In . SVG Version: 6.00 Build 0)  -->
<svg version="1.1" id="Layer_1" xmlns:serif="http://www.serif.com/"
	 xmlns="http://www.w3.org/2000/svg" xmlns:xlink="http://www.w3.org/1999/xlink" x="0px" y="0px" viewBox="0 0 1360.6 510.2"
	 style="enable-background:new 0 0 1360.6 510.2;" xml:space="preserve">
<style type="text/css">
	.st0{fill-rule:evenodd;clip-rule:evenodd;fill:#43493B;}
	.st1{fill:#A7AE9C;fill-opacity:0.5;}
	.st2{fill:#92C846;}
	.st3{opacity:0.2;}
	.st4{fill:#FFFFFF;}
	.st5{fill:#FFFFFF;fill-opacity:0.62;}
	.st6{fill:url(#SVGID_1_);}
	.st7{fill-rule:evenodd;clip-rule:evenodd;fill:url(#SVGID_2_);}
	.st8{opacity:0.68;}
	.st9{fill:url(#SVGID_3_);}
	.st10{fill:url(#SVGID_4_);}
	.st11{fill:url(#SVGID_5_);}
	.st12{fill:url(#SVGID_6_);}
	.st13{fill:url(#SVGID_7_);}
	.st14{fill:url(#SVGID_8_);}
	.st15{fill:url(#SVGID_9_);}
	.st16{fill:url(#SVGID_10_);}
	.st17{fill:url(#SVGID_11_);}
	.st18{fill:url(#SVGID_12_);}
	.st19{fill:url(#SVGID_13_);}
	.st20{fill:url(#SVGID_14_);}
	.st21{fill:url(#SVGID_15_);}
	.st22{fill:url(#SVGID_16_);}
	.st23{fill:url(#SVGID_17_);}
	.st24{fill:url(#SVGID_18_);}
	.st25{fill:url(#SVGID_19_);}
	.st26{fill:url(#SVGID_20_);}
	.st27{fill:#009DC2;}
	.st28{fill:url(#SVGID_21_);}
	.st29{fill:url(#SVGID_22_);}
	.st30{fill:url(#SVGID_23_);}
	.st31{fill:url(#SVGID_24_);}
	.st32{fill:url(#SVGID_25_);}
	.st33{fill:#43493B;}
	.st34{fill:url(#SVGID_26_);}
	.st35{fill:url(#SVGID_27_);}
	.st36{fill:url(#SVGID_28_);}
	.st37{fill:url(#SVGID_29_);}
	.st38{fill:url(#SVGID_30_);}
	.st39{fill:url(#SVGID_31_);}
	.st40{fill:url(#SVGID_32_);}
	.st41{fill:url(#SVGID_33_);}
	.st42{fill:url(#SVGID_34_);}
	.st43{fill:url(#SVGID_35_);}
	.st44{fill:url(#SVGID_36_);}
	.st45{fill:url(#SVGID_37_);}
	.st46{fill:url(#SVGID_38_);}
	.st47{fill:url(#SVGID_39_);}
	.st48{fill:url(#SVGID_40_);}
	.st49{fill:#FFFFFF;stroke:#FFFFFF;stroke-width:0.7087;stroke-miterlimit:7.0866;}
	.st50{fill:none;stroke:#FFFFFF;stroke-width:0.5315;stroke-miterlimit:7.0866;}
	.st51{fill:#FFFFFF;stroke:#FFFFFF;stroke-width:0.5315;stroke-miterlimit:7.0866;}
	.st52{fill-rule:evenodd;clip-rule:evenodd;fill:#FFFFFF;stroke:#FFFFFF;stroke-width:0.5315;stroke-miterlimit:7.0866;}
	.st53{fill-rule:evenodd;clip-rule:evenodd;fill:url(#SVGID_41_);}
	.st54{fill:url(#SVGID_42_);}
	.st55{fill:url(#SVGID_43_);}
	.st56{fill:url(#SVGID_44_);}
	.st57{fill:url(#SVGID_45_);}
	.st58{fill:url(#SVGID_46_);}
	.st59{fill:url(#SVGID_47_);}
	.st60{fill:url(#SVGID_48_);}
	.st61{fill:url(#SVGID_49_);}
	.st62{fill:url(#SVGID_50_);}
	.st63{fill:url(#SVGID_51_);}
	.st64{fill:url(#SVGID_52_);}
	.st65{fill:url(#SVGID_53_);}
	.st66{fill:url(#SVGID_54_);}
	.st67{fill:url(#SVGID_55_);}
	.st68{fill:url(#SVGID_56_);}
	.st69{fill:url(#SVGID_57_);}
	.st70{fill:url(#SVGID_58_);}
	.st71{fill:url(#SVGID_59_);}
	.st72{fill:url(#SVGID_60_);}
	.st73{fill:#E58761;}
	.st74{fill:url(#SVGID_61_);}
	.st75{fill:url(#SVGID_62_);}
	.st76{fill:url(#SVGID_63_);}
	.st77{fill:url(#SVGID_64_);}
	.st78{fill:url(#SVGID_65_);}
	.st79{fill:url(#SVGID_66_);}
	.st80{fill:#88D668;}
</style>
<g>
	<rect x="0" y="285.4" class="st0" width="1360.6" height="223.9"/>
	<path class="st1" d="M1293.5,295.7c-12.6-12.8-27.4-25.2-31.3-42.5c-6.7-30,22-55.5,31.4-84.8c6.5-20.2,3.1-43.3-8.9-60.9
		c-12-17.7-32.4-29.6-54-31.5c-37.1-3.3-73.4,21.2-109.9,14.1c-29.3-5.7-52.4-30.7-82.1-33.4c-35-3.2-63.9,25.1-97.3,35.8
		c-39.9,12.7-83.2-0.6-122.5-15.2C779.6,62.7,738.4,46.4,697,53.4c-46.1,7.8-84.7,47.1-90.8,92.5c-6.1,45,45.1,81.1,1.5,135.1
		c-13.6,16.7-22.7,40.2-16.7,60.9c5.8,20.1,30.7,32.8,30.9,53.7c0.1,16.5-15.7,29.6-17,46.1c-1.1,14.1,9.3,27.2,22,33.9
		c12.7,6.7,27.5,8.3,41.9,9.9c-0.8,0.9-1,2.1-0.6,3.1c0.5,1.1,1.5,1.8,2.7,1.9c70.3,5.7,141,4.4,211.5,3
		c114.6-2.2,229.2-4.5,343.9-6.7c11.8-0.2,23.8-0.5,34.8-4.7s20.8-13.2,22.5-24.6c2.8-19.4-17.9-36.3-16-55.9
		c2.4-25,38.3-34.6,45.2-58.8C1317.7,325.6,1306.1,308.4,1293.5,295.7z"/>
	<g>
		<path class="st2" d="M1317.2,263.5c-15.2-18-36.5-31.8-47.6-52.2c-17-31.2-6-69.5-17.6-102.7c-9.9-28.4-36.1-50.4-65.9-61.9
			s-63-13.6-95.2-11.8c-66.8,3.8-132.5,24.2-188.2,58.6c-27.4,16.9-52.5,37.1-81,52.5s-61.8,25.9-94.3,20.7
			c-32.5-5.1-59.7-24.9-89.4-37.9c-11.6-5.1-24.7-9-37.7-10.6c-28.5-3.5-54,16.8-54.9,43.4c-0.8,22.7,5.4,45.6,18,65
			c15.9,24.4,40.6,42.6,60,64.7s33.7,52,23.2,78.7c-8.9,22.8-34.7,40.3-34,64.6c0.8,25.4,29.8,41.2,55.9,49.1
			c76.8,23.4,161.9,22.3,238-3c43.7-14.6,85.7-37.1,132.2-38.8c48.8-1.8,95.3,19.8,144,22.2c53.3,2.6,108.5-20.4,137.9-61.7
			C1349.9,361.2,1350,302.5,1317.2,263.5z"/>
	</g>
	<g class="st3">
		<path class="st4" d="M943,487.3c0,0-51.7-70.9-43.3-137.8c8.4-67,50.4-59,69.1-19.4c18.7,39.6,35.5,34.2,24.4-3.1
			c-11.1-37.2-25-61.5-2-98.6s25.4-52.8,12.5-85.9s-29.1-80,22.3-96.7c51.4-16.7,102.6,34.7,90.6,101.9s-19.2,74.6-2.7,99.5
			s9.6,35.1,7.3,51.4c-2.3,16.2,22.9,20,22.4-2.8s-32.6-76.7-10.7-101.9c21.9-25.1,64.8-25.4,75.8,32.7
			c11,58.1-24.2,84.3-22.5,105.3c1.8,21,20.7-10.9,37.2,10.6c16.5,21.4-5.7,38.3-22,49.9c-16.3,11.6-40.9,32.4-17.5,47.6
			c23.4,15.1,45.6,0.7,31.3,47.3H943L943,487.3z"/>
		<path class="st5" d="M1049.3,94.3c1.7,1,3.2,2.2,4.6,3.5s2.8,2.8,4,4.3c2.5,3.1,4.6,6.6,6.3,10.3c3.4,7.4,5.3,15.6,5.9,23.9
			c0.1,1,0.1,2.1,0.2,3.1c0,1,0.1,2.1,0.1,3.1v3.1l-0.1,3.1l-0.1,1.5l-0.1,1.5l-0.3,3.1c-0.3,2-0.5,4.1-0.8,6.1s-0.7,4-1.1,6l-0.6,3
			l-0.7,2.9l-2.6,11.6c-3.5,15.4-6.9,30.9-9.5,46.4s-4.4,31.2-4,46.6c0.1,3.9,0.3,7.7,0.8,11.5c0.4,3.8,1,7.6,1.9,11.2
			c0.9,3.7,2,7.3,3.3,10.7c1.5,3.9,2.7,7.9,3.7,11.9c1.8,8,2.8,16.1,3.6,24.1c0.8,8,1.4,16,1.8,24c1,15.9,1.9,31.8,4,47.5
			c0.3,2,0.5,3.9,0.9,5.8c0.3,1.9,0.7,3.9,1,5.8c0.3,1.9,0.8,3.8,1.2,5.8c0.2,0.9,0.5,1.9,0.7,2.8c0.2,0.9,0.5,1.9,0.8,2.8l0.9,2.8
			c0.3,0.9,0.7,1.8,1,2.7c0.6,1.8,1.5,3.6,2.2,5.4c1.7,3.5,3.6,6.8,6.1,9.7l-0.6,0.6c-2.7-2.8-4.9-6-6.9-9.5
			c-1.9-3.5-3.5-7.1-4.9-10.9c-2.8-7.5-4.6-15.4-6.1-23.3c-3-15.8-4.4-31.8-6-47.6c-0.8-7.9-1.5-15.8-2.5-23.7
			c-1-7.8-2.2-15.6-4.1-23c-1-3.7-2.1-7.2-3.5-10.7c-1.6-3.8-2.9-7.8-3.9-11.8s-1.8-8.1-2.3-12.2c-0.6-4.1-0.9-8.2-1-12.3
			c-0.6-16.4,1.2-32.6,3.8-48.5c2.6-15.9,6.1-31.5,9.9-46.9c1-3.9,2-7.7,3-11.6l0.8-2.9l0.7-2.8c0.5-1.9,0.9-3.7,1.3-5.6
			c0.4-1.9,0.7-3.8,1.1-5.7l0.4-2.9c0.1-0.9,0.3-1.9,0.4-2.9c0.5-3.8,0.6-7.7,0.6-11.5s-0.3-7.7-0.9-11.4c-0.6-3.8-1.5-7.5-2.7-11.1
			c-0.6-1.8-1.3-3.6-2.2-5.3c-0.8-1.7-1.7-3.4-2.7-5c-2-3.2-4.3-6.3-7.1-8.7L1049.3,94.3z"/>
		<path class="st5" d="M939.2,334.4c1.5,12.5,3.7,25,6.4,37.2c1.3,6.1,2.8,12.2,4.5,18.3c0.4,1.5,0.9,3,1.3,4.5
			c0.4,1.5,0.9,3,1.3,4.5c0.9,3,1.9,5.9,2.8,8.9c1,2.9,2,5.9,3.2,8.8c1,2.9,2.2,5.8,3.4,8.6c2.4,5.7,5,11.3,7.9,16.7
			c2.8,5.4,6,10.7,9.3,15.8c3.4,5.1,7.1,9.9,11.1,14.5l-0.6,0.7c-4.6-4-8.8-8.5-12.6-13.4s-7.3-10.1-10.4-15.5
			c-3.1-5.5-6-11.1-8.4-16.9c-1.2-2.9-2.5-5.8-3.6-8.8s-2.1-6-3.2-9c-1-3-1.9-6-2.8-9.1c-0.5-1.5-0.9-3.1-1.3-4.6
			c-0.4-1.5-0.8-3.1-1.2-4.6c-1.6-6.2-2.8-12.4-4-18.7c-2.2-12.5-3.7-25.2-4-38L939.2,334.4z"/>
	</g>
	
		<linearGradient id="SVGID_1_" gradientUnits="userSpaceOnUse" x1="886.3812" y1="1591.9276" x2="997.2742" y2="1222.6062" gradientTransform="matrix(1 0 0 -1 0 1700.7875)">
		<stop  offset="0" style="stop-color:#43493B"/>
		<stop  offset="1" style="stop-color:#009DC2"/>
	</linearGradient>
	<path class="st6" d="M1147.4,309c-4.6,104.2-99.4,184.6-211.9,179.7s-199.9-93.4-195.3-197.6c4.6-104.2,99.4-184.6,211.9-179.7
		C1064.5,116.3,1151.9,204.8,1147.4,309z"/>
	
		<linearGradient id="SVGID_2_" gradientUnits="userSpaceOnUse" x1="-1.092290e-05" y1="-1.8097" x2="0.9998" y2="-1.8097" gradientTransform="matrix(319.8536 0 0 319.8536 772.8023 865.2021)">
		<stop  offset="0" style="stop-color:#B37CFF;stop-opacity:0.26"/>
		<stop  offset="1" style="stop-color:#F895E7;stop-opacity:0.26"/>
	</linearGradient>
	<ellipse class="st7" cx="932.7" cy="286.4" rx="159.9" ry="151.1"/>
	<g class="st8">
		<path class="st4" d="M996,300.9c0,16.7-0.6,33.3-1.9,49.9c-1.3,16.6-3.4,33.2-6.3,49.6c-1.5,8.2-3.2,16.4-5.3,24.4
			c-2.1,8.1-4.4,16.1-7.4,23.9c-2.9,7.8-6.3,15.5-11,22.6c-2.3,3.5-5,6.8-8.2,9.6c-1.6,1.4-3.4,2.6-5.4,3.5s-4.1,1.4-6.3,1.5
			s-4.4-0.4-6.4-1.2c-2-0.8-3.9-2-5.5-3.3c-3.3-2.7-6.1-6-8.4-9.5c-4.7-7-8.2-14.7-11.1-22.5c-3-7.8-5.4-15.8-7.4-23.9
			c-2.1-8.1-3.8-16.2-5.3-24.4c-3-16.4-5-33-6.4-49.6s-2.1-33.3-2.2-49.9c0-8.3,0.2-16.7,0.5-25s0.8-16.6,1.4-25
			c1.2-16.6,3.1-33.2,5.8-49.6c1.4-8.2,3-16.4,4.9-24.5s4.2-16.2,7-24s6.1-15.6,10.7-22.6c2.3-3.5,4.9-6.8,8.2-9.5
			c1.6-1.3,3.5-2.5,5.4-3.3c2-0.8,4.1-1.2,6.3-1.1c2.1,0.1,4.2,0.6,6.2,1.4c1.9,0.9,3.7,2,5.4,3.4c3.3,2.7,6,5.9,8.4,9.3
			c4.8,6.9,8.4,14.5,11.5,22.2c3.1,7.8,5.7,15.7,7.9,23.7s4.1,16.2,5.7,24.3c3.2,16.4,5.5,32.9,7,49.5
			C995.2,267.6,995.9,284.3,996,300.9z M993.2,300.9c0-16.6-0.6-33.2-2-49.7s-3.4-33-6.5-49.3c-1.5-8.1-3.3-16.3-5.4-24.3
			c-2.1-8-4.6-15.9-7.6-23.7c-3-7.7-6.5-15.3-11.1-22.1c-2.3-3.4-5-6.6-8.1-9.2c-1.6-1.3-3.3-2.4-5.1-3.3c-1.8-0.8-3.8-1.4-5.9-1.4
			c-2-0.1-4,0.3-5.9,1.1s-3.6,1.9-5.2,3.2c-3.1,2.6-5.7,5.9-7.9,9.4c-4.4,7-7.6,14.7-10.3,22.5s-4.8,15.9-6.6,23.9
			c-1.8,8.1-3.3,16.2-4.6,24.4c-5,32.8-6.7,66.1-6.6,99.2c0,16.6,0.5,33.2,1.7,49.7s3.1,33,6,49.4c1.4,8.2,3.1,16.3,5.1,24.3
			s4.3,16,7.2,23.8c2.9,7.7,6.2,15.4,10.8,22.2c2.3,3.4,4.9,6.6,8,9.2c1.6,1.3,3.3,2.4,5.1,3.1c1.8,0.8,3.8,1.2,5.8,1.1
			c2,0,3.9-0.6,5.7-1.4s3.5-2,5-3.3c3.1-2.6,5.6-5.9,7.9-9.3c4.5-6.9,7.8-14.5,10.6-22.3c2.8-7.8,5.1-15.7,7.1-23.8s3.6-16.2,5-24.3
			c2.8-16.3,4.7-32.8,5.9-49.4C992.6,334.1,993.2,317.5,993.2,300.9z"/>
		<path class="st4" d="M1080,300.9c-0.1,21.5-2.9,42.9-8.6,63.6c-5.9,20.6-14.7,40.5-26.7,58.3s-27.2,33.6-45.4,45
			c-9.1,5.7-18.9,10.3-29.2,13.3c-10.3,3.1-21,4.7-31.7,4.7s-21.5-1.6-31.8-4.7s-20.1-7.6-29.2-13.3c-18.2-11.4-33.5-27.2-45.5-45
			s-20.8-37.7-26.7-58.4c-2.9-10.3-5-20.9-6.5-31.5c-1.4-10.7-2.1-21.4-2.2-32.1c0.1-10.7,0.8-21.5,2.2-32.1s3.6-21.2,6.5-31.5
			c5.9-20.7,14.8-40.5,26.8-58.3s27.2-33.5,45.5-44.9c9.1-5.7,18.9-10.2,29.2-13.3s21-4.7,31.7-4.7s21.4,1.6,31.7,4.7
			c10.3,3.1,20.1,7.6,29.2,13.3c18.2,11.4,33.4,27.2,45.4,45s20.8,37.7,26.7,58.3C1077.1,258,1079.9,279.5,1080,300.9z
			 M1076.8,300.9c0-21.2-2.7-42.4-8.2-62.9c-5.6-20.4-14.1-40.1-25.7-57.9c-5.8-8.9-12.4-17.2-19.8-24.8
			c-7.4-7.6-15.6-14.4-24.5-20.1c-9-5.7-18.6-10.2-28.8-13.3c-10.1-3.1-20.7-4.7-31.3-4.7s-21.2,1.7-31.3,4.8s-19.8,7.7-28.8,13.3
			c-8.9,5.7-17.1,12.6-24.5,20.2c-7.4,7.6-14,16-19.8,24.8c-11.6,17.7-20,37.4-25.6,57.9c-2.8,10.2-4.8,20.6-6.2,31.1
			s-2,21.1-2.1,31.7c0,10.6,0.7,21.2,2.1,31.7c1.4,10.5,3.4,20.9,6.2,31.1c5.6,20.4,14,40.1,25.7,57.8c5.8,8.9,12.4,17.2,19.8,24.8
			c7.4,7.6,15.6,14.4,24.5,20.1c9,5.7,18.6,10.2,28.7,13.3c10.1,3.1,20.7,4.7,31.3,4.8c10.6,0,21.2-1.7,31.3-4.8
			c10.1-3.1,19.8-7.6,28.8-13.3c9-5.7,17.1-12.5,24.5-20.1s14-15.9,19.8-24.8c11.7-17.7,20.1-37.4,25.7-57.8
			C1074.2,343.3,1076.8,322.1,1076.8,300.9z"/>
		<path class="st4" d="M773.3,227.7l42.5-0.4l42.5-0.2c14.2-0.1,28.3-0.1,42.5-0.1l42.5-0.1l85,0.2l42.5,0.2l42.5,0.4
			c0.1,0,0.1,0.1,0.1,0.1l-0.1,0.1l-42.5,0.4l-42.5,0.2l-85,0.2l-42.5-0.1c-14.2,0-28.3,0-42.5-0.1l-42.5-0.2l-42.5-0.4
			c-0.1,0-0.2-0.1-0.2-0.2C773.1,227.8,773.2,227.7,773.3,227.7z"/>
		<path class="st4" d="M822.6,156.6c10.1-0.2,20.1-0.3,30.2-0.4L883,156c10.1-0.1,20.1-0.1,30.2-0.1l30.2-0.1l30.2,0.1
			c10.1,0,20.1,0,30.2,0.1l30.2,0.2c10.1,0.1,20.1,0.2,30.2,0.4c0.1,0,0.1,0.1,0.1,0.1c0,0.1-0.1,0.1-0.1,0.1
			c-10.1,0.2-20.1,0.3-30.2,0.4l-30.2,0.2c-10.1,0.1-20.1,0.1-30.2,0.1l-30.2,0.1l-30.2-0.1c-10.1,0-20.1,0-30.2-0.1l-30.2-0.2
			c-10.1-0.1-20.1-0.2-30.2-0.4c-0.1,0-0.2-0.1-0.2-0.2S822.5,156.6,822.6,156.6z"/>
		<path class="st4" d="M758.6,298.9l46.2-0.4l46.2-0.2l92.3-0.2l92.3,0.2l46.2,0.2l46.2,0.4c0.1,0,0.1,0.1,0.1,0.1l-0.1,0.1
			l-46.2,0.4l-46.2,0.2l-92.3,0.2l-92.3-0.2l-46.2-0.2l-46.2-0.4c-0.1,0-0.2-0.1-0.2-0.2C758.4,298.9,758.5,298.9,758.6,298.9z"/>
		<path class="st4" d="M773.3,370l42.5-0.4l42.5-0.2c14.2-0.1,28.3-0.1,42.5-0.1l42.5-0.1l85,0.2l42.5,0.2l42.5,0.4
			c0.1,0,0.1,0.1,0.1,0.1c0,0.1-0.1,0.1-0.1,0.1l-42.5,0.4l-42.5,0.2l-85,0.2l-42.5-0.1c-14.2,0-28.3,0-42.5-0.1l-42.5-0.2
			l-42.5-0.4c-0.1,0-0.2-0.1-0.2-0.2C773.1,370.1,773.2,370,773.3,370z"/>
		<path class="st4" d="M1070,442.1H828.7c-0.4,0-0.7-0.3-0.7-0.7s0.3-0.7,0.7-0.7H1070c0.4,0,0.7,0.3,0.7,0.7
			S1070.4,442.1,1070,442.1z"/>
	</g>
	
		<linearGradient id="SVGID_3_" gradientUnits="userSpaceOnUse" x1="-16.436" y1="-15.7365" x2="-15.436" y2="-15.7365" gradientTransform="matrix(17.5924 18.3743 -18.3743 17.5924 1075.3209 745.5079)">
		<stop  offset="0" style="stop-color:#333333"/>
		<stop  offset="1" style="stop-color:#000000"/>
	</linearGradient>
	<path class="st9" d="M1070.4,157.3c0,0-4.9,0.3-5.4,10.2c0,0,11.3,10.1,26.5,12.5c1.1,0.2-1.6-7.8-2-8.9
		C1087.5,166,1081.3,162.7,1070.4,157.3z"/>
	
		<linearGradient id="SVGID_4_" gradientUnits="userSpaceOnUse" x1="7.8372" y1="-2.0809" x2="8.8372" y2="-2.0809" gradientTransform="matrix(18.3174 -68.9955 68.9955 18.3174 1048.161 727.3329)">
		<stop  offset="0" style="stop-color:#2956B8"/>
		<stop  offset="0.33" style="stop-color:#2A42A1"/>
		<stop  offset="0.74" style="stop-color:#2B2D8A"/>
		<stop  offset="1" style="stop-color:#2B2682"/>
	</linearGradient>
	<path class="st10" d="M1015.8,145.5h10.2c0,0,31.4-34.7,52-38.2c0,0,14.4,18.3-0.8,52.5c-1.2,2.8-4.6,4-7.2,2.4
		c-0.8-0.5-1.3-1.1-1.6-1.9l1.2-29.2c0,0-26.8,23.4-31.5,28C1033.6,163.5,1009.9,160.8,1015.8,145.5z"/>
	
		<linearGradient id="SVGID_5_" gradientUnits="userSpaceOnUse" x1="-8.2973" y1="-11.3051" x2="-7.2973" y2="-11.3051" gradientTransform="matrix(33.2767 24.4233 -24.4233 33.2767 1098.6687 791.636)">
		<stop  offset="0" style="stop-color:#333333"/>
		<stop  offset="1" style="stop-color:#000000"/>
	</linearGradient>
	<path class="st11" d="M1114.8,218.4c-4.3-3.8-11.1-8-21-9.2l-3.3,2c0,0,2.1,3.1,6,6.5c3.6,2.1,9.1,4.9,13.7,5.5
		C1114.6,223.8,1115.2,221.1,1114.8,218.4z"/>
	
		<linearGradient id="SVGID_6_" gradientUnits="userSpaceOnUse" x1="7.7424" y1="-2.6055" x2="8.7424" y2="-2.6055" gradientTransform="matrix(22.5916 -67.164 67.164 22.5916 1080.4375 748.9946)">
		<stop  offset="0" style="stop-color:#333333"/>
		<stop  offset="1" style="stop-color:#000000"/>
	</linearGradient>
	<path class="st12" d="M1089.4,171.1c-2.6,0.9-3.8,4.6-10.5,2.1c-6.5-2.4-11.3-5.5-13.8-7.3c-0.1,0.5-0.1,1-0.1,1.5
		c0,0,11.9,11.3,27.1,13.7c1.1,0.2,2-1,1.6-2C1093,177.2,1091.6,174.3,1089.4,171.1z"/>
	
		<linearGradient id="SVGID_7_" gradientUnits="userSpaceOnUse" x1="7.7424" y1="-2.6049" x2="8.7424" y2="-2.6049" gradientTransform="matrix(22.5916 -67.164 67.164 22.5916 1120.0391 762.1977)">
		<stop  offset="0" style="stop-color:#333333"/>
		<stop  offset="1" style="stop-color:#000000"/>
	</linearGradient>
	<path class="st13" d="M1118,221.6c-0.8-1-1.9-2.1-3.2-3.2c0.5,2.7-0.2,5.4-4.7,4.8c-4.6-0.6-10.1-3.4-13.7-5.5
		c4.5,3.8,11.3,7.9,19.9,7.6C1118.3,225.3,1119.3,223,1118,221.6z"/>
	
		<linearGradient id="SVGID_8_" gradientUnits="userSpaceOnUse" x1="-2.742" y1="7.2696" x2="-1.742" y2="7.2696" gradientTransform="matrix(-69.7092 26.2937 -26.2937 -69.7092 1099.1018 745.3695)">
		<stop  offset="0" style="stop-color:#2B3582"/>
		<stop  offset="1" style="stop-color:#150E42"/>
	</linearGradient>
	<path class="st14" d="M1016.2,152.9l48,0.5c0,0,27.4,22.7,32.4,57.2c0,0,0.8,2.5-4.1,3c0,0-16.6-10.8-27.4-29.9
		c-13.2-23.4-34.5-15.1-34.5-15.1c-25.8,8.8-34.7-4.3-34.9-7.4L1016.2,152.9z"/>
	
		<linearGradient id="SVGID_9_" gradientUnits="userSpaceOnUse" x1="-12.6211" y1="10.6147" x2="-11.6211" y2="10.6147" gradientTransform="matrix(-22.5915 26.8656 -26.8656 -22.5915 1044.9719 701.4195)">
		<stop  offset="0" style="stop-color:#FCDEB3"/>
		<stop  offset="1" style="stop-color:#F9C476"/>
	</linearGradient>
	<path class="st15" d="M1017.3,114.3c0,0,5.2,25.9,30.5,36.1l9-1.1l2.1,3.4l-21.1,0.7c0,0-18-7.1-27.6-26.6
		C1009.8,126.1,1004.6,115.3,1017.3,114.3z"/>
	
		<linearGradient id="SVGID_10_" gradientUnits="userSpaceOnUse" x1="-2.2051" y1="-1.2434" x2="-1.2051" y2="-1.2434" gradientTransform="matrix(112.2753 199.2331 -199.2331 112.2753 974.5725 662.4296)">
		<stop  offset="0" style="stop-color:#3FCEFC"/>
		<stop  offset="1" style="stop-color:#4C246D"/>
	</linearGradient>
	<path class="st16" d="M1020.1,152.5c0,0-5.9-16-7.1-31.5c0,0,4.3-3.7,7-5.3c0.9-0.5,1.2-1.6,0.8-2.5c-2-4.1-13.9-20.1-14.8-20.4
		c-4.9-1.2-24.8-10.7-38.8,8.5c-6,8.2,1.2,33.6,28.5,59.9l0.9,0.2c3.1,0.6,6.2,0.1,9-1.3L1020.1,152.5z"/>
	
		<linearGradient id="SVGID_11_" gradientUnits="userSpaceOnUse" x1="6.1069" y1="-4.4646" x2="7.1069" y2="-4.4646" gradientTransform="matrix(45.1568 -61.777 61.777 45.1568 1018.5576 725.8847)">
		<stop  offset="0" style="stop-color:#F9C476"/>
		<stop  offset="1" style="stop-color:#F6966A"/>
	</linearGradient>
	<path class="st17" d="M997.4,124.5c0,0,16.3,19.3,37.2,22.1c0,0,5.4-4.9,9.4-3.2c4,1.8,9.5,9.5,9.5,9.5h-26.8c0,0-25.3-0.9-38-16.2
		C989.8,131.4,992.8,128.2,997.4,124.5z"/>
	
		<linearGradient id="SVGID_12_" gradientUnits="userSpaceOnUse" x1="38.1957" y1="-4.2496" x2="39.1957" y2="-4.2496" gradientTransform="matrix(1.6632 -14.9699 14.9699 1.6632 990.9586 674.6994)">
		<stop  offset="0" style="stop-color:#FCDEB3"/>
		<stop  offset="1" style="stop-color:#F9C476"/>
	</linearGradient>
	<path class="st18" d="M987.9,79.3l-3.6,11.9c-0.2,0.5,0,1.1,0.5,1.5c1.7,1.2,6.2,3.5,12.4,1.2c0.7-0.3,1.2-0.9,1.2-1.7l0.8-10.4
		L987.9,79.3z"/>
	<g>
		
			<linearGradient id="SVGID_13_" gradientUnits="userSpaceOnUse" x1="21.923" y1="6.6489" x2="22.923" y2="6.6489" gradientTransform="matrix(-7.3314 -24.1807 24.1807 -7.3314 999.754 661.6175)">
			<stop  offset="0" style="stop-color:#FCDEB3"/>
			<stop  offset="1" style="stop-color:#F9C476"/>
		</linearGradient>
		<path class="st19" d="M1008.8,69.7c0,0-1.8,12.3-6.5,16.1s-14,0.9-17.1-8.4l6.2-15.9L1008.8,69.7z"/>
		
			<linearGradient id="SVGID_14_" gradientUnits="userSpaceOnUse" x1="-14.4448" y1="-2.5365" x2="-13.4448" y2="-2.5365" gradientTransform="matrix(6.8162 38.8777 -38.8777 6.8162 993.1569 617.1734)">
			<stop  offset="0" style="stop-color:#666666"/>
			<stop  offset="1" style="stop-color:#000000"/>
		</linearGradient>
		<path class="st20" d="M990.8,71.8c0.4,0.1,0.7-0.1,0.8-0.5c0.2-1.1,0.6-3.4,1.5-4.9c0,0-0.5-1.6,4.1,0.8s11.4,6,15.4,3.9
			c3.9-2.1,7.9-12.6-2.5-10.6c-0.4,0.1-0.8-0.2-0.7-0.6c0.1-1.7,0-5.7-4.1-7c-3.8-1.2-5.8,0.5-6.7,1.5c-0.2,0.3-0.7,0.3-0.9,0
			c-1.1-1.5-4.2-4.6-8.7-2.6c-3.7,1.6-4.3,3.9-4.2,5.3c0,0.5-0.4,0.8-0.9,0.6c-1.1-0.5-3-0.8-4.7,1.4c-2.4,3,1,5.7,2.1,6.3
			c0.2,0.1,0.3,0.3,0.3,0.5c0,1.6,0.3,8.5,3.7,12.3c0.3,0.3,0.9,0.2,1-0.2l2.7-6.3c0.1-0.3,0.5-0.4,0.8-0.3L990.8,71.8z"/>
		
			<linearGradient id="SVGID_15_" gradientUnits="userSpaceOnUse" x1="21.9232" y1="6.6439" x2="22.9232" y2="6.6439" gradientTransform="matrix(-7.3314 -24.1804 24.1804 -7.3314 992.3101 663.9202)">
			<stop  offset="0" style="stop-color:#FCDEB3"/>
			<stop  offset="1" style="stop-color:#F9C476"/>
		</linearGradient>
		<path class="st21" d="M990.8,73.1c0,0-1.6-6.6-4.1-4.5s0.6,6.9,3.5,7.8L990.8,73.1z"/>
	</g>
	
		<linearGradient id="SVGID_16_" gradientUnits="userSpaceOnUse" x1="-3.595323e-05" y1="-16.8432" x2="0.9999" y2="-16.8432" gradientTransform="matrix(34.3621 0 0 34.3621 1052.1566 711.8208)">
		<stop  offset="0" style="stop-color:#4D4D4D"/>
		<stop  offset="0.61" style="stop-color:#1A1A1A"/>
		<stop  offset="1" style="stop-color:#1A1A1A"/>
	</linearGradient>
	<path class="st22" d="M1052.2,154.5l12-40.1c0.5-1.6,1.9-2.8,3.6-2.9l16.2-1.1c1.7-0.1,2.9,1.5,2.3,3.1l-13.4,38.3
		c-0.4,1.2-1.5,2.1-2.8,2.2l-16,1.8L1052.2,154.5z"/>
	
		<linearGradient id="SVGID_17_" gradientUnits="userSpaceOnUse" x1="-5.3705" y1="19.5943" x2="-4.3705" y2="19.5943" gradientTransform="matrix(-27.4762 7.5305 -7.5305 -27.4762 1056.2911 726.8586)">
		<stop  offset="0" style="stop-color:#4D4D4D"/>
		<stop  offset="0.61" style="stop-color:#1A1A1A"/>
		<stop  offset="1" style="stop-color:#1A1A1A"/>
	</linearGradient>
	<path class="st23" d="M1054.1,155.7L1054.1,155.7L1020,154c-0.8,0-1.5-0.8-1.4-1.6c0-0.8,0.8-1.5,1.6-1.4l34.1,1.7
		c0.8,0,1.5,0.8,1.4,1.6C1055.6,155.1,1054.9,155.7,1054.1,155.7z"/>
	
		<linearGradient id="SVGID_18_" gradientUnits="userSpaceOnUse" x1="-6.181" y1="3.6321" x2="-5.181" y2="3.6321" gradientTransform="matrix(-40.909 69.6063 -69.6063 -40.909 1034.3156 652.6531)">
		<stop  offset="0" style="stop-color:#2B3582"/>
		<stop  offset="1" style="stop-color:#150E42"/>
	</linearGradient>
	<path class="st24" d="M1012.9,121.3c-0.2,0-0.3-0.1-0.3-0.3c0-7.1-2.7-16.5-2.7-16.6c0-0.2,0-0.3,0.2-0.4c0.2,0,0.3,0,0.4,0.2
		c0,0.1,2.8,9.6,2.8,16.8C1013.2,121.2,1013.1,121.3,1012.9,121.3z"/>
	
		<linearGradient id="SVGID_19_" gradientUnits="userSpaceOnUse" x1="-6.181" y1="3.6335" x2="-5.181" y2="3.6335" gradientTransform="matrix(-40.9089 69.6063 -69.6063 -40.9089 1021.9094 645.2423)">
		<stop  offset="0" style="stop-color:#2B3582"/>
		<stop  offset="1" style="stop-color:#150E42"/>
	</linearGradient>
	<path class="st25" d="M997.4,124.8c-0.1,0-0.2,0-0.2-0.1c-0.1-0.1-7.5-9.6-10.1-16.1c-0.1-0.2,0-0.3,0.2-0.4c0.2-0.1,0.3,0,0.4,0.2
		c2.5,6.4,9.9,15.8,10,15.9c0.1,0.1,0.1,0.3,0,0.4C997.6,124.8,997.5,124.8,997.4,124.8z"/>
	
		<linearGradient id="SVGID_20_" gradientUnits="userSpaceOnUse" x1="-6.181" y1="3.6318" x2="-5.181" y2="3.6318" gradientTransform="matrix(-40.9085 69.6055 -69.6055 -40.9085 1017.3281 642.4985)">
		<stop  offset="0" style="stop-color:#2B3582"/>
		<stop  offset="1" style="stop-color:#150E42"/>
	</linearGradient>
	<path class="st26" d="M987,139.3l-0.2-0.1c-10.8-4.6-17.4-17.5-17.5-17.6s0-0.3,0.1-0.4c0.1-0.1,0.3,0,0.4,0.1
		c0.1,0.1,6.5,12.6,17,17.2l1.1-1.5c0.1-0.1,0.3-0.2,0.4-0.1c0.1,0.1,0.2,0.3,0.1,0.4L987,139.3z"/>
	<path class="st27" d="M732.9,163.1c23,0.9,48.9,13.2,53.5,37.8c3.9,20.9-17.3,34-30.7,40.5c-3.7,1.8-6.6,4.9-8.2,8.8
		c-3.8,9.2-13,25.3-29.8,21.7c-1.2-0.3-1.3-2,0-2.3c3.8-1,9.1-3.3,11.6-8c3.5-6.4-1-14.3-8.2-14.9c-13.8-1.1-41-7.5-47.6-39
		C664.5,164.9,732.9,163.1,732.9,163.1z"/>
	<g>
		<g>
			<path class="st4" d="M746.5,110.2l-2,0.9l0,0c-0.3,0.1-0.7,0-0.8-0.3s0-0.7,0.3-0.8l2-0.9c0.3-0.1,0.7,0,0.8,0.3
				C747,109.7,746.8,110.1,746.5,110.2L746.5,110.2z"/>
			<path class="st4" d="M740,113.4l-1.9,1l0,0c-0.3,0.2-0.7,0-0.9-0.3s0-0.7,0.3-0.9l1.9-1c0.3-0.2,0.7,0,0.9,0.3
				C740.4,112.8,740.3,113.2,740,113.4L740,113.4z"/>
			<path class="st4" d="M733.6,116.9l-1.9,1.1l0,0c-0.3,0.2-0.7,0.1-0.9-0.2s-0.1-0.7,0.2-0.9l1.9-1.1c0.3-0.2,0.7-0.1,0.9,0.2
				S733.9,116.7,733.6,116.9L733.6,116.9z"/>
			<path class="st4" d="M727.5,120.7l-1.8,1.2l0,0c-0.3,0.2-0.7,0.1-0.9-0.2s-0.1-0.7,0.2-0.9l1.8-1.2c0.3-0.2,0.7-0.1,0.9,0.2
				C727.9,120.1,727.8,120.5,727.5,120.7L727.5,120.7z"/>
			<path class="st4" d="M721.6,124.9l-1.7,1.3l0,0c-0.3,0.2-0.7,0.2-1-0.1c-0.2-0.3-0.2-0.7,0.1-1l1.7-1.3c0.3-0.2,0.7-0.2,0.9,0.1
				C721.9,124.3,721.9,124.7,721.6,124.9L721.6,124.9z"/>
			<path class="st4" d="M715.9,129.5l-1.6,1.4l0,0c-0.3,0.2-0.7,0.2-1-0.1c-0.2-0.3-0.2-0.7,0.1-1l1.7-1.4c0.3-0.2,0.7-0.2,1,0.1
				C716.3,128.8,716.2,129.2,715.9,129.5z"/>
			<path class="st4" d="M710.5,134.3l-1.6,1.5l0,0c-0.3,0.3-0.7,0.3-1,0s-0.3-0.7,0-1l1.6-1.5c0.3-0.3,0.7-0.3,1,0
				C710.8,133.6,710.8,134,710.5,134.3z"/>
			<path class="st4" d="M705.4,139.5l-1.5,1.6l0,0c-0.3,0.3-0.7,0.3-1,0s-0.3-0.7,0-1l1.5-1.6c0.3-0.3,0.7-0.3,1,0
				C705.7,138.7,705.7,139.2,705.4,139.5z"/>
			<path class="st4" d="M700.6,144.9l-1.4,1.7l0,0c-0.3,0.3-0.7,0.4-1,0.1c-0.3-0.3-0.4-0.7-0.1-1l1.4-1.7c0.3-0.3,0.7-0.4,1-0.1
				C700.8,144.1,700.9,144.6,700.6,144.9L700.6,144.9z"/>
			<path class="st4" d="M696.1,150.6l-1.3,1.8l0,0c-0.2,0.3-0.7,0.4-1,0.2s-0.4-0.7-0.2-1l1.3-1.8c0.2-0.3,0.7-0.4,1-0.2
				C696.3,149.8,696.4,150.2,696.1,150.6L696.1,150.6z"/>
			<path class="st4" d="M691.9,156.5l-1.2,1.8l0,0c-0.2,0.4-0.7,0.5-1.1,0.2c-0.4-0.2-0.5-0.7-0.2-1.1l1.2-1.8
				c0.2-0.3,0.7-0.4,1.1-0.2C692.1,155.7,692.2,156.1,691.9,156.5L691.9,156.5z"/>
			<path class="st4" d="M688.1,162.6l-1.1,1.9l0,0c-0.2,0.4-0.7,0.5-1.1,0.3s-0.5-0.7-0.3-1.1l1.1-1.9c0.2-0.4,0.7-0.5,1.1-0.3
				C688.1,161.8,688.3,162.3,688.1,162.6z"/>
			<path class="st4" d="M684.5,169l-1,1.9l0,0c-0.2,0.4-0.7,0.5-1.1,0.3c-0.4-0.2-0.5-0.7-0.3-1.1l1-2c0.2-0.4,0.7-0.5,1.1-0.3
				C684.6,168.1,684.8,168.6,684.5,169L684.5,169z"/>
			<path class="st4" d="M681.4,175.5l-0.9,2l0,0c-0.2,0.4-0.7,0.6-1.1,0.4c-0.4-0.2-0.6-0.7-0.4-1.1l0.9-2c0.2-0.4,0.7-0.6,1.1-0.4
				S681.6,175.1,681.4,175.5L681.4,175.5z"/>
			<path class="st4" d="M678.6,182.2l-0.8,2l0,0c-0.2,0.4-0.6,0.6-1.1,0.5c-0.4-0.2-0.6-0.6-0.5-1.1l0.8-2.1c0.2-0.4,0.6-0.6,1-0.5
				C678.6,181.3,678.8,181.8,678.6,182.2L678.6,182.2z"/>
			<path class="st4" d="M676.2,189l-0.6,2.1l0,0c-0.1,0.4-0.6,0.7-1,0.6c-0.4-0.1-0.7-0.6-0.6-1l0.7-2.1c0.1-0.4,0.6-0.7,1-0.5
				C676.1,188.1,676.4,188.6,676.2,189L676.2,189z"/>
			<path class="st4" d="M674.3,196l-0.5,2.1l0,0c-0.1,0.5-0.6,0.7-1,0.6s-0.7-0.6-0.6-1l0.5-2.1c0.1-0.5,0.6-0.7,1-0.6
				S674.4,195.5,674.3,196L674.3,196z"/>
			<path class="st4" d="M672.7,203.1l-0.4,2.1l0,0c-0.1,0.5-0.5,0.8-1,0.7s-0.8-0.5-0.7-1l0.4-2.2c0.1-0.5,0.5-0.8,1-0.7
				C672.5,202.1,672.8,202.6,672.7,203.1L672.7,203.1z"/>
			<path class="st4" d="M671.6,210.2l-0.2,2.2l0,0c-0.1,0.5-0.5,0.8-1,0.8c-0.5-0.1-0.8-0.5-0.8-1l0.3-2.2c0.1-0.5,0.5-0.8,1-0.8
				C671.3,209.3,671.7,209.7,671.6,210.2L671.6,210.2z"/>
			<path class="st4" d="M670.9,217.4l-0.1,2.2l0,0c0,0.5-0.4,0.9-0.9,0.8c-0.5,0-0.9-0.4-0.8-0.9l0.1-2.2c0-0.5,0.4-0.9,0.9-0.8
				C670.6,216.5,670.9,216.9,670.9,217.4L670.9,217.4z"/>
			<path class="st4" d="M670.7,224.6v2.2l0,0c0,0.5-0.4,0.9-0.9,0.9s-0.9-0.4-0.9-0.9v-2.2c0-0.5,0.4-0.9,0.9-0.9
				S670.7,224.1,670.7,224.6L670.7,224.6L670.7,224.6z"/>
			<path class="st4" d="M670.8,231.9l0.1,2.2l0,0c0,0.5-0.3,0.9-0.8,0.9s-0.9-0.3-0.9-0.8l-0.1-2.2c0-0.5,0.3-0.9,0.8-0.9
				C670.4,231,670.8,231.4,670.8,231.9L670.8,231.9z"/>
			<path class="st4" d="M671.4,239.1l0.3,2.2l0,0c0.1,0.5-0.3,0.9-0.8,1s-0.9-0.3-1-0.8l-0.3-2.2c-0.1-0.5,0.3-0.9,0.8-1
				C670.9,238.2,671.3,238.6,671.4,239.1L671.4,239.1z"/>
			<path class="st4" d="M672.4,246.3l0.4,2.1l0,0c0.1,0.5-0.2,1-0.7,1c-0.5,0.1-1-0.2-1-0.7l-0.4-2.2c-0.1-0.5,0.2-1,0.7-1
				C671.8,245.4,672.3,245.7,672.4,246.3L672.4,246.3z"/>
			<path class="st4" d="M673.7,253.4l0.5,2.1l0,0c0.1,0.5-0.2,1-0.7,1.1s-1-0.2-1.1-0.7l-0.5-2.1c-0.1-0.5,0.2-1,0.7-1.1
				C673.1,252.6,673.6,252.9,673.7,253.4L673.7,253.4z"/>
			<path class="st4" d="M675.5,260.4l0.6,2.1l0,0c0.1,0.5-0.1,1-0.6,1.1s-1-0.1-1.1-0.6l-0.6-2.1c-0.1-0.5,0.1-1,0.6-1.1
				C674.9,259.6,675.4,259.9,675.5,260.4L675.5,260.4z"/>
			<path class="st4" d="M677.7,267.3l0.7,2l0,0c0.2,0.5-0.1,1-0.6,1.2s-1-0.1-1.2-0.6l-0.7-2.1c-0.2-0.5,0.1-1,0.6-1.2
				S677.5,266.8,677.7,267.3L677.7,267.3z"/>
			<path class="st4" d="M680.2,274.1l0.8,2l0,0c0.2,0.5,0,1-0.5,1.2s-1,0-1.2-0.5l-0.8-2c-0.2-0.5,0-1,0.5-1.2
				S680,273.6,680.2,274.1L680.2,274.1z"/>
			<path class="st4" d="M683.1,280.7l0.9,2l0,0c0.2,0.5,0,1-0.4,1.2c-0.5,0.2-1,0-1.2-0.4l-0.9-2c-0.2-0.5,0-1,0.4-1.2
				C682.3,280,682.9,280.2,683.1,280.7L683.1,280.7z"/>
			<path class="st4" d="M686.4,287.2l1,1.9l0,0c0.2,0.5,0.1,1-0.4,1.3c-0.5,0.2-1,0.1-1.3-0.4l-1.1-1.9c-0.2-0.5-0.1-1,0.4-1.3
				C685.5,286.6,686.1,286.7,686.4,287.2L686.4,287.2z"/>
			<path class="st4" d="M690,293.4l1.2,1.8l0,0c0.3,0.4,0.1,1-0.3,1.3s-1,0.1-1.3-0.3l-1.2-1.9c-0.3-0.4-0.1-1,0.3-1.3
				C689.1,292.9,689.7,293,690,293.4L690,293.4z"/>
			<path class="st4" d="M694,299.5l1.3,1.8l0,0c0.3,0.4,0.2,1-0.2,1.3s-1,0.2-1.3-0.2l-1.3-1.8c-0.3-0.4-0.2-1,0.2-1.3
				C693.1,299,693.6,299.1,694,299.5L694,299.5z"/>
			<path class="st4" d="M698.3,305.3l1.4,1.7l0,0c0.3,0.4,0.3,1-0.1,1.3c-0.4,0.3-1,0.3-1.3-0.1l-1.4-1.7c-0.3-0.4-0.3-1,0.1-1.3
				C697.3,304.8,697.9,304.9,698.3,305.3L698.3,305.3z"/>
			<path class="st4" d="M702.9,310.9l1.5,1.6l0,0c0.4,0.4,0.3,1-0.1,1.4c-0.4,0.4-1,0.3-1.4-0.1l-1.5-1.6c-0.4-0.4-0.3-1,0.1-1.3
				C701.9,310.4,702.5,310.5,702.9,310.9L702.9,310.9z"/>
			<path class="st4" d="M707.9,316.1l1.5,1.5l0,0c0.4,0.4,0.4,1,0,1.4s-1,0.4-1.4,0l-1.6-1.5c-0.4-0.4-0.4-1,0-1.4
				C706.8,315.8,707.5,315.8,707.9,316.1L707.9,316.1z"/>
			<path class="st4" d="M713.1,321.1l1.6,1.4l0,0c0.4,0.3,0.4,1,0.1,1.4c-0.3,0.4-1,0.4-1.4,0.1l-1.7-1.4c-0.4-0.3-0.4-1-0.1-1.4
				S712.7,320.7,713.1,321.1L713.1,321.1z"/>
			<path class="st4" d="M718.7,325.7l1.7,1.3l0,0c0.4,0.3,0.5,0.9,0.2,1.4c-0.3,0.4-0.9,0.5-1.4,0.2l-1.7-1.4
				c-0.4-0.3-0.5-0.9-0.2-1.4C717.6,325.5,718.2,325.4,718.7,325.7L718.7,325.7z"/>
			<path class="st4" d="M724.5,330l1.8,1.2l0,0c0.4,0.3,0.6,0.9,0.2,1.4c-0.3,0.4-0.9,0.6-1.4,0.2l-1.8-1.3
				c-0.4-0.3-0.6-0.9-0.2-1.4C723.4,329.8,724,329.7,724.5,330L724.5,330z"/>
			<path class="st4" d="M730.5,334l1.8,1.1l0,0c0.5,0.3,0.6,0.9,0.3,1.3c-0.3,0.5-0.9,0.6-1.3,0.3l-1.9-1.2
				c-0.5-0.3-0.6-0.9-0.3-1.3C729.4,333.9,730,333.7,730.5,334L730.5,334z"/>
			<path class="st4" d="M736.8,337.7l1.9,1l0,0c0.5,0.3,0.7,0.9,0.4,1.3c-0.3,0.5-0.9,0.7-1.3,0.4l-1.9-1.1
				c-0.5-0.3-0.7-0.9-0.4-1.3C735.7,337.6,736.3,337.4,736.8,337.7L736.8,337.7z"/>
			<path class="st4" d="M743.2,341l2,0.9l0,0c0.5,0.2,0.7,0.8,0.5,1.3s-0.8,0.7-1.3,0.5l-2-1c-0.5-0.2-0.7-0.8-0.5-1.3
				C742.1,341,742.7,340.8,743.2,341L743.2,341z"/>
			<path class="st4" d="M749.8,344.1l2,0.8l0,0c0.5,0.2,0.7,0.8,0.5,1.3s-0.8,0.7-1.3,0.5l-2-0.9c-0.5-0.2-0.7-0.8-0.5-1.3
				C748.7,344.1,749.2,343.8,749.8,344.1L749.8,344.1z"/>
			<path class="st4" d="M756.5,346.8l2,0.7l0,0c0.5,0.2,0.8,0.8,0.6,1.3s-0.8,0.8-1.3,0.6l-2.1-0.8c-0.5-0.2-0.8-0.8-0.6-1.3
				C755.4,346.8,756,346.6,756.5,346.8L756.5,346.8z"/>
			<path class="st4" d="M763.3,349.1l2.1,0.7l0,0c0.5,0.2,0.8,0.7,0.7,1.3c-0.2,0.5-0.7,0.8-1.3,0.7l-2.1-0.7
				c-0.5-0.2-0.8-0.7-0.7-1.3C762.2,349.3,762.8,349,763.3,349.1L763.3,349.1z"/>
			<path class="st4" d="M770.3,351.2l2.1,0.6l0,0c0.5,0.1,0.9,0.7,0.7,1.2c-0.1,0.5-0.7,0.9-1.2,0.7l-2.1-0.6
				c-0.5-0.1-0.9-0.7-0.7-1.2C769.2,351.4,769.7,351,770.3,351.2L770.3,351.2z"/>
			<path class="st4" d="M777.3,352.9l2.1,0.5l0,0c0.5,0.1,0.9,0.7,0.8,1.2c-0.1,0.5-0.7,0.9-1.2,0.8l-2.1-0.5
				c-0.5-0.1-0.9-0.7-0.8-1.2S776.7,352.8,777.3,352.9L777.3,352.9z"/>
			<path class="st4" d="M784.4,354.4l2.1,0.4l0,0c0.6,0.1,0.9,0.6,0.8,1.2c-0.1,0.6-0.6,0.9-1.2,0.8l-2.2-0.4
				c-0.6-0.1-0.9-0.6-0.8-1.2C783.3,354.7,783.8,354.3,784.4,354.4z"/>
			<path class="st4" d="M791.6,355.5l2.2,0.3l0,0c0.6,0.1,1,0.6,0.9,1.1c-0.1,0.6-0.6,1-1.1,0.9l-2.2-0.3c-0.6-0.1-0.9-0.6-0.9-1.1
				S791,355.5,791.6,355.5L791.6,355.5z"/>
			<path class="st4" d="M798.8,356.4l2.2,0.2l0,0c0.6,0,1,0.6,0.9,1.1c0,0.6-0.6,1-1.1,0.9l-2.2-0.2c-0.6,0-1-0.6-0.9-1.1
				C797.7,356.7,798.2,356.3,798.8,356.4L798.8,356.4z"/>
			<path class="st4" d="M806,356.9l2.2,0.1l0,0c0.6,0,1,0.5,1,1.1s-0.5,1-1.1,1l-2.2-0.1c-0.6,0-1-0.5-1-1.1
				C804.9,357.3,805.4,356.9,806,356.9L806,356.9z"/>
			<path class="st4" d="M813.2,357.2h2.2l0,0c0.6,0,1,0.5,1,1c0,0.6-0.5,1-1,1h-2.2c-0.6,0-1-0.5-1-1
				C812.2,357.6,812.7,357.2,813.2,357.2L813.2,357.2z"/>
			<path class="st4" d="M820.5,357.2l2.2-0.1l0,0c0.6,0,1.1,0.4,1.1,1s-0.4,1.1-1,1.1l-2.2,0.1c-0.6,0-1.1-0.4-1.1-1
				C819.5,357.6,819.9,357.2,820.5,357.2L820.5,357.2z"/>
			<path class="st4" d="M827.7,356.8l2.2-0.1l0,0c0.6,0,1.1,0.4,1.1,1s-0.4,1.1-1,1.1l-2.2,0.1c-0.6,0-1.1-0.4-1.1-1
				C826.7,357.4,827.1,356.9,827.7,356.8L827.7,356.8z"/>
			<path class="st4" d="M835,356.3l2.2-0.2l0,0c0.6-0.1,1.1,0.4,1.1,0.9s-0.4,1.1-0.9,1.1l-2.2,0.2c-0.6,0.1-1.1-0.4-1.1-0.9
				C834,356.9,834.4,356.3,835,356.3L835,356.3z"/>
			<path class="st4" d="M842.2,355.5l2.2-0.3l0,0c0.6-0.1,1.1,0.3,1.2,0.9c0.1,0.6-0.3,1.1-0.9,1.2l-2.2,0.3
				c-0.6,0.1-1.1-0.3-1.2-0.9C841.2,356.1,841.6,355.6,842.2,355.5L842.2,355.5z"/>
			<path class="st4" d="M849.4,354.5l2.1-0.4l0,0c0.6-0.1,1.1,0.3,1.2,0.9c0.1,0.6-0.3,1.1-0.9,1.2l-2.2,0.4
				c-0.6,0.1-1.1-0.3-1.2-0.9C848.4,355.1,848.8,354.5,849.4,354.5L849.4,354.5z"/>
			<path class="st4" d="M856.5,353.2l2.1-0.4l0,0c0.6-0.1,1.1,0.3,1.3,0.8c0.1,0.6-0.3,1.1-0.8,1.3l-2.2,0.4
				c-0.6,0.1-1.1-0.3-1.2-0.8C855.6,353.9,855.9,353.3,856.5,353.2L856.5,353.2z"/>
			<path class="st4" d="M863.6,351.7l2.1-0.5l0,0c0.6-0.1,1.1,0.2,1.3,0.8c0.1,0.6-0.2,1.1-0.8,1.3l-2.1,0.5
				c-0.6,0.1-1.1-0.2-1.3-0.8C862.7,352.4,863,351.8,863.6,351.7L863.6,351.7z"/>
			<path class="st4" d="M870.7,350l2.1-0.5l0,0c0.6-0.1,1.2,0.2,1.3,0.8s-0.2,1.2-0.8,1.3l-2.1,0.5c-0.6,0.1-1.2-0.2-1.3-0.8
				C869.7,350.8,870.1,350.2,870.7,350L870.7,350z"/>
			<path class="st4" d="M877.7,348.1l2.1-0.6l0,0c0.6-0.2,1.2,0.2,1.3,0.7c0.2,0.6-0.2,1.2-0.7,1.3l-2.1,0.6
				c-0.6,0.2-1.2-0.2-1.3-0.7C876.8,348.9,877.1,348.3,877.7,348.1z"/>
			<path class="st4" d="M884.7,346.1l2.1-0.7l0,0c0.6-0.2,1.2,0.1,1.4,0.7c0.2,0.6-0.1,1.2-0.7,1.4l-2.1,0.7
				c-0.6,0.2-1.2-0.1-1.4-0.7S884.1,346.3,884.7,346.1z"/>
			<path class="st4" d="M891.6,343.8l2.1-0.7l0,0c0.6-0.2,1.2,0.1,1.4,0.7c0.2,0.6-0.1,1.2-0.7,1.4l-2.1,0.7
				c-0.6,0.2-1.2-0.1-1.4-0.7C890.7,344.7,891,344,891.6,343.8z"/>
			<path class="st4" d="M898.4,341.4l2-0.8l0,0c0.6-0.2,1.2,0.1,1.4,0.7c0.2,0.6-0.1,1.2-0.7,1.4l-2.1,0.8c-0.6,0.2-1.2-0.1-1.4-0.7
				C897.6,342.3,897.8,341.7,898.4,341.4z"/>
			<path class="st4" d="M905.2,338.9l2-0.8l0,0c0.6-0.2,1.2,0.1,1.4,0.6c0.2,0.6-0.1,1.2-0.6,1.4l-2,0.8c-0.6,0.2-1.2-0.1-1.4-0.6
				C904.4,339.7,904.7,339.1,905.2,338.9z"/>
			<path class="st4" d="M912,336.2l2-0.8l0,0c0.6-0.2,1.2,0,1.4,0.6s0,1.2-0.6,1.4l-2,0.8c-0.6,0.2-1.2,0-1.4-0.6
				C911.1,337.1,911.4,336.4,912,336.2z"/>
			<path class="st4" d="M918.7,333.3l2-0.9l0,0c0.6-0.2,1.2,0,1.5,0.6c0.2,0.6,0,1.2-0.6,1.5l-2,0.9c-0.6,0.2-1.2,0-1.5-0.6
				C917.8,334.2,918.1,333.6,918.7,333.3z"/>
			<path class="st4" d="M925.3,330.4l2-0.9l0,0c0.6-0.3,1.2,0,1.5,0.5c0.3,0.6,0,1.2-0.5,1.5l-2,0.9c-0.6,0.3-1.2,0-1.5-0.5
				C924.5,331.3,924.7,330.6,925.3,330.4z"/>
			<path class="st4" d="M931.9,327.3l2-0.9l0,0c0.6-0.3,1.2,0,1.5,0.5c0.3,0.6,0,1.2-0.5,1.5l-2,0.9c-0.6,0.3-1.2,0-1.5-0.5
				C931.1,328.2,931.3,327.6,931.9,327.3z"/>
			<path class="st4" d="M938.5,324.1l2-1c0.6-0.3,1.2,0,1.5,0.5c0.3,0.6,0,1.2-0.5,1.5l0,0l-2,1c-0.6,0.3-1.2,0-1.5-0.5
				S937.9,324.4,938.5,324.1z"/>
			<path class="st4" d="M945,320.9l2-1c0.6-0.3,1.2-0.1,1.5,0.5s0.1,1.2-0.5,1.5l-2,1c-0.6,0.3-1.2,0-1.5-0.5S944.4,321.2,945,320.9
				z"/>
			<path class="st4" d="M951.5,317.6l1.9-1c0.6-0.3,1.2-0.1,1.5,0.5s0.1,1.2-0.5,1.5l-2,1c-0.6,0.3-1.2,0.1-1.5-0.5
				C950.7,318.6,950.9,317.9,951.5,317.6z"/>
			<path class="st4" d="M958,314.3l1.9-1c0.6-0.3,1.2-0.1,1.5,0.5s0.1,1.2-0.5,1.5l-1.9,1c-0.6,0.3-1.2,0.1-1.5-0.5
				C957.2,315.3,957.4,314.6,958,314.3z"/>
			<path class="st4" d="M964.5,311l1.9-1c0.6-0.3,1.2-0.1,1.5,0.5s0.1,1.2-0.5,1.5l-1.9,1c-0.6,0.3-1.2,0.1-1.5-0.5
				C963.7,312,963.9,311.3,964.5,311z"/>
			<path class="st4" d="M971,307.7l2-1c0.6-0.3,1.3-0.1,1.5,0.5c0.3,0.6,0.1,1.3-0.5,1.5l-2,1c-0.6,0.3-1.3,0.1-1.5-0.5
				C970.2,308.7,970.4,308,971,307.7z"/>
			<path class="st4" d="M977.5,304.4l2-1c0.6-0.3,1.3-0.1,1.5,0.5c0.3,0.6,0.1,1.3-0.5,1.5l0,0l-2,1c-0.6,0.3-1.3,0.1-1.5-0.5
				C976.7,305.4,976.9,304.7,977.5,304.4z"/>
			<path class="st4" d="M984,301.2l2-1c0.6-0.3,1.3,0,1.5,0.5c0.3,0.6,0,1.3-0.5,1.5l0,0l-2,1c-0.6,0.3-1.3,0-1.5-0.5
				C983.2,302.1,983.5,301.4,984,301.2z"/>
			<path class="st4" d="M990.6,298l2-0.9c0.6-0.3,1.3,0,1.5,0.5c0.3,0.6,0,1.3-0.5,1.5l-2,0.9l0,0c-0.6,0.3-1.3,0-1.5-0.5
				C989.8,299,990.1,298.3,990.6,298z"/>
			<path class="st4" d="M997.2,294.9l2-0.9c0.6-0.3,1.2,0,1.5,0.6s0,1.2-0.6,1.5l-2,0.9l0,0c-0.6,0.3-1.2,0-1.5-0.6
				C996.4,295.8,996.7,295.2,997.2,294.9z"/>
			<path class="st4" d="M1003.9,291.9l2-0.9c0.6-0.2,1.2,0,1.5,0.6c0.2,0.6,0,1.2-0.6,1.5l-2,0.9l0,0c-0.6,0.2-1.2,0-1.5-0.6
				C1003.1,292.8,1003.3,292.2,1003.9,291.9z"/>
			<path class="st4" d="M1010.6,289l2-0.8c0.6-0.2,1.2,0,1.5,0.6c0.2,0.6,0,1.2-0.6,1.5l0,0l-2,0.8l0,0c-0.6,0.2-1.2,0-1.5-0.6
				C1009.8,289.9,1010.1,289.3,1010.6,289z"/>
			<path class="st4" d="M1017.4,286.3l2-0.8c0.6-0.2,1.2,0.1,1.4,0.6c0.2,0.6-0.1,1.2-0.6,1.4l0,0l-2,0.8l0,0
				c-0.6,0.2-1.2-0.1-1.4-0.6C1016.6,287.2,1016.9,286.5,1017.4,286.3z"/>
			<path class="st4" d="M1024.3,283.7l2.1-0.7c0.6-0.2,1.2,0.1,1.4,0.7c0.2,0.6-0.1,1.2-0.7,1.4l0,0l-2,0.7l0,0
				c-0.6,0.2-1.2-0.1-1.4-0.7C1023.4,284.6,1023.7,283.9,1024.3,283.7z"/>
			<path class="st4" d="M1031.2,281.4l2.1-0.7c0.6-0.2,1.2,0.1,1.4,0.7c0.2,0.6-0.1,1.2-0.7,1.4l0,0l-2.1,0.7l0,0
				c-0.6,0.2-1.2-0.1-1.4-0.7C1030.3,282.2,1030.6,281.5,1031.2,281.4z"/>
			<path class="st4" d="M1038.2,279.2l2.1-0.6c0.6-0.2,1.2,0.2,1.3,0.7c0.2,0.6-0.2,1.2-0.7,1.3l0,0l-2.1,0.6l0,0
				c-0.6,0.2-1.2-0.2-1.3-0.7C1037.3,280,1037.6,279.4,1038.2,279.2z"/>
			<path class="st4" d="M1045.3,277.2l2.1-0.5c0.6-0.1,1.1,0.2,1.3,0.8c0.1,0.6-0.2,1.1-0.8,1.3l0,0l-2.1,0.5l0,0
				c-0.6,0.1-1.1-0.2-1.3-0.8C1044.3,278,1044.7,277.4,1045.3,277.2z"/>
			<path class="st4" d="M1052.4,275.6l2.1-0.5c0.6-0.1,1.1,0.2,1.2,0.8s-0.2,1.1-0.8,1.2l0,0l-2.1,0.5l0,0c-0.6,0.1-1.1-0.2-1.3-0.8
				C1051.5,276.2,1051.8,275.7,1052.4,275.6z"/>
			<path class="st4" d="M1059.6,274.1l2.2-0.4c0.6-0.1,1.1,0.3,1.2,0.8c0.1,0.6-0.3,1.1-0.8,1.2l0,0l-2.1,0.4l0,0
				c-0.6,0.1-1.1-0.3-1.2-0.8C1058.6,274.8,1059,274.2,1059.6,274.1z"/>
			<path class="st4" d="M1066.8,272.9l2.2-0.3c0.6-0.1,1.1,0.3,1.2,0.9c0.1,0.6-0.3,1.1-0.9,1.2l0,0l-2.2,0.3l0,0
				c-0.6,0.1-1.1-0.3-1.2-0.9C1065.9,273.5,1066.3,273,1066.8,272.9z"/>
			<path class="st4" d="M1074.1,272.1l2.2-0.2c0.6,0,1.1,0.4,1.1,0.9c0,0.6-0.4,1.1-0.9,1.1l0,0l-2.2,0.2l0,0
				c-0.6,0-1.1-0.4-1.1-0.9C1073.1,272.6,1073.5,272.1,1074.1,272.1z"/>
			<path class="st4" d="M1081.4,271.5l2.2-0.1c0.6,0,1,0.4,1,1s-0.4,1-1,1l0,0l-2.2,0.1l0,0c-0.6,0-1-0.4-1.1-1
				C1080.4,272,1080.9,271.6,1081.4,271.5z"/>
			<path class="st4" d="M1088.8,271.3h2.2c0.6,0,1,0.5,1,1c0,0.6-0.5,1-1,1l0,0h-2.2l0,0c-0.6,0-1-0.4-1-1
				C1087.8,271.8,1088.2,271.3,1088.8,271.3z"/>
			<path class="st4" d="M1096.1,271.5l2.2,0.1c0.5,0,1,0.5,0.9,1c0,0.5-0.5,1-1,0.9l0,0l-2.2-0.1l0,0c-0.5,0-1-0.5-0.9-1
				C1095.1,271.9,1095.5,271.5,1096.1,271.5z"/>
			<path class="st4" d="M1103.4,272.1l2.2,0.2c0.5,0.1,0.9,0.5,0.9,1.1c-0.1,0.5-0.5,0.9-1.1,0.9l0,0l-2.2-0.2l0,0
				c-0.5-0.1-0.9-0.5-0.9-1.1C1102.4,272.4,1102.9,272,1103.4,272.1z"/>
			<path class="st4" d="M1110.7,273.1l2.2,0.4c0.5,0.1,0.9,0.6,0.8,1.1s-0.6,0.9-1.1,0.8l0,0l-2.1-0.4l0,0c-0.5-0.1-0.9-0.6-0.8-1.1
				C1109.7,273.3,1110.2,273,1110.7,273.1z"/>
			<path class="st4" d="M1117.9,274.5l2.1,0.5c0.5,0.1,0.8,0.6,0.7,1.1c-0.1,0.5-0.6,0.8-1.1,0.7l0,0l-2.1-0.5l0,0
				c-0.5-0.1-0.8-0.6-0.7-1.2C1116.9,274.7,1117.4,274.4,1117.9,274.5z"/>
			<path class="st4" d="M1125,276.4l2.1,0.7c0.5,0.2,0.8,0.7,0.6,1.2c-0.2,0.5-0.7,0.8-1.2,0.6l0,0l-2.1-0.6l0,0
				c-0.5-0.2-0.8-0.7-0.6-1.2C1124,276.5,1124.5,276.2,1125,276.4z"/>
			<path class="st4" d="M1132,278.7l2.1,0.8c0.5,0.2,0.7,0.7,0.5,1.2s-0.7,0.7-1.2,0.5l0,0l-2-0.8l0,0c-0.5-0.2-0.7-0.7-0.5-1.2
				C1131,278.8,1131.5,278.5,1132,278.7z"/>
			<path class="st4" d="M1138.8,281.6l2,1c0.5,0.2,0.7,0.8,0.4,1.2c-0.2,0.5-0.8,0.7-1.2,0.4l0,0l-2-0.9l0,0
				c-0.5-0.2-0.7-0.8-0.4-1.2C1137.8,281.5,1138.3,281.3,1138.8,281.6z"/>
			<path class="st4" d="M1145.3,285l1.9,1.1c0.4,0.3,0.6,0.8,0.3,1.2s-0.8,0.6-1.2,0.3l0,0l-1.9-1.1l0,0c-0.4-0.3-0.6-0.8-0.3-1.3
				C1144.3,284.8,1144.9,284.7,1145.3,285z"/>
			<path class="st4" d="M1151.5,289l1.8,1.3c0.4,0.3,0.5,0.9,0.2,1.3c-0.3,0.4-0.9,0.5-1.3,0.2l0,0l-1.7-1.3l0,0
				c-0.4-0.3-0.5-0.9-0.2-1.3C1150.6,288.7,1151.1,288.7,1151.5,289z"/>
			<path class="st4" d="M1157.3,293.6l1.6,1.5c0.4,0.3,0.4,0.9,0,1.3c-0.3,0.4-0.9,0.4-1.3,0l0,0l-1.6-1.5l0,0
				c-0.4-0.3-0.4-0.9,0-1.3C1156.3,293.3,1156.9,293.3,1157.3,293.6z"/>
			<path class="st4" d="M1162.4,299l1.4,1.8c0.3,0.4,0.2,0.9-0.1,1.2c-0.4,0.3-0.9,0.2-1.2-0.1l0,0l-1.3-1.7l0,0
				c-0.3-0.4-0.2-0.9,0.1-1.2C1161.5,298.5,1162.1,298.6,1162.4,299z"/>
			<path class="st4" d="M1166.7,305l1.1,1.9c0.2,0.4,0.1,0.9-0.3,1.1c-0.4,0.2-0.9,0.1-1.1-0.3l0,0l-1.1-1.9l0,0
				c-0.2-0.4-0.1-0.9,0.3-1.1C1165.9,304.5,1166.4,304.6,1166.7,305z"/>
			<path class="st4" d="M1169.9,311.7l0.7,2.1c0.1,0.4-0.1,0.9-0.5,1s-0.9-0.1-1-0.5l0,0l-0.7-2l0,0c-0.1-0.4,0.1-0.9,0.5-1
				C1169.3,311.1,1169.7,311.3,1169.9,311.7z"/>
			<path class="st4" d="M1171.7,319l0.3,2.2c0,0.4-0.2,0.8-0.7,0.9c-0.4,0-0.8-0.2-0.9-0.7l0,0l-0.3-2.1l0,0
				c-0.1-0.4,0.2-0.8,0.7-0.9C1171.3,318.2,1171.6,318.5,1171.7,319z"/>
			<path class="st4" d="M1172.1,326.4l-0.2,2.2c0,0.4-0.4,0.7-0.8,0.7s-0.7-0.4-0.7-0.8l0,0l0.1-2.1l0,0c0-0.4,0.4-0.7,0.8-0.7
				C1171.8,325.6,1172.1,326,1172.1,326.4z"/>
			<path class="st4" d="M1171,333.7l-0.6,2.1c-0.1,0.4-0.5,0.6-0.9,0.5s-0.6-0.5-0.5-0.9l0,0l0.6-2.1l0,0c0.1-0.4,0.5-0.6,0.9-0.5
				C1170.9,332.9,1171.1,333.3,1171,333.7z"/>
			<path class="st4" d="M1168.4,340.7l-1.1,2c-0.2,0.3-0.6,0.4-0.9,0.3c-0.3-0.2-0.4-0.6-0.3-0.9l0,0l1-1.9l0,0
				c0.2-0.3,0.6-0.5,0.9-0.3C1168.5,339.9,1168.6,340.3,1168.4,340.7z"/>
			<path class="st4" d="M1164.3,346.9l-1.6,1.6c-0.2,0.3-0.7,0.3-0.9,0c-0.3-0.2-0.3-0.7,0-0.9l0,0l1.5-1.5l0,0
				c0.2-0.3,0.7-0.3,0.9,0C1164.5,346.2,1164.5,346.6,1164.3,346.9z"/>
			<path class="st4" d="M1158.6,351.7l-0.6,0.3c-0.3,0.2-0.7,0.1-0.9-0.2c-0.2-0.3-0.1-0.7,0.2-0.9l0,0l0.5-0.3l0,0
				c0.3-0.2,0.7-0.1,0.9,0.2C1158.9,351.1,1158.9,351.5,1158.6,351.7z"/>
		</g>
		<g>
			<g>
				
					<linearGradient id="SVGID_21_" gradientUnits="userSpaceOnUse" x1="4.0634" y1="-10.9221" x2="5.0634" y2="-10.9221" gradientTransform="matrix(46.5566 -17.3222 17.3222 46.5566 724.3457 692.022)">
					<stop  offset="0" style="stop-color:#99CA2F"/>
					<stop  offset="0.13" style="stop-color:#8FC62E"/>
					<stop  offset="0.34" style="stop-color:#74BC2D"/>
					<stop  offset="0.62" style="stop-color:#48AC2B"/>
					<stop  offset="0.94" style="stop-color:#0B9628"/>
					<stop  offset="1" style="stop-color:#009227"/>
				</linearGradient>
				<path class="st28" d="M756.6,95.9l-0.4,10.7l7.4-4.3L756.6,95.9z"/>
				
					<linearGradient id="SVGID_22_" gradientUnits="userSpaceOnUse" x1="5.2855" y1="-6.6343" x2="6.2855" y2="-6.6343" gradientTransform="matrix(53.3732 -42.5234 42.5234 53.3732 750.2928 687.2379)">
					<stop  offset="0" style="stop-color:#99CA2F"/>
					<stop  offset="0.13" style="stop-color:#8FC62E"/>
					<stop  offset="0.34" style="stop-color:#74BC2D"/>
					<stop  offset="0.62" style="stop-color:#48AC2B"/>
					<stop  offset="0.94" style="stop-color:#0B9628"/>
					<stop  offset="1" style="stop-color:#009227"/>
				</linearGradient>
				<path class="st29" d="M804.9,91.5l-29.8,24.3c-0.6,0.5-1.3,0.7-2,0.6c-0.7-0.1-1.4-0.5-1.8-1.1L748,84.5
					c-0.3-0.4-0.3-0.8-0.1-1.2s0.7-0.6,1.1-0.5L804.9,91.5z"/>
				
					<linearGradient id="SVGID_23_" gradientUnits="userSpaceOnUse" x1="4.3499" y1="-11.6912" x2="5.3499" y2="-11.6912" gradientTransform="matrix(43.4902 -16.1811 16.1811 43.4902 727.8777 692.1657)">
					<stop  offset="0" style="stop-color:#99CA2F"/>
					<stop  offset="0.13" style="stop-color:#8FC62E"/>
					<stop  offset="0.34" style="stop-color:#74BC2D"/>
					<stop  offset="0.62" style="stop-color:#48AC2B"/>
					<stop  offset="0.94" style="stop-color:#0B9628"/>
					<stop  offset="1" style="stop-color:#009227"/>
				</linearGradient>
				<path class="st30" d="M756.6,95.9l48.3-4.4l-44.6,9.4l-0.2,3L756.6,95.9z"/>
				
					<linearGradient id="SVGID_24_" gradientUnits="userSpaceOnUse" x1="2.3057" y1="-27.4002" x2="3.3057" y2="-27.4002" gradientTransform="matrix(20.9775 -1.7653 1.7653 20.9775 749.2545 683.3206)">
					<stop  offset="0" style="stop-color:#99CA2F"/>
					<stop  offset="0.13" style="stop-color:#8FC62E"/>
					<stop  offset="0.34" style="stop-color:#74BC2D"/>
					<stop  offset="0.62" style="stop-color:#48AC2B"/>
					<stop  offset="0.94" style="stop-color:#0B9628"/>
					<stop  offset="1" style="stop-color:#009227"/>
				</linearGradient>
				<path class="st31" d="M762.6,103.8l-6.4,2.8l4.1-5.7L762.6,103.8z"/>
			</g>
		</g>
	</g>
	
		<linearGradient id="SVGID_25_" gradientUnits="userSpaceOnUse" x1="-3.1775" y1="-1.059" x2="-2.1775" y2="-1.059" gradientTransform="matrix(54.6509 163.9531 -163.9531 54.6509 1040.67 592.427)">
		<stop  offset="0" style="stop-color:#99CA2F"/>
		<stop  offset="0.13" style="stop-color:#8FC62E"/>
		<stop  offset="0.34" style="stop-color:#74BC2D"/>
		<stop  offset="0.62" style="stop-color:#48AC2B"/>
		<stop  offset="0.94" style="stop-color:#0B9628"/>
		<stop  offset="1" style="stop-color:#009227"/>
	</linearGradient>
	<path class="st32" d="M1079.5,46.7l-40.3-2.1c-3.3-0.2-5.9,2.4-5.8,5.7l1,37.1c0.1,3,2.7,5.3,5.8,5.2l38.3-1.9
		c2.6-0.1,4.7-2.4,4.8-5.2l0.9-33.2C1084.3,49.4,1082.2,46.9,1079.5,46.7z"/>
	<path class="st33" d="M661.7,248.8l-40.3-2.1c-3.3-0.2-5.9,2.4-5.8,5.7l1,37.1c0.1,3,2.7,5.3,5.8,5.2l38.3-1.9
		c2.6-0.1,4.7-2.4,4.8-5.2l0.9-33.2C666.5,251.5,664.4,249,661.7,248.8z"/>
	<path class="st33" d="M1206.1,194.2l-40.3-2.1c-3.3-0.2-5.9,2.4-5.8,5.7l1,37.1c0.1,3,2.7,5.3,5.8,5.2l38.3-1.9
		c2.6-0.1,4.7-2.4,4.8-5.2l0.9-33.2C1210.9,196.9,1208.8,194.3,1206.1,194.2z"/>
	<path class="st33" d="M673.3,348.3l-40.3-2.1c-3.3-0.2-5.9,2.4-5.8,5.7l1,37.1c0.1,3,2.7,5.3,5.8,5.2l38.3-1.9
		c2.6-0.1,4.7-2.4,4.8-5.2l0.9-33.2C678.1,351,676,348.5,673.3,348.3z"/>
	<path class="st33" d="M1280.8,288.9l-40.3-2.1c-3.3-0.2-5.9,2.4-5.8,5.7l1,37.1c0.1,3,2.7,5.3,5.8,5.2l38.3-1.9
		c2.6-0.1,4.7-2.4,4.8-5.2l0.9-33.2C1285.7,291.5,1283.5,289,1280.8,288.9z"/>
	<path class="st33" d="M1263,127.4l-32.9-1.7c-2.7-0.1-4.8,2-4.8,4.7l0.9,30.3c0.1,2.5,2.2,4.4,4.7,4.2l31.3-1.5
		c2.1-0.1,3.9-2,3.9-4.2l0.8-27.1C1266.9,129.5,1265.2,127.5,1263,127.4z"/>
	<g>
		<path class="st4" d="M1168.8,136.5l-17.8-0.9c-1.5-0.1-2.6,1.1-2.6,2.5l0.5,16.4c0,1.3,1.2,2.4,2.6,2.3l16.9-0.8
			c1.1-0.1,2.1-1.1,2.1-2.3l0.4-14.7C1171,137.7,1170,136.6,1168.8,136.5z"/>
		<path class="st4" d="M1197.6,107.4l-12.4-0.6c-1,0-1.8,0.7-1.8,1.8l0.3,11.4c0,0.9,0.8,1.6,1.8,1.6l11.8-0.6
			c0.8,0,1.5-0.7,1.5-1.6l0.3-10.2C1199.1,108.2,1198.5,107.4,1197.6,107.4z"/>
	</g>
	<g>
		<path class="st4" d="M1245.3,243.5l-14.5-0.8c-1.2-0.1-2.1,0.9-2.1,2.1l0.4,13.4c0,1.1,1,1.9,2.1,1.9l13.8-0.7
			c0.9,0,1.7-0.9,1.7-1.9l0.3-12C1247,244.5,1246.3,243.5,1245.3,243.5z"/>
		<path class="st4" d="M1288.6,270.1l-7.2-0.4c-0.6,0-1.1,0.4-1,1l0.2,6.6c0,0.5,0.5,1,1,0.9l6.8-0.3c0.5,0,0.8-0.4,0.9-0.9l0.2-5.9
			C1289.5,270.6,1289.1,270.1,1288.6,270.1z"/>
	</g>
	<g>
		<path class="st4" d="M600.8,173.5l-14.5-0.8c-1.2-0.1-2.1,0.9-2.1,2.1l0.4,13.4c0,1.1,1,1.9,2.1,1.9l13.8-0.7
			c0.9,0,1.7-0.9,1.7-1.9l0.3-12C602.5,174.5,601.8,173.6,600.8,173.5z"/>
		<path class="st4" d="M644.1,200.1l-7.2-0.4c-0.6,0-1.1,0.4-1,1l0.2,6.6c0,0.5,0.5,1,1,0.9l6.8-0.3c0.5,0,0.8-0.4,0.9-0.9l0.2-5.9
			C645,200.6,644.6,200.1,644.1,200.1z"/>
		<path class="st4" d="M723,76.5l-11.2-0.6c-0.9,0-1.6,0.7-1.6,1.6l0.3,10.3c0,0.8,0.8,1.5,1.6,1.4l10.6-0.5c0.7,0,1.3-0.7,1.3-1.4
			l0.3-9.2C724.4,77.2,723.8,76.5,723,76.5z"/>
	</g>
	
		<linearGradient id="SVGID_26_" gradientUnits="userSpaceOnUse" x1="-3.5478" y1="0.8564" x2="-2.5478" y2="0.8564" gradientTransform="matrix(-37.1809 154.192 -154.192 -37.1809 936.1102 857.4128)">
		<stop  offset="0" style="stop-color:#FFFFFF"/>
		<stop  offset="1" style="stop-color:#B3B3B3"/>
	</linearGradient>
	<path class="st34" d="M799.6,349.5c-15.7-0.2-29-12.7-30.3-28.5l-2.9-35.9c-0.7-8.6,2.1-17,7.7-23c5.4-5.8,12.7-9,20.6-9l280.4-0.5
		c8.8,0,16.4,3.5,21.6,9.9c5.3,6.5,7.3,15.4,5.5,24.3l-7.7,37.7c-3.2,15.7-18.4,27.9-34.7,27.9
		C1059.9,352.3,799.6,349.5,799.6,349.5z"/>
	<path class="st4" d="M1075.2,259.8l-280.4,0.5c-12.7,0-22.1,11-21.1,24.2l2.9,35.9c1,12,11.3,21.7,23.1,21.8l259.9,2.8
		c12.8,0.1,25.3-9.5,27.8-22.1l7.7-37.7C1098,271.4,1089.1,259.8,1075.2,259.8z"/>
	<g>
		<g transform="matrix(1,0,0,1,1440.5,729.5)">
			<g>
				
					<image style="overflow:visible;enable-background:new    ;" width="140" height="172" id="_Image33" xlink:href="3B98522.png"  transform="matrix(0.7087 0 0 0.7087 -419.6745 -429.6031)">
				</image>
			</g>
		</g>
		<g>
			<path class="st4" d="M1101.9,393.7l-23.3-28.4c-0.2-0.2-0.2-0.5-0.1-0.8s0.3-0.5,0.6-0.6l20.6-4.9c0.8-0.2,1.5-0.9,1.6-1.7
				c0.1-0.9-0.2-1.7-1-2.2l-58.7-37.1c-0.7-0.5-1.6-0.4-2.3,0c-0.7,0.5-1.1,1.3-0.9,2.1l12.2,73.8c0.1,0.9,0.8,1.6,1.7,1.8
				c0.9,0.2,1.8-0.2,2.2-1l11.4-19.1c0.1-0.2,0.4-0.4,0.7-0.4s0.5,0.1,0.7,0.3l21.7,27.8c1.2,1.6,3.5,1.9,5.2,0.8l7-4.7
				c0.9-0.6,1.5-1.6,1.6-2.6C1102.9,395.7,1102.6,394.6,1101.9,393.7z"/>
		</g>
	</g>
	
		<linearGradient id="SVGID_27_" gradientUnits="userSpaceOnUse" x1="-7.624" y1="-6.4152" x2="-6.624" y2="-6.4152" gradientTransform="matrix(37.4045 44.4453 -44.4453 37.4045 690.4925 864.1688)">
		<stop  offset="0" style="stop-color:#666666"/>
		<stop  offset="1" style="stop-color:#000000"/>
	</linearGradient>
	<path class="st35" d="M761.4,288.4c7.1,4.8,13.7,15.5,0.6,32.7c-11.7,15.5-23.8,25.6-22,35.1s-12.1,33.5-40.5,17.9
		c-28-15.5-22.6-45.2,11.3-56.5C730.7,310.9,735.3,270.9,761.4,288.4z"/>
	
		<linearGradient id="SVGID_28_" gradientUnits="userSpaceOnUse" x1="-14.7863" y1="3.9924" x2="-13.7863" y2="3.9924" gradientTransform="matrix(-9.8602 36.4823 -36.4823 -9.8602 778.0616 912.6801)">
		<stop  offset="0" style="stop-color:#FCDEB3"/>
		<stop  offset="1" style="stop-color:#F9C476"/>
	</linearGradient>
	<path class="st36" d="M784.2,347.8c0,0-11.1,13.3-22.2,2.5l-4.3,10c0,0,16.3,12.6,28.7-7.2L784.2,347.8z"/>
	
		<linearGradient id="SVGID_29_" gradientUnits="userSpaceOnUse" x1="-2.8703" y1="-1.6171" x2="-1.8703" y2="-1.6171" gradientTransform="matrix(86.254 153.0588 -153.0588 86.254 797.6631 1017.5216)">
		<stop  offset="0" style="stop-color:#3FCEFC"/>
		<stop  offset="1" style="stop-color:#4C246D"/>
	</linearGradient>
	<path class="st37" d="M756.8,323.2c-3.1-0.9-12-2.6-20.6,5.2c-1.4,1.3-2,3.4-1.5,5.3c2.3,8.4,8.3,33.3,3,44.1c0,0,9.3,10.3,19.5,2
		c0,0,4.6-19.9,10.5-28.6c4.1-6-6.6-22.6-9.3-26.7C758.1,323.9,757.5,323.4,756.8,323.2z"/>
	
		<linearGradient id="SVGID_30_" gradientUnits="userSpaceOnUse" x1="31.418" y1="9.399" x2="32.418" y2="9.399" gradientTransform="matrix(-5.0606 -16.9094 16.9094 -5.0606 755.9734 911.6602)">
		<stop  offset="0" style="stop-color:#FCDEB3"/>
		<stop  offset="1" style="stop-color:#F9C476"/>
	</linearGradient>
	<path class="st38" d="M752,307.2c0,0-6.2,12.2-7.3,17.7c0,0,4.7,2.9,9.9-0.3c0,0,2.2-12.7,3.2-14.9L752,307.2z"/>
	
		<linearGradient id="SVGID_31_" gradientUnits="userSpaceOnUse" x1="-8.8263" y1="13.9446" x2="-7.8263" y2="13.9446" gradientTransform="matrix(-29.636 18.7571 -18.7571 -29.636 765.7305 883.7302)">
		<stop  offset="0" style="stop-color:#FCDEB3"/>
		<stop  offset="1" style="stop-color:#F9C476"/>
	</linearGradient>
	<path class="st39" d="M766,301.4c-2.2,1-8.7-1.1-10.5-2.2l-6.1,6.4c-0.2,0.7-0.3,1.1-0.3,1.1s0.7,14.5,9.3,14.3
		C765.8,320.9,766.1,305.4,766,301.4z"/>
	
		<linearGradient id="SVGID_32_" gradientUnits="userSpaceOnUse" x1="-8.8265" y1="13.9448" x2="-7.8265" y2="13.9448" gradientTransform="matrix(-29.6353 18.7569 -18.7569 -29.6353 761.0552 876.3209)">
		<stop  offset="0" style="stop-color:#FCDEB3"/>
		<stop  offset="1" style="stop-color:#F9C476"/>
	</linearGradient>
	<path class="st40" d="M751.7,306.9c0,0-1-7-4.4-5.1s0.2,7.4,2.9,7.1L751.7,306.9z"/>
	
		<linearGradient id="SVGID_33_" gradientUnits="userSpaceOnUse" x1="4.5446" y1="-2.5201" x2="5.5446" y2="-2.5201" gradientTransform="matrix(53.9924 -97.4558 97.4558 53.9924 714.8982 1110.6466)">
		<stop  offset="0" style="stop-color:#FCDEB3"/>
		<stop  offset="1" style="stop-color:#F9C476"/>
	</linearGradient>
	<path class="st41" d="M769.1,421.6c0,0.9,1.6,8.1,2.4,11.9c0.3,1.5,0.1,3.1-0.7,4.5l-29.9,50.3c-0.4,0.6-0.6,1.3-0.8,2
		c-0.5,2.4-1.7,8.1-1.1,13.4l1.5,3.2l-6.7-1.5l-1.5-18l1.9-1.2c1.6-1,2.9-2.5,3.6-4.3c2.7-6.6,9.4-23.3,11.1-31.4
		c2-9.3,12.2-16.8,12.2-16.8l-1.8-4.3L769.1,421.6z"/>
	
		<linearGradient id="SVGID_34_" gradientUnits="userSpaceOnUse" x1="0.3419" y1="-36.0623" x2="1.3416" y2="-36.0623" gradientTransform="matrix(16.0515 -0.1525 0.1525 16.0515 726.494 1076.1758)">
		<stop  offset="0" style="stop-color:#333333"/>
		<stop  offset="1" style="stop-color:#000000"/>
	</linearGradient>
	<path class="st42" d="M726.5,499.1c0,0,3.6-5.7,4-8c0.4-2.2,1.6-6.2,3.8-5c0,0,1,10.8,0.7,15.1c-0.4,4.2,4.8,4.1,4.8,4.1
		s1.4,0.2,2.5,1.2c0.7,0.7,0.2,2-0.8,2c-1.7,0.1-4.4,0.1-7.2-0.4c-1-0.2-1.7-1-1.8-2l-0.7-12.5l-4.6,5.8L726.5,499.1z"/>
	
		<linearGradient id="SVGID_35_" gradientUnits="userSpaceOnUse" x1="-2.1053" y1="6.3741" x2="-1.1053" y2="6.3741" gradientTransform="matrix(-81.8759 27.0412 -27.0412 -81.8759 776.4662 1038.3123)">
		<stop  offset="0" style="stop-color:#FCDEB3"/>
		<stop  offset="1" style="stop-color:#F9C476"/>
	</linearGradient>
	<path class="st43" d="M751.3,429.6c0,0-1.1,45-1.2,51.4c-0.1,6.4,1,20.6,7.4,24.8l-2.8,2.1c0,0-3.5-3-6.9-8.7c-3.8-6.4-5-7.6-5-7.6
		l1.3-2.6c0.6-1.1,0.7-2.4,0.5-3.7c-1.4-6.7-6-29-7.3-33.8c-1.5-5.7-1.6-13.2,3.6-19.6C746.1,425.6,751.3,429.6,751.3,429.6z"/>
	
		<linearGradient id="SVGID_36_" gradientUnits="userSpaceOnUse" x1="0.2817" y1="-30.2433" x2="1.282" y2="-30.2433" gradientTransform="matrix(19.1348 -0.1783 0.1783 19.1348 741.3467 1078.9725)">
		<stop  offset="0" style="stop-color:#333333"/>
		<stop  offset="1" style="stop-color:#000000"/>
	</linearGradient>
	<path class="st44" d="M745.4,509.7c-0.2,0-0.4-0.1-0.4-0.3c-0.2-1.5-1.1-7.4-1.8-9c-0.8-1.8-3.6-9.2,0-9.8c0,0,8.8,12.8,10.5,14.5
		s3.8,0.6,3.8,0.6s1.7,0.5,2.9,2.1c0.6,0.8,0,1.8-0.9,1.9l-5.9,0.1c-1.7,0-3.3-1-3.9-2.6c-1-2.6-2.8-6.4-4.9-8.1l1.1,10.3
		C745.8,509.4,745.6,509.6,745.4,509.7z"/>
	
		<linearGradient id="SVGID_37_" gradientUnits="userSpaceOnUse" x1="-4.7352" y1="2.0707" x2="-3.7352" y2="2.0707" gradientTransform="matrix(-44.87 102.6227 -102.6227 -44.87 766.7607 950.1727)">
		<stop  offset="0" style="stop-color:#2B3582"/>
		<stop  offset="1" style="stop-color:#150E42"/>
	</linearGradient>
	<path class="st45" d="M758.7,374.9c0,0-1.3,4.3,0.7,11.3l12.8,44.6c0.2,0.7-0.2,1.4-0.9,1.7c-3.8,1.4-16.4,5.2-33.5,4.1
		c-0.9-0.1-1.6-0.7-1.8-1.5c-1.1-5.1-5-22.4-5.8-26c-3-13.6-6-26.5,8.9-35.4C746,376.6,751.9,376.6,758.7,374.9z"/>
	
		<linearGradient id="SVGID_38_" gradientUnits="userSpaceOnUse" x1="-2.925857e-05" y1="-13.7096" x2="1" y2="-13.7096" gradientTransform="matrix(42.2245 0 0 42.2245 759.1322 926.9092)">
		<stop  offset="0" style="stop-color:#F9C476"/>
		<stop  offset="1" style="stop-color:#F6966A"/>
	</linearGradient>
	<path class="st46" d="M743.3,334.5c0,0-2.6,36.7,21.2,18.3c0,0,3.5-3.3,6-3.7c1.4-0.2,2.9-0.4,4-0.4c0.5,0,0.8,0.6,0.3,0.9
		c-0.8,0.6-1.9,1.2-2.8,1.3c-1.8,0.2,0.1,1.5-1.8,4.9c-1.9,3.4-4.7,2.1-4.7,2.1s-27.2,27.9-32.6-20.7
		C732.6,328.2,741.3,328.7,743.3,334.5z"/>
	<g>
		
			<linearGradient id="SVGID_39_" gradientUnits="userSpaceOnUse" x1="-42.9431" y1="-22.001" x2="-41.9431" y2="-22.001" gradientTransform="matrix(5.4699 10.6771 -10.6771 5.4699 780.2431 918.6978)">
			<stop  offset="0" style="stop-color:#4D4D4D"/>
			<stop  offset="1" style="stop-color:#1A1A1A"/>
		</linearGradient>
		<path class="st47" d="M791.4,338.7l-8.1-1.1c-1-0.2-2,0.4-2.6,1.4l-5.3,11.7c-1,1.8-0.3,4.1,1.3,4.4l6.5,0.8
			c0.6,0.1,1.3-0.3,1.6-1l7.2-14.3C792.5,339.9,792.2,338.8,791.4,338.7z"/>
	</g>
	
		<linearGradient id="SVGID_40_" gradientUnits="userSpaceOnUse" x1="-28.0567" y1="7.5826" x2="-27.0567" y2="7.5826" gradientTransform="matrix(-5.1963 19.2268 -19.2268 -5.1963 788.9254 916.6806)">
		<stop  offset="0" style="stop-color:#FCDEB3"/>
		<stop  offset="1" style="stop-color:#F9C476"/>
	</linearGradient>
	<path class="st48" d="M785.9,354.5c0,0,5.4-7.9,4.8-8.9c-0.6-1-5.4-2.4-6.5-2.7C783.1,342.7,781,349.8,785.9,354.5z"/>
	<path class="st4" d="M739.8,190.4c-3.7-0.8-7.4,0-10.1,2.2l-0.8,0.7l-0.8-0.7c-2.1-1.8-4.7-2.7-7.5-2.7c-1,0-1.9,0.1-2.9,0.3
		c-4.9,1.2-9.8,5.8-9.8,13.3c0,4.8,1.8,9,5.4,12.7c3,3.2,7.5,6.2,14.4,9.9c0.7,0.4,1.7,0.4,2.4,0c11.9-6.3,19.8-12.6,19.8-22.6
		C750,196.1,744.9,191.5,739.8,190.4z M729.6,220.7L729,221l-0.6-0.3c-11.1-6.1-15.2-10.7-15.2-17.1c0-5,3-7.6,5.8-8.3
		c0.5-0.1,1.1-0.2,1.7-0.2c2.6,0,4.8,1.4,6,3.8c0.5,0.9,1.4,1.4,2.4,1.4s1.9-0.6,2.3-1.5c1.6-3.4,5-3.9,7.4-3.4
		c2.8,0.6,6.1,3.1,6.1,8.1C744.8,210,740.7,214.6,729.6,220.7z"/>
	<path class="st4" d="M644,255.7c-1.4-0.4-2.8,0.8-2.8,2.2c0,1.6-0.6,3.1-1.6,4.3l-3.1,3.5c-0.2-0.3-0.5-0.5-0.9-0.5h-6
		c-0.6,0-1.1,0.5-1.1,1.1v13.4c0,0.6,0.5,1.1,1.1,1.1h6c0.4,0,0.8-0.3,1-0.7c1.2,0.7,2.6,1.1,4,1.1h10.6c1.6,0,2.9-1.4,2.9-3
		c0-0.7,0-10.3,0-10.5c0-1.6-1.3-2.9-2.9-2.9h-5.5l0.2-0.5c1-2.5,0.9-5.3-0.5-7.6C645.1,256.2,644.6,255.8,644,255.7
		C643.4,255.5,644.6,255.8,644,255.7C642.6,255.3,644.6,255.8,644,255.7z M634.4,278.6h-3.7v-11.2h3.7V278.6z M651.1,267.2
		c0.4,0,0.7,0.3,0.7,0.7c0,0.2,0,0.8,0,1.6c0,4.3,0,8.4,0,9c0,0.2-0.1,0.4-0.2,0.5c-0.1,0.1-0.3,0.2-0.5,0.2h-10.6
		c-1.3,0-2.5-0.4-3.5-1.2l-0.5-0.4v-8.7l4.5-5.1c1.4-1.6,2.2-3.7,2.2-5.8c0-0.1,0.1-0.1,0.1,0c1,1.7,1.1,3.8,0.3,5.7l-0.9,2.1
		c-0.1,0.3-0.1,0.7,0.1,1c0.2,0.3,0.6,0.5,0.9,0.5L651.1,267.2z"/>
	<path class="st4" d="M1201.7,211.6h-0.6c-0.3-1.2-0.8-2.3-1.4-3.3l0.4-0.4c0.5-0.5,0.7-1.1,0.7-1.7c0-0.6-0.2-1.2-0.7-1.7l-2.6-2.6
		c-0.5-0.5-1.1-0.7-1.7-0.7s-1.2,0.2-1.7,0.7l-0.4,0.4c-1-0.6-2.2-1-3.3-1.4v-0.6c0-1.3-1.1-2.4-2.4-2.4h-3.7
		c-1.3,0-2.4,1.1-2.4,2.4v0.6c-1.2,0.3-2.3,0.8-3.3,1.4l-0.4-0.4c-0.5-0.5-1.1-0.7-1.7-0.7s-1.2,0.2-1.7,0.7l-2.6,2.6
		c-0.5,0.5-0.7,1.1-0.7,1.7c0,0.6,0.2,1.2,0.7,1.7l0.4,0.4c-0.6,1-1,2.2-1.4,3.3h-0.6c-1.3,0-2.4,1.1-2.4,2.4v3.7
		c0,1.3,1.1,2.4,2.4,2.4h0.6c0.3,1.1,0.8,2.3,1.4,3.3l-0.4,0.4c-0.5,0.5-0.7,1.1-0.7,1.7c0,0.6,0.2,1.2,0.7,1.7l2.6,2.6
		c0.5,0.5,1.1,0.7,1.7,0.7s1.2-0.2,1.7-0.7l0.4-0.4c1,0.6,2.2,1,3.3,1.4v0.6c0,1.3,1.1,2.4,2.4,2.4h3.7c1.3,0,2.4-1.1,2.4-2.4v-0.6
		c1.1-0.3,2.3-0.8,3.3-1.4l0.4,0.4c0.5,0.5,1.1,0.7,1.7,0.7s1.2-0.2,1.7-0.7l2.6-2.6c0.5-0.5,0.7-1.1,0.7-1.7c0-0.6-0.2-1.2-0.7-1.7
		l-0.4-0.4c0.6-1,1-2.2,1.4-3.3h0.6c1.3,0,2.4-1.1,2.4-2.4V214C1204.1,212.7,1203,211.6,1201.7,211.6z M1188.3,231.4
		c0,0.1-0.1,0.3-0.3,0.3h-3.7c-0.1,0-0.3-0.1-0.3-0.3v-8.2c0-0.4-0.3-0.9-0.7-1c-2.9-1.1-4.8-3.8-4.8-6.9c0-2.4,1.2-4.7,3.2-6.1
		c0.1-0.1,0.2-0.1,0.2-0.2c0,0.1,0,0.3,0,0.3c0,0.1,0,0.2,0,0.3v5.1c0,2.3,1.8,4.3,4.1,4.4h0.1c2.3-0.2,4.1-2.1,4.1-4.4v-5.1
		c0-0.1,0-0.2,0-0.3s0-0.2,0-0.3c0.1,0,0.1,0.1,0.2,0.2c2,1.4,3.2,3.6,3.2,6.1c0,3.1-1.9,5.8-4.8,6.9c-0.4,0.2-0.7,0.6-0.7,1
		L1188.3,231.4L1188.3,231.4z M1202,217.7c0,0.1-0.1,0.3-0.3,0.3h-1.4c-0.5,0-0.9,0.3-1,0.8c-0.3,1.5-0.9,2.9-1.7,4.2
		c-0.3,0.4-0.2,1,0.1,1.3l1,1c0.1,0.1,0.1,0.1,0.1,0.2c0,0,0,0.1-0.1,0.2l-2.6,2.6c-0.1,0.1-0.1,0.1-0.2,0.1c0,0-0.1,0-0.2-0.1l-1-1
		c-0.4-0.4-0.9-0.4-1.3-0.1c-0.9,0.6-1.9,1-2.9,1.4V224c3.3-1.5,5.5-4.9,5.5-8.6c0-3.1-1.6-6.1-4.2-7.8c-0.4-0.3-1.6-1.1-2.7-0.5
		c-1,0.6-0.9,2-0.9,2.6v0.1v5.1c0,1.2-0.9,2.2-2.1,2.3c-1.2-0.1-2.1-1.1-2.1-2.3v-5v-0.1c0-0.6,0.1-2-0.9-2.6
		c-1.1-0.6-2.3,0.2-2.7,0.5c-2.6,1.8-4.2,4.7-4.2,7.8c0,3.7,2.2,7.1,5.5,8.6v4.6c-1-0.3-2-0.8-2.9-1.4c-0.2-0.1-0.4-0.2-0.6-0.2
		c-0.3,0-0.6,0.1-0.8,0.3l-1,1c-0.1,0.1-0.1,0.1-0.2,0.1s-0.1,0-0.2-0.1l-2.6-2.6c-0.1-0.1-0.1-0.1-0.1-0.2c0,0,0-0.1,0.1-0.2l1-1
		c0.4-0.4,0.4-0.9,0.1-1.3c-0.8-1.3-1.4-2.7-1.7-4.2c-0.1-0.5-0.5-0.8-1-0.8h-1.4c-0.1,0-0.3-0.1-0.3-0.3v-3.7
		c0-0.1,0.1-0.3,0.3-0.3h1.4c0.5,0,0.9-0.3,1-0.8c0.3-1.5,0.9-2.9,1.7-4.2c0.3-0.4,0.2-1-0.1-1.3l-1-1c-0.1-0.1-0.1-0.1-0.1-0.2
		s0-0.1,0.1-0.2l2.6-2.6c0.1-0.1,0.1-0.1,0.2-0.1s0.1,0,0.2,0.1l1,1c0.4,0.4,0.9,0.4,1.3,0.1c1.3-0.8,2.7-1.4,4.2-1.8
		c0.5-0.1,0.8-0.5,0.8-1v-1.4c0-0.1,0.1-0.3,0.3-0.3h3.7c0.1,0,0.3,0.1,0.3,0.3v1.4c0,0.5,0.3,0.9,0.8,1c1.5,0.3,2.9,0.9,4.2,1.8
		c0.4,0.3,1,0.2,1.3-0.1l1-1c0.1-0.1,0.1-0.1,0.2-0.1c0,0,0.1,0,0.2,0.1l2.6,2.6c0.1,0.1,0.1,0.1,0.1,0.2c0,0,0,0.1-0.1,0.2l-1,1
		c-0.4,0.4-0.4,0.9-0.1,1.3c0.8,1.3,1.4,2.7,1.7,4.2c0.1,0.5,0.5,0.8,1,0.8h1.4c0.1,0,0.3,0.1,0.3,0.3L1202,217.7L1202,217.7z"/>
	<path class="st4" d="M1073.5,65.9l-18.6-10.8c-0.8-0.5-1.9-0.5-2.7,0c-0.8,0.5-1.4,1.4-1.4,2.4V79c0,1,0.5,1.9,1.4,2.4
		c0.4,0.2,0.9,0.4,1.4,0.4s0.9-0.1,1.4-0.4l18.6-10.8c0.8-0.5,1.4-1.4,1.4-2.4C1074.9,67.3,1074.3,66.4,1073.5,65.9z M1056.2,74.3
		V62.2l10.5,6L1056.2,74.3z"/>
	<g>
		<path class="st49" d="M1267.1,314.9l-5.6-8.1c-0.1-0.2-0.3-0.3-0.5-0.3s-0.4,0.1-0.5,0.3l-5.6,8.1c-0.1,0.2-0.1,0.4-0.1,0.6
			l1.6,4.8h-0.4c-0.3,0-0.6,0.3-0.6,0.6v1.9c0,0.3,0.3,0.6,0.6,0.6h0.6v6.9c0,0.3,0.3,0.6,0.6,0.6h7.5c0.3,0,0.6-0.3,0.6-0.6v-6.9
			h0.6c0.3,0,0.6-0.3,0.6-0.6v-1.9c0-0.3-0.3-0.6-0.6-0.6h-0.4l1.6-4.8C1267.2,315.3,1267.2,315.1,1267.1,314.9z M1260.9,314
			c0.3,0,0.5,0.1,0.6,0.4c0.1,0.2,0,0.5-0.1,0.7c-0.2,0.2-0.4,0.2-0.7,0.1c-0.2-0.1-0.4-0.3-0.4-0.6
			C1260.3,314.3,1260.6,314,1260.9,314z M1264,329.7h-6.3v-6.3h6.3V329.7z M1265.3,322.2h-8.7v-0.6h8.7V322.2z M1264.2,320.3h-6.6
			l-1.6-4.9l4.3-6.2v3.6v0.1c-0.9,0.3-1.4,1.2-1.2,2.1c0.2,0.9,0.9,1.6,1.8,1.6s1.7-0.7,1.8-1.6c0.1-0.9-0.4-1.8-1.2-2.1v-0.1v-3.6
			l4.3,6.2L1264.2,320.3z"/>
		<path class="st49" d="M1279.7,299h-2.5c-0.3,0-0.6,0.3-0.6,0.6v0.6c0,0,0,0-0.1,0h-13.7v-0.6c0-0.3-0.3-0.6-0.6-0.6h-0.6v-3.1h0.6
			c0.3,0,0.6-0.3,0.6-0.6v-2.5c0-0.3-0.3-0.6-0.6-0.6h-2.5c-0.3,0-0.6,0.3-0.6,0.6v2.5c0,0.3,0.3,0.6,0.6,0.6h0.6v3.1h-0.6
			c-0.3,0-0.6,0.3-0.6,0.6v0.6h-13.7v-0.6c0-0.3-0.3-0.6-0.6-0.6h-2.5c-0.3,0-0.6,0.3-0.6,0.6v2.5c0,0.3,0.3,0.6,0.6,0.6h2.5
			c0.3,0,0.6-0.3,0.6-0.6v-0.6h10.3c-0.8,0.5-1.6,1.2-2.2,2c-1.6,1.9-2.5,4.4-2.5,6.8h-0.6c-0.3,0-0.6,0.3-0.6,0.6v2.5
			c0,0.3,0.3,0.6,0.6,0.6h2.5c0.3,0,0.6-0.3,0.6-0.6v-2.5c0-0.3-0.3-0.6-0.6-0.6h-0.6c0-4.6,3.6-8.3,6.9-8.7v0.6
			c0,0.3,0.3,0.6,0.6,0.6h2.5c0.3,0,0.6-0.3,0.6-0.6v-0.6c1.7,0.2,3.3,1.2,4.6,2.9c1.3,1.6,2.1,3.8,2.2,5.8h-0.6
			c-0.3,0-0.6,0.3-0.6,0.6v2.5c0,0.3,0.3,0.6,0.6,0.6h2.5c0.3,0,0.6-0.3,0.6-0.6v-2.5c0-0.3-0.3-0.6-0.6-0.6h-0.6
			c-0.1-2.3-1-4.7-2.5-6.6c-0.6-0.8-1.4-1.6-2.3-2.2h10.3c0,0,0,0,0.1,0v0.6c0,0.3,0.3,0.6,0.6,0.6h2.5c0.3,0,0.6-0.3,0.6-0.6v-2.5
			C1280.3,299.3,1280,299,1279.7,299z M1244,301.5h-1.2v-1.3h1.2V301.5z M1252.2,312.8h-1.2v-1.2h1.2V312.8z M1260.3,293.4h1.2v1.2
			h-1.2V293.4z M1261.5,301.5h-1.2v-1.3h1.2V301.5z M1269.7,311.5h1.2v1.2h-1.2V311.5z M1279,301.5h-1.2v-1.3h1.2V301.5z"/>
	</g>
	<g>
		<path class="st50" d="M653,357.3c0,0.4-0.3,0.7-0.7,0.7h-10.7v19.9l4.8-5.9c0.3-0.3,0.8-0.3,1.1,0l3.8,4.6l3.6-4.4
			c0.2-0.3,0.7-0.3,1-0.1s0.3,0.7,0.1,1c-2.5,3.1-5.1,6.2-7.6,9.3h17.7v-9.6l-4.9-6l-3.2,3.9c-0.2,0.3-0.7,0.3-1,0.1s-0.3-0.7-0.1-1
			l3.8-4.6c0.3-0.3,0.8-0.3,1.1,0l4.4,5.4v-12.7h-10.7c-0.4,0-0.7-0.3-0.7-0.7s0.3-0.7,0.7-0.7h11.4c0.4,0,0.7,0.3,0.7,0.7v-0.7
			h-15.2C652.7,356.6,653,356.9,653,357.3z M656,365.5c0,1.4-0.6,2.7-1.5,3.6s-2.2,1.5-3.6,1.5c-1.4,0-2.7-0.6-3.6-1.5
			s-1.5-2.2-1.5-3.6c0-1.4,0.6-2.7,1.5-3.6s2.2-1.5,3.6-1.5c1.4,0,2.7,0.6,3.6,1.5S656,364,656,365.5z"/>
		<path class="st50" d="M647,373.6l-5.3,6.5v2.3h5l3.8-4.7L647,373.6z"/>
		<path class="st50" d="M648.2,362.8c-0.7,0.7-1.1,1.6-1.1,2.6s0.4,2,1.1,2.6c0.7,0.7,1.6,1.1,2.6,1.1s2-0.4,2.6-1.1
			c0.7-0.7,1.1-1.6,1.1-2.6s-0.4-2-1.1-2.6c-0.7-0.7-1.6-1.1-2.6-1.1S648.9,362.1,648.2,362.8z"/>
		<path class="st50" d="M666.8,383.9h0.7v-0.7C667.5,383.6,667.2,383.9,666.8,383.9z"/>
		<path class="st50" d="M640.3,383.2v-25.9c0-0.4,0.3-0.7,0.7-0.7h-1v27.3h1C640.6,383.9,640.3,383.6,640.3,383.2z"/>
		<path class="st51" d="M666.8,356.6h-11.4c-0.4,0-0.7,0.3-0.7,0.7s0.3,0.7,0.7,0.7h10.7v12.7l-4.4-5.4c-0.3-0.3-0.8-0.4-1.1,0
			l-3.8,4.6c-0.2,0.3-0.2,0.7,0.1,1c0.3,0.2,0.7,0.2,1-0.1l3.2-3.9l4.9,6v9.6h-17.7c2.5-3.1,5.1-6.2,7.6-9.3c0.2-0.3,0.2-0.7-0.1-1
			c-0.3-0.2-0.7-0.2-1,0.1l-3.6,4.4l-3.8-4.6c-0.3-0.3-0.8-0.4-1.1,0l-4.8,5.9v-19.9h10.7c0.4,0,0.7-0.3,0.7-0.7s-0.3-0.7-0.7-0.7
			h-11.4c-0.4,0-0.7,0.3-0.7,0.7v25.8c0,0.4,0.3,0.7,0.7,0.7h25.9c0.4,0,0.7-0.3,0.7-0.7v-25.9C667.5,356.9,667.2,356.6,666.8,356.6
			z M641.7,382.5v-2.3l5.3-6.5l3.5,4.2l-3.8,4.7L641.7,382.5L641.7,382.5z"/>
		<path class="st51" d="M647.2,361.8c-0.9,0.9-1.5,2.2-1.5,3.6c0,1.4,0.6,2.7,1.5,3.6s2.2,1.5,3.6,1.5c1.4,0,2.7-0.6,3.6-1.5
			s1.5-2.2,1.5-3.6c0-1.4-0.6-2.7-1.5-3.6s-2.2-1.5-3.6-1.5S648.2,360.9,647.2,361.8z M654.6,365.5c0,1-0.4,2-1.1,2.6
			c-0.7,0.7-1.6,1.1-2.6,1.1s-2-0.4-2.6-1.1c-0.7-0.7-1.1-1.6-1.1-2.6s0.4-2,1.1-2.6c0.7-0.7,1.6-1.1,2.6-1.1s2,0.4,2.6,1.1
			C654.2,363.5,654.6,364.4,654.6,365.5z"/>
		<rect x="651.6" y="356.6" class="st52" width="6" height="1.4"/>
		<path class="st51" d="M654.3,373.2l3-3.7l1.1,0.8l-2.9,3.5L654.3,373.2z"/>
	</g>
	<g>
		
			<linearGradient id="SVGID_41_" gradientUnits="userSpaceOnUse" x1="8.6841" y1="-1.3815" x2="9.6841" y2="-1.3815" gradientTransform="matrix(10.3351 -65.0125 65.0125 10.3351 1225.7283 1084.6431)">
			<stop  offset="0" style="stop-color:#808080"/>
			<stop  offset="0.14" style="stop-color:#8A8A8A"/>
			<stop  offset="0.39" style="stop-color:#A5A5A5"/>
			<stop  offset="0.71" style="stop-color:#D1D1D1"/>
			<stop  offset="0.99" style="stop-color:#FFFFFF"/>
			<stop  offset="1" style="stop-color:#FFFFFF"/>
		</linearGradient>
		<rect x="1227" y="456.5" class="st53" width="4.8" height="51.7"/>
		
			<linearGradient id="SVGID_42_" gradientUnits="userSpaceOnUse" x1="8.5266" y1="-1.3543" x2="9.5266" y2="-1.3543" gradientTransform="matrix(10.5261 -66.2131 66.2131 10.5261 1229.701 1085.156)">
			<stop  offset="0" style="stop-color:#808080"/>
			<stop  offset="0.14" style="stop-color:#8A8A8A"/>
			<stop  offset="0.39" style="stop-color:#A5A5A5"/>
			<stop  offset="0.71" style="stop-color:#D1D1D1"/>
			<stop  offset="0.99" style="stop-color:#FFFFFF"/>
			<stop  offset="1" style="stop-color:#FFFFFF"/>
		</linearGradient>
		<path class="st54" d="M1250.4,509.2h-41.9v-1.3c0-1,0.8-1.8,1.8-1.8h38.1c1.1,0,1.9,0.9,1.9,1.9L1250.4,509.2L1250.4,509.2z"/>
		
			<linearGradient id="SVGID_43_" gradientUnits="userSpaceOnUse" x1="8.1713" y1="-1.2991" x2="9.1713" y2="-1.2991" gradientTransform="matrix(10.9843 -69.0927 69.0927 10.9843 1221.3939 1086.983)">
			<stop  offset="0" style="stop-color:#808080"/>
			<stop  offset="0.14" style="stop-color:#8A8A8A"/>
			<stop  offset="0.39" style="stop-color:#A5A5A5"/>
			<stop  offset="0.71" style="stop-color:#D1D1D1"/>
			<stop  offset="0.99" style="stop-color:#FFFFFF"/>
			<stop  offset="1" style="stop-color:#FFFFFF"/>
		</linearGradient>
		<path class="st55" d="M1258.3,454.6c0,3-2.5,5.5-5.5,5.5h-45c-3,0-5.5-2.5-5.5-5.5v-4.9c0-3,2.5-5.5,5.5-5.5h45
			c3,0,5.5,2.5,5.5,5.5V454.6z"/>
	</g>
	
		<linearGradient id="SVGID_44_" gradientUnits="userSpaceOnUse" x1="-30.0952" y1="-7.7608" x2="-29.0952" y2="-7.7608" gradientTransform="matrix(4.6542 18.0325 -18.0325 4.6542 1177.8832 1059.1298)">
		<stop  offset="0" style="stop-color:#333333"/>
		<stop  offset="1" style="stop-color:#000000"/>
	</linearGradient>
	<path class="st56" d="M1187,492.5c0,0-15.5,6.7-14.6,13.6c0,0,16-3.1,18.8-7.6c2.9-4.6,1.3-7.2,1.3-7.2L1187,492.5z"/>
	
		<linearGradient id="SVGID_45_" gradientUnits="userSpaceOnUse" x1="14.8749" y1="67.196" x2="15.8745" y2="67.196" gradientTransform="matrix(-8.2103 -1.8171 1.8171 -8.2103 1192.1134 1068.9404)">
		<stop  offset="0" style="stop-color:#F9C476"/>
		<stop  offset="1" style="stop-color:#F6966A"/>
	</linearGradient>
	<path class="st57" d="M1190.8,484.9l0.8,6.8c0.1,1-0.5,2-1.4,2.4c-0.5,0.2-1.1,0.3-2,0.3c-1.2,0-2.2-0.8-2.5-1.9l-1.5-5.5
		L1190.8,484.9z"/>
	
		<linearGradient id="SVGID_46_" gradientUnits="userSpaceOnUse" x1="8.6585" y1="3.6802" x2="9.6585" y2="3.6802" gradientTransform="matrix(-24.0672 -56.6233 56.6233 -24.0672 1208.2601 1049.7916)">
		<stop  offset="0" style="stop-color:#2B3582"/>
		<stop  offset="0.23" style="stop-color:#252A70"/>
		<stop  offset="0.73" style="stop-color:#19164F"/>
		<stop  offset="1" style="stop-color:#150E42"/>
	</linearGradient>
	<path class="st58" d="M1224.6,432.8c0,0-28.4-1.3-42.6,6.9c-14.2,8.2,0.7,47.8,0.7,47.8s3.7,0.8,9-2c0,0-7.6-29,5.6-34
		c14.8-5.7,30.2-4.3,30.2-4.3l-2.8-13.5L1224.6,432.8z"/>
	
		<linearGradient id="SVGID_47_" gradientUnits="userSpaceOnUse" x1="-10.896" y1="-5.062" x2="-9.896" y2="-5.062" gradientTransform="matrix(20.3035 43.6888 -43.6888 20.3035 1179.0339 1076.5409)">
		<stop  offset="0" style="stop-color:#333333"/>
		<stop  offset="1" style="stop-color:#000000"/>
	</linearGradient>
	<path class="st59" d="M1175.6,503.1c3.2-0.7,12.8-4.7,14.3-4.6s3.5,2.2,3.5,2.2s0.4,1.2-0.7,2.9c-2.5,1.9-7.8,5.5-14,5.9
		c-4.5,0.3-7.3-1.5-8.9-3.3C1171.2,504.8,1173.4,503.5,1175.6,503.1z"/>
	
		<linearGradient id="SVGID_48_" gradientUnits="userSpaceOnUse" x1="5.5316" y1="24.9963" x2="6.5316" y2="24.9963" gradientTransform="matrix(-22.0779 -4.8864 4.8864 -22.0779 1191.3951 1087.7555)">
		<stop  offset="0" style="stop-color:#333333"/>
		<stop  offset="1" style="stop-color:#000000"/>
	</linearGradient>
	<path class="st60" d="M1178.7,509.4c6.2-0.4,11.5-3.9,14-5.9c-0.7,1.2-2,2.6-4.6,4c-6.3,3.5-16.6,3-18.6,2.2
		c-1.6-0.6-1.1-2.2,0.4-3.6C1171.4,507.9,1174.1,509.7,1178.7,509.4z"/>
	
		<linearGradient id="SVGID_49_" gradientUnits="userSpaceOnUse" x1="15.8493" y1="71.6129" x2="16.8496" y2="71.6129" gradientTransform="matrix(-7.7058 -1.7055 1.7055 -7.7058 1196.2764 1077.8232)">
		<stop  offset="0" style="stop-color:#F9C476"/>
		<stop  offset="1" style="stop-color:#F6966A"/>
	</linearGradient>
	<path class="st61" d="M1196.8,497.1c-0.2,0.8-2.5,3.2-3.8,4.5c-0.6,0.6-1.5,0.9-2.4,0.7c-0.6-0.1-1.2-0.3-1.7-0.6
		c-0.8-0.4-1.1-1.5-0.6-2.3l3.3-6L1196.8,497.1z"/>
	
		<linearGradient id="SVGID_50_" gradientUnits="userSpaceOnUse" x1="8.4871" y1="-1.6158" x2="9.4871" y2="-1.6158" gradientTransform="matrix(12.548 -65.8101 65.8101 12.548 1215.3369 1076.9176)">
		<stop  offset="0" style="stop-color:#2B3582"/>
		<stop  offset="1" style="stop-color:#150E42"/>
	</linearGradient>
	<path class="st62" d="M1252.8,430.5c0,0,2.5,17.6-4.7,21.2s-22.9,6-28.3,15.1s-15.2,27.1-24,32.2c0,0-5.1-1.6-6.5-4.1
		c0,0,10.5-27.7,14.9-34.4c3.8-5.8,9.4-14.2,17.2-17.8c2.3-1,2.4-3.4,2-5.9l-0.7-4.5L1252.8,430.5z"/>
	
		<linearGradient id="SVGID_51_" gradientUnits="userSpaceOnUse" x1="17.2498" y1="10.9094" x2="18.2499" y2="10.9094" gradientTransform="matrix(-15.16 -23.967 23.967 -15.16 1203.6089 994.8723)">
		<stop  offset="0" style="stop-color:#3FCEFC"/>
		<stop  offset="1" style="stop-color:#4C246D"/>
	</linearGradient>
	<path class="st63" d="M1186.3,410.5c10.1,2.9,14.6-25.4,14.5-26.1l15.4,18c0,0-9.2,16.2-23.1,17.9c-3.5,0.4-6.5-0.2-9-1.3
		C1186,416,1186.4,413,1186.3,410.5z"/>
	
		<linearGradient id="SVGID_52_" gradientUnits="userSpaceOnUse" x1="4.5434" y1="20.5263" x2="5.5435" y2="20.5263" gradientTransform="matrix(-26.8802 -5.9492 5.9492 -26.8802 1186.5659 990.5905)">
		<stop  offset="0" style="stop-color:#F9C476"/>
		<stop  offset="1" style="stop-color:#F6966A"/>
	</linearGradient>
	<path class="st64" d="M1167.6,401.2c4.4-1.8,8.1,1.8,8.1,1.8c4.3,4.5,7.8,6.7,10.5,7.5c0.1,2.5-0.3,5.5-2.1,8.5
		c-5.4-2.5-8.6-7.5-9.9-10c-0.5-0.9-1.6-1.3-2.5-0.8c-0.9,0.4-1.9,1.1-1.9,2.1c-0.1,1.8-2.3,1.9-2.3,1.3c0-0.7,1.7-4.3,1.7-4.3
		s-5,3.2-7,4.5s-3.6-0.8-3.6-0.8S1163.2,403,1167.6,401.2z"/>
	
		<linearGradient id="SVGID_53_" gradientUnits="userSpaceOnUse" x1="-4.7333" y1="-2.6673" x2="-3.7333" y2="-2.6673" gradientTransform="matrix(52.3051 92.8162 -92.8162 52.3051 1212.374 939.8021)">
		<stop  offset="0" style="stop-color:#3FCEFC"/>
		<stop  offset="1" style="stop-color:#4C246D"/>
	</linearGradient>
	<path class="st65" d="M1248.9,372.7c0,0-13.5-9.2-46.2,7.5c0,0-3.4,4.3-1.8,9.1s21,30.8,21.7,43c0,0,13.3,7.8,30.5,0.1
		C1253.1,432.3,1258.9,400.1,1248.9,372.7z"/>
	
		<linearGradient id="SVGID_54_" gradientUnits="userSpaceOnUse" x1="6.8478" y1="30.9431" x2="7.8476" y2="30.9431" gradientTransform="matrix(-17.8344 -3.9472 3.9472 -17.8344 1227.0103 948.9431)">
		<stop  offset="0" style="stop-color:#FCDEB3"/>
		<stop  offset="1" style="stop-color:#F9C476"/>
	</linearGradient>
	<path class="st66" d="M1217.4,358.3l8.7,13.1c0.5,1,0.4,2.3-0.3,3.2c-1.5,1.8-4.5,4.3-9.8,2.7c-1.6-0.5-2.7-1.7-3.1-3.3l-2.8-11.7
		L1217.4,358.3z"/>
	
		<linearGradient id="SVGID_55_" gradientUnits="userSpaceOnUse" x1="-4.4204" y1="-1.7364" x2="-3.4204" y2="-1.7364" gradientTransform="matrix(44.5769 113.4291 -113.4291 44.5769 1241.6749 987.0131)">
		<stop  offset="0" style="stop-color:#FCDEB3"/>
		<stop  offset="1" style="stop-color:#F9C476"/>
	</linearGradient>
	<path class="st67" d="M1237.3,402.5c0,0,17.2,9.8,22.4,5.1c0.4-0.3,0.6-0.7,0.8-1.1c2.8,1.9,6.5,5.9,8.1,13.4
		c-10.5,4.7-25.4-7.3-29.5-10.7c-0.7-0.6-1.5-0.9-2.4-0.8c-1.8,0.1-4.8,0.2-6.3-0.3c-2.3-0.7-6.8,7-10.2,3.9
		C1220.2,412,1225.5,398.2,1237.3,402.5z"/>
	<g>
		
			<linearGradient id="SVGID_56_" gradientUnits="userSpaceOnUse" x1="-11.1821" y1="-7.51" x2="-10.1821" y2="-7.51" gradientTransform="matrix(23.9575 35.6776 -35.6776 23.9575 1202.9281 929.5726)">
			<stop  offset="0" style="stop-color:#FCDEB3"/>
			<stop  offset="1" style="stop-color:#F9C476"/>
		</linearGradient>
		<path class="st68" d="M1197.7,350c0,0.2,3.9,13.8,5.9,20.8c0.6,2.1,2.9,3.2,5,2.4l1.6-0.7c2.1-0.9,5.9-3.6,6.1-5.9l-0.7-16.5
			C1215.5,350.1,1198,344.9,1197.7,350z"/>
		
			<linearGradient id="SVGID_57_" gradientUnits="userSpaceOnUse" x1="1.1858" y1="21.1884" x2="2.1859" y2="21.1884" gradientTransform="matrix(-27.2344 -1.5247 1.5247 -27.2344 1219.6421 928.428)">
			<stop  offset="0" style="stop-color:#666666"/>
			<stop  offset="1" style="stop-color:#000000"/>
		</linearGradient>
		<path class="st69" d="M1215.4,345.5c0.4-1.5,0.4-3.8-2.5-4.9c-3-1-5,0.7-6,2c-0.4,0.5-1.2,0.7-1.8,0.4c-0.3-0.2-0.8-0.2-1.3,0.2
			c-0.7,0.5-1.6,0.3-2-0.4c-0.8-1.3-2.3-2.7-5.1-2c-4.9,1.3-5,6.8-3.4,9.9s6.8,1.4,9.3-0.4c1.9-1.4,4.7-0.3,5.9,0.2
			c0.4,0.2,0.7,0.5,0.7,0.9l1.4,6.1c1.5,0.1,3,0.4,4.5,0.7c0-0.5,0-0.8,0-1.1c0.1-2,2.4-3.4,3.5-4c0.3-0.2,0.6-0.5,0.7-0.8
			c0.4-1.3,0.8-4.2-2.9-5.1C1215.7,347.1,1215.2,346.3,1215.4,345.5z"/>
		
			<linearGradient id="SVGID_58_" gradientUnits="userSpaceOnUse" x1="16.6326" y1="14.4876" x2="17.6326" y2="14.4876" gradientTransform="matrix(-17.2367 -19.7856 19.7856 -17.2367 1234.2278 954.9057)">
			<stop  offset="0" style="stop-color:#FCDEB3"/>
			<stop  offset="0.52" style="stop-color:#FCDDB1"/>
			<stop  offset="0.71" style="stop-color:#FCDAAA"/>
			<stop  offset="0.84" style="stop-color:#FBD59F"/>
			<stop  offset="0.95" style="stop-color:#FACE8E"/>
			<stop  offset="1" style="stop-color:#FACA83"/>
		</linearGradient>
		<path class="st70" d="M1215.9,360.7c0,0-2.5-5.5-0.6-7.1c2-1.6,5.1-1.1,4.8,3.1C1219.8,361.9,1215.9,360.7,1215.9,360.7z"/>
	</g>
	<g>
		
			<linearGradient id="SVGID_59_" gradientUnits="userSpaceOnUse" x1="-4.8585" y1="14.8164" x2="-3.8585" y2="14.8164" gradientTransform="matrix(-35.2804 11.5712 -11.5712 -35.2804 1218.0444 980.3064)">
			<stop  offset="0" style="stop-color:#4D4D4D"/>
			<stop  offset="1" style="stop-color:#1A1A1A"/>
		</linearGradient>
		<path class="st71" d="M1210.4,413.2L1210.4,413.2h-44.5c-1.1,0-2-0.9-2-2s0.9-2,2-2h44.4c1.1,0,2,0.9,2,2
			S1211.5,413.2,1210.4,413.2z"/>
		
			<linearGradient id="SVGID_60_" gradientUnits="userSpaceOnUse" x1="-11.3738" y1="10.7637" x2="-10.3738" y2="10.7637" gradientTransform="matrix(-25.4073 26.8542 -26.8542 -25.4073 1169.5942 957.1284)">
			<stop  offset="0" style="stop-color:#4D4D4D"/>
			<stop  offset="1" style="stop-color:#1A1A1A"/>
		</linearGradient>
		<path class="st72" d="M1125.9,372.9h37c2.7,0,5.2,1.6,6.4,4l17.1,36.3h-46c-1.8,0-3.3-1.1-4-2.7l-13.3-33.6
			C1122.4,375,1123.9,372.9,1125.9,372.9z"/>
	</g>
	<g>
		<path class="st4" d="M758.6,316.1c-1.1-0.2-1.9-1-1.7-1.8l4,0.8C760.7,315.9,759.7,316.3,758.6,316.1z"/>
		<path d="M755.4,305.2c-0.3,0.5-0.1,1.1,0.4,1.4c0.5,0.3,1.1,0.1,1.4-0.4c0.3-0.5,0.1-1.1-0.4-1.4
			C756.3,304.5,755.7,304.7,755.4,305.2z"/>
		<path d="M762.4,307.4c-0.3,0.5-0.1,1.1,0.4,1.4c0.5,0.3,1.1,0.1,1.4-0.4c0.3-0.5,0.1-1.1-0.4-1.4
			C763.3,306.8,762.7,306.9,762.4,307.4z"/>
		<g>
			<path d="M758.3,304.5c-0.1,0-0.2-0.1-0.3-0.2c0,0-0.4-0.7-1.1-0.8c-0.4-0.1-0.8,0-1.3,0.4c-0.2,0.1-0.4,0.1-0.5-0.1
				c-0.1-0.2-0.1-0.4,0.1-0.5c0.6-0.4,1.3-0.6,1.9-0.5c1,0.2,1.5,1.1,1.6,1.1c0.1,0.2,0,0.4-0.1,0.5
				C758.5,304.5,758.4,304.5,758.3,304.5z"/>
		</g>
		<g>
			<path d="M765.2,306.8c-0.1,0-0.2-0.1-0.3-0.2c0,0-0.4-0.7-1.1-0.8c-0.4-0.1-0.8,0-1.3,0.4c-0.2,0.1-0.4,0.1-0.5-0.1
				c-0.1-0.2-0.1-0.4,0.1-0.5c0.6-0.4,1.3-0.6,1.9-0.5c1,0.2,1.5,1.1,1.6,1.1c0.1,0.2,0,0.4-0.1,0.5
				C765.4,306.8,765.3,306.8,765.2,306.8z"/>
		</g>
		<path class="st4" d="M762.2,307.5c-0.1,0.2,0,0.4,0.2,0.6c0.2,0.1,0.4,0,0.6-0.2c0.1-0.2,0-0.4-0.2-0.6
			C762.5,307.2,762.3,307.3,762.2,307.5z"/>
		<path class="st4" d="M755.1,305.4c-0.1,0.2,0,0.4,0.2,0.6c0.2,0.1,0.4,0,0.6-0.2c0.1-0.2,0-0.4-0.2-0.6
			C755.5,305.1,755.3,305.2,755.1,305.4z"/>
		<g>
			<path d="M764.8,308.2c-0.1,0-0.2-0.1-0.2-0.2c0-0.1-0.7-1.4-2.3-0.7c-0.1,0.1-0.3,0-0.4-0.1c-0.1-0.1,0-0.3,0.1-0.4
				c2.1-0.8,2.9,1,3,1C765.1,307.9,765,308.1,764.8,308.2C764.9,308.2,764.8,308.2,764.8,308.2z"/>
		</g>
		<g>
			<path d="M757.9,305.9c-0.1,0-0.2-0.1-0.2-0.2c0-0.1-0.7-1.4-2.3-0.7c-0.1,0.1-0.3,0-0.4-0.1s0-0.3,0.1-0.4c2.1-0.8,2.9,1,3,1
				C758.2,305.6,758.1,305.8,757.9,305.9L757.9,305.9z"/>
		</g>
		<g>
			<path class="st73" d="M760.5,306.3c-0.1,1.4-0.1,2.8-0.2,4.2c0,0.3-0.1,0.7,0.1,1c0,0.1,0.2,0.4,0.2,0.6c0,0.2,0,0.5-0.1,0.6
				c-0.3,0.3-1,0.3-1.4,0.2s-0.9-0.5-0.9-0.9c0-0.3-0.5-0.3-0.5,0c0,0.6,0.4,1,0.9,1.3c0.4,0.2,0.9,0.3,1.4,0.2
				c0.8-0.1,1.2-0.7,1.1-1.5c0-0.3-0.1-0.5-0.2-0.8l-0.1-0.1c0.2-0.1,0,0.2,0,0.1v-0.1c0-0.8,0.1-1.7,0.1-2.5s0.1-1.5,0.1-2.3
				C761,306,760.5,306,760.5,306.3z"/>
		</g>
	</g>
	<g>
		<path class="st4" d="M1208,367.8c1.2-0.5,1.9-1.5,1.6-2.1l-4.4,1.8C1205.5,368.1,1206.8,368.3,1208,367.8z"/>
		<path d="M1208.3,355.8c0.2,0.4,0.1,0.9-0.3,1.1s-0.9,0.1-1.1-0.3c-0.2-0.4-0.1-0.9,0.3-1.1
			C1207.6,355.2,1208.1,355.4,1208.3,355.8z"/>
		<path d="M1202.7,357.6c0.2,0.4,0.1,0.9-0.3,1.1c-0.4,0.2-0.9,0.1-1.1-0.3c-0.2-0.4-0.1-0.9,0.3-1.1
			C1201.9,357,1202.5,357.2,1202.7,357.6z"/>
		<g>
			<path d="M1206,355.2c0.1,0,0.2-0.1,0.2-0.1s0.3-0.5,0.9-0.7c0.3-0.1,0.7,0,1,0.3c0.1,0.1,0.3,0.1,0.4-0.1s0.1-0.3-0.1-0.4
				c-0.5-0.4-1-0.5-1.5-0.4c-0.8,0.2-1.2,0.9-1.3,0.9c-0.1,0.1,0,0.3,0.1,0.4C1205.9,355.2,1205.9,355.2,1206,355.2z"/>
		</g>
		<g>
			<path d="M1200.4,357.1c0.1,0,0.2-0.1,0.2-0.1s0.3-0.5,0.9-0.7c0.3-0.1,0.7,0,1,0.3c0.1,0.1,0.3,0.1,0.4-0.1
				c0.1-0.1,0.1-0.3-0.1-0.4c-0.5-0.4-1-0.5-1.5-0.4c-0.8,0.2-1.2,0.9-1.3,0.9c-0.1,0.1,0,0.3,0.1,0.4
				C1200.3,357,1200.3,357.1,1200.4,357.1z"/>
		</g>
		<path class="st4" d="M1202.8,357.6c0.1,0.2,0,0.4-0.1,0.4s-0.4,0-0.4-0.1c-0.1-0.2,0-0.4,0.1-0.4
			C1202.6,357.4,1202.8,357.4,1202.8,357.6z"/>
		<path class="st4" d="M1208.5,355.9c0.1,0.2,0,0.4-0.1,0.4c-0.2,0.1-0.4,0-0.4-0.1c-0.1-0.2,0-0.4,0.1-0.4
			C1208.2,355.7,1208.4,355.8,1208.5,355.9z"/>
		<g>
			<path d="M1200.8,358.2c0.1,0,0.1,0,0.2-0.1c0,0,0.5-1.1,1.8-0.6c0.1,0,0.2,0,0.3-0.1s0-0.2-0.1-0.3c-1.7-0.7-2.4,0.8-2.4,0.8
				C1200.6,358,1200.6,358.1,1200.8,358.2C1200.7,358.2,1200.7,358.2,1200.8,358.2z"/>
		</g>
		<g>
			<path d="M1206.3,356.3c0.1,0,0.1,0,0.2-0.1c0,0,0.5-1.1,1.8-0.6c0.1,0,0.2,0,0.3-0.1c0-0.1,0-0.2-0.1-0.3
				c-1.7-0.7-2.4,0.8-2.4,0.8C1206.1,356.1,1206.1,356.2,1206.3,356.3C1206.2,356.3,1206.3,356.4,1206.3,356.3z"/>
		</g>
		<g>
			<path class="st73" d="M1204.3,357.6c0.1,1.4,0.1,2.7,0.2,4.1c0,0.3,0.1,0.7-0.1,1c-0.1,0.1-0.2,0.4-0.2,0.6s0,0.4,0.1,0.6
				c0.3,0.3,1,0.2,1.4,0.1c0.4-0.1,0.9-0.5,0.9-0.9c0-0.3,0.6-0.3,0.6,0c0,0.6-0.4,1-0.9,1.2c-0.4,0.2-1,0.3-1.5,0.2
				c-0.9-0.1-1.3-0.7-1.1-1.4c0-0.3,0.1-0.5,0.2-0.7l0.1-0.1c-0.2-0.1,0,0.2,0,0.1v-0.1c0-0.8-0.1-1.6-0.1-2.4
				c0-0.7-0.1-1.5-0.1-2.2C1203.7,357.3,1204.2,357.3,1204.3,357.6z"/>
		</g>
	</g>
	
		<linearGradient id="SVGID_61_" gradientUnits="userSpaceOnUse" x1="-4.7333" y1="-2.6674" x2="-3.7333" y2="-2.6674" gradientTransform="matrix(52.3054 92.8162 -92.8162 52.3054 1232.4678 928.4536)">
		<stop  offset="0" style="stop-color:#3FCEFC"/>
		<stop  offset="1" style="stop-color:#4C246D"/>
	</linearGradient>
	<path class="st74" d="M1258.9,409.3c0.9-6.4-15.9-18.7-15.9-18.7l5.9-17.9c0,0,32.1,22.9,25.3,41.6c-1,2.7-2.4,4.6-4.2,6
		C1266.7,413.4,1262.1,410.5,1258.9,409.3z"/>
	<g>
		<g>
			
				<linearGradient id="SVGID_62_" gradientUnits="userSpaceOnUse" x1="8.139886e-05" y1="-13.4913" x2="1" y2="-13.4913" gradientTransform="matrix(42.9051 0 0 42.9051 1130.7826 1042.2231)">
				<stop  offset="0" style="stop-color:#808080"/>
				<stop  offset="0.14" style="stop-color:#8A8A8A"/>
				<stop  offset="0.39" style="stop-color:#A5A5A5"/>
				<stop  offset="0.71" style="stop-color:#D1D1D1"/>
				<stop  offset="0.99" style="stop-color:#FFFFFF"/>
				<stop  offset="1" style="stop-color:#FFFFFF"/>
			</linearGradient>
			<path class="st75" d="M1132.7,509.3c-0.2,0-0.5,0-0.7-0.1c-0.9-0.4-1.4-1.5-1-2.4l39.2-88.2c0.4-0.9,1.5-1.3,2.5-0.9
				c0.9,0.4,1.4,1.5,1,2.4l-39.2,88.2C1134.1,508.9,1133.4,509.3,1132.7,509.3z"/>
			
				<linearGradient id="SVGID_63_" gradientUnits="userSpaceOnUse" x1="5.438006e-05" y1="-13.4912" x2="1.0001" y2="-13.4912" gradientTransform="matrix(42.9045 0 0 42.9045 1135.7433 1042.1624)">
				<stop  offset="0" style="stop-color:#808080"/>
				<stop  offset="0.14" style="stop-color:#8A8A8A"/>
				<stop  offset="0.39" style="stop-color:#A5A5A5"/>
				<stop  offset="0.71" style="stop-color:#D1D1D1"/>
				<stop  offset="0.99" style="stop-color:#FFFFFF"/>
				<stop  offset="1" style="stop-color:#FFFFFF"/>
			</linearGradient>
			<path class="st76" d="M1176.8,509.3c-0.7,0-1.4-0.4-1.7-1.1l-39.2-88.2c-0.4-0.9,0-2,1-2.4c0.9-0.4,2,0,2.5,0.9l39.2,88.2
				c0.4,0.9,0,2-1,2.4C1177.3,509.2,1177,509.3,1176.8,509.3z"/>
			
				<linearGradient id="SVGID_64_" gradientUnits="userSpaceOnUse" x1="7.448390e-04" y1="-13.4911" x2="1.0006" y2="-13.4911" gradientTransform="matrix(42.9044 0 0 42.9044 1252.0275 1042.2061)">
				<stop  offset="0" style="stop-color:#808080"/>
				<stop  offset="0.14" style="stop-color:#8A8A8A"/>
				<stop  offset="0.39" style="stop-color:#A5A5A5"/>
				<stop  offset="0.71" style="stop-color:#D1D1D1"/>
				<stop  offset="0.99" style="stop-color:#FFFFFF"/>
				<stop  offset="1" style="stop-color:#FFFFFF"/>
			</linearGradient>
			<path class="st77" d="M1253.9,509.3c-0.2,0-0.5,0-0.7-0.1c-0.9-0.4-1.4-1.5-1-2.4l39.2-88.2c0.4-0.9,1.5-1.3,2.5-0.9
				c0.9,0.4,1.4,1.5,1,2.4l-39.2,88.2C1255.3,508.9,1254.6,509.3,1253.9,509.3z"/>
			
				<linearGradient id="SVGID_65_" gradientUnits="userSpaceOnUse" x1="-8.276206e-04" y1="-13.4912" x2="0.9992" y2="-13.4912" gradientTransform="matrix(42.9045 0 0 42.9045 1256.9811 1042.1624)">
				<stop  offset="0" style="stop-color:#808080"/>
				<stop  offset="0.14" style="stop-color:#8A8A8A"/>
				<stop  offset="0.39" style="stop-color:#A5A5A5"/>
				<stop  offset="0.71" style="stop-color:#D1D1D1"/>
				<stop  offset="0.99" style="stop-color:#FFFFFF"/>
				<stop  offset="1" style="stop-color:#FFFFFF"/>
			</linearGradient>
			<path class="st78" d="M1298,509.3c-0.7,0-1.4-0.4-1.7-1.1l-39.2-88.2c-0.4-0.9,0-2,1-2.4c0.9-0.4,2,0,2.5,0.9l39.2,88.2
				c0.4,0.9,0,2-1,2.4C1298.5,509.2,1298.3,509.3,1298,509.3z"/>
		</g>
		
			<linearGradient id="SVGID_66_" gradientUnits="userSpaceOnUse" x1="-4.677087e-04" y1="-3.1802" x2="0.9999" y2="-3.1802" gradientTransform="matrix(181.9793 0 0 181.9793 1120.67 997.1285)">
			<stop  offset="0" style="stop-color:#808080"/>
			<stop  offset="0.14" style="stop-color:#8A8A8A"/>
			<stop  offset="0.39" style="stop-color:#A5A5A5"/>
			<stop  offset="0.71" style="stop-color:#D1D1D1"/>
			<stop  offset="0.99" style="stop-color:#FFFFFF"/>
			<stop  offset="1" style="stop-color:#FFFFFF"/>
		</linearGradient>
		<path class="st79" d="M1302.6,415.9c0.1-0.6,0-1.2-0.4-1.6c-0.3-0.5-0.8-0.7-1.4-0.7h-178.2c-0.7,0-1.3,0.4-1.7,1
			c-0.4,0.7-0.4,1.5-0.1,2.2l1.9,4.7c0.4,1.1,1.4,1.8,2.5,1.8h174.4c1,0,1.8-0.8,2-1.9L1302.6,415.9z"/>
	</g>
	<path class="st4" d="M1259.9,140.8l-13.6-5.9c-0.2-0.1-0.5-0.1-0.7,0l-13.6,5.9c-0.7,0.3-0.7,1.4,0,1.7l4.9,2.1v5.7
		c0,3.1,4,5.5,9.1,5.5s9.1-2.4,9.1-5.5v-5.7l0.9-0.4v9.7c0,0.5,0.4,0.9,0.9,0.9s0.9-0.4,0.9-0.9v-10.5l2.2-0.9
		C1260.7,142.2,1260.7,141.1,1259.9,140.8z M1245.9,136.7l11.4,4.9l-0.9,0.4l-10.3-1.3c-0.5-0.1-1,0.3-1,0.8c-0.1,0.5,0.3,1,0.8,1
		l7.3,0.9l-7.2,3.1c-6.4-2.8-5.1-2.2-11.4-4.9L1245.9,136.7z M1253.2,150.3c0,0.9-0.7,1.7-1.9,2.4c-2.9,1.6-7.8,1.6-10.7,0
		c-1.2-0.7-1.9-1.6-1.9-2.4v-4.9l6.9,3c0.2,0.1,0.5,0.1,0.7,0l6.9-3V150.3z"/>
	<g>
		<path class="st4" d="M996.4,83.3c-1.5-0.6-2.5-1.7-2.2-2.4l5.6,2.1C999.4,83.8,997.9,83.9,996.4,83.3z"/>
		<path d="M993.7,73c-0.2,0.5,0.1,1.1,0.7,1.3c0.5,0.2,1.1-0.1,1.3-0.7c0.2-0.5-0.1-1.1-0.7-1.3C994.4,72.2,993.8,72.5,993.7,73z"/>
		<path d="M1002.6,75.2c-0.4,0.4-0.5,1-0.1,1.4s1,0.5,1.4,0.1s0.5-1,0.1-1.4C1003.7,74.9,1003,74.8,1002.6,75.2z"/>
		<g>
			<path d="M996.3,71.8c-0.1,0-0.2,0-0.3-0.1c0,0-0.5-0.6-1.2-0.6c-0.4,0-0.8,0.2-1.2,0.6c-0.1,0.1-0.4,0.1-0.5,0s-0.1-0.4,0-0.5
				c0.5-0.6,1.1-0.8,1.8-0.8c1,0,1.7,0.8,1.8,0.8c0.1,0.1,0.1,0.4,0,0.5C996.5,71.8,996.4,71.8,996.3,71.8z"/>
		</g>
		<g>
			<path d="M1005.4,75.6c-0.1,0-0.2-0.1-0.2-0.3c0,0-0.2-0.8-0.8-1.1c-0.4-0.2-0.8-0.3-1.3-0.1c-0.2,0.1-0.4-0.1-0.4-0.3
				s0.1-0.4,0.3-0.4c0.7-0.2,1.4-0.1,1.9,0.2c0.9,0.5,1.1,1.6,1.1,1.6c0,0.2-0.1,0.4-0.3,0.4C1005.6,75.6,1005.5,75.6,1005.4,75.6z"
				/>
		</g>
		<path class="st4" d="M1002.4,75.2c-0.2,0.1-0.2,0.4,0,0.6c0.1,0.2,0.4,0.2,0.6,0c0.2-0.1,0.2-0.4,0-0.6S1002.5,75,1002.4,75.2z"/>
		<path class="st4" d="M993.4,73.3c-0.1,0.2,0,0.4,0.3,0.5c0.2,0.1,0.4,0,0.5-0.3c0.1-0.2,0-0.4-0.3-0.5
			C993.7,72.9,993.5,73,993.4,73.3z"/>
		<g>
			<path d="M1004.6,76.7c-0.1,0-0.1-0.1-0.2-0.2c0-0.1-0.2-1.5-1.9-1.5c-0.1,0-0.3-0.1-0.3-0.3c0-0.1,0.1-0.3,0.3-0.3
				c2.2-0.1,2.4,2,2.4,2C1004.9,76.5,1004.8,76.7,1004.6,76.7C1004.6,76.7,1004.6,76.7,1004.6,76.7z"/>
		</g>
		<g>
			<path d="M996.2,73.3c-0.1,0-0.2,0-0.2-0.1c0,0-0.9-1.2-2.4-0.3c-0.1,0.1-0.3,0-0.4-0.1c-0.1-0.1,0-0.3,0.1-0.4
				c1.9-1.2,3.1,0.4,3.1,0.4C996.5,72.9,996.5,73.1,996.2,73.3C996.3,73.3,996.3,73.3,996.2,73.3z"/>
		</g>
		<g>
			<path class="st73" d="M999.2,73.7c0.1,1.1,0.1,2.2,0.2,3.4c0,0.3,0,0.6,0.2,0.8c0.1,0.1,0.2,0.3,0.3,0.5c0,0.2,0.1,0.4-0.1,0.5
				c-0.3,0.3-1.1,0.3-1.5,0.3s-1-0.3-1.1-0.6s-0.6-0.2-0.6,0.1c0.1,0.4,0.6,0.7,1.1,0.9c0.5,0.1,1.1,0.1,1.6,0
				c0.9-0.2,1.3-0.7,1.1-1.3c-0.1-0.2-0.2-0.4-0.3-0.6l-0.1-0.1c0.2-0.1,0,0.2,0,0.1v-0.1c0-0.7-0.1-1.3-0.1-2
				c0-0.6-0.1-1.2-0.1-1.8C999.7,73.3,999.2,73.4,999.2,73.7z"/>
		</g>
	</g>
	<g>
		<path class="st80" d="M804.3,294c0,1.2-1,2.3-2.2,2.3h-3.2v16.2c0,1.2-1,2.3-2.2,2.3s-2.2-1-2.2-2.3v-16.2h-3.2
			c-1.2,0-2.2-1-2.2-2.3s1-2.2,2.2-2.2h3.2v-9.2c0-1.2,1-2.2,2.2-2.2c1.3,0,2.2,1,2.2,2.2v9.2h3.2
			C803.3,291.8,804.3,292.8,804.3,294z"/>
		<path class="st80" d="M817.6,294c0,1.2-1,2.3-2.2,2.3c-3.7,0-6.8,3.1-6.8,6.9v9.2c0,1.2-1,2.3-2.2,2.3c-1.3,0-2.2-1-2.2-2.3v-9.2
			c0-6.4,5.1-11.5,11.2-11.5C816.6,291.8,817.6,292.8,817.6,294z"/>
		<path class="st80" d="M839.7,303.4v8.9c0,1.4-1,2.3-2.2,2.3c-0.9,0-2.2-1-2.2-2.3c-1.9,1.7-4.1,2.3-6.6,2.3
			c-6.3,0-11.3-4.8-11.3-11.2s5-11.5,11.3-11.5S839.7,297,839.7,303.4z M835.3,303.4c0-3.8-2.9-7.1-6.6-7.1c-3.7,0-6.9,3.3-6.9,7.1
			s3.2,6.8,6.9,6.8S835.3,307.3,835.3,303.4z"/>
		<path class="st80" d="M864.7,303.1c0,6.3-5,11.5-11.2,11.5s-11.2-5.2-11.2-11.5V303v-20.5c0-1.2,1-2.2,2.2-2.2s2.2,1,2.2,2.2v11.4
			c1.9-1.4,4.2-2.3,6.8-2.3C859.7,291.7,864.7,296.8,864.7,303.1z M860.4,303.1c0-3.8-3-6.9-6.8-6.9c-3.7,0-6.8,3.1-6.8,6.9v0.1
			c0,3.8,3,6.9,6.8,6.9C857.3,310.1,860.4,306.9,860.4,303.1z"/>
		<path class="st80" d="M889.8,303.4v8.9c0,1.4-1,2.3-2.2,2.3c-0.9,0-2.2-1-2.2-2.3c-1.9,1.7-4.1,2.3-6.6,2.3
			c-6.3,0-11.3-4.8-11.3-11.2s5-11.5,11.3-11.5S889.8,297,889.8,303.4z M885.4,303.4c0-3.8-2.9-7.1-6.6-7.1s-6.9,3.3-6.9,7.1
			s3.2,6.8,6.9,6.8S885.4,307.3,885.4,303.4z"/>
		<path class="st80" d="M900.1,294.1v21.1c0,0,0,0,0,0.1c0,3.1-1.2,6.1-3.3,8.2c-1.2,1.2-2.6,2.1-4.1,2.7c-0.2,0.1-0.5,0.2-0.8,0.2
			c-0.9,0-1.8-0.6-2.1-1.5c-0.4-1.2,0.2-2.5,1.4-2.9c1-0.4,1.8-0.9,2.5-1.7c1.4-1.4,2.1-3.2,2-5c0-0.1,0-0.1,0-0.2v-20.9
			c0-1.2,1-2.2,2.2-2.2C899.2,291.9,900.1,292.8,900.1,294.1z M896.4,286.6c-0.4-0.4-0.6-1-0.6-1.6s0.2-1.2,0.6-1.6
			c0.5-0.4,1-0.7,1.6-0.7s1.2,0.2,1.6,0.7c0.5,0.4,0.6,1,0.6,1.6s-0.2,1.2-0.6,1.6c-0.4,0.4-1,0.6-1.6,0.6S896.8,287,896.4,286.6z"
			/>
		<path class="st80" d="M925.2,303.4v8.9c0,1.4-1,2.3-2.2,2.3c-0.9,0-2.2-1-2.2-2.3c-1.9,1.7-4.1,2.3-6.6,2.3
			c-6.3,0-11.3-4.8-11.3-11.2s5-11.5,11.3-11.5S925.2,297,925.2,303.4z M920.8,303.4c0-3.8-2.9-7.1-6.6-7.1c-3.7,0-6.9,3.3-6.9,7.1
			s3.2,6.8,6.9,6.8S920.8,307.3,920.8,303.4z"/>
		<path class="st80" d="M941.4,294c0,1.2-1,2.3-2.2,2.3c-3.7,0-6.8,3.1-6.8,6.9v9.2c0,1.2-1,2.3-2.2,2.3c-1.3,0-2.2-1-2.2-2.3v-9.2
			c0-6.4,5.1-11.5,11.2-11.5C940.4,291.8,941.4,292.8,941.4,294z"/>
		<path class="st80" d="M962.1,294.2v22.5c0,5.2-4.1,9.4-9.2,9.4c-3.5,0-6.7-2.1-8.3-5.3c-0.6-1.1-0.1-2.5,1-3c1-0.6,2.4-0.1,2.9,1
			c0.9,1.7,2.5,2.7,4.4,2.7c2.7,0,4.9-2.2,4.9-4.9v-3.3c-1.4,0.8-2.9,1.3-4.6,1.3c-4.9,0-8.9-4.1-9-9.1c0-0.1,0-0.1,0-0.1V294
			c0-1.2,1-2.2,2.2-2.2c1.3,0,2.2,1,2.2,2.2v11.3c0,2.6,2.1,4.7,4.6,4.7s4.6-2.1,4.6-4.7V294c0-1.2,1-2.2,2.2-2.2
			C961.1,292,962.1,292.9,962.1,294.2z"/>
		<path class="st80" d="M987.2,303.4v8.9c0,1.4-1,2.3-2.2,2.3c-0.9,0-2.2-1-2.2-2.3c-1.9,1.7-4.1,2.3-6.6,2.3
			c-6.3,0-11.3-4.8-11.3-11.2s5-11.5,11.3-11.5S987.2,297,987.2,303.4z M982.7,303.4c0-3.8-2.9-7.1-6.6-7.1s-6.9,3.3-6.9,7.1
			s3.2,6.8,6.9,6.8S982.7,307.3,982.7,303.4z"/>
		<path class="st80" d="M990.5,314c-0.4-0.4-0.6-1-0.6-1.6s0.2-1.1,0.6-1.6c0.5-0.4,1-0.6,1.6-0.6s1.2,0.2,1.6,0.6
			c0.5,0.5,0.6,1,0.6,1.6s-0.2,1.2-0.6,1.6c-0.4,0.5-1,0.7-1.6,0.7C991.5,314.8,990.9,314.5,990.5,314z"/>
		<path class="st80" d="M997,303.3c0-6.4,5-11.5,11.2-11.5c4.1,0,7.7,2.2,9.8,5.7c0.6,1.1,0.2,2.5-0.8,3.1c-1.1,0.6-2.4,0.2-3-0.8
			c-1.2-2.2-3.4-3.5-5.9-3.5c-3.7,0-6.8,3.1-6.8,6.9c0,3.8,3.1,6.9,6.8,6.9c2.3,0,4.5-1.2,5.7-3.2c0.6-1,2.1-1.4,3.1-0.7
			s1.3,2.1,0.6,3.2c-2.1,3.3-5.6,5.3-9.5,5.3C1002,314.8,997,309.6,997,303.3z"/>
		<path class="st80" d="M1020.2,303.3c0-6.4,5.1-11.5,11.2-11.5c6.2,0,11.2,5.1,11.2,11.5c0,6.3-5,11.5-11.2,11.5
			C1025.3,314.8,1020.2,309.6,1020.2,303.3z M1024.7,303.3c0,3.8,3,6.9,6.8,6.9c3.7,0,6.8-3.2,6.8-6.9c0-3.8-3-6.9-6.8-6.9
			C1027.7,296.3,1024.7,299.4,1024.7,303.3z"/>
		<path class="st80" d="M1076.8,301.2c0.1,0.1,0.1,0.2,0.1,0.2v11.1c0,1.3-1,2.3-2.2,2.3s-2.2-1-2.2-2.3v-11.1c0-0.1,0-0.2,0-0.2
			c0-0.1,0-0.1,0-0.2c0-2.5-2.1-4.6-4.5-4.6c-2.5,0-4.5,2.1-4.5,4.6v11.5c0,1.3-1,2.3-2.2,2.3s-2.2-1-2.2-2.3V301
			c0-2.5-2-4.6-4.5-4.6s-4.5,2.1-4.5,4.6v11.5c0,1.3-1,2.3-2.2,2.3c-1.3,0-2.2-1-2.2-2.3V301c0-5,4.1-9.2,9-9.2
			c2.7,0,5.1,1.2,6.8,3.2c1.7-2,4.1-3.2,6.8-3.2c4.9,0,9,4.1,9,9.2C1076.8,301.1,1076.8,301.1,1076.8,301.2z"/>
	</g>
</g>
</svg>
