<?xml version="1.0" encoding="utf-8"?>
<!-- Generator: Adobe Illustrator 25.4.1, SVG Export Plug-In . SVG Version: 6.00 Build 0)  -->
<svg version="1.1" id="Capa_1" xmlns="http://www.w3.org/2000/svg" xmlns:xlink="http://www.w3.org/1999/xlink" x="0px" y="0px"
	 viewBox="0 0 585 210" style="enable-background:new 0 0 585 210;" xml:space="preserve">
<style type="text/css">
	.st0{fill:#43493B;}
	.st1{opacity:0.6;fill:#FFFFFF;enable-background:new    ;}
	.st2{fill:#92C846;}
	.st3{fill:#F2F2F2;}
	.st4{fill:#E6E6E6;}
	.st5{fill:#CCCCCC;}
	.st6{fill:#3F3D56;}
	.st7{fill:#FFFFFF;}
	.st8{fill:#FFB6B6;}
	.st9{fill:#A0616A;}
	.st10{fill:#009DC2;}
	.st11{fill:#2F2E41;}
	.st12{opacity:0.1;enable-background:new    ;}
</style>
<rect y="0" class="st0" width="585" height="210"/>
<path class="st1" d="M160.2,112.3c3.2,1.8,6.6,3.3,10.1,4.3c7,2.1,15,1.5,21.8,4.7c10.6,4.9,6.4,14.1,3.8,23.2
	c-2.5,8.8,4.3,21.6,10.4,27.3c25.5,23.3,63.1,9.9,91.3,0.4c18.4-6.2,38.9-6.8,57.8-2.6c16.6,3.6,32.5,13.9,49.3,5
	c15.6-8.3,25.9-27.3,24.3-45.1c-0.9-9.9-5.7-19.2-5.5-29.2c0.2-9.6,5.4-17.7,10.2-25.7c9.6-16.3,1-37.7-15.1-45.1
	c-14.1-6.4-31.6-5.7-46.6-3.6c-8.3,1.2-16.6,2.8-24.8,4.4c-16.3,3.1-33,3.3-49.1-0.8c-15.4-3.9-30-10.9-46.2-9.9
	c-11.8,0.7-22,7.8-28.1,18c-9.2,15.4-21.4,13.2-37.1,13.9c-18.3,0.7-32.1,15.1-37.7,31.9C144.5,96.7,150.1,106.4,160.2,112.3z"/>
<path class="st2" d="M425.3,91.2c-5.6-2.9-11.5-5-17.7-6.3c-3.9-0.9-16.9-1.6-19.4-4.4c-5.5-6.3-1-13.9,0.9-20.6
	c4.4-15.6-10.5-28.1-22.4-35.2c-11.7-6.9-25.4-5.6-38.3-4c-13.8,1.8-26.9,4.9-39.5,11c-11.5,5.5-23.1,15.8-36.4,16.3
	c-12.9,0.4-22.7-9.5-32.5-16.3c-30.4-21.1-67,9.7-63.9,43.2c1.6,17.4,13.1,35.1-1.7,50.3c-0.6,0.7-1.3,1.3-1.8,2.1
	c-4.9,6.3-5.7,10.5-5.4,18.9c1,21.9,20.6,31.6,40,34.1c16.6,2.1,30-10.3,45-14.9c14.4-4.5,30,2.5,43.8,6.6
	c27.6,8.3,66.1,27.1,85.4-5.1c9.2-15.4,21.5-13.2,37.2-13.9c18.3-0.8,32.1-15.1,37.7-31.9C441.1,106,435.6,96.9,425.3,91.2z"/>
<g>
	<path class="st3" d="M187.6,54.8c-12.2,0-22.1-9.9-22.1-22.1s9.9-22.1,22.1-22.1c12.2,0,22.1,9.9,22.1,22.1
		C209.6,45,199.8,54.8,187.6,54.8z M187.6,11.6c-11.7,0-21.2,9.5-21.2,21.2s9.5,21.2,21.2,21.2c11.7,0,21.2-9.5,21.2-21.2l0,0
		C208.7,21.1,199.3,11.6,187.6,11.6z"/>
	<path class="st3" d="M337.5,42c-6.1,0-11-4.9-11-11c0-6.1,4.9-11,11-11c6.1,0,11,4.9,11,11C348.5,37,343.6,42,337.5,42z
		 M337.5,20.8c-5.6,0-10.1,4.5-10.1,10.1S331.9,41,337.5,41c5.6,0,10.1-4.5,10.1-10.1C347.6,25.3,343.1,20.8,337.5,20.8z"/>
	<path class="st4" d="M313.3,196.3l-4.4-1.9l-3-22h-40.2l-3.3,22l-3.9,2c-0.5,0.2-0.6,0.8-0.4,1.3c0.2,0.3,0.5,0.5,0.8,0.5h54
		c0.5,0,0.9-0.4,0.9-0.9C313.8,196.8,313.6,196.4,313.3,196.3z"/>
	<path class="st5" d="M384.6,175.3H187.3c-2.2,0-3.9-1.8-3.9-3.9v-27.8h205.1v27.8C388.5,173.6,386.8,175.3,384.6,175.3z"/>
	<path class="st6" d="M388.8,156.7H183.3v-119c0-2.6,2.1-4.7,4.7-4.7H384c2.6,0,4.7,2.1,4.7,4.7V156.7z"/>
	<path class="st7" d="M376.5,148.1H195.5c-2,0-3.6-1.6-3.6-3.6V45.3c0-2,1.6-3.6,3.6-3.6h180.9c2,0,3.6,1.6,3.6,3.6v99.2
		C380.1,146.5,378.5,148.1,376.5,148.1z"/>
	<path class="st5" d="M374.8,198.3H199.6c-0.3,0-0.5-0.2-0.5-0.5c0-0.3,0.2-0.5,0.5-0.5h175.2c0.3,0,0.5,0.2,0.5,0.5
		C375.2,198.1,375,198.3,374.8,198.3z"/>
	<path class="st6" d="M359.5,135.8H212.5c-0.3,0-0.5-0.2-0.5-0.5V64.9c0-0.3,0.2-0.5,0.5-0.5c0.3,0,0.5,0.2,0.5,0.5v70h146.5
		c0.3,0,0.5,0.2,0.5,0.5C359.9,135.6,359.7,135.8,359.5,135.8z"/>
	<path class="st0" d="M243.9,130.7h-13.4c-0.8,0-1.4-0.6-1.4-1.4v-18.4c0-0.8,0.6-1.4,1.4-1.4h13.4c0.8,0,1.4,0.6,1.4,1.4v18.4
		C245.3,130.1,244.7,130.7,243.9,130.7z"/>
	<path class="st0" d="M268.3,130.7h-13.4c-0.8,0-1.4-0.6-1.4-1.4V93.5c0-0.8,0.6-1.4,1.4-1.4h13.4c0.8,0,1.4,0.6,1.4,1.4v35.9
		C269.7,130.1,269.1,130.7,268.3,130.7z"/>
	<path class="st0" d="M292.7,130.7h-13.4c-0.8,0-1.4-0.6-1.4-1.4v-18.4c0-0.8,0.6-1.4,1.4-1.4h13.4c0.8,0,1.4,0.6,1.4,1.4v18.4
		C294,130.1,293.4,130.7,292.7,130.7z"/>
	<path class="st0" d="M317.1,130.7h-13.4c-0.7,0-1.3-0.6-1.4-1.3V86.5c0-0.7,0.6-1.3,1.4-1.3h13.4c0.7,0,1.3,0.6,1.4,1.3v42.9
		C318.4,130.2,317.8,130.7,317.1,130.7z"/>
	<path class="st0" d="M341.4,130.7h-13.4c-0.8,0-1.4-0.6-1.4-1.4V74.1c0-0.8,0.6-1.4,1.4-1.4h13.4c0.8,0,1.4,0.6,1.4,1.4v55.2
		C342.8,130.1,342.2,130.7,341.4,130.7z"/>
	<circle class="st6" cx="237.3" cy="101.3" r="2.8"/>
	<circle class="st6" cx="261.6" cy="83.4" r="2.8"/>
	<circle class="st6" cx="286" cy="101.3" r="2.8"/>
	<circle class="st6" cx="310.4" cy="74.6" r="2.8"/>
	<circle class="st6" cx="334.7" cy="64.5" r="2.8"/>
	<polygon class="st6" points="286.1,101.9 261.6,83.6 237.5,101.7 237,100.9 261.6,82.5 285.9,100.7 310.1,74.2 310.2,74.2 
		334.6,64.4 334.9,65.2 310.6,75 	"/>
</g>
<g>
	<path id="uuid-f8ba9176-caa4-4aaa-aa33-5402b823e72a-186" class="st8" d="M280.5,75.5c1.8-1.8,4.2-2.4,5.4-1.2
		c1.2,1.2,0.7,3.6-1.2,5.4c-0.7,0.7-1.6,1.3-2.6,1.6l-7.8,7.7l-3.5-3.7l8-7.2C279.2,77.1,279.8,76.3,280.5,75.5z"/>
	<path class="st2" d="M255.7,69.2l8.1,18.1l13-7l4.7,2.5c0,0-10.6,17.8-17.9,15.8c-7.3-2-20.2-20.4-17.9-26S255.7,69.2,255.7,69.2
		L255.7,69.2z"/>
	<g>
		<path id="uuid-070545a9-7559-45f6-9b62-076b2f028fa8-187" class="st9" d="M293.4,79.4c-1.9-1.8-2.5-4.2-1.4-5.4
			c1.1-1.2,3.6-0.8,5.5,1c0.8,0.7,1.4,1.6,1.7,2.5l7.9,7.6l-3.6,3.6l-7.4-7.8C295.1,80.6,294.2,80.1,293.4,79.4z"/>
		<path class="st10" d="M333.3,80.5L318,96.8c0,0-3.4,3.4-9.1-1.5S297,82.4,297,82.4l3.5-3.8l6.2,5.6c0,0,3.7,1.5,4,2.5
			c0.3,1-0.5,1.4,0.7,1.1s1.2-1,1.3,0c0.1,1-0.6,2.3,0.7,1.1c1.3-1.2,1.7-0.5,1.7-0.5l9.8-12.9c0,0,6.3-5,8.1-0.5
			S333.3,80.5,333.3,80.5L333.3,80.5z"/>
	</g>
	<g>
		<polygon class="st8" points="252.1,189.6 258,189.6 260.9,166.7 252.1,166.7 		"/>
		<path class="st11" d="M272.4,189.5L272.4,189.5c0.2,0.3,0.3,1.3,0.3,1.7l0,0c0,1.1-0.9,2-2,2h-18.4c-0.8,0-1.4-0.6-1.4-1.4V191
			c0,0-0.9-2.3,1-5.1c0,0,2.3,2.2,5.8-1.3l1-1.9l7.4,5.4l4.1,0.5C271.2,188.8,272,188.7,272.4,189.5L272.4,189.5L272.4,189.5z"/>
	</g>
	<rect x="320.5" y="62.1" class="st11" width="14.7" height="21.8"/>
	<polygon class="st9" points="332,77.2 331.4,71 324.6,71 323.1,77.6 	"/>
	<polygon class="st12" points="332,77.2 331.4,71 324.6,71 323.1,77.6 	"/>
	<polygon class="st8" points="256.6,70.3 256.7,62.3 251.8,59.2 246.4,65.8 	"/>
	<polygon class="st12" points="256.6,70.3 256.9,62.5 251.8,59.2 253.5,68.9 	"/>
	<circle class="st9" cx="326.9" cy="65.5" r="7.5"/>
	<path class="st11" d="M325.1,57.6c0,0,0-3.1,2.9-2.4s3.7,1.8,3.7,1.8s1.1,1.8,2.9,2c1.8,0.2,3.3,5.3,3.1,6.4
		c-0.2,1.1-1.3,4,0.2,5.3c1.5,1.3,3.7,3.3,3.1,5.3c-0.7,2-2.6,7-2.6,7s5.5,0.8,5.1,4.2c0,0-2.6-2.1-6.2-2.1c-3.5,0-3.1-6.4-3.1-6.4
		s-0.2-3.9-0.9-5c-0.7-1.1,0.2-7.3-3.1-10.5S325.1,57.6,325.1,57.6L325.1,57.6z"/>
	<path class="st11" d="M325.9,57c0,0-4.2,0.9-5.7,5.1c-1.5,4.2-0.8,5-0.8,5s-0.3,2.5-2.2,3.4c-1.9,0.9-0.3,4.6-0.3,4.6
		s-0.4,3.7-6.4,5.1c-5.9,1.3,7.4,11.4,7.4,11.4s-1-4.8,5.2-5C329.3,86.3,322,75,322,75l-0.7-7.3c0,0,1.3-8.3,5.3-9.4
		C330.5,57.2,325.9,57,325.9,57L325.9,57z"/>
	<circle class="st8" cx="256.6" cy="56" r="8.8"/>
	<path class="st11" d="M268.6,123.3l-8.2,55.7h-10.3l1.4-31.8l0.7-16.7l-2.1-8c0,0-1-1.8-1.8-3.9c-0.9-2.4-1.6-5.3-0.6-6.7
		c0.4-0.5,1.4-0.9,2.8-1.2c0.8-0.2,1.8-0.3,2.9-0.4c6.1-0.6,14.7-0.2,14.7-0.2l0.2,7.2l0.1,4L268.6,123.3z"/>
	<g>
		<polygon class="st8" points="218.3,180.7 223.5,183.5 236.8,164.7 229.1,160.6 		"/>
		<path class="st11" d="M236.3,190.2L236.3,190.2c0,0.4-0.4,1.3-0.5,1.6l0,0c-0.5,1-1.7,1.3-2.7,0.8l-16.2-8.7
			c-0.7-0.4-0.9-1.2-0.6-1.9l0.4-0.7c0,0,0.3-2.5,3.3-4.1c0,0,1,3.1,5.7,1.6l1.8-1.2l4,8.3l3.4,2.4
			C235.5,189.1,236.2,189.3,236.3,190.2L236.3,190.2L236.3,190.2z"/>
	</g>
	<path class="st11" d="M268.5,121.4l-4.3,8.7l-12.7,17.1l-20.9,28.1l-9-4.9l24.8-41.7l1.9-8c0,0,0-0.9,0.1-2.1
		c0.2-2.4,0.7-6.3,2.2-7.9c0.2-0.2,0.4-0.4,0.7-0.5c0.5-0.2,1.2-0.2,2.2,0.1c4,1,11.6,5.1,14.9,7L268.5,121.4L268.5,121.4z"/>
	<g>
		<polygon class="st9" points="331.4,190.3 326.3,190.3 323.9,170.6 331.4,170.6 		"/>
		<path class="st11" d="M313.9,190.2L313.9,190.2c-0.2,0.3-0.2,1.1-0.2,1.4l0,0c0,1,0.8,1.7,1.7,1.7h15.8c0.7,0,1.2-0.5,1.2-1.2
			v-0.7c0,0,0.8-2-0.8-4.4c0,0-2,1.9-5-1.1l-0.9-1.6l-6.4,4.7l-3.5,0.4C315,189.6,314.3,189.5,313.9,190.2L313.9,190.2L313.9,190.2z
			"/>
	</g>
	<g>
		<polygon class="st9" points="351.5,184.3 346.8,186.2 337,169 344,166.1 		"/>
		<path class="st11" d="M335.3,190.9L335.3,190.9c0,0.3,0.2,1.1,0.3,1.4l0,0c0.4,0.9,1.4,1.3,2.3,0.9l14.6-6
			c0.6-0.2,0.9-0.9,0.6-1.5l-0.3-0.6c0,0,0-2.1-2.5-3.8c0,0-1.1,2.5-5,0.9L344,181l-4.1,6.8l-3.1,1.8
			C336.1,189.9,335.4,190.1,335.3,190.9L335.3,190.9L335.3,190.9z"/>
	</g>
	<path class="st11" d="M333.7,122.7l-2.1,8l0.6,12.9l0.9,21.4l0,0.6l0.1,2.4l0.5,11.1h-10.3l-4.6-31.1l-3.6-24.6l0.4-12.5l0-0.7
		c0,0,18.4-0.8,20.4,1.8S333.7,122.7,333.7,122.7L333.7,122.7z"/>
	<path class="st11" d="M348,171.2l-1.7,0.9l-6.4,3.3l-0.9,0.5l-5.6-7.8l-14.4-20l-3.6-24.6l0.4-12.5c1.6-0.5,2.9-0.7,3.6-0.4
		c3,1.4,2.8,10.5,2.8,10.5l1.8,8l8.3,14.5L348,171.2L348,171.2z"/>
	<path class="st2" d="M247.5,64.1l10,4.8c0,0,10.6,31.3,10.6,32.9c0,1.6,3,2.6,1.2,4.4c-1.8,1.8,3.3,3.3,0.6,4.8
		c-2.8,1.4-20.1,9.3-22,8.6c-5.3-2,0.2-9.1,0.2-9.1s-4-3.2-3.4-4.8s-3.6-32.1-3.6-32.1L247.5,64.1L247.5,64.1z"/>
	<path class="st11" d="M256.1,58.1l1.1,2.3c0,0,1.1-4.1,2.9-5c1.8-0.9,2-2.3,2-2.3s2.3,2.9,3.8,2.3s2.3-1.1,0.5-3.8
		c-1.8-2.7-1.4-1.4-1.4-1.4s-1.6-2.3-1.4-1.6c0.2,0.7-1.4-1.8-1.4-1.1s-1.1-1.4-1.1-0.7s-4.7-1.6-4.1-0.7c0.7,0.9-4.1-1.8-6.3,1.8
		c-2.3,3.6-5.4,2.9-4.3,5.2c1.1,2.3,0.7,8.4,0.7,8.4h3.1C250.4,61.5,253.6,55.4,256.1,58.1L256.1,58.1z"/>
	<path class="st10" d="M322.6,77.3l0.2-0.1l9-2.5l7.2,9.8l-4.8,20.4l1.8,8.2c0,0-14.6-3.8-20.4-0.6c0,0-0.4-1.8,0-2.7
		c0.4-0.9,1-4.6,0.4-6.2s1.2-9.4,1.2-9.4s-0.6-5.2,2-7.8C321.8,83.7,322.6,77.3,322.6,77.3L322.6,77.3z"/>
	<path class="st10" d="M314.4,114.1l-31.6-15.7c-0.2-0.1-0.3-0.2-0.4-0.3l-4.9-5.8c-0.3-0.4-0.4-0.9-0.2-1.4l9.3-19.4
		c0.2-0.3,0.5-0.6,0.8-0.7c0.4-0.1,0.8,0,1.1,0.2l22.3,15.3c0.5,0.3,0.7,0.9,0.5,1.4l-4.5,15.8c-0.1,0.4,0,0.9,0.4,1.2l9,6.7
		c0.5,0.4,0.6,1,0.4,1.6l-0.3,0.6c-0.1,0.3-0.4,0.6-0.7,0.7c-0.1,0-0.3,0.1-0.4,0.1C314.8,114.2,314.6,114.1,314.4,114.1z"/>
	<path class="st3" d="M314.2,110.2l-8.8-7.3c-0.1-0.1-0.1-0.1-0.2-0.2c-0.1-0.2-0.1-0.4,0-0.5l5-14.7c0.1-0.4,0-0.8-0.3-1
		l-20.9-14.3c-0.2-0.1-0.5-0.2-0.7-0.1c-0.3,0.1-0.5,0.2-0.6,0.5l-8.8,17.9c-0.1,0.3-0.1,0.6,0,0.8c0,0,0,0.1,0.1,0.1l4.4,5.8
		c0.1,0.1,0.2,0.2,0.3,0.3l29.6,14.3c0.1,0.1,0.3,0.1,0.4,0.1c0.2,0,0.5-0.1,0.6-0.3c0,0,0,0,0.1-0.1c0.1-0.2,0.2-0.4,0.2-0.6
		C314.5,110.6,314.3,110.4,314.2,110.2z"/>
	<path class="st10" d="M282.3,89.3c0.1,0,0.1,0,0.2-0.1l7.2-14.2c0-0.1,0-0.2-0.1-0.3c-0.1,0-0.2,0-0.3,0.1L282.1,89
		C282,89.1,282.1,89.2,282.3,89.3C282.2,89.3,282.2,89.3,282.3,89.3L282.3,89.3z"/>
	<path class="st10" d="M286,91.7c0.1,0,0.1,0,0.2-0.1l7.2-14.2c0-0.1,0-0.2-0.1-0.3c-0.1,0-0.2,0-0.3,0.1l-7.2,14.2
		C285.8,91.5,285.9,91.6,286,91.7C286,91.7,286,91.7,286,91.7L286,91.7z"/>
	<path class="st10" d="M289.2,93.7c0.1,0,0.1,0,0.2-0.1l7.2-14.2c0-0.1,0-0.2-0.1-0.3c-0.1,0-0.2,0-0.3,0.1l-7.2,14.2
		C289,93.5,289.1,93.6,289.2,93.7C289.2,93.7,289.2,93.7,289.2,93.7L289.2,93.7z"/>
	<path id="uuid-03f01c0a-1974-4ec8-8b69-52a915a70377-188" class="st8" d="M277.9,91.7c2.5-0.7,4.9,0,5.3,1.5s-1.2,3.4-3.6,4.2
		c-1,0.3-2,0.4-3,0.2l-10.5,3l-1.3-5l10.5-2.4C276,92.5,276.9,92,277.9,91.7L277.9,91.7z"/>
	<path class="st2" d="M259.3,74.1l-1.7,19.8l14.8,0.2l2.9,4.4c0,0-17.9,10.4-23.3,5.1c-5.4-5.3-7.8-27.6-3-31.4
		S259.3,74.1,259.3,74.1z"/>
	<g>
		<path id="uuid-7eb47ac4-3db4-4d62-bd0a-b38893e38622-189" class="st9" d="M307.8,109.8c-2.6-0.2-4.6-1.7-4.4-3.3
			c0.1-1.6,2.3-2.8,4.9-2.6c1,0.1,2,0.4,2.9,0.9l10.9,1l-0.6,5.1l-10.7-1.5C309.8,109.7,308.8,109.9,307.8,109.8L307.8,109.8z"/>
		<path class="st10" d="M339.6,85.8l-1.8,22.3c0,0-0.6,4.8-8,4.5c-7.5-0.3-17.4-2.7-17.4-2.7l0.4-5.2l8.3,0.5c0,0,3.8-1.1,4.6-0.6
			c0.8,0.6,0.5,1.4,1.2,0.4c0.7-1,0.3-1.5,1-0.7c0.7,0.8,0.9,2.2,1.2,0.4c0.3-1.8,1.1-1.4,1.1-1.4L329.8,87c0,0,1.8-7.8,6-5.5
			C340.1,83.9,339.6,85.8,339.6,85.8L339.6,85.8z"/>
	</g>
</g>
</svg>
