<?xml version="1.0" encoding="utf-8"?>
<!-- Generator: Adobe Illustrator 16.0.3, SVG Export Plug-In . SVG Version: 6.00 Build 0)  -->
<!DOCTYPE svg PUBLIC "-//W3C//DTD SVG 1.1//EN" "http://www.w3.org/Graphics/SVG/1.1/DTD/svg11.dtd">
<svg version="1.1" id="Capa_1" xmlns="http://www.w3.org/2000/svg" xmlns:xlink="http://www.w3.org/1999/xlink" x="0px" y="0px"
	 width="50px" height="50px" viewBox="0 0 50 50" enable-background="new 0 0 50 50" xml:space="preserve">
<path fill="#93C847" d="M39.33,28.12h0.75c0.414,0,0.75-0.336,0.75-0.75c0-0.415-0.336-0.75-0.75-0.75h-3v-1.51
	c0-0.414-0.336-0.75-0.75-0.75s-0.75,0.336-0.75,0.75v1.51h-3c-0.414,0-0.75,0.335-0.75,0.75c0,0.414,0.336,0.75,0.75,0.75h5.279
	v1.51c-0.006,1.181-0.564,2.291-1.51,3c-0.61-0.431-1.08-1.032-1.35-1.729c-0.184-0.378-0.639-0.535-1.016-0.352
	c-0.324,0.157-0.494,0.521-0.404,0.871c0.253,0.713,0.659,1.361,1.189,1.9c-0.748,0.102-1.506,0.128-2.26,0.08
	c-0.416,0.048-0.716,0.425-0.668,0.842c0.041,0.351,0.317,0.627,0.668,0.668c1.281,0.153,2.579-0.025,3.77-0.52
	c1.191,0.494,2.49,0.673,3.771,0.52c0.417-0.049,0.716-0.426,0.668-0.842c-0.04-0.352-0.317-0.628-0.668-0.668
	c-0.754,0.059-1.512,0.031-2.26-0.08c1.7-1.74,1.51-3.561,1.51-5.2H39.33z"/>
<path fill="#93C847" d="M0.88,46.21h25.63c0.408,0.006,0.744-0.321,0.75-0.729c0-0.007,0-0.014,0-0.021v-0.601
	c0.011-1.896-1.018-3.646-2.68-4.56l-5.13-3.21c-0.759-0.422-1.23-1.222-1.23-2.09v-2.35c1.374-1.348,2.368-3.035,2.88-4.891
	c0.55-0.361,0.887-0.971,0.9-1.63v-2.6c-0.038-0.566-0.314-1.089-0.76-1.44v-3.82c0-0.25-0.52-6-7.53-6c-7.01,0-7.54,5.78-7.54,6.08
	v3.72c-0.449,0.353-0.725,0.88-0.76,1.45v2.6c0.01,0.661,0.347,1.276,0.9,1.64c0.505,1.851,1.496,3.532,2.87,4.87V35
	c-0.002,0.902-0.507,1.729-1.31,2.141l-5,3.119c-1.683,0.921-2.732,2.683-2.74,4.6v0.601c-0.005,0.409,0.321,0.745,0.73,0.75
	C0.867,46.21,0.873,46.21,0.88,46.21z M3.65,41.561l5-3.131c1.255-0.684,2.035-2,2.03-3.43v-2.35c0.002-0.422-0.171-0.824-0.48-1.11
	c-1.155-1.131-1.993-2.544-2.43-4.101c-0.2-0.899-0.86-0.819-0.86-1.31v-2.58c0.057-0.133,0.146-0.25,0.26-0.34
	c0.312-0.289,0.489-0.695,0.49-1.12v-3.67c0-0.47,0.46-4.62,6-4.62s6,4.11,6,4.52v3.77c0,0.93,0.67,1.14,0.75,1.44v2.6
	c0.001,0.155-0.078,0.3-0.21,0.38c-0.33,0.214-0.563,0.547-0.65,0.93c-0.434,1.558-1.272,2.973-2.43,4.101
	c-0.309,0.286-0.483,0.688-0.48,1.11V35c0.001,1.399,0.769,2.686,2,3.35l5.13,3.221c1.144,0.628,1.878,1.807,1.94,3.109H1.63
	c0.066-1.328,0.826-2.525,2-3.15L3.65,41.561z"/>
<path fill="#93C847" d="M41.59,21.34H31c-2.082,0-3.77,1.688-3.77,3.77l0,0v1.1L23.08,29c-0.348,0.244-0.432,0.725-0.188,1.072
	c0.051,0.073,0.115,0.137,0.188,0.188l4.18,2.79v1.101c0,2.07,1.67,3.753,3.74,3.77h10.59c2.082,0,3.77-1.688,3.77-3.77l0,0v-9
	c0-2.082-1.688-3.77-3.77-3.77l0,0V21.34z M43.85,34.15c0,1.25-1.01,2.264-2.26,2.27H31c-1.25-0.006-2.26-1.02-2.26-2.27v-1.5
	c0-0.254-0.127-0.492-0.34-0.631l-3.581-2.39l3.581-2.39c0.209-0.137,0.337-0.369,0.34-0.62v-1.51c0-1.248,1.012-2.26,2.26-2.26l0,0
	h10.59c1.248,0,2.26,1.012,2.26,2.26V34.15z"/>
<path fill="#93C847" d="M31,20.58h10.59c2.076,0.005,3.765-1.673,3.77-3.75c0-0.003,0-0.007,0-0.01v-1.11l4.181-2.79
	c0.208-0.143,0.331-0.378,0.33-0.63c0.001-0.249-0.123-0.482-0.33-0.62l-4.181-2.8v-1.1c0-2.082-1.688-3.77-3.77-3.77l0,0H31
	c-2.082,0-3.77,1.688-3.77,3.77l0,0v9.05c0,2.077,1.684,3.76,3.76,3.76C30.993,20.58,30.996,20.58,31,20.58z M28.77,7.77
	c0-1.237,0.994-2.244,2.23-2.26h10.59c1.248,0,2.26,1.012,2.26,2.26v1.51c0.003,0.25,0.131,0.483,0.34,0.62l3.58,2.39l-3.58,2.39
	c-0.209,0.141-0.336,0.376-0.34,0.63v1.51c0,1.249-1.012,2.26-2.26,2.26H31c-1.248,0-2.26-1.012-2.26-2.26l0,0L28.77,7.77z"/>
<path fill="#93C847" d="M36.311,7c-2.497,0-4.521,2.023-4.521,4.52l0,0v5.28c0,0.415,0.336,0.75,0.75,0.75
	c0.416,0,0.755-0.334,0.76-0.75v-3h6v3c0,0.415,0.336,0.75,0.75,0.75c0.415,0,0.75-0.335,0.75-0.75v-5.26
	C40.811,9.047,38.803,7.017,36.311,7z M33.311,12.27v-0.75c0-1.657,1.343-3,3-3c1.656,0,3,1.343,3,3v0.75H33.311z"/>
</svg>
