<?xml version="1.0" encoding="utf-8"?>
<!-- Generator: Adobe Illustrator 16.0.3, SVG Export Plug-In . SVG Version: 6.00 Build 0)  -->
<!DOCTYPE svg PUBLIC "-//W3C//DTD SVG 1.1//EN" "http://www.w3.org/Graphics/SVG/1.1/DTD/svg11.dtd">
<svg version="1.1" id="Capa_1" xmlns="http://www.w3.org/2000/svg" xmlns:xlink="http://www.w3.org/1999/xlink" x="0px" y="0px"
	 width="50px" height="50px" viewBox="0 0 50 50" enable-background="new 0 0 50 50" xml:space="preserve">
<path fill="#93C847" d="M35.4,0c-5.073,0.006-9.695,2.912-11.9,7.48c-1.205-0.243-2.431-0.367-3.66-0.37
	C9.657,7.126,1.407,15.377,1.39,25.561v10c0.001,0.208,0.088,0.406,0.24,0.549c0.147,0.15,0.351,0.23,0.56,0.221h4.06v2
	c0.011,2.022,1.647,3.659,3.67,3.67h3.45c0.209,0.002,0.412-0.073,0.57-0.21c0.151-0.145,0.241-0.341,0.25-0.55V27.45
	c-0.016-0.437-0.383-0.776-0.819-0.761c0,0,0,0-0.001,0H10c-2.027-0.016-3.683,1.613-3.7,3.641c0,0.006,0,0.014,0,0.02v1.5H5.86
	v-6.289c0.028-7.713,6.288-13.951,14-13.951c0.814,0,1.627,0.07,2.43,0.21c-0.042,0.459-0.059,0.919-0.05,1.38
	c0.004,6.667,4.973,12.288,11.59,13.11v5.539h-0.4v-1.5c0.012-2.01-1.609-3.648-3.619-3.66c-0.011,0-0.021,0-0.031,0H26.32
	c-0.437-0.016-0.803,0.323-0.82,0.76c0,0,0,0,0,0.001v13.71c0.011,0.447,0.373,0.805,0.82,0.811h3.459
	c2.027-0.012,3.662-1.664,3.65-3.69c0-0.007,0-0.014,0-0.021v-1.949h1.69v2.869c0,3.314-2.687,6-6,6H24.9v-2.56
	c-0.027-0.438-0.401-0.772-0.84-0.75H18.7c-1.812-0.022-3.298,1.429-3.32,3.239c0,0.014,0,0.027,0,0.041v1.529
	c0,1.834,1.486,3.32,3.32,3.32l0,0h5.36c0.447,0.006,0.818-0.344,0.84-0.79V46.73h4.241c4.17-0.006,7.553-3.38,7.569-7.551v-2.869
	h0.79c0.209,0.008,0.412-0.072,0.561-0.221c0.145-0.146,0.228-0.344,0.229-0.55v-9.45c7.119-1.57,11.617-8.614,10.046-15.733
	C46.998,4.291,41.611-0.022,35.4,0z M7.84,30.35c0.005-0.555,0.228-1.086,0.62-1.479c0.41-0.401,0.967-0.615,1.54-0.591h2.6V40.41
	H9.95c-1.161-0.012-2.099-0.949-2.11-2.11V30.35z M31.84,38.26c0.022,1.148-0.891,2.098-2.039,2.12c-0.008,0-0.014,0-0.021,0H27.08
	V28.279h2.699c1.105-0.033,2.027,0.834,2.061,1.938c0.002,0.044,0.002,0.089,0,0.132V38.26z M23.31,48.41H18.7
	c-0.462,0.001-0.905-0.183-1.23-0.51c-0.326-0.322-0.507-0.763-0.5-1.221V45.15c0.005-0.945,0.775-1.706,1.72-1.701
	c0.003,0,0.007,0.001,0.01,0.001h4.61V48.41z M19.83,10c-8.591,0.005-15.555,6.969-15.56,15.561v7.069
	c0.005,0.447,0.373,0.806,0.82,0.8l0,0h1.16v1.291H3v-9.16c0.011-9.3,7.541-16.838,16.84-16.86c1.023,0.01,2.044,0.11,3.05,0.3
	c-0.14,0.42-0.27,0.84-0.37,1.27C21.632,10.105,20.732,10.015,19.83,10z M36.7,34.721H33.43V33.43h1.16
	c0.447,0,0.814-0.354,0.83-0.8v-6.22l0,0c0.439,0,0.859,0,1.29-0.07L36.7,34.721z M35.4,24.82
	c-6.418,0.011-11.629-5.182-11.641-11.6c-0.011-6.417,5.183-11.629,11.6-11.64C41.777,1.569,46.988,6.763,47,13.18
	c0,0.006,0,0.013,0,0.02C47,19.61,41.81,24.809,35.4,24.82z"/>
<path fill="#93C847" d="M41.17,10.18c0-0.466-0.375-0.845-0.84-0.85h-2.54V7.64c0-0.47-0.38-0.85-0.851-0.85h-3.379
	c-0.471,0-0.851,0.38-0.851,0.85v4.23h-2.54c-0.465,0.005-0.84,0.384-0.84,0.85V17h-1.7v1.69h15.24V17h-1.7V10.18z M31,13.56h1.689
	V17H31V13.56z M34.38,12.72V8.49h1.7V17H34.4L34.38,12.72z M37.79,17v-6h1.69v6H37.79z"/>
</svg>
