<?xml version="1.0" encoding="utf-8"?>
<!-- Generator: Adobe Illustrator 16.0.3, SVG Export Plug-In . SVG Version: 6.00 Build 0)  -->
<!DOCTYPE svg PUBLIC "-//W3C//DTD SVG 1.1//EN" "http://www.w3.org/Graphics/SVG/1.1/DTD/svg11.dtd">
<svg version="1.1" id="Capa_1" xmlns="http://www.w3.org/2000/svg" xmlns:xlink="http://www.w3.org/1999/xlink" x="0px" y="0px"
	 width="50px" height="50px" viewBox="0 0 50 50" enable-background="new 0 0 50 50" xml:space="preserve">
<g>
	<path fill="#93C847" d="M44.55,34.21H5.45c-0.392,0-0.71-0.317-0.71-0.71c0-0.004,0-0.007,0-0.01V9.44
		c0-2.259,1.831-4.09,4.09-4.09h32.34c2.259,0,4.09,1.831,4.09,4.09l0,0v24.05c0.006,0.392-0.308,0.715-0.699,0.72
		C44.557,34.21,44.553,34.21,44.55,34.21z M6.16,32.779h37.68V9.44c-0.006-1.472-1.197-2.665-2.67-2.67H8.83
		C7.357,6.775,6.166,7.968,6.16,9.44V32.779z"/>
	<path fill="#93C847" d="M47.4,44.63H2.6c-1.408-0.003-2.548-1.147-2.545-2.556c0.001-0.412,0.102-0.818,0.295-1.184l4.48-7.75
		c0.129-0.221,0.364-0.357,0.62-0.361h39.1c0.256,0.004,0.491,0.141,0.62,0.361l4.471,7.719c0.674,1.237,0.217,2.786-1.02,3.46
		C48.246,44.523,47.826,44.63,47.4,44.63z M5.86,34.21L1.6,41.58c-0.195,0.337-0.195,0.753,0,1.09c0.211,0.346,0.595,0.549,1,0.53
		h44.8c0.406,0.017,0.791-0.19,1-0.54c0.189-0.346,0.189-0.765,0-1.11l-4.25-7.34H5.86z"/>
</g>
<path fill="#93C847" d="M29.82,42.49h-9.64c-0.392,0.006-0.715-0.307-0.722-0.698c-0.001-0.104,0.02-0.207,0.062-0.302l1.39-3.631
	c0.101-0.276,0.365-0.461,0.66-0.459h6.86c0.295-0.002,0.559,0.183,0.66,0.459l1.391,3.631c0.16,0.357,0,0.777-0.358,0.938
	C30.027,42.471,29.924,42.492,29.82,42.49z M21.22,41.061h7.559l-0.85-2.201h-5.87L21.22,41.061z"/>
<path fill="#93C847" d="M41.51,31h-33c-0.392,0.006-0.714-0.308-0.72-0.699c0-0.004,0-0.008,0-0.011V9.25
	c0-0.397,0.322-0.72,0.72-0.72l0,0h33c0.398,0,0.721,0.323,0.721,0.72l0,0v21.061c0,0.392-0.318,0.709-0.711,0.709
	c-0.003,0-0.006,0-0.01,0V31z M9.2,29.6h31.6V10H9.2V29.6z"/>
<path fill="#93C847" d="M35.75,13.32h-2.34c-0.393,0-0.71,0.318-0.711,0.71c0,0.003,0.001,0.007,0.001,0.01v0.46h-5.82V14
	c0.006-0.392-0.308-0.714-0.7-0.72c-0.003,0-0.006,0-0.01,0h-2.34c-0.392,0-0.71,0.318-0.71,0.71c0,0.003,0,0.007,0,0.01v0.46H17.3
	V14c0.006-0.392-0.308-0.714-0.7-0.72c-0.003,0-0.007,0-0.01,0h-2.34c-0.392,0-0.71,0.318-0.71,0.71c0,0.003,0,0.007,0,0.01v2.33
	c-0.005,0.392,0.308,0.714,0.7,0.72c0.003,0,0.007,0,0.01,0h2.34c0.392,0,0.71-0.317,0.71-0.71c0-0.003,0-0.006,0-0.01v-0.45h2.93
	c-2.322,1.503-3.804,4.011-4,6.77h-0.48c-0.392,0-0.71,0.318-0.71,0.71v2.33c-0.005,0.393,0.308,0.715,0.7,0.721
	c0.003,0,0.007,0,0.01,0h2.34c0.392,0,0.71-0.318,0.71-0.71c0-0.003,0-0.007,0-0.011V23.4c0-0.392-0.318-0.71-0.71-0.71h-0.41
	c0.252-3.088,2.417-5.686,5.41-6.49v0.17c-0.005,0.392,0.308,0.714,0.7,0.72c0.003,0,0.007,0,0.01,0h2.341
	c0.392,0,0.709-0.318,0.709-0.71c0-0.003,0-0.006,0-0.01V16.2c2.992,0.804,5.158,3.401,5.41,6.49h-0.41
	c-0.392,0-0.709,0.318-0.709,0.71v2.331c-0.006,0.392,0.307,0.714,0.699,0.719c0.004,0.001,0.007,0.001,0.01,0.001h2.34
	c0.393,0,0.711-0.317,0.711-0.71c0-0.004,0-0.007,0-0.01V23.4c0-0.392-0.318-0.71-0.711-0.71H33.71c-0.198-2.759-1.679-5.265-4-6.77
	h2.99v0.45c-0.006,0.392,0.308,0.714,0.7,0.72c0.003,0,0.006,0,0.01,0h2.34c0.393,0,0.71-0.318,0.71-0.71c0-0.003,0-0.006,0-0.01V14
	C36.443,13.62,36.131,13.32,35.75,13.32z M15,15.66v-0.91h0.92v0.41c-0.01,0.029-0.01,0.061,0,0.09v0.41H15z M17.41,25h-0.92v-0.91
	h0.92V25z M33.51,25h-0.92v-0.91h0.92V25z M24.51,15.64v-0.91h0.92v0.41l0,0c-0.01,0.053-0.01,0.107,0,0.16v0.31L24.51,15.64z
	 M35.01,15.64H34.1v-0.91H35L35.01,15.64z"/>
</svg>
