<?xml version="1.0" encoding="utf-8"?>
<!-- Generator: Adobe Illustrator 16.0.3, SVG Export Plug-In . SVG Version: 6.00 Build 0)  -->
<!DOCTYPE svg PUBLIC "-//W3C//DTD SVG 1.1//EN" "http://www.w3.org/Graphics/SVG/1.1/DTD/svg11.dtd">
<svg version="1.1" id="Capa_1" xmlns="http://www.w3.org/2000/svg" xmlns:xlink="http://www.w3.org/1999/xlink" x="0px" y="0px"
	 width="50px" height="50px" viewBox="0 0 50 50" enable-background="new 0 0 50 50" xml:space="preserve">
<path fill="#93C847" d="M26.951,0C14.958-0.008,5.23,9.707,5.222,21.699c-0.003,4.75,1.551,9.371,4.426,13.153l0.964,1.269
	L2.29,44.446c-1.265,1.264-1.266,3.313-0.002,4.578s3.313,1.267,4.578,0.003l8.732-8.729l1.192,0.63
	c10.604,5.616,23.754,1.573,29.37-9.032c5.617-10.604,1.573-23.753-9.031-29.37C33.994,0.866,30.499-0.001,26.951,0z M26.951,36.982
	c-8.425,0-15.255-6.83-15.255-15.255s6.83-15.254,15.255-15.254c8.424,0,15.254,6.83,15.254,15.254
	C42.195,30.148,35.371,36.973,26.951,36.982z"/>
</svg>
