<?xml version="1.0" encoding="utf-8"?>
<!-- Generator: Adobe Illustrator 16.0.3, SVG Export Plug-In . SVG Version: 6.00 Build 0)  -->
<!DOCTYPE svg PUBLIC "-//W3C//DTD SVG 1.1//EN" "http://www.w3.org/Graphics/SVG/1.1/DTD/svg11.dtd">
<svg version="1.1" id="Camada_1" xmlns="http://www.w3.org/2000/svg" xmlns:xlink="http://www.w3.org/1999/xlink" x="0px" y="0px"
	 width="50px" height="50px" viewBox="0 0 50 50" enable-background="new 0 0 50 50" xml:space="preserve">
<g>
	<polygon fill="#93C847" points="31.451,10.049 31.451,1.463 18.549,1.463 18.549,10.049 12.559,10.049 25,23.281 37.441,10.049 	
		"/>
	<path fill="#93C847" d="M45.792,49.221H4.208c-2.267,0-4.11-1.844-4.11-4.11V16.658c0-2.267,1.844-4.11,4.11-4.11h41.584
		c2.267,0,4.11,1.844,4.11,4.11v28.451C49.902,47.377,48.059,49.221,45.792,49.221z M4.208,14.523c-1.178,0-2.135,0.958-2.135,2.135
		v28.451c0,1.178,0.958,2.135,2.135,2.135h41.584c1.178,0,2.135-0.958,2.135-2.135V16.658c0-1.178-0.958-2.135-2.135-2.135H4.208z"
		/>
	<polygon fill="#93C847" points="25,36.942 0.451,16.366 1.72,14.853 25,34.364 48.28,14.853 49.549,16.366 	"/>
	
		<rect x="38.8" y="26.843" transform="matrix(-0.7232 0.6906 -0.6906 -0.7232 95.2986 39.2338)" fill="#93C847" width="1.975" height="23.739"/>
	
		<rect x="-1.659" y="37.728" transform="matrix(-0.6904 0.7234 -0.7234 -0.6904 45.2666 58.0589)" fill="#93C847" width="23.739" height="1.975"/>
</g>
</svg>
