<?xml version="1.0" encoding="utf-8"?>
<!-- Generator: Adobe Illustrator 16.0.3, SVG Export Plug-In . SVG Version: 6.00 Build 0)  -->
<!DOCTYPE svg PUBLIC "-//W3C//DTD SVG 1.1//EN" "http://www.w3.org/Graphics/SVG/1.1/DTD/svg11.dtd">
<svg version="1.1" id="Capa_1" xmlns="http://www.w3.org/2000/svg" xmlns:xlink="http://www.w3.org/1999/xlink" x="0px" y="0px"
	 width="50px" height="50px" viewBox="0 0 50 50" enable-background="new 0 0 50 50" xml:space="preserve">
<path fill="#93C847" d="M25,50C11.193,50,0,38.807,0,25C0,11.193,11.193,0,25,0c13.807,0,25,11.193,25,25C50,38.807,38.807,50,25,50
	z M25,3.12C12.916,3.12,3.12,12.916,3.12,25S12.916,46.88,25,46.88S46.88,37.084,46.88,25C46.869,12.92,37.08,3.131,25,3.12z"/>
<path fill="#93C847" d="M35.939,23.44h-9.379v-9.38c0-0.862-0.699-1.56-1.561-1.56s-1.56,0.698-1.56,1.56v9.38h-9.38
	c-0.862,0-1.56,0.699-1.56,1.56s0.698,1.561,1.56,1.561h9.38v9.379c0,0.862,0.699,1.561,1.56,1.561s1.561-0.698,1.561-1.561l0,0
	v-9.379h9.379c0.862,0,1.561-0.699,1.561-1.561S36.802,23.44,35.939,23.44L35.939,23.44z"/>
</svg>
