<?xml version="1.0" encoding="utf-8"?>
<!-- Generator: Adobe Illustrator 16.0.3, SVG Export Plug-In . SVG Version: 6.00 Build 0)  -->
<!DOCTYPE svg PUBLIC "-//W3C//DTD SVG 1.1//EN" "http://www.w3.org/Graphics/SVG/1.1/DTD/svg11.dtd">
<svg version="1.1" id="Capa_1" xmlns="http://www.w3.org/2000/svg" xmlns:xlink="http://www.w3.org/1999/xlink" x="0px" y="0px"
	 width="50px" height="50px" viewBox="0 0 50 50" enable-background="new 0 0 50 50" xml:space="preserve">
<path fill="#93C847" d="M37.641,17.84C37.641,7.987,29.652,0,19.8,0c-0.638-0.002-1.275,0.032-1.91,0.1
	c-0.581,0.063-1.159,0.157-1.73,0.28l-0.33,0.07C12.474,1.205,9.408,2.914,7,5.37C6.78,5.6,6.56,5.84,6.35,6.08l0,0
	c-6.691,7.238-6.248,18.529,0.99,25.22c7.238,6.69,18.529,6.248,25.221-0.989l0.66-0.701l0,0
	C36.074,26.354,37.645,22.17,37.641,17.84z M31.77,29.42L31.48,29.7l-0.33,0.329L30.84,30.3l-0.34,0.3l-0.32,0.26l-0.359,0.281
	l-0.33,0.239l-0.37,0.261l-0.341,0.219l-0.389,0.24l-0.351,0.2l-0.39,0.22l-0.36,0.19l-0.41,0.2l-0.37,0.16l-0.42,0.18l-0.369,0.15
	l-0.431,0.16l-0.38,0.119l-0.45,0.141l-0.37,0.109h-0.15c1.76-1.71,3.07-3.83,3.81-6.17c1.41,0.373,2.775,0.899,4.07,1.57
	L31.77,29.42z M15.14,33.82l-0.45-0.131l-0.37-0.129l-0.44-0.16l-0.37-0.141l-0.42-0.18l-0.36-0.17l-0.42-0.2L12,32.529l-0.4-0.219
	L11.26,32.1c-0.14-0.07-0.26-0.16-0.39-0.24l-0.34-0.219l-0.38-0.261l-0.32-0.239l-0.36-0.281L9.1,30.6l-0.35-0.3L8.45,30
	l-0.33-0.33c-0.102-0.088-0.198-0.182-0.29-0.279V29.33c1.297-0.666,2.661-1.193,4.07-1.57c0.711,2.362,2.004,4.508,3.76,6.24h-0.15
	L15.14,33.82z M7,7.22C8.421,7.989,9.928,8.586,11.49,9c-0.768,2.677-1.172,5.445-1.2,8.23H3.16C3.299,13.561,4.649,10.041,7,7.22z
	 M7.86,6.22L8.12,6c0.11-0.11,0.22-0.22,0.34-0.32l0.3-0.28l0.35-0.3l0.31-0.25l0.36-0.29l0.33-0.23l0.37-0.26l0.34-0.23l0.39-0.23
	l0.35-0.21l0.4-0.22L12.31,3l0.41-0.2l0.37-0.17l0.42-0.18l0.37-0.15l0.44-0.15L14.69,2l0.45-0.14l0.37-0.1h0.15
	c-1.761,1.708-3.067,3.829-3.8,6.17c-1.415-0.382-2.783-0.919-4.08-1.6c0.015-0.025,0.036-0.045,0.06-0.06L7.86,6.22z M24.46,1.86
	L24.91,2l0.37,0.12l0.441,0.16l0.369,0.15l0.42,0.18l0.37,0.16l0.41,0.2l0.36,0.19l0.399,0.22l0.351,0.2l0.379,0.24l0.341,0.22
	l0.38,0.27l0.32,0.23l0.369,0.29L30.5,5.08l0.35,0.31c0.101,0.09,0.2,0.17,0.301,0.27l0.33,0.32l0.289,0.28l0.051,0.06
	c-1.295,0.673-2.66,1.199-4.07,1.57c-0.74-2.34-2.05-4.46-3.81-6.17h0.15L24.46,1.86z M29.311,17.25
	c-0.027-2.792-0.431-5.566-1.201-8.25c1.57-0.418,3.084-1.023,4.511-1.8c2.341,2.821,3.685,6.336,3.819,10L29.311,17.25z M19.21,8.9
	C17.121,8.873,15.04,8.631,13,8.18c1.4-3.93,3.63-6.58,6.18-6.94L19.21,8.9z M12.65,9.31c2.153,0.49,4.352,0.751,6.56,0.78v7.16
	h-7.73C11.513,14.563,11.906,11.892,12.65,9.31z M19.21,18.44v7.15c-2.208,0.029-4.407,0.291-6.56,0.78
	c-0.743-2.579-1.136-5.246-1.17-7.93H19.21z M19.21,26.779v7.671c-2.55-0.36-4.78-3-6.18-6.94
	C15.059,27.053,17.13,26.808,19.21,26.779z M20.4,26.779c2.08,0.028,4.151,0.273,6.18,0.73c-1.41,3.92-3.64,6.58-6.18,6.94V26.779z
	 M27,26.37c-2.15-0.489-4.345-0.751-6.55-0.78v-7.15h7.72C28.142,21.124,27.748,23.792,27,26.37z M20.4,17.25v-7.16
	c2.222-0.026,4.434-0.287,6.6-0.78c0.748,2.581,1.143,5.252,1.17,7.94H20.4z M20.4,8.9V1.24c2.54,0.36,4.77,3,6.18,6.94
	C24.55,8.629,22.479,8.871,20.4,8.9z M10.29,18.44c0.028,2.785,0.432,5.553,1.2,8.23C9.928,27.086,8.42,27.688,7,28.46
	c-2.343-2.819-3.687-6.336-3.82-10L10.29,18.44z M28.109,26.67c0.769-2.677,1.172-5.445,1.201-8.23h7.129
	c-0.133,3.664-1.477,7.18-3.819,10C31.192,27.673,29.678,27.078,28.109,26.67z"/>
<path fill="#FCFCFC" d="M15.7,17.68h28.39c2.231,0,4.04,1.809,4.04,4.04v24.1c0,2.23-1.809,4.039-4.04,4.039H15.7
	c-2.231,0-4.04-1.809-4.04-4.039v-24.1C11.66,19.489,13.469,17.68,15.7,17.68z"/>
<path fill="#93C847" d="M26.51,33.46c-0.217-0.251-0.595-0.281-0.85-0.069l-3.89,3.319c-0.138,0.112-0.215,0.282-0.21,0.46
	c-0.001,0.177,0.076,0.346,0.21,0.46l3.89,3.31c0.108,0.094,0.246,0.146,0.39,0.15c0.177,0.002,0.345-0.076,0.46-0.21
	c0.217-0.243,0.194-0.616-0.05-0.833c-0.007-0.006-0.013-0.012-0.021-0.018l-3.35-2.859l3.35-2.859
	c0.254-0.205,0.293-0.577,0.088-0.83C26.521,33.473,26.516,33.467,26.51,33.46z"/>
<path fill="#93C847" d="M34.13,33.391c-0.254-0.216-0.634-0.185-0.851,0.069c-0.215,0.254-0.184,0.635,0.07,0.851l3.36,2.859
	L33.35,40c-0.251,0.217-0.279,0.596-0.063,0.846c0,0.002,0.002,0.003,0.003,0.004c0.11,0.136,0.276,0.213,0.45,0.211
	c0.145,0,0.283-0.054,0.39-0.15L38,37.63c0.131-0.118,0.206-0.284,0.21-0.46c0-0.176-0.077-0.344-0.21-0.46L34.13,33.391z"/>
<path fill="#93C847" d="M31.07,30.859c-0.323-0.067-0.641,0.139-0.711,0.461L27.93,42.85c-0.068,0.323,0.138,0.641,0.461,0.711
	h0.129c0.285-0.004,0.529-0.203,0.59-0.48l2.431-11.53C31.596,31.23,31.387,30.926,31.07,30.859z"/>
<path fill="#93C847" d="M44.09,17.68H15.71c-2.217,0-4.022,1.783-4.05,4v24.13c0.033,2.215,1.834,3.994,4.05,4h28.38
	c2.198-0.027,3.973-1.803,4-4V21.72c0.022-2.209-1.75-4.018-3.959-4.04C44.117,17.68,44.104,17.68,44.09,17.68z M15.71,18.89h28.38
	c1.564,0,2.834,1.265,2.84,2.83v4.4H12.87v-4.4C12.875,20.155,14.146,18.89,15.71,18.89z M44.09,48.65H15.71
	c-1.568,0-2.84-1.271-2.84-2.84l0,0V27.32h34.06v18.49C46.93,47.379,45.658,48.65,44.09,48.65L44.09,48.65z"/>
<path fill="#93C847" d="M22,24.44c1.055,0.005,1.915-0.845,1.92-1.9s-0.845-1.915-1.9-1.92c-1.055-0.005-1.915,0.845-1.92,1.9
	c0,0.007,0,0.013,0,0.02C20.105,23.587,20.953,24.435,22,24.44z M22,21.83c0.392-0.006,0.714,0.308,0.72,0.7
	c0.006,0.392-0.308,0.714-0.7,0.72c-0.392,0.005-0.714-0.308-0.72-0.7c0-0.003,0-0.006,0-0.01c-0.005-0.387,0.304-0.705,0.69-0.71
	C21.993,21.83,21.997,21.83,22,21.83z"/>
<path fill="#93C847" d="M16.1,24.42c1.055,0,1.91-0.855,1.91-1.91c0-1.055-0.855-1.91-1.91-1.91c-1.055,0-1.91,0.855-1.91,1.91
	c0,0.003,0,0.006,0,0.01c0,1.049,0.851,1.9,1.9,1.9C16.093,24.42,16.097,24.42,16.1,24.42z M16.1,21.82c0.387,0,0.7,0.313,0.7,0.7
	s-0.313,0.7-0.7,0.7s-0.7-0.313-0.7-0.7S15.713,21.82,16.1,21.82L16.1,21.82z"/>
<path fill="#93C847" d="M27.811,24.46c1.055,0,1.91-0.855,1.91-1.91c0-1.055-0.855-1.91-1.91-1.91s-1.91,0.855-1.91,1.91l0,0
	C25.9,23.605,26.756,24.46,27.811,24.46z M27.811,21.85c0.392,0,0.709,0.318,0.709,0.71s-0.317,0.71-0.709,0.71
	c-0.393,0-0.711-0.318-0.711-0.71c0-0.003,0-0.007,0-0.01C27.105,22.162,27.422,21.85,27.811,21.85z"/>
</svg>
