<?xml version="1.0" encoding="utf-8"?>
<!-- Generator: Adobe Illustrator 16.0.3, SVG Export Plug-In . SVG Version: 6.00 Build 0)  -->
<!DOCTYPE svg PUBLIC "-//W3C//DTD SVG 1.1//EN" "http://www.w3.org/Graphics/SVG/1.1/DTD/svg11.dtd">
<svg version="1.1" id="Capa_1" xmlns="http://www.w3.org/2000/svg" xmlns:xlink="http://www.w3.org/1999/xlink" x="0px" y="0px"
	 width="50px" height="50px" viewBox="0 0 50 50" enable-background="new 0 0 50 50" xml:space="preserve">
<path fill="#93C847" d="M21.85,29.63c-0.32,0.009-0.609,0.192-0.75,0.479l-5.28,11.15L11.07,26c-0.11-0.348-0.435-0.584-0.8-0.58
	c-0.364,0-0.688,0.234-0.8,0.58L5,40.34v-0.27c0-0.459-0.372-0.83-0.83-0.83l0,0c-0.46,0-0.834,0.369-0.84,0.83V41.3
	c0.005,0.462,0.378,0.835,0.84,0.841c0.1,0,0.199-0.021,0.29-0.061l-0.68,2.199C3.509,44.42,3.336,44.695,3.33,45v0.83l0,0
	c-0.006,0.057-0.006,0.113,0,0.17c-0.006,0.047-0.006,0.094,0,0.141c0.022,0.051,0.053,0.098,0.09,0.139l0.1,0.121l0.12,0.08
	c0.045,0.033,0.096,0.061,0.15,0.08l0,0H4h0.13H5c0.458-0.002,0.828-0.376,0.826-0.834c-0.001-0.348-0.219-0.658-0.546-0.776l5-16
	l5.13,16.51c-0.109,0.257-0.079,0.552,0.08,0.78c0.152,0.232,0.412,0.371,0.69,0.369h1c0.461-0.005,0.834-0.378,0.84-0.84
	c-0.005-0.459-0.38-0.83-0.84-0.83H17l-0.44-1.39l5.31-11.2l6.06,12.721c-0.25,0.145-0.406,0.41-0.41,0.699
	c0,0.461,0.371,0.835,0.83,0.84h0.84c0.115-0.004,0.227-0.031,0.33-0.08l0,0l0.25-0.18c0.031-0.044,0.058-0.091,0.08-0.14
	c0.036-0.039,0.066-0.083,0.09-0.13C29.963,46.055,29.982,46.028,30,46c0.006-0.043,0.006-0.087,0-0.13V45
	c0-0.4-0.294-0.74-0.689-0.8L22.6,30.109C22.464,29.818,22.172,29.631,21.85,29.63z"/>
<path fill="#93C847" d="M18.8,26.67c2.148,0.006,3.895-1.731,3.9-3.88c0.005-2.148-1.732-3.895-3.88-3.9
	c-2.148-0.006-3.894,1.731-3.9,3.88c0,0.003,0,0.007,0,0.01c-0.005,2.143,1.727,3.884,3.87,3.89
	C18.793,26.67,18.797,26.67,18.8,26.67z M18.8,20.57c1.226,0,2.22,0.994,2.22,2.22s-0.994,2.22-2.22,2.22s-2.22-0.994-2.22-2.22
	c0-0.003,0-0.007,0-0.01C16.585,21.558,17.578,20.57,18.8,20.57z"/>
<path fill="#93C847" d="M45.83,17.5c-0.459,0-0.83,0.372-0.83,0.83l0,0V47.5c0,0.459-0.371,0.83-0.83,0.83l0,0H2.5
	c-0.458,0-0.83-0.371-0.83-0.83l0,0v-45c0-0.458,0.372-0.83,0.83-0.83h41.67C44.629,1.67,45,2.042,45,2.5l0,0v0.83
	c0,0.46,0.37,0.834,0.83,0.84c0.461-0.005,0.834-0.378,0.84-0.84V2.5c0-1.381-1.119-2.5-2.5-2.5l0,0H2.5C1.119,0,0,1.119,0,2.5v45
	C0,48.881,1.119,50,2.5,50h41.67c1.381,0,2.5-1.119,2.5-2.5V18.33C46.664,17.87,46.29,17.5,45.83,17.5z"/>
<path fill="#93C847" d="M29.17,18.33c0.459,0,0.83-0.372,0.83-0.83v-1.67c0-0.458-0.371-0.83-0.83-0.83h-0.84
	c-0.459,0-0.83,0.372-0.83,0.83c0,0.46,0.37,0.834,0.83,0.84v0.83C28.336,17.96,28.71,18.33,29.17,18.33z"/>
<path fill="#93C847" d="M25.29,16.67c0.46-0.005,0.83-0.38,0.83-0.84c0-0.458-0.372-0.83-0.83-0.83h-1
	c-0.458,0-0.83,0.372-0.83,0.83c0,0.46,0.37,0.834,0.83,0.84H25.29z"/>
<path fill="#93C847" d="M21.23,15h-1c-0.46,0-0.834,0.37-0.84,0.83c0.005,0.461,0.378,0.834,0.84,0.84h1
	c0.46-0.005,0.83-0.38,0.83-0.84C22.06,15.372,21.688,15,21.23,15z"/>
<path fill="#93C847" d="M12.1,15c-0.458,0-0.83,0.372-0.83,0.83c0,0.46,0.37,0.834,0.83,0.84h1c0.46-0.005,0.83-0.38,0.83-0.84
	c0-0.458-0.372-0.83-0.83-0.83H12.1z"/>
<path fill="#93C847" d="M9.06,16.67c0.46-0.005,0.83-0.38,0.83-0.84c0-0.458-0.372-0.83-0.83-0.83H8c-0.458,0-0.83,0.372-0.83,0.83
	c0,0.46,0.37,0.834,0.83,0.84H9.06z"/>
<path fill="#93C847" d="M17.17,16.67c0.462-0.005,0.834-0.378,0.84-0.84C18.004,15.37,17.63,15,17.17,15h-1
	c-0.458,0-0.83,0.372-0.83,0.83c0,0.46,0.37,0.834,0.83,0.84H17.17z"/>
<path fill="#93C847" d="M4.17,17.5C4.628,17.5,5,17.128,5,16.67c0.46-0.005,0.83-0.38,0.83-0.84C5.83,15.372,5.458,15,5,15H4.17
	c-0.46,0-0.834,0.37-0.84,0.83v0.84C3.335,17.13,3.71,17.5,4.17,17.5z"/>
<path fill="#93C847" d="M3.33,21.59c0.005,0.462,0.378,0.835,0.84,0.84C4.63,22.424,5,22.05,5,21.59v-1.23
	c0-0.458-0.372-0.83-0.83-0.83c-0.46,0-0.834,0.37-0.84,0.83V21.59z"/>
<path fill="#93C847" d="M3.33,26.52c0.005,0.461,0.38,0.83,0.84,0.83c0.458,0,0.83-0.371,0.83-0.83V25.29
	c0-0.458-0.372-0.83-0.83-0.83c-0.46,0-0.834,0.37-0.84,0.83V26.52z"/>
<path fill="#93C847" d="M3.33,36.38c0.005,0.46,0.38,0.83,0.84,0.83c0.458,0,0.83-0.372,0.83-0.83l0,0V35.15
	c0.005-0.459-0.361-0.835-0.82-0.84c-0.003,0-0.007,0-0.01,0c-0.464,0-0.84,0.375-0.84,0.84l0,0V36.38z"/>
<path fill="#93C847" d="M3.33,31.45c0.005,0.46,0.38,0.83,0.84,0.829c0.458,0,0.83-0.371,0.83-0.829l0,0v-1.229
	c0-0.461-0.37-0.836-0.83-0.841c-0.461,0.005-0.834,0.378-0.84,0.841V31.45z"/>
<path fill="#93C847" d="M8,45c-0.458,0-0.83,0.371-0.83,0.83l0,0c0,0.46,0.37,0.834,0.83,0.84h1c0.46-0.006,0.83-0.38,0.83-0.84
	c0.001-0.436-0.335-0.799-0.77-0.83H8z"/>
<path fill="#93C847" d="M12.1,45c-0.458,0-0.83,0.371-0.83,0.83l0,0c0,0.46,0.37,0.834,0.83,0.84h1c0.46-0.006,0.83-0.38,0.83-0.84
	c0-0.459-0.372-0.83-0.83-0.83l0,0H12.1z"/>
<path fill="#93C847" d="M24.27,45c-0.458,0-0.83,0.371-0.83,0.83l0,0c0,0.46,0.37,0.834,0.83,0.84h1c0.46-0.006,0.83-0.38,0.83-0.84
	c0-0.459-0.371-0.83-0.83-0.83l0,0H24.27z"/>
<path fill="#93C847" d="M21.23,45h-1c-0.46,0-0.834,0.37-0.84,0.83c0.005,0.461,0.378,0.834,0.84,0.84h1
	c0.46-0.006,0.83-0.38,0.83-0.84C22.06,45.371,21.688,45,21.23,45L21.23,45z"/>
<path fill="#93C847" d="M28.33,36c0.006,0.462,0.379,0.834,0.84,0.84C29.63,36.834,30,36.46,30,36v-1.26
	c0-0.459-0.371-0.83-0.83-0.83l0,0c-0.46,0-0.834,0.369-0.84,0.83V36z"/>
<path fill="#93C847" d="M28.33,41.15c0.006,0.461,0.379,0.834,0.84,0.84c0.46-0.006,0.83-0.381,0.83-0.84v-1.28
	c0-0.458-0.371-0.83-0.83-0.83l0,0c-0.46,0-0.834,0.37-0.84,0.83V41.15z"/>
<path fill="#93C847" d="M29.17,31.721c0.459,0,0.83-0.372,0.83-0.83v-0.83c0-0.459-0.371-0.83-0.83-0.83
	c-0.46,0-0.834,0.369-0.84,0.83v0.83C28.336,31.35,28.71,31.721,29.17,31.721z"/>
<path fill="#93C847" d="M45.73,6.57l-1,1c-0.704-0.039-1.392,0.223-1.891,0.72L32.12,19c-0.249,0.248-0.442,0.543-0.57,0.87l-1.88,3
	l0,0l-1.279,2c-0.562,0.867-0.313,2.024,0.554,2.586c0.627,0.405,1.435,0.399,2.056-0.017l2-1.27l0,0l3-1.88
	c0.326-0.128,0.623-0.322,0.87-0.57L47.5,13.05c0.5-0.501,0.762-1.193,0.721-1.9l1.049-1.05c0.973-0.976,0.973-2.554,0-3.53
	C48.282,5.618,46.718,5.618,45.73,6.57z M30.08,26c-0.073,0.059-0.178,0.059-0.25,0c-0.061-0.076-0.061-0.184,0-0.26l0.811-1.27
	c0.129,0.11,0.27,0.23,0.389,0.35c0.129,0.126,0.249,0.26,0.361,0.4L30.08,26z M46.32,11.87L35.66,22.54
	c-0.092,0.093-0.205,0.162-0.33,0.2l-0.18,0.08l-2.371,1.5c-0.184-0.237-0.383-0.461-0.6-0.67c-0.211-0.213-0.436-0.413-0.67-0.6
	L33,20.69c0.036-0.06,0.066-0.124,0.09-0.19c0.041-0.121,0.109-0.23,0.2-0.32L44,9.51c0.159-0.151,0.37-0.237,0.59-0.24
	c0.221,0,0.432,0.086,0.59,0.24l1.18,1.18c0.155,0.158,0.244,0.369,0.25,0.59c0,0.222-0.09,0.435-0.25,0.59H46.32z M48.09,8.93
	L47.5,9.51l-1.18-1.18l0.59-0.59c0.331-0.313,0.849-0.313,1.18,0c0.318,0.329,0.318,0.851,0,1.18V8.93z"/>
<path fill="#93C847" d="M17.26,3.58L17.26,3.58C17.187,3.5,17.099,3.436,17,3.39l0,0c-0.083-0.032-0.171-0.049-0.26-0.05h-0.08
	c-0.1,0.009-0.198,0.032-0.29,0.07c-0.094,0.035-0.179,0.09-0.25,0.16l-2.5,2.5c-0.326,0.326-0.326,0.854,0,1.18
	c0.326,0.326,0.854,0.326,1.18,0l0,0l1.07-1.07v6.32c0.005,0.46,0.38,0.83,0.84,0.83c0.458,0,0.83-0.372,0.83-0.83V6.18l1.08,1.08
	c0.326,0.326,0.854,0.326,1.18,0c0.326-0.326,0.326-0.854,0-1.18l0,0L17.26,3.58z"/>
<path fill="#93C847" d="M32.5,33.33c0,0.46,0.37,0.834,0.83,0.84h6.32l-1.07,1.07c-0.221,0.207-0.309,0.518-0.23,0.81
	c0.075,0.295,0.306,0.525,0.601,0.601c0.292,0.078,0.603-0.01,0.81-0.23l2.5-2.5l0,0c0.071-0.072,0.129-0.157,0.17-0.25l0,0
	c0.011-0.086,0.011-0.174,0-0.26c0,0,0-0.061,0-0.08c0.01-0.07,0.01-0.141,0-0.21v-0.08c-0.035-0.094-0.09-0.179-0.16-0.25l-2.5-2.5
	c-0.325-0.325-0.854-0.325-1.18,0s-0.326,0.854,0,1.181l1.07,1.069h-6.33c-0.459,0-0.83,0.372-0.83,0.83l0,0V33.33z"/>
</svg>
