<?xml version="1.0" encoding="utf-8"?>
<!-- Generator: Adobe Illustrator 16.0.3, SVG Export Plug-In . SVG Version: 6.00 Build 0)  -->
<!DOCTYPE svg PUBLIC "-//W3C//DTD SVG 1.1//EN" "http://www.w3.org/Graphics/SVG/1.1/DTD/svg11.dtd">
<svg version="1.1" id="Capa_1" xmlns="http://www.w3.org/2000/svg" xmlns:xlink="http://www.w3.org/1999/xlink" x="0px" y="0px"
	 width="50px" height="50px" viewBox="0 0 50 50" enable-background="new 0 0 50 50" xml:space="preserve">
<path fill="#93C847" d="M37.946,3.719c-4.206-1.016-8.646-0.027-12.022,2.679l-0.964,0.79l-0.982-0.804
	c-2.498-2.064-5.639-3.19-8.879-3.183c-1.164,0.002-2.324,0.142-3.455,0.416C5.848,5.022,0,10.473,0,19.469
	c0,5.701,2.094,10.66,6.397,15.179c3.634,3.799,8.928,7.438,17.152,11.799c0.907,0.476,1.99,0.476,2.897,0
	C40.585,38.951,50,31.496,50,19.469C50,10.433,43.938,5.049,37.946,3.719z M25.728,39.79L25,40.179l-0.732-0.401
	C11.094,32.54,6.196,27.031,6.196,19.469c0-6.009,3.572-9.018,6.911-9.821c0.649-0.161,1.314-0.242,1.982-0.241
	c3.063,0,5.669,1.656,7.143,4.54c0.548,1.05,1.642,1.7,2.826,1.679c1.182-0.017,2.25-0.711,2.746-1.786
	c1.88-4.018,5.911-4.701,8.781-4.063c3.33,0.736,7.219,3.719,7.219,9.705C43.804,27.031,38.906,32.54,25.728,39.79z"/>
</svg>
