<?xml version="1.0" encoding="utf-8"?>
<!-- Generator: Adobe Illustrator 16.0.3, SVG Export Plug-In . SVG Version: 6.00 Build 0)  -->
<!DOCTYPE svg PUBLIC "-//W3C//DTD SVG 1.1//EN" "http://www.w3.org/Graphics/SVG/1.1/DTD/svg11.dtd">
<svg version="1.1" id="Capa_1" xmlns="http://www.w3.org/2000/svg" xmlns:xlink="http://www.w3.org/1999/xlink" x="0px" y="0px"
	 width="50px" height="50px" viewBox="0 0 50 50" enable-background="new 0 0 50 50" xml:space="preserve">
<path d="M37.529,34c0,1.48-1.209,3-3.319,4.17c-5,2.801-13.37,2.801-18.42,0C13.68,37,12.47,35.49,12.47,34v-8.41l11.91,5.16
	c0.395,0.175,0.845,0.175,1.24,0l11.909-5.16V34z M25,10.66l19.55,8.48L43,19.81l-17.81-2.23c-0.866-0.048-1.606,0.615-1.654,1.48
	c-0.044,0.786,0.501,1.482,1.274,1.629l12.54,1.57L25,27.609L5.45,19.14L25,10.66z M49.109,17.66L25.62,7.52
	c-0.396-0.17-0.844-0.17-1.24,0L0.89,17.7c-0.792,0.338-1.161,1.254-0.823,2.047c0.158,0.37,0.453,0.665,0.823,0.823l8.45,3.67V34
	c0,5.27,6.88,9.4,15.66,9.4c8.779,0,15.66-4.121,15.66-9.4v-9.76l1.57-0.68v16.719c0.068,0.865,0.825,1.51,1.689,1.44
	c0.769-0.062,1.379-0.671,1.439-1.44V22.2l3.75-1.63c0.793-0.338,1.162-1.254,0.824-2.047c-0.158-0.37-0.453-0.665-0.824-0.823
	V17.66z"/>
<path fill="#93C847" d="M37.529,34c0,1.48-1.209,3-3.319,4.17c-5,2.801-13.37,2.801-18.42,0C13.68,37,12.47,35.49,12.47,34v-8.41
	l11.91,5.16c0.395,0.175,0.845,0.175,1.24,0l11.909-5.16V34z M25,10.66l19.55,8.48L43,19.81l-17.81-2.23
	c-0.866-0.048-1.606,0.615-1.654,1.48c-0.044,0.786,0.501,1.482,1.274,1.629l12.54,1.57L25,27.609L5.45,19.14L25,10.66z
	 M49.109,17.66L25.62,7.52c-0.396-0.17-0.844-0.17-1.24,0L0.89,17.7c-0.792,0.338-1.161,1.254-0.823,2.047
	c0.158,0.37,0.453,0.665,0.823,0.823l8.45,3.67V34c0,5.27,6.88,9.4,15.66,9.4c8.779,0,15.66-4.121,15.66-9.4v-9.76l1.57-0.68v16.719
	c0.068,0.865,0.825,1.51,1.689,1.44c0.769-0.062,1.379-0.671,1.439-1.44V22.2l3.75-1.63c0.793-0.338,1.162-1.254,0.824-2.047
	c-0.158-0.37-0.453-0.665-0.824-0.823V17.66z"/>
</svg>
