<?xml version="1.0" encoding="utf-8"?>
<!-- Generator: Adobe Illustrator 16.0.3, SVG Export Plug-In . SVG Version: 6.00 Build 0)  -->
<!DOCTYPE svg PUBLIC "-//W3C//DTD SVG 1.1//EN" "http://www.w3.org/Graphics/SVG/1.1/DTD/svg11.dtd">
<svg version="1.1" id="Capa_1" xmlns="http://www.w3.org/2000/svg" xmlns:xlink="http://www.w3.org/1999/xlink" x="0px" y="0px"
	 width="50px" height="50px" viewBox="0 0 50 50" enable-background="new 0 0 50 50" xml:space="preserve">
<path fill="#93C847" d="M45.9,12.49h-0.51c-0.302-1.044-0.721-2.051-1.25-3L44.5,9.13c0.863-0.862,0.865-2.262,0.002-3.126
	C44.502,6.003,44.5,6.002,44.5,6l-2.41-2.4c-0.838-0.856-2.213-0.87-3.068-0.031C39.011,3.579,39,3.589,38.99,3.6L38.63,4
	c-0.946-0.537-1.954-0.959-3-1.26V2.19C35.63,0.98,34.65,0,33.44,0c-0.011,0-0.021,0-0.03,0H30c-1.211,0-2.194,0.979-2.2,2.19V2.7
	c-1.046,0.3-2.054,0.723-3,1.26L24.44,3.6c-0.423-0.401-0.988-0.617-1.57-0.6c-0.583-0.002-1.143,0.232-1.55,0.65L18.92,6
	c-0.853,0.861-0.853,2.249,0,3.11l0.36,0.36c-0.535,0.947-0.958,1.954-1.26,3h-0.51c-1.209,0-2.19,0.98-2.19,2.19l0,0v3.41
	c0,1.209,0.98,2.19,2.19,2.19l0,0H18c0.301,1.046,0.724,2.053,1.26,3l-0.36,0.36c-0.852,0.858-0.852,2.242,0,3.101l2.4,2.399
	c0.407,0.418,0.967,0.652,1.55,0.649c0.581,0.002,1.139-0.229,1.55-0.64l0.36-0.36c0.951,0.526,1.957,0.945,3,1.25v0.51
	c-0.021,1.215,0.945,2.219,2.16,2.24c0.026,0.001,0.053,0.001,0.08,0h3.4c1.209,0,2.189-0.98,2.189-2.189v-0.51
	c1.045-0.302,2.051-0.721,3-1.25l0.36,0.35c0.407,0.418,0.966,0.652,1.55,0.65c0.582,0.002,1.139-0.229,1.55-0.641l2.41-2.41
	c0.852-0.857,0.852-2.242,0-3.1l-0.36-0.36c0.529-0.949,0.949-1.956,1.25-3h0.51c1.21,0,2.19-0.98,2.19-2.19v-3.44
	c0-1.209-0.98-2.19-2.19-2.19H45.9z M33.641,30.58c0.005,0.127-0.094,0.234-0.221,0.24c-0.003,0-0.006,0-0.01,0H30
	c-0.133,0-0.24-0.107-0.24-0.24v-7.44c-0.005-0.409-0.258-0.773-0.64-0.92c-3.477-1.268-5.267-5.114-4-8.59
	c0.485-1.328,1.377-2.469,2.549-3.26l0.221-0.14c0.007,0.103,0.007,0.207,0,0.31c0,0.1,0,0.18,0,0.26v4.62
	c0.021,2.113,1.662,3.854,3.77,4h0.13c2.118-0.122,3.773-1.877,3.771-4V10.8c0.004-0.086,0.004-0.173,0-0.26
	c-0.008-0.103-0.008-0.207,0-0.31l0.219,0.14c3.068,2.068,3.879,6.232,1.811,9.301c-0.79,1.172-1.932,2.064-3.26,2.549
	c-0.381,0.147-0.635,0.511-0.641,0.92L33.641,30.58z M46.13,18.09c0,0.129-0.101,0.235-0.229,0.24H44.63
	c-0.471-0.014-0.888,0.303-1,0.76c-0.306,1.365-0.844,2.667-1.59,3.85c-0.235,0.386-0.183,0.882,0.13,1.21l0.9,0.9
	c0.094,0.094,0.094,0.246,0,0.34c0,0,0,0,0,0l-2.41,2.4c-0.041,0.046-0.1,0.071-0.16,0.069c-0.064,0.004-0.127-0.022-0.17-0.069
	l-0.9-0.899c-0.327-0.313-0.823-0.365-1.209-0.131C37.398,27.275,36.52,27.692,35.6,28v-4.21c4.338-2.016,6.219-7.167,4.203-11.503
	c-0.656-1.411-1.68-2.618-2.963-3.497c-0.369-0.25-1.48-1-2.449-0.45c-0.971,0.55-0.851,1.84-0.811,2.39v4.73
	c0,1.068-0.808,1.962-1.87,2.07c-1.065-0.103-1.88-0.999-1.88-2.07V10.8c-0.004-0.036-0.004-0.073,0-0.11
	c0-0.55,0.13-1.84-0.82-2.39c-0.949-0.55-2.08,0.2-2.439,0.45c-3.949,2.699-4.962,8.087-2.264,12.036
	c0.877,1.284,2.084,2.308,3.493,2.964V28c-0.935-0.311-1.827-0.734-2.66-1.26c-0.156-0.098-0.336-0.148-0.52-0.15
	c-0.258,0.001-0.505,0.102-0.69,0.28l-0.9,0.899c-0.043,0.047-0.105,0.073-0.17,0.07c-0.061,0.001-0.119-0.024-0.16-0.07
	l-2.41-2.399c-0.094-0.094-0.094-0.246,0-0.339c0,0,0,0,0-0.001l0.9-0.9c0.315-0.325,0.373-0.821,0.14-1.21
	c-0.751-1.182-1.293-2.484-1.6-3.85c-0.113-0.457-0.529-0.773-1-0.76h-1.22c-0.128-0.005-0.23-0.111-0.23-0.24v-3.39
	c0-0.127,0.103-0.23,0.23-0.23h1.27c0.474,0.013,0.892-0.309,1-0.77c0.308-1.363,0.849-2.662,1.6-3.84
	c0.238-0.391,0.18-0.893-0.14-1.22l-0.9-0.9c-0.045-0.045-0.07-0.106-0.07-0.17c0.001-0.06,0.026-0.118,0.07-0.16L22.71,5
	c0.041-0.045,0.099-0.071,0.16-0.07C22.92,4.938,22.966,4.962,23,5l0.9,0.9c0.341,0.323,0.862,0.365,1.25,0.1
	c1.182-0.745,2.485-1.28,3.85-1.58c0.457-0.113,0.773-0.529,0.76-1V2.19C29.784,2.077,29.885,1.998,30,2h3.4
	c0.127,0,0.229,0.103,0.229,0.23v1.23c-0.013,0.474,0.31,0.891,0.771,1C35.767,4.745,37.072,5.266,38.26,6
	c0.389,0.233,0.885,0.175,1.211-0.14l0.899-0.9c0.044-0.047,0.105-0.073,0.17-0.07c0.063,0,0.125,0.025,0.17,0.07l2.399,2.41
	c0.044,0.042,0.069,0.1,0.07,0.16c0,0.064-0.025,0.125-0.07,0.17L42.21,8.6c-0.317,0.329-0.37,0.832-0.13,1.22
	c0.75,1.182,1.292,2.484,1.6,3.85c0.113,0.457,0.529,0.774,1,0.76H45.9c0.127,0,0.229,0.103,0.229,0.23V18.09z"/>
<path fill="#93C847" d="M46.74,34.811c-1.033-1.564-3.09-2.081-4.74-1.19l-7.779,4c-0.681-0.706-1.62-1.104-2.601-1.101h-5.37
	c-0.126,0.019-0.254,0.019-0.38,0c-0.102-0.077-0.198-0.16-0.29-0.25l0,0c-4.31-4.06-8-3.799-12.08-2.16
	c-0.423,0.205-0.89,0.305-1.36,0.291h-1.2c-0.354-1.064-1.349-1.781-2.47-1.78H4.5c-1.431,0-2.59,1.159-2.59,2.59
	c0,0.003,0,0.007,0,0.011V45.4c0,1.432,1.158,2.594,2.59,2.6h3.92c1.12-0.002,2.114-0.719,2.47-1.779h2.2
	c0.143-0.008,0.285,0.013,0.42,0.059l0.31,0.091L24,49.08l1.26,0.35c1.135,0.397,2.32,0.63,3.52,0.69
	c0.95-0.01,1.885-0.228,2.74-0.64c0.126-0.016,0.246-0.06,0.351-0.131l0.19-0.14c0.384-0.204,0.758-0.428,1.119-0.67l0,0l1.93-1.38
	c0.082-0.057,0.154-0.129,0.211-0.21l5.289-3.66l1.24-0.86c0.117-0.078,0.219-0.176,0.301-0.289l0.119-0.08l3.4-2.41
	C47.267,38.584,47.738,36.449,46.74,34.811z M9.06,45.4c0,0.354-0.287,0.64-0.64,0.64H4.5c-0.35-0.005-0.63-0.29-0.63-0.64V35.13
	c-0.006-0.354,0.276-0.645,0.63-0.649l0,0h3.92c0.355,0.005,0.64,0.295,0.64,0.649V45.4z M44.51,38l-3.39,2.42
	c-0.07,0.049-0.134,0.105-0.19,0.17L40.82,40.65L37.42,43l-5.37,3.721L30.8,47.58l-0.069,0.05c-1.721,0.82-2.84,0.5-5-0.12
	c-0.4-0.119-0.82-0.24-1.291-0.359l-10.11-2.67L14,44.4c-0.305-0.105-0.627-0.153-0.95-0.141H11v-8h1.15
	c0.69,0.015,1.374-0.129,2-0.42c3.63-1.439,6.44-1.609,10,1.77l0,0c0.497,0.578,1.242,0.879,2,0.811h5.32
	c0.604,0,1.16,0.33,1.449,0.859l0,0c0.134,0.242,0.203,0.515,0.2,0.791c0,0.916-0.743,1.66-1.66,1.66h-8.52c-0.552,0-1,0.447-1,1
	c0,0.552,0.448,1,1,1h8.63c1.995,0,3.614-1.615,3.619-3.61c0.002-0.267-0.028-0.531-0.09-0.79l7.74-4
	c0.752-0.449,1.723-0.244,2.23,0.47C45.498,36.565,45.252,37.532,44.51,38z"/>
</svg>
