<?xml version="1.0" encoding="utf-8"?>
<!-- Generator: Adobe Illustrator 16.0.3, SVG Export Plug-In . SVG Version: 6.00 Build 0)  -->
<!DOCTYPE svg PUBLIC "-//W3C//DTD SVG 1.1//EN" "http://www.w3.org/Graphics/SVG/1.1/DTD/svg11.dtd">
<svg version="1.1" id="Camada_1" xmlns="http://www.w3.org/2000/svg" xmlns:xlink="http://www.w3.org/1999/xlink" x="0px" y="0px"
	 width="50px" height="50px" viewBox="0 0 50 50" enable-background="new 0 0 50 50" xml:space="preserve">
<g>
	<path fill="#93C847" d="M29.854,7.217c-1.264-0.729-2.772-0.73-4.037-0.001l-9.376,5.414H8.189c-4.462,0-8.092,3.63-8.092,8.092
		c0,3.597,2.359,6.652,5.611,7.702L9.268,39.46c0.445,1.411,1.414,2.563,2.728,3.245c0.801,0.416,1.671,0.627,2.547,0.627
		c0.561,0,1.125-0.086,1.675-0.26c1.411-0.445,2.563-1.413,3.245-2.727c0.68-1.309,0.811-2.803,0.369-4.21l-1.878-6.464l7.863,4.54
		c0.632,0.365,1.325,0.547,2.019,0.547s1.387-0.183,2.018-0.547c1.264-0.729,2.018-2.036,2.018-3.495V10.711
		C31.872,9.252,31.117,7.946,29.854,7.217z M2.29,20.722c0-3.253,2.646-5.899,5.898-5.899h7.423v11.787l-8.896-0.174
		C4.174,25.779,2.29,23.466,2.29,20.722z M17.517,39.334c-0.412,0.793-1.107,1.378-1.96,1.646c-0.852,0.27-1.757,0.19-2.551-0.222
		c-0.793-0.412-1.379-1.108-1.649-1.967l-3.219-9.98c0.017,0,0.034,0.001,0.051,0.001h7.233l2.308,7.944
		c0.002,0.009,0.005,0.017,0.008,0.025C18.007,37.635,17.929,38.541,17.517,39.334z M29.679,30.716c0,0.667-0.345,1.264-0.922,1.597
		s-1.267,0.333-1.844,0l-9.097-5.252V14.367l9.097-5.253c0.578-0.333,1.268-0.333,1.845,0s0.921,0.93,0.921,1.596V30.716z"/>
	<g>
		<path fill="#93C847" d="M36.08,25.951c-0.216,0-0.435-0.063-0.625-0.196c-0.497-0.346-0.62-1.029-0.274-1.526
			c0.635-0.912,0.97-1.976,0.97-3.074c0-1.096-0.334-2.155-0.965-3.065c-0.345-0.497-0.222-1.181,0.276-1.525
			c0.497-0.345,1.181-0.222,1.525,0.276c0.887,1.278,1.355,2.771,1.355,4.314c0,1.549-0.471,3.045-1.362,4.326
			C36.768,25.787,36.427,25.951,36.08,25.951z"/>
		<path fill="#93C847" d="M40.003,30.78c-0.272,0-0.546-0.102-0.759-0.305c-0.438-0.419-0.452-1.113-0.033-1.55
			c1.597-1.666,2.755-4.934,2.755-7.771c0-2.813-1.138-6.059-2.705-7.719c-0.416-0.44-0.396-1.134,0.044-1.55
			c0.44-0.416,1.134-0.396,1.55,0.044c1.945,2.06,3.304,5.853,3.304,9.224c0,3.4-1.384,7.22-3.365,9.287
			C40.579,30.667,40.291,30.78,40.003,30.78z"/>
		<path fill="#93C847" d="M43.854,34.422c-0.295,0-0.589-0.118-0.805-0.352c-0.411-0.444-0.385-1.138,0.06-1.549
			c2.751-2.547,4.6-7.114,4.6-11.366c0-4.222-1.822-8.764-4.534-11.303c-0.442-0.414-0.465-1.107-0.051-1.55s1.107-0.465,1.55-0.051
			c3.127,2.928,5.229,8.113,5.229,12.903c0,4.824-2.131,10.039-5.303,12.975C44.389,34.325,44.121,34.422,43.854,34.422z"/>
	</g>
</g>
</svg>
