<?xml version="1.0" encoding="utf-8"?>
<!-- Generator: Adobe Illustrator 16.0.3, SVG Export Plug-In . SVG Version: 6.00 Build 0)  -->
<!DOCTYPE svg PUBLIC "-//W3C//DTD SVG 1.1//EN" "http://www.w3.org/Graphics/SVG/1.1/DTD/svg11.dtd">
<svg version="1.1" id="Capa_1" xmlns="http://www.w3.org/2000/svg" xmlns:xlink="http://www.w3.org/1999/xlink" x="0px" y="0px"
	 width="50px" height="50px" viewBox="0 0 50 50" enable-background="new 0 0 50 50" xml:space="preserve">
<path fill="#93C847" d="M38.357,18.304c1.652-0.732,2.398-2.665,1.667-4.317c-0.692-1.565-2.474-2.332-4.087-1.759l-0.446,0.17
	V3.826c0-1.807-1.466-3.272-3.272-3.272l0,0H17.487c-1.806,0.002-3.268,1.467-3.268,3.272v14.732c-0.165,0-0.335,0-0.518,0l0,0
	c-2.773,0.012-5.012,2.271-5,5.044c0,0.007,0,0.015,0,0.022v0.893c0.027,2.044,0.054,4.152,0.036,4.794
	c0,0.446-0.045,1.098-0.085,1.848c-0.089,1.635-0.201,3.67-0.129,4.639c0.021,1.467,0.538,2.882,1.464,4.018
	c0.281,0.362,0.598,0.809,0.951,1.371c0.143,0.232,0.299,0.446,0.446,0.701c0.671,0.816,1.098,1.805,1.232,2.853v2.415
	c0.002,1.354,1.101,2.451,2.455,2.451h9.822c1.353,0.002,2.453-1.094,2.455-2.447c0-0.001,0-0.002,0-0.004v-3.272
	c0.001-0.29,0.156-0.56,0.406-0.705c1.603-0.821,3.011-1.975,4.13-3.384h0.37c1.492-0.004,2.791-1.019,3.156-2.465
	c0.041,0,0.076,0,0.112,0h0.844c1.795,0.006,3.255-1.444,3.261-3.239c0.002-0.782-0.277-1.538-0.787-2.131
	c1.538-0.9,2.055-2.878,1.154-4.416c-0.103-0.176-0.222-0.342-0.355-0.495c1.548-0.922,2.056-2.925,1.133-4.474
	c-0.588-0.988-1.652-1.593-2.803-1.593h-2.455v-1.495L38.357,18.304z M36.54,13.75c0.843-0.332,1.794,0.082,2.125,0.924
	c0.331,0.842-0.082,1.793-0.924,2.125l0,0l-2.232,0.924v-3.571L36.54,13.75z M28.973,2.188v0.821c0,0.451-0.365,0.817-0.816,0.817
	l0,0h-6.54c-0.451,0-0.817-0.366-0.817-0.817l0,0V2.188H28.973z M26.946,41.759c-0.767,0.433-1.241,1.245-1.241,2.125v3.272
	c0,0.451-0.365,0.816-0.817,0.816c-0.001,0-0.003,0-0.004,0h-9.821c-0.451,0-0.817-0.365-0.817-0.816l0,0v-2.415
	c-0.12-1.372-0.643-2.677-1.504-3.75c-0.143-0.224-0.291-0.446-0.424-0.661c-0.361-0.598-0.683-1.045-0.955-1.459
	c-0.759-0.903-1.174-2.045-1.174-3.224c-0.063-0.866,0.044-2.844,0.129-4.429c0.04-0.768,0.085-1.451,0.089-1.893
	c0-0.679,0-2.71-0.031-4.857v-0.893c-0.012-1.874,1.497-3.403,3.371-3.415l0,0l0,0c0.877,0.013,1.728,0.3,2.433,0.821
	c0.604,0.386,1.26,0.686,1.946,0.893c1.171,0.324,2.365,0.558,3.571,0.701c0.405,0.041,0.714,0.379,0.719,0.786v0.134
	c0,0.286-0.169,2.782-4.089,2.782c-0.048-0.01-0.098-0.01-0.147,0c-0.625,0.044-3.487-0.531-4.018-1.608
	c-0.214-0.399-0.712-0.549-1.111-0.334c-0.399,0.214-0.549,0.712-0.335,1.111l0,0c0.355,0.634,0.894,1.146,1.544,1.469v9.612
	c0,1.805,1.463,3.268,3.268,3.268h12.157C28.853,40.557,27.934,41.216,26.946,41.759z M34.982,30.705
	c-0.849-0.308-1.286-1.245-0.979-2.094c0.234-0.645,0.846-1.074,1.531-1.076h1.635c0.902,0,1.634,0.731,1.635,1.634
	c0,0.902-0.731,1.634-1.634,1.635c-0.001,0-0.001,0-0.001,0h-1.656c-0.189-0.001-0.377-0.036-0.554-0.103L34.982,30.705z
	 M36.357,35.715h-0.844c-0.904-0.048-1.598-0.818-1.551-1.723c0.043-0.837,0.713-1.506,1.551-1.551h0.844
	c0.903,0.048,1.598,0.818,1.551,1.723C37.864,35.001,37.195,35.67,36.357,35.715z M37.969,22.634c0.902,0,1.634,0.732,1.633,1.635
	c0,0.902-0.73,1.633-1.633,1.634h-2.455c-0.902-0.001-1.634-0.733-1.634-1.635c0.001-0.902,0.731-1.633,1.634-1.633H37.969z
	 M32.246,24.263c0,0.943,0.413,1.838,1.129,2.452c-1.355,1.172-1.505,3.221-0.333,4.577c0.103,0.119,0.214,0.23,0.333,0.333
	c-1.354,1.168-1.502,3.213-0.334,4.564c0.232,0.27,0.506,0.497,0.812,0.677c-0.165,0.751-0.829,1.287-1.599,1.29H17.522
	c-0.902,0-1.634-0.731-1.634-1.634l0,0v-8.96c0.802,0.25,1.638,0.375,2.478,0.371c5.634,0,5.696-4.367,5.696-4.411v-0.143
	c-0.01-1.228-0.933-2.255-2.152-2.397c-1.127-0.134-2.244-0.352-3.339-0.651c-0.549-0.173-1.072-0.421-1.553-0.737
	c-0.363-0.224-0.738-0.425-1.125-0.603V3.826c-0.002-0.902,0.727-1.636,1.629-1.638c0.001,0,0.003,0,0.004,0h1.638v0.821
	c0,1.354,1.098,2.451,2.451,2.451h6.54c1.354,0,2.451-1.098,2.451-2.451V2.188h1.639c0.902,0,1.633,0.731,1.633,1.634
	c0,0.001,0,0.003,0,0.004v17.603c-1.01,0.579-1.633,1.653-1.633,2.817V24.263z"/>
<path fill="#93C847" d="M27.621,32.691h-5.206c-0.358-0.029-0.673,0.237-0.703,0.596c-0.03,0.359,0.237,0.674,0.596,0.704
	c0.036,0.003,0.072,0.003,0.107,0h5.206c0.358,0.03,0.674-0.237,0.703-0.596s-0.237-0.674-0.596-0.704
	C27.692,32.689,27.656,32.689,27.621,32.691z"/>
</svg>
