<?xml version="1.0" encoding="utf-8"?>
<!-- Generator: Adobe Illustrator 16.0.3, SVG Export Plug-In . SVG Version: 6.00 Build 0)  -->
<!DOCTYPE svg PUBLIC "-//W3C//DTD SVG 1.1//EN" "http://www.w3.org/Graphics/SVG/1.1/DTD/svg11.dtd">
<svg version="1.1" id="Capa_1" xmlns="http://www.w3.org/2000/svg" xmlns:xlink="http://www.w3.org/1999/xlink" x="0px" y="0px"
	 width="50px" height="50px" viewBox="0 0 50 50" enable-background="new 0 0 50 50" xml:space="preserve">
<path fill="#93C847" d="M36.08,5.8c-0.807-0.188-1.613,0.314-1.801,1.121c-0.023,0.102-0.037,0.206-0.039,0.31
	C34.233,8.251,33.857,9.235,33.18,10l-2,2.24c-0.13-0.206-0.356-0.33-0.6-0.33h-3.84c-0.398,0-0.721,0.322-0.721,0.72v8.69
	c0,0.398,0.322,0.72,0.721,0.72H30.6c0.281,0.001,0.535-0.164,0.65-0.42c0.785,0.482,1.688,0.738,2.609,0.74h6.83
	c1.039-0.016,1.867-0.87,1.852-1.908c0-0.014,0-0.028-0.001-0.042c0-0.46,0-6.65,0-6.78c0.005-1.021-0.818-1.854-1.84-1.86
	c-0.003,0-0.007,0-0.011,0h-3.549l0.149-0.35C37.961,9.824,37.854,8.006,37,6.5c-0.195-0.348-0.523-0.601-0.91-0.7H36.08z
	 M29.88,20.62h-2.42v-7.25h2.42V20.62z M40.689,13.23c0.232,0,0.42,0.188,0.42,0.42v1c0,2.77,0,5.4,0,5.84
	c0.009,0.116-0.035,0.229-0.119,0.31c-0.079,0.082-0.188,0.128-0.301,0.13h-6.83c-0.814-0.001-1.604-0.28-2.239-0.79l-0.3-0.25V14.3
	L34.26,11c0.911-1.033,1.412-2.363,1.41-3.74c0,0,0.061-0.05,0.08,0c0.629,1.103,0.721,2.432,0.25,3.61l-0.561,1.34
	c-0.154,0.366,0.018,0.789,0.384,0.943c0.088,0.037,0.182,0.056,0.276,0.057L40.689,13.23z"/>
<path fill="#93C847" d="M8.15,25.43c-0.397,0-0.72,0.322-0.72,0.72c0,0.397,0.322,0.72,0.72,0.72h2.11l-0.39,2.39
	c-0.066,0.393,0.198,0.764,0.59,0.83l0,0h0.12c0.35-0.004,0.647-0.256,0.71-0.6l0.43-2.631h1.73l-0.39,2.391
	c-0.066,0.393,0.198,0.764,0.59,0.83l0,0h0.12c0.349-0.001,0.646-0.256,0.7-0.6l0.44-2.631h2.88c0.397,0,0.72-0.322,0.72-0.72
	s-0.322-0.72-0.72-0.72h-2.64l0.29-1.75h2.35c0.395,0.047,0.753-0.235,0.8-0.63s-0.235-0.753-0.63-0.8
	c-0.056-0.007-0.113-0.007-0.169,0h-2.12l0.4-2.4c0.066-0.387-0.195-0.753-0.581-0.819c-0.003,0-0.006-0.001-0.009-0.001
	c-0.392-0.066-0.764,0.198-0.83,0.59c0,0,0,0,0,0l-0.43,2.63h-1.73l0.39-2.4c0.065-0.387-0.195-0.753-0.582-0.819
	c-0.002,0-0.005-0.001-0.008-0.001c-0.392-0.066-0.764,0.198-0.83,0.59c0,0,0,0,0,0L11,22.25H8.15
	c-0.395-0.047-0.753,0.235-0.8,0.63c-0.046,0.395,0.236,0.753,0.63,0.8c0.057,0.006,0.113,0.006,0.169,0h2.64l-0.29,1.75H8.15z
	 M12.25,23.68H14l-0.29,1.75H12L12.25,23.68z"/>
<path fill="#93C847" d="M29.221,38.16l-4.931-2.85c-0.222-0.131-0.498-0.131-0.72,0c-0.22,0.129-0.356,0.364-0.36,0.619v5.7
	c0.003,0.255,0.14,0.491,0.36,0.62c0.222,0.133,0.499,0.133,0.72,0l4.931-2.85c0.221-0.129,0.357-0.364,0.359-0.621
	C29.581,38.523,29.443,38.287,29.221,38.16z M24.65,40.38v-3.2l2.77,1.6L24.65,40.38z"/>
<path fill="#93C847" d="M42.62,0.49H26c-2.969,0-5.379,2.401-5.39,5.37v7.68c-0.327-0.08-0.663-0.12-1-0.12H6.4
	c-2.422,0-4.389,1.958-4.4,4.38v1.55c-0.006,0.026-0.006,0.054,0,0.08v4.15c-0.004,0.026-0.004,0.053,0,0.08v7.25
	c0.005,2.424,1.976,4.385,4.4,4.38l0,0h6.5V38c0.011,0.402,0.347,0.721,0.75,0.71c0.148-0.004,0.291-0.053,0.411-0.14l3.62-2.801
	v8.03c0.005,1.831,1.489,3.314,3.32,3.32h4.4v1.67c0.011,0.403,0.346,0.721,0.75,0.71c0.147-0.004,0.291-0.053,0.411-0.141
	l2.91-2.239h0.859c1.834,0,3.32-1.486,3.32-3.32l0,0v-1.28c0,0,0-0.049,0-0.08v-4.33c0,0,0,0,0-0.09V34.5
	c0-1.834-1.486-3.32-3.32-3.32h-6.4c0-0.09,0-3.72,0-3.72c0.635,0.259,1.314,0.392,2,0.39h8v3.521
	c0.016,0.403,0.354,0.718,0.756,0.702c0.143-0.005,0.279-0.051,0.395-0.133l5.35-4.09h2.15c2.977,0.018,5.403-2.383,5.42-5.359
	c0-0.003,0-0.007,0-0.01V5.86C47.988,2.895,45.585,0.496,42.62,0.49z M17.73,33.9c-0.064,0.029-0.125,0.066-0.18,0.109l-3.21,2.48
	v-1.91c0-0.397-0.322-0.721-0.72-0.721l0,0H6.4c-1.637,0.001-2.973-1.313-3-2.949v-7.25c0,0,0,0,0-0.05v-4.2c0,0,0,0,0-0.06V17.8
	c0-1.657,1.343-3,3-3h13.14c1.657,0,3,1.343,3,3v8.351c-0.01,0.063-0.01,0.127,0,0.189v4.57c0.005,0.09,0.005,0.18,0,0.27H21
	C19.4,31.189,18.031,32.329,17.73,33.9z M30.34,32.609c1.044,0,1.891,0.847,1.891,1.891V38l0,0v4.41l0,0v1.39
	c-0.006,1.04-0.851,1.88-1.891,1.88H29.23c-0.159,0.004-0.313,0.057-0.44,0.15l-1.94,1.5V46.4c0-0.398-0.322-0.721-0.72-0.721l0,0
	H21c-1.038,0.006-1.884-0.832-1.89-1.869c0-0.004,0-0.008,0-0.011v-9.3c0-1.044,0.846-1.891,1.89-1.891H30.34z M46.561,22.48
	c-0.006,2.172-1.769,3.93-3.94,3.93h-2.39c-0.16-0.001-0.314,0.052-0.44,0.15L35.4,29.92v-2.79c0.005-0.392-0.309-0.714-0.7-0.72
	c-0.003,0-0.007,0-0.011,0H26c-0.704,0.001-1.396-0.189-2-0.551V17.8c-0.014-1.469-0.766-2.833-2-3.63V5.86
	c0.005-2.176,1.773-3.936,3.949-3.93c0.018,0,0.034,0,0.051,0h10c0.043,0.005,0.087,0.005,0.13,0h4.24
	c0.043,0.005,0.087,0.005,0.13,0h2.109c2.173,0,3.936,1.758,3.94,3.93L46.561,22.48z"/>
</svg>
