<?xml version="1.0" encoding="utf-8"?>
<!-- Generator: Adobe Illustrator 16.0.3, SVG Export Plug-In . SVG Version: 6.00 Build 0)  -->
<!DOCTYPE svg PUBLIC "-//W3C//DTD SVG 1.1//EN" "http://www.w3.org/Graphics/SVG/1.1/DTD/svg11.dtd">
<svg version="1.1" id="Capa_2" xmlns="http://www.w3.org/2000/svg" xmlns:xlink="http://www.w3.org/1999/xlink" x="0px" y="0px"
	 width="50px" height="50px" viewBox="0 0 50 50" enable-background="new 0 0 50 50" xml:space="preserve">
<path fill="#7FEAFD" d="M50,30.485c-0.451,0.064-0.914,0.155-1.389,0.271c-5.936,1.45-7.868-4.994-17.066-6.689
	c-6.269-1.155-10.496,4.038-9.388,9.206c0.917,4.277,1.691,7.242-1.279,9.506c-4.042,3.082-1.144,7.09-1.144,7.09H50V30.485z"/>
<path fill="#7FEAFD" d="M0,38.517c0.252,0.041,0.501,0.094,0.748,0.159c3.196,0.85,4.422-2.249,9.191-3.917s6.471,2.649,5.057,5.391
	c-1.37,2.657-2.284,3.094,0.689,5.567s0.616,4.151,0.616,4.151H0V38.517z"/>
<path fill="#92C846" d="M50,30.351c0,0-0.545,4.62-10.965,2.693c-10.465-1.935-22.076,6.731-19.464,16.824H50V30.351z"/>
<path fill="#43493B" d="M26.599,41.417l0.913-0.048c0.068-0.005,0.128,0.048,0.132,0.116c0.001,0.004,0.001,0.009,0.001,0.014
	l-0.024,0.84c-0.003,0.068-0.061,0.121-0.128,0.117c-0.002,0-0.002,0-0.004,0l-0.865-0.043c-0.061-0.006-0.108-0.057-0.109-0.117
	l-0.022-0.752C26.486,41.479,26.534,41.423,26.599,41.417z"/>
<path fill="#43493B" d="M28.533,36.644l1.689-0.088c0.126-0.008,0.235,0.088,0.243,0.215c0.001,0.008,0.001,0.017,0.001,0.025
	l-0.045,1.553c-0.004,0.126-0.109,0.225-0.236,0.22c-0.002,0-0.004,0-0.007,0l-1.604-0.079c-0.112-0.01-0.2-0.104-0.201-0.217
	l-0.039-1.393C28.325,36.761,28.414,36.655,28.533,36.644z"/>
<path fill="#43493B" d="M22.847,42.798l0.5-0.026c0.037-0.003,0.069,0.026,0.072,0.063c0,0.002,0,0.005,0,0.008l-0.013,0.459
	c-0.002,0.037-0.034,0.065-0.071,0.064c0,0-0.001,0-0.001-0.001l-0.474-0.022c-0.033-0.004-0.059-0.031-0.06-0.064l-0.011-0.411
	C22.786,42.832,22.812,42.802,22.847,42.798z"/>
<path fill="#43493B" d="M34.119,35.298l0.5-0.026c0.037-0.003,0.068,0.026,0.071,0.063c0,0.002,0,0.005,0,0.008l-0.013,0.459
	c-0.002,0.037-0.033,0.065-0.07,0.064c-0.001,0-0.002,0-0.002-0.001l-0.475-0.022c-0.032-0.004-0.059-0.031-0.059-0.064
	l-0.012-0.411C34.059,35.332,34.084,35.302,34.119,35.298z"/>
<path fill="#43493B" d="M1.324,37.609l-0.413-0.021c-0.03-0.002-0.057,0.021-0.059,0.052c0,0.002,0,0.004,0,0.006l0.011,0.38
	c0.001,0.03,0.027,0.054,0.057,0.053c0,0,0,0,0,0l0.392-0.019c0.028-0.003,0.049-0.025,0.049-0.053l0.01-0.34
	C1.374,37.638,1.353,37.612,1.324,37.609z"/>
<path fill="#43493B" d="M9.877,32.697l-0.413-0.021c-0.031-0.002-0.057,0.021-0.059,0.052c0,0.002,0,0.004,0,0.006l0.011,0.379
	c0.001,0.031,0.026,0.055,0.057,0.054c0,0,0.001,0,0.002,0l0.392-0.02c0.027-0.003,0.048-0.024,0.049-0.053l0.009-0.339
	C9.927,32.726,9.906,32.7,9.877,32.697z"/>
<path fill="#43493B" d="M1.362,33.838l1.722-0.088c0.129-0.008,0.241,0.091,0.249,0.22c0,0.008,0,0.015,0,0.021L3.29,35.575
	c-0.005,0.127-0.113,0.227-0.241,0.222c-0.002,0-0.005,0-0.007,0l-1.638-0.08c-0.114-0.01-0.203-0.104-0.206-0.22L1.16,34.079
	C1.151,33.957,1.241,33.851,1.362,33.838z"/>
<path fill="#43493B" d="M6.518,34.437L5.63,34.39c-0.066-0.004-0.124,0.047-0.128,0.113c0,0.004,0,0.008,0,0.013l0.022,0.817
	c0.003,0.065,0.059,0.117,0.124,0.113c0.001,0,0.003,0,0.004,0l0.843-0.041c0.059-0.006,0.105-0.055,0.106-0.113l0.021-0.73
	C6.628,34.498,6.581,34.442,6.518,34.437z"/>
<path d="M7.982,41.382l-0.123,0.056l0,0c-0.021,0.007-0.043-0.004-0.05-0.024c-0.006-0.018,0.001-0.037,0.018-0.047l0,0l0.125-0.055
	c0.02-0.009,0.042,0.001,0.05,0.021C8.011,41.351,8.002,41.373,7.982,41.382L7.982,41.382z"/>
<path d="M7.578,41.575l-0.119,0.063l0,0c-0.02,0.01-0.043,0.002-0.054-0.018s-0.002-0.043,0.017-0.053l0,0l0.123-0.063
	c0.02-0.009,0.043,0,0.052,0.021c0.007,0.018,0.001,0.037-0.016,0.048L7.578,41.575z"/>
<path d="M7.185,41.791L7.069,41.86l0,0c-0.02,0.012-0.044,0.005-0.056-0.014c-0.011-0.02-0.005-0.045,0.014-0.056l0,0l0.117-0.069
	c0.019-0.012,0.043-0.006,0.055,0.013c0,0.001,0,0.001,0,0.001C7.211,41.754,7.205,41.778,7.185,41.791L7.185,41.791L7.185,41.791z"
	/>
<path d="M6.805,42.03l-0.111,0.075l0,0c-0.019,0.013-0.044,0.009-0.057-0.01c0,0,0-0.001-0.001-0.001
	c-0.011-0.02-0.007-0.043,0.011-0.057l0,0l0.112-0.078c0.021-0.008,0.045,0.002,0.053,0.023c0.006,0.016,0.002,0.033-0.009,0.045
	L6.805,42.03z"/>
<path d="M6.44,42.29l-0.106,0.083l0,0c-0.019,0.013-0.045,0.01-0.06-0.008c-0.013-0.019-0.01-0.044,0.008-0.06l0,0l0.108-0.082
	c0.019-0.013,0.044-0.01,0.059,0.008C6.461,42.251,6.458,42.275,6.44,42.29L6.44,42.29z"/>
<path d="M6.09,42.571l-0.102,0.088l0,0c-0.015,0.02-0.042,0.022-0.062,0.008c-0.02-0.015-0.023-0.043-0.008-0.062
	c0.003-0.005,0.008-0.009,0.013-0.011l0,0l0.103-0.088c0.021-0.012,0.048-0.004,0.059,0.018C6.102,42.54,6.101,42.558,6.09,42.571
	L6.09,42.571z"/>
<path d="M5.757,42.872l-0.096,0.094l0,0c-0.018,0.018-0.045,0.017-0.062-0.001c-0.017-0.018-0.017-0.046,0.001-0.062l0,0
	l0.098-0.095c0.016-0.019,0.043-0.021,0.062-0.006c0.019,0.015,0.021,0.043,0.006,0.062c-0.002,0.002-0.005,0.005-0.007,0.007
	L5.757,42.872z"/>
<path d="M5.441,43.19l-0.09,0.1l0,0c-0.016,0.018-0.044,0.02-0.062,0.004c0,0-0.001-0.001-0.002-0.002
	c-0.018-0.016-0.02-0.043-0.003-0.062c0-0.001,0-0.001,0.001-0.001l0,0l0.092-0.101c0.017-0.019,0.045-0.019,0.063-0.002
	s0.019,0.045,0.002,0.063l0,0H5.441z"/>
<path d="M5.143,43.526L5.055,43.63l0,0c-0.015,0.02-0.042,0.023-0.062,0.009c0-0.001-0.001-0.001-0.002-0.002
	c-0.019-0.017-0.022-0.045-0.006-0.064l0,0l0.087-0.104c0.017-0.02,0.045-0.021,0.064-0.006c0.02,0.015,0.023,0.042,0.008,0.061
	C5.144,43.524,5.143,43.524,5.143,43.526L5.143,43.526z"/>
<path d="M4.864,43.878l-0.081,0.108l0,0c-0.014,0.021-0.042,0.027-0.064,0.013c-0.022-0.014-0.028-0.042-0.014-0.063
	c0.001-0.002,0.002-0.003,0.003-0.005l0,0l0.081-0.109c0.015-0.021,0.044-0.024,0.065-0.01c0.02,0.014,0.025,0.041,0.012,0.062
	c-0.001,0.001-0.001,0.003-0.002,0.003L4.864,43.878z"/>
<path d="M4.605,44.244l-0.074,0.112l0,0c-0.015,0.021-0.044,0.028-0.066,0.014c-0.021-0.014-0.028-0.043-0.014-0.064l0,0l0,0
	l0.075-0.115c0.014-0.021,0.043-0.027,0.065-0.013C4.614,44.192,4.62,44.222,4.605,44.244L4.605,44.244z"/>
<path d="M4.365,44.624L4.298,44.74l0,0c-0.014,0.022-0.043,0.03-0.066,0.018s-0.031-0.042-0.018-0.065c0,0,0,0,0,0l0,0l0.069-0.117
	c0.012-0.023,0.042-0.033,0.065-0.021c0.023,0.013,0.032,0.042,0.02,0.065C4.368,44.62,4.367,44.622,4.365,44.624L4.365,44.624z"/>
<path d="M4.148,45.017l-0.061,0.12l0,0c-0.014,0.023-0.043,0.031-0.067,0.019c-0.021-0.014-0.03-0.039-0.021-0.063l0,0l0.063-0.121
	c0.012-0.024,0.042-0.034,0.065-0.021C4.151,44.962,4.161,44.991,4.148,45.017L4.148,45.017L4.148,45.017z"/>
<path d="M3.953,45.421l-0.054,0.123l0,0c-0.008,0.025-0.037,0.04-0.063,0.031s-0.041-0.037-0.032-0.063
	c0.001-0.004,0.002-0.006,0.004-0.009l0,0l0.055-0.125c0.011-0.025,0.041-0.036,0.066-0.025c0.024,0.011,0.036,0.04,0.025,0.065l0,0
	L3.953,45.421z"/>
<path d="M3.782,45.833L3.735,45.96l0,0c-0.01,0.025-0.039,0.039-0.065,0.029l0,0c-0.026-0.01-0.04-0.039-0.03-0.065l0,0l0,0
	l0.048-0.128c0.01-0.025,0.039-0.039,0.064-0.029c0.026,0.01,0.04,0.039,0.03,0.064l0,0V45.833z"/>
<path d="M3.634,46.258l-0.038,0.128l0,0c-0.006,0.028-0.034,0.046-0.062,0.039c-0.028-0.006-0.045-0.033-0.039-0.062
	c0-0.003,0.001-0.005,0.002-0.007l0,0l0.04-0.133c0.007-0.027,0.035-0.043,0.063-0.036c0.028,0.007,0.044,0.035,0.037,0.063
	c0,0.002-0.001,0.003-0.002,0.005L3.634,46.258z"/>
<path d="M3.512,46.688L3.48,46.82l0,0c-0.008,0.028-0.037,0.044-0.065,0.036c-0.027-0.007-0.043-0.034-0.038-0.061l0,0l0.033-0.133
	c0.007-0.027,0.036-0.043,0.064-0.036C3.502,46.634,3.518,46.661,3.512,46.688L3.512,46.688z"/>
<path d="M3.416,47.126l-0.024,0.132l0,0c-0.005,0.028-0.033,0.048-0.062,0.043c-0.029-0.005-0.048-0.033-0.043-0.062l0,0l0,0
	l0.025-0.135c0.006-0.029,0.034-0.047,0.063-0.041c0.027,0.006,0.045,0.032,0.041,0.061V47.126z"/>
<path d="M3.347,47.568l-0.013,0.134l0,0c-0.005,0.029-0.033,0.05-0.063,0.045c-0.027-0.005-0.047-0.029-0.045-0.058l0,0l0.016-0.136
	c0.005-0.029,0.033-0.049,0.062-0.044c0.027,0.005,0.047,0.029,0.045,0.058L3.347,47.568z"/>
<path d="M3.304,48.015l-0.008,0.135l0,0c-0.001,0.029-0.027,0.053-0.058,0.051s-0.054-0.027-0.052-0.058l0,0l0.008-0.136
	c0.002-0.03,0.028-0.054,0.058-0.052s0.053,0.028,0.051,0.058V48.015z"/>
<path d="M3.29,48.462v0.135c0,0.03-0.025,0.055-0.055,0.055c-0.031,0-0.055-0.023-0.056-0.055l0,0l0,0V48.46
	c0-0.03,0.025-0.055,0.056-0.055c0.03,0,0.055,0.024,0.055,0.055V48.462z"/>
<path d="M3.298,48.909l0.008,0.135l0,0c0.002,0.03-0.021,0.057-0.052,0.059c0,0,0,0,0,0c-0.031,0.002-0.057-0.021-0.059-0.052l0,0
	l-0.008-0.136c-0.004-0.031,0.018-0.059,0.048-0.063c0.03-0.004,0.058,0.018,0.062,0.049C3.298,48.903,3.298,48.905,3.298,48.909
	L3.298,48.909z"/>
<path d="M3.333,49.356l0.016,0.133l0,0c0.003,0.031-0.018,0.059-0.049,0.063s-0.059-0.019-0.062-0.049l0,0l-0.016-0.135
	c-0.003-0.031,0.019-0.059,0.049-0.063C3.302,49.303,3.33,49.325,3.333,49.356L3.333,49.356z"/>
<path d="M3.394,49.8l0.023,0.131l0,0c0.007,0.031-0.012,0.061-0.042,0.068c-0.03,0.006-0.06-0.013-0.067-0.043
	c0-0.002-0.001-0.004-0.001-0.006l0,0l-0.023-0.135c-0.004-0.03,0.018-0.059,0.048-0.063c0.029-0.004,0.056,0.016,0.063,0.044V49.8z
	"/>
<polygon points="8.606,40.493 8.583,41.156 9.041,40.888 "/>
<path fill="#00D5FC" d="M11.598,40.22l-1.845,1.505c-0.035,0.028-0.081,0.042-0.126,0.037c-0.045-0.006-0.086-0.029-0.114-0.065
	L8.07,39.787c-0.022-0.03-0.017-0.071,0.013-0.095c0.015-0.01,0.033-0.015,0.051-0.012L11.598,40.22z"/>
<polygon points="8.606,40.494 11.598,40.22 8.838,40.803 8.824,40.986 "/>
<polygon points="8.977,40.985 8.583,41.156 8.838,40.803 "/>
</svg>
