<?xml version="1.0" encoding="utf-8"?>
<!-- Generator: Adobe Illustrator 16.0.3, SVG Export Plug-In . SVG Version: 6.00 Build 0)  -->
<!DOCTYPE svg PUBLIC "-//W3C//DTD SVG 1.1//EN" "http://www.w3.org/Graphics/SVG/1.1/DTD/svg11.dtd">
<svg version="1.1" id="Capa_2" xmlns="http://www.w3.org/2000/svg" xmlns:xlink="http://www.w3.org/1999/xlink" x="0px" y="0px"
	 width="50px" height="50px" viewBox="0 0 50 50" enable-background="new 0 0 50 50" xml:space="preserve">
<path fill="#7FEAFD" d="M0,29.555c5.42-3.924,9.819,7.859,17.57,3.313c8.389-4.918,10.7,0.658,10.561,3.231
	c-0.137,2.573-2.969,2.945,1.452,8.645c1.388,1.788,0.614,3.587-1.444,5.226H0V29.555z"/>
<path fill="#7FEAFD" d="M50,37.645c-6.063,0.023-16.783,7.131-16.783,12.324H50V37.645z"/>
<path fill="#92C846" d="M17.461,49.969H0V34.323c1.479-0.642,4.976,0.024,5.954,2.324c1.938,4.554-0.988,5.733,3.049,5.916
	C13.795,42.781,18.057,47.211,17.461,49.969z"/>
<path fill="#FFFFFF" d="M10.938,46.8l-1.229-0.063C9.617,46.73,9.538,46.8,9.532,46.892c0,0.007,0,0.013,0,0.02l0.03,1.128
	c0.004,0.092,0.081,0.162,0.172,0.158c0.002,0,0.003,0,0.005,0l1.167-0.058c0.082-0.007,0.145-0.075,0.147-0.157l0.028-1.013
	C11.086,46.884,11.023,46.809,10.938,46.8z"/>
<path fill="#FFFFFF" d="M13.751,47.118l-0.549-0.03c-0.041-0.004-0.077,0.027-0.08,0.068c0,0.004,0,0.006,0,0.01l0.014,0.507
	c0.002,0.041,0.037,0.073,0.078,0.071c0,0,0.001,0,0.001,0l0.523-0.026c0.037-0.003,0.065-0.034,0.066-0.07l0.013-0.454
	C13.819,47.154,13.79,47.121,13.751,47.118z"/>
<path fill="#FFFFFF" d="M7.725,44.455l0.79-0.041c0.059-0.004,0.11,0.041,0.113,0.102c0,0.003,0,0.006,0,0.01l-0.02,0.725
	c-0.003,0.059-0.053,0.104-0.111,0.102c-0.001,0-0.002,0-0.003,0l-0.746-0.037c-0.052-0.004-0.093-0.048-0.094-0.101l-0.018-0.649
	C7.632,44.51,7.671,44.463,7.725,44.455z"/>
<path fill="#FFFFFF" d="M4.813,44.436l0.267-0.014c0.02-0.002,0.037,0.014,0.039,0.033c0,0.002,0,0.003,0,0.004l-0.007,0.246
	c0,0.02-0.017,0.035-0.037,0.035c0,0-0.001,0-0.002,0l-0.253-0.013c-0.018-0.001-0.032-0.017-0.032-0.034l-0.006-0.219
	C4.779,44.455,4.793,44.438,4.813,44.436z"/>
<path d="M35.303,43.788l-0.667,0.062c-0.05,0.005-0.087,0.049-0.083,0.098c0,0.004,0,0.008,0.001,0.01l0.106,0.607
	c0.008,0.048,0.053,0.08,0.1,0.072c0.003,0,0.006-0.001,0.008-0.002l0.624-0.122c0.044-0.011,0.072-0.052,0.067-0.097l-0.064-0.547
	C35.391,43.821,35.35,43.785,35.303,43.788z"/>
<path fill="#92C846" d="M44.602,35.235l-0.668,0.063c-0.05,0.004-0.087,0.048-0.083,0.098c0,0.003,0.001,0.007,0.001,0.01
	l0.106,0.606c0.008,0.048,0.053,0.08,0.101,0.072c0.002,0,0.005,0,0.008-0.002l0.623-0.122c0.044-0.011,0.072-0.052,0.066-0.097
	l-0.063-0.547C44.689,35.27,44.648,35.232,44.602,35.235z"/>
<path fill="#92C846" d="M41.781,37.118l-2.052,0.191c-0.153,0.012-0.269,0.146-0.257,0.3c0.001,0.01,0.002,0.021,0.004,0.031
	l0.326,1.864c0.029,0.151,0.174,0.249,0.325,0.222c0.003-0.001,0.005-0.002,0.007-0.002l1.92-0.378
	c0.134-0.031,0.223-0.159,0.205-0.296l-0.198-1.684C42.051,37.223,41.926,37.112,41.781,37.118z"/>
<path fill="#92C846" d="M36.849,39.358l-1.438,0.134c-0.108,0.01-0.188,0.104-0.179,0.212c0.001,0.007,0.002,0.015,0.003,0.021
	l0.228,1.307c0.021,0.105,0.123,0.176,0.229,0.155c0.002-0.001,0.004-0.001,0.005-0.001l1.345-0.264
	c0.094-0.021,0.156-0.111,0.143-0.207l-0.139-1.18C37.039,39.432,36.951,39.354,36.849,39.358z"/>
<path d="M43.859,45.387l0.123,0.055l0,0c0.021,0.007,0.043-0.004,0.05-0.024c0.006-0.018-0.002-0.037-0.019-0.046l0,0l-0.124-0.056
	c-0.02-0.009-0.042,0-0.052,0.02c-0.008,0.019,0,0.042,0.02,0.05C43.857,45.386,43.857,45.386,43.859,45.387L43.859,45.387z"/>
<path d="M44.264,45.578l0.119,0.063l0,0c0.02,0.01,0.043,0.003,0.053-0.016c0.01-0.02,0.003-0.044-0.016-0.055l0,0l-0.121-0.062
	c-0.02-0.011-0.043-0.003-0.053,0.016c0,0.001,0,0.001,0,0.001c-0.01,0.02-0.003,0.043,0.016,0.053H44.264z"/>
<path d="M44.656,45.795l0.115,0.069l0,0c0.02,0.012,0.045,0.005,0.057-0.014c0.011-0.019,0.004-0.044-0.015-0.056l0,0l0,0
	l-0.116-0.07c-0.02-0.011-0.044-0.004-0.055,0.015C44.631,45.758,44.637,45.783,44.656,45.795L44.656,45.795L44.656,45.795z"/>
<path d="M45.037,46.034l0.11,0.075l0,0c0.019,0.014,0.044,0.009,0.058-0.01l0,0c0.012-0.02,0.006-0.044-0.012-0.058l0,0
	l-0.112-0.077c-0.021-0.008-0.045,0.002-0.054,0.023C45.021,46.004,45.025,46.021,45.037,46.034L45.037,46.034z"/>
<path d="M45.401,46.295l0.106,0.082l0,0c0.019,0.014,0.045,0.01,0.059-0.008c0.014-0.019,0.01-0.044-0.008-0.059l0,0l-0.107-0.082
	c-0.02-0.014-0.044-0.01-0.059,0.008c-0.014,0.018-0.012,0.043,0.006,0.057C45.398,46.293,45.399,46.294,45.401,46.295
	L45.401,46.295z"/>
<path d="M45.751,46.576l0.102,0.088l0,0c0.021,0.012,0.048,0.004,0.06-0.018c0.008-0.016,0.008-0.034-0.004-0.048l0,0l-0.103-0.088
	c-0.019-0.015-0.045-0.013-0.061,0.005C45.73,46.533,45.732,46.561,45.751,46.576L45.751,46.576z"/>
<path d="M46.084,46.876l0.098,0.095l0,0c0.018,0.016,0.045,0.016,0.062-0.002s0.017-0.045-0.001-0.063l0,0l0,0l-0.098-0.094
	c-0.016-0.02-0.043-0.022-0.063-0.008c-0.019,0.016-0.021,0.043-0.008,0.063C46.078,46.87,46.08,46.873,46.084,46.876L46.084,46.876
	z"/>
<path d="M46.4,47.194l0.091,0.1l0,0c0.017,0.019,0.045,0.019,0.063,0.003c0.018-0.018,0.02-0.045,0.002-0.063l0,0l0,0l-0.093-0.101
	c-0.017-0.018-0.045-0.019-0.063-0.002c-0.018,0.018-0.018,0.045-0.002,0.063H46.4z"/>
<path d="M46.699,47.531l0.088,0.104l0,0c0.016,0.02,0.044,0.021,0.063,0.006s0.022-0.045,0.006-0.064l0,0l-0.087-0.105
	c-0.017-0.019-0.045-0.021-0.064-0.005s-0.021,0.045-0.006,0.063V47.531z"/>
<path d="M46.979,47.882l0.08,0.108l0,0c0.015,0.021,0.043,0.025,0.064,0.01c0.02-0.016,0.025-0.045,0.01-0.064l0,0l-0.081-0.11
	c-0.015-0.021-0.044-0.024-0.064-0.009C46.967,47.831,46.963,47.859,46.979,47.882L46.979,47.882z"/>
<path d="M47.236,48.248l0.074,0.113l0,0c0.017,0.02,0.047,0.023,0.066,0.008c0.019-0.015,0.023-0.039,0.014-0.061l0,0l-0.076-0.113
	c-0.014-0.021-0.043-0.027-0.064-0.014C47.228,48.196,47.223,48.226,47.236,48.248L47.236,48.248z"/>
<path d="M47.477,48.628l0.067,0.116l0,0c0.012,0.024,0.04,0.034,0.064,0.022c0.024-0.013,0.034-0.041,0.022-0.065
	c-0.002-0.002-0.002-0.003-0.004-0.005l0,0l-0.068-0.118c-0.014-0.022-0.043-0.029-0.066-0.017
	C47.47,48.574,47.462,48.604,47.477,48.628L47.477,48.628z"/>
<path d="M47.693,49.021l0.061,0.12l0,0c0.012,0.025,0.04,0.037,0.064,0.025c0.025-0.01,0.037-0.039,0.026-0.064
	c-0.001-0.002-0.001-0.003-0.003-0.005l0,0l-0.062-0.121c-0.013-0.024-0.042-0.034-0.065-0.022
	C47.69,48.966,47.681,48.995,47.693,49.021L47.693,49.021L47.693,49.021z"/>
<path d="M47.889,49.424l0.054,0.124l0,0c0.011,0.025,0.04,0.038,0.065,0.027s0.037-0.04,0.027-0.065c0-0.001,0-0.002-0.001-0.002
	l0,0l-0.056-0.125c-0.011-0.025-0.04-0.037-0.064-0.025C47.889,49.369,47.877,49.398,47.889,49.424L47.889,49.424z"/>
<path d="M48.061,49.838l0.046,0.125l0,0c0.009,0.027,0.037,0.043,0.063,0.034c0.027-0.009,0.042-0.037,0.033-0.063
	c0-0.002,0-0.004-0.002-0.006l0,0l-0.047-0.127c-0.01-0.027-0.039-0.04-0.065-0.03s-0.04,0.039-0.03,0.065L48.061,49.838z"/>
<polygon points="43.234,44.498 43.259,45.16 42.8,44.892 "/>
<path fill="#00D5FC" d="M40.244,44.224l1.844,1.505c0.035,0.029,0.08,0.043,0.126,0.037s0.086-0.029,0.114-0.065l1.441-1.909
	c0.021-0.029,0.016-0.072-0.014-0.094c-0.015-0.012-0.033-0.016-0.051-0.013L40.244,44.224z"/>
<polygon points="43.234,44.498 40.244,44.224 43.004,44.807 43.018,44.99 "/>
<polygon points="42.864,44.988 43.259,45.16 43.004,44.807 "/>
</svg>
