<?xml version="1.0" encoding="utf-8"?>
<!-- Generator: Adobe Illustrator 25.3.1, SVG Export Plug-In . SVG Version: 6.00 Build 0)  -->
<svg version="1.1" id="Layer_1" xmlns="http://www.w3.org/2000/svg" xmlns:xlink="http://www.w3.org/1999/xlink" x="0px" y="0px"
	 viewBox="0 0 1140 245.2" style="enable-background:new 0 0 1140 245.2;" xml:space="preserve">
<style type="text/css">
	.st0{fill:#92C846;}
	.st1{fill:url(#SVGID_1_);}
	.st2{fill:url(#SVGID_2_);}
	.st3{fill:url(#SVGID_3_);}
	.st4{fill:url(#SVGID_4_);}
	.st5{fill:url(#SVGID_5_);}
	.st6{fill:url(#SVGID_6_);}
	.st7{fill:url(#SVGID_7_);}
	.st8{fill:url(#SVGID_8_);}
	.st9{fill:url(#SVGID_9_);}
	.st10{fill:url(#SVGID_10_);}
	.st11{fill:url(#SVGID_11_);}
	.st12{fill:url(#SVGID_12_);}
	.st13{fill:#F7CC7F;}
	.st14{fill:url(#SVGID_13_);}
	.st15{fill:#FFFFFF;}
	.st16{fill:#13375B;}
	.st17{fill:#355389;}
	.st18{fill:url(#SVGID_14_);}
	.st19{fill:url(#SVGID_15_);}
	.st20{fill:#E58761;}
	.st21{fill:#43493B;}
	.st22{fill:#009DC2;}
	.st23{fill:url(#SVGID_16_);}
	.st24{fill:#F48C7F;}
	.st25{fill:url(#SVGID_17_);}
	.st26{fill:#F7A491;}
	.st27{fill:url(#SVGID_18_);}
	.st28{fill:url(#SVGID_19_);}
	.st29{fill:url(#SVGID_20_);}
	.st30{fill:url(#SVGID_21_);}
	.st31{fill:url(#SVGID_22_);}
	.st32{fill:url(#SVGID_23_);}
	.st33{fill:url(#SVGID_24_);}
	.st34{fill:url(#SVGID_25_);}
	.st35{fill:url(#SVGID_26_);}
	.st36{fill:url(#SVGID_27_);}
	.st37{fill:url(#SVGID_28_);}
	.st38{fill:url(#SVGID_29_);}
	.st39{fill:url(#SVGID_30_);}
	.st40{fill:url(#SVGID_31_);}
	.st41{fill:url(#SVGID_32_);}
	.st42{fill:url(#SVGID_33_);}
	.st43{fill:url(#SVGID_34_);}
	.st44{fill:url(#SVGID_35_);}
	.st45{fill:url(#SVGID_36_);}
	.st46{fill:url(#SVGID_37_);}
	.st47{fill:url(#SVGID_38_);}
	.st48{fill:url(#SVGID_39_);}
	.st49{fill:url(#SVGID_40_);}
	.st50{fill:url(#SVGID_41_);}
	.st51{fill:url(#SVGID_42_);}
	.st52{fill:url(#SVGID_43_);}
	.st53{fill:url(#SVGID_44_);}
	.st54{fill:url(#SVGID_45_);}
	.st55{fill:url(#SVGID_46_);}
	.st56{fill:url(#SVGID_47_);}
	.st57{fill:url(#SVGID_48_);}
	.st58{fill:url(#SVGID_49_);}
	.st59{fill:url(#SVGID_50_);}
	.st60{fill:url(#SVGID_51_);}
	.st61{fill:url(#SVGID_52_);}
	.st62{fill:url(#SVGID_53_);}
	.st63{fill:url(#SVGID_54_);}
	.st64{fill:url(#SVGID_55_);}
	.st65{fill:url(#SVGID_56_);}
	.st66{fill:url(#SVGID_57_);}
	.st67{fill:url(#SVGID_58_);}
	.st68{fill:url(#SVGID_59_);}
	.st69{fill:url(#SVGID_60_);}
	.st70{fill:url(#SVGID_61_);}
	.st71{fill:url(#SVGID_62_);}
	.st72{fill:url(#SVGID_63_);}
	.st73{fill:url(#SVGID_64_);}
	.st74{fill:url(#SVGID_65_);}
	.st75{fill:#00D5FC;}
	.st76{fill:none;stroke:#FFFFFF;stroke-width:0.75;stroke-miterlimit:10;}
	.st77{fill:#FFFFFF;stroke:#FFFFFF;stroke-width:0.75;stroke-miterlimit:10;}
	.st78{fill:url(#SVGID_66_);}
	.st79{fill:url(#SVGID_67_);}
	.st80{fill:url(#SVGID_68_);}
	.st81{fill:#184655;}
	.st82{fill:url(#SVGID_69_);}
	.st83{fill:url(#SVGID_70_);}
	.st84{fill:#F79C8D;}
	.st85{fill:url(#SVGID_71_);}
	.st86{fill:url(#SVGID_72_);}
	.st87{fill:url(#SVGID_73_);}
	.st88{fill:url(#SVGID_74_);}
	.st89{fill:url(#SVGID_75_);}
	.st90{fill:url(#SVGID_76_);}
	.st91{fill:url(#SVGID_77_);}
	.st92{fill:url(#SVGID_78_);}
	.st93{fill:url(#SVGID_79_);}
	.st94{fill:url(#SVGID_80_);}
	.st95{fill:url(#SVGID_81_);}
	.st96{fill:url(#SVGID_82_);}
	.st97{fill:url(#SVGID_83_);}
	.st98{opacity:0.2;fill:#F47458;enable-background:new    ;}
	.st99{fill:url(#SVGID_84_);}
	.st100{fill:url(#SVGID_85_);}
	.st101{fill:url(#SVGID_86_);}
</style>
<g>
	<g id="Capa_1">
		<rect y="57.7" class="st0" width="1140" height="187.5"/>
		
			<linearGradient id="SVGID_1_" gradientUnits="userSpaceOnUse" x1="1052.9" y1="988.1635" x2="1062.45" y2="988.1635" gradientTransform="matrix(1 0 0 1 0 -751.9999)">
			<stop  offset="0" style="stop-color:#FCDEB3"/>
			<stop  offset="1" style="stop-color:#F9C476"/>
		</linearGradient>
		<path class="st1" d="M1058.1,228.1c0,0,0.8,5.4,2.1,7.2c0.7,0.7,1.3,1.5,1.8,2.4c0.8,1.7,0.4,4.1-0.2,5.5c-0.3,0.7,0,0.7-0.7,0.9
			c-2.2,0.6-4.5-0.4-5.3-2.5c-0.6-1.5-1-3-1-4.6c-0.2-4.9-1.8-7.5-1.8-7.5L1058.1,228.1z"/>
		
			<linearGradient id="SVGID_2_" gradientUnits="userSpaceOnUse" x1="1019.9454" y1="989.5273" x2="1035.4709" y2="989.5273" gradientTransform="matrix(1 0 0 1 0 -751.9999)">
			<stop  offset="0" style="stop-color:#FCDEB3"/>
			<stop  offset="1" style="stop-color:#F9C476"/>
		</linearGradient>
		<path class="st2" d="M1034.6,230.6c0,0-0.5,6.1-0.1,8.1c0.2,1.1,1.4,3.3,0.8,4.3c-0.2,0.5-0.6,1-1.1,1.3l-13.9,0.2
			c-0.8,0-0.3-0.5,0.3-0.9c1.6-1.1,3.2-2,5-2.8c0.2-0.1,1-0.6,1.2-0.8c0.7-0.5,1.4-1.1,2-1.8c1-1.1,1.1-6.5,1.1-6.5L1034.6,230.6z"
			/>
		
			<linearGradient id="SVGID_3_" gradientUnits="userSpaceOnUse" x1="1022.7628" y1="942.2773" x2="1036.9928" y2="942.2773" gradientTransform="matrix(1 0 0 1 0 -751.9999)">
			<stop  offset="0" style="stop-color:#2B3582"/>
			<stop  offset="1" style="stop-color:#150E42"/>
		</linearGradient>
		<path class="st3" d="M1023.8,149.1c0,0-1.7,10-0.6,16.5s6.7,67.1,6.7,67.1l6.1,0.3c0,0,1.3-25.3,1-28.8c-0.4-3.2-1.1-6.3-2-9.4
			l0.6-20.4l-7.7-26.8L1023.8,149.1z"/>
		
			<linearGradient id="SVGID_4_" gradientUnits="userSpaceOnUse" x1="1024.53" y1="939.5273" x2="1058.8199" y2="939.5273" gradientTransform="matrix(1 0 0 1 0 -751.9999)">
			<stop  offset="0" style="stop-color:#2B3582"/>
			<stop  offset="1" style="stop-color:#150E42"/>
		</linearGradient>
		<path class="st4" d="M1041.7,147c0,0,4.8,7.3,6,13.3s-0.8,24.5,1.4,32.5c1.2,4.3,5.7,10.9,6.4,16.4s3.4,20,3.4,20l-6.1,1.2
			l-14.2-36.2l-11.1-32.7l-2.8-16.8L1041.7,147z"/>
		
			<linearGradient id="SVGID_5_" gradientUnits="userSpaceOnUse" x1="1055.29" y1="993.4774" x2="1062.9233" y2="993.4774" gradientTransform="matrix(1 0 0 1 0 -751.9999)">
			<stop  offset="0" style="stop-color:#333333"/>
			<stop  offset="1" style="stop-color:#000000"/>
		</linearGradient>
		<path class="st5" d="M1055.3,240.9c3.3,0.7,5.5-1.5,6.7-3.2c0.8,1.9,1.3,4.7,0.6,6.2c-0.5,1.4-2.2,1.3-3.4,1.4
			c-1.3,0-2.5-0.9-3-2.1C1055.8,242.5,1055.5,241.7,1055.3,240.9z"/>
		
			<linearGradient id="SVGID_6_" gradientUnits="userSpaceOnUse" x1="1018.9516" y1="994.4774" x2="1035.5048" y2="994.4774" gradientTransform="matrix(1 0 0 1 0 -751.9999)">
			<stop  offset="0" style="stop-color:#333333"/>
			<stop  offset="1" style="stop-color:#000000"/>
		</linearGradient>
		<path class="st6" d="M1026.9,240.1c2.6,0.9,5.4,0.7,7.9-0.4c0.4,1.3,0.9,2.9,0.6,3.9c-0.3,1.2-0.8,1.4-1.2,1.4
			c-3.3,0.1-12.3,0.2-14.8,0.3c-0.3,0-0.5-0.5-0.3-0.8C1019.7,243.6,1026.6,240.3,1026.9,240.1z"/>
		
			<linearGradient id="SVGID_7_" gradientUnits="userSpaceOnUse" x1="1000.2743" y1="883.1635" x2="1032.7788" y2="883.1635" gradientTransform="matrix(1 0 0 1 0 -751.9999)">
			<stop  offset="0" style="stop-color:#FCDEB3"/>
			<stop  offset="1" style="stop-color:#F9C476"/>
		</linearGradient>
		<path class="st7" d="M1001.8,131.9c-0.3-0.5,2.4-1.3,2.5-1.9s-3.5-0.3-3.7-0.8c-0.3-0.9,3.9-0.6,3.8-1c-0.1-0.4-4.5-1-4.1-1.7
			s4.5,1,4.5,0.5s-4-1.3-4-2.4c0-0.6,6.7,2.3,7.4,1.9s-1.1-3-0.6-3.5s2.9,5,3.3,5.1c0.4,0.1,9.7,3,12.8,3.4c0.3-1.1,2.6-6.9,2.9-7.9
			c1.8,1,4.2-0.2,6.1,0.7c-1,3.4-3.1,14.4-3.9,14.9c-2.6,1.5-16.3-5.7-18.5-7s-3.4-0.7-4.9-1S1002.1,132.4,1001.8,131.9z"/>
		
			<linearGradient id="SVGID_8_" gradientUnits="userSpaceOnUse" x1="1025.4158" y1="855.8481" x2="1067.3462" y2="855.8481" gradientTransform="matrix(1 0 0 1 0 -751.9999)">
			<stop  offset="1.000000e-02" style="stop-color:#603813"/>
			<stop  offset="1" style="stop-color:#C69C6D"/>
		</linearGradient>
		<path class="st8" d="M1026.1,99.3c-0.7-3.1-1.4-6.3,0.4-9.7c1.4-2.6,4-4.4,6.9-4.7c8.3-1,6.5,6.8,18.2,8.5c3.6,0.5,7,1,10,2.8
			c5.4,3.2,7.5,8.4,3.9,16.9c-8.8,20.8-30,2.7-33.2-1S1026.6,101.4,1026.1,99.3z"/>
		
			<linearGradient id="SVGID_9_" gradientUnits="userSpaceOnUse" x1="1035.7061" y1="861.1773" x2="1035.7061" y2="907.2701" gradientTransform="matrix(1 0 0 1 0 -751.9999)">
			<stop  offset="0" style="stop-color:#FDF53F"/>
			<stop  offset="0.18" style="stop-color:#FCEF40"/>
			<stop  offset="0.44" style="stop-color:#F9DD44"/>
			<stop  offset="0.73" style="stop-color:#F3C14A"/>
			<stop  offset="1" style="stop-color:#ED9F51"/>
		</linearGradient>
		<path class="st9" d="M1039.2,109.2c0,0,4.2,0.5,6.7,3.2s-4.1,24.7-4.5,28.2s4.4,13.1,4.4,13.1s-16.4,3.3-20.7,0.4
			c0,0-0.4-26.9,0.1-29.3s4.3-12.6,5.2-13.6S1039.2,109.2,1039.2,109.2z"/>
		
			<linearGradient id="SVGID_10_" gradientUnits="userSpaceOnUse" x1="1035.4655" y1="867.6074" x2="1035.4655" y2="852.5775" gradientTransform="matrix(1 0 0 1 0 -751.9999)">
			<stop  offset="0" style="stop-color:#FCDEB3"/>
			<stop  offset="1" style="stop-color:#F9A262"/>
		</linearGradient>
		<path class="st10" d="M1037.1,100.7c0,0,0,0.2,0.1,0.5c0.3,1.5,1.4,6.6,2.1,8c0.9,1.7-3,7-6.8,6.4c-1.1-0.2,1-4.9,0.8-5.4
			c-0.2-1-0.4-2.3-0.7-3.6l-0.4-2.2c-0.4-2-0.7-3.7-0.7-3.7H1037.1z"/>
		
			<linearGradient id="SVGID_11_" gradientUnits="userSpaceOnUse" x1="1026.79" y1="847.9789" x2="1029.12" y2="847.9789" gradientTransform="matrix(1 0 0 1 0 -751.9999)">
			<stop  offset="0" style="stop-color:#FCDEB3"/>
			<stop  offset="1" style="stop-color:#F9C476"/>
		</linearGradient>
		<path class="st11" d="M1026.9,96.3c0.3,1.1,0.9,1.8,1.5,1.6s0.8-1.2,0.6-2.2s-1-1.8-1.5-1.6S1026.6,95.3,1026.9,96.3z"/>
		
			<linearGradient id="SVGID_12_" gradientUnits="userSpaceOnUse" x1="1027.8693" y1="847.5968" x2="1039.5435" y2="847.5968" gradientTransform="matrix(1 0 0 1 0 -751.9999)">
			<stop  offset="0" style="stop-color:#FCDEB3"/>
			<stop  offset="1" style="stop-color:#F9C476"/>
		</linearGradient>
		<path class="st12" d="M1031.4,87.6c-3.8,1.2-3.8,6.1-3.3,9.8c0.6,4.4,4.7,8.5,8.9,4.8c2.6-2.2,2.8-5.6,2.3-8.4c-0.1,0-0.1,0-0.2,0
			C1036.9,93.6,1032.5,88.8,1031.4,87.6z"/>
		<path class="st13" d="M1042,97.4L1042,97.4z"/>
		
			<linearGradient id="SVGID_13_" gradientUnits="userSpaceOnUse" x1="1038.22" y1="847.5273" x2="1040.9481" y2="847.5273" gradientTransform="matrix(1 0 0 1 0 -751.9999)">
			<stop  offset="0" style="stop-color:#FCDEB3"/>
			<stop  offset="1" style="stop-color:#F9C476"/>
		</linearGradient>
		<path class="st14" d="M1038.3,95.3c-0.2,1.1,0.2,2.2,0.9,2.3s1.5-0.7,1.7-1.8s-0.2-2.2-0.9-2.3S1038.5,94.2,1038.3,95.3z"/>
		<path class="st15" d="M1020.7,129.6l17.6-2.6c0.5-0.1,1,0.3,1.1,0.8l3.4,23.4c0.1,0.5-0.3,1-0.8,1.1l-17.6,2.6
			c-0.5,0.1-1-0.3-1.1-0.8l-3.4-23.4C1019.8,130.2,1020.2,129.7,1020.7,129.6z"/>
		<path class="st16" d="M1025.2,128.2c0-0.1,0.1-0.2,0.2-0.2l7.3-1.1c0.1,0,0.2,0.1,0.2,0.2l0,0l0.1,0.8l-7.7,1.1L1025.2,128.2z"/>
		<path class="st16" d="M1028,127.8c0.1,0.6,0.7,1.1,1.3,1l0,0c0.6-0.1,1.1-0.6,1-1.3l0,0c-0.1-0.6-0.6-1.1-1.3-1.1
			C1028.4,126.5,1027.9,127,1028,127.8C1028,127.7,1028,127.8,1028,127.8L1028,127.8z M1028.4,127.7c-0.1-0.4,0.2-0.8,0.6-0.8
			c0.4-0.1,0.8,0.2,0.8,0.6c0.1,0.4-0.2,0.8-0.6,0.8C1028.9,128.5,1028.5,128.2,1028.4,127.7
			C1028.4,127.8,1028.4,127.8,1028.4,127.7L1028.4,127.7z"/>
		<path class="st17" d="M1025.3,128c-0.1,0-0.1,0.1-0.1,0.2l0.1,0.8l7.7-1.1c0.1,0.5-0.3,1-0.8,1.1l-5.8,0.8c-0.5,0.1-1-0.3-1.1-0.8
			l-0.1-0.8C1025.2,128.1,1025.3,128,1025.3,128z"/>
		<path class="st15" d="M1030.7,99.6h4c-0.1,0.9-0.9,1.6-1.8,1.6C1030.7,101.2,1030.7,99.6,1030.7,99.6z"/>
		
			<linearGradient id="SVGID_14_" gradientUnits="userSpaceOnUse" x1="1020.9999" y1="892.2901" x2="1050.6791" y2="892.2901" gradientTransform="matrix(1 0 0 1 0 -751.9999)">
			<stop  offset="0" style="stop-color:#FCDEB3"/>
			<stop  offset="1" style="stop-color:#F9C476"/>
		</linearGradient>
		<path class="st18" d="M1050.7,133l-6.4,0.7c0,0,0.1,5.4,0,6c0,0-10.9,3-15.4,3.8c0,0-2.1-1.2-2.9-1.5c-1.2-0.4-2.4-0.7-3.6-0.8
			c-0.5-0.1-0.3,0.5,0.1,0.7c0.7,0.3,1.4,0.7,1.9,1.3c-0.5,0.1-0.9,0-1.4-0.1c-0.5-0.2-1.1-0.7-1.1-0.9s-0.1-0.8-0.3-0.8
			s-0.1,0.2-0.2,0.4l-0.2,0.5c-0.1,0.3-0.2,0.8-0.2,1c0,0.8,0.1,1.6,0.3,2.3c0.1,0.9,0.3,1.3,0.8,1.5c0.9,0.3,1.8,0.5,2.7,0.5
			c1.7,0.1,3.4-0.1,5-0.5c0.9-0.1,14.7-1.5,14.7-1.5s5.5-0.8,5.9-1.7S1050.7,133,1050.7,133z"/>
		
			<linearGradient id="SVGID_15_" gradientUnits="userSpaceOnUse" x1="1045.4268" y1="863.4738" x2="1045.4268" y2="892.0773" gradientTransform="matrix(1 0 0 1 0 -751.9999)">
			<stop  offset="0" style="stop-color:#FDF53F"/>
			<stop  offset="0.18" style="stop-color:#FCEF40"/>
			<stop  offset="0.44" style="stop-color:#F9DD44"/>
			<stop  offset="0.73" style="stop-color:#F3C14A"/>
			<stop  offset="1" style="stop-color:#ED9F51"/>
		</linearGradient>
		<path class="st19" d="M1045.2,111.6c0,0,2,1,3.8,5.1c1.7,3.9,2.2,23.4,2.2,23.4l-6.7-1.1l-3.4-9.1c-2.4-5.4-1.8-11.8,1.7-16.6
			C1043.7,112,1044.6,111.2,1045.2,111.6z"/>
		<path d="M1034.2,94.7c0.1,0.3-0.1,0.5-0.3,0.6l0,0c-0.3,0.1-0.5-0.1-0.6-0.3l0,0c-0.1-0.3,0.1-0.5,0.3-0.6l0,0
			C1033.8,94.3,1034.1,94.5,1034.2,94.7L1034.2,94.7z"/>
		<path d="M1029.9,94.9c0.1,0.2,0,0.5-0.3,0.6c-0.2,0.1-0.5,0-0.6-0.2l0,0c-0.1-0.2,0-0.5,0.3-0.6S1029.8,94.7,1029.9,94.9
			L1029.9,94.9z"/>
		<path d="M1032.9,94.1c0,0,0.1,0,0.2,0c0.2-0.2,0.4-0.2,0.6-0.2s0.4,0.1,0.6,0.3c0.1,0.1,0.2,0.1,0.2,0l0,0c0.1-0.1,0.1-0.2,0-0.2
			c-0.2-0.3-0.5-0.4-0.8-0.4s-0.6,0.1-0.9,0.3c-0.1,0.1-0.1,0.2,0,0.2C1032.9,94.1,1032.9,94.1,1032.9,94.1z"/>
		<path d="M1028.6,94.5C1028.7,94.5,1028.7,94.5,1028.6,94.5c0.2-0.3,0.4-0.4,0.7-0.4c0.2,0,0.4,0.1,0.6,0.2c0.1,0.1,0.2,0.1,0.2,0
			l0,0c0.1-0.1,0.1-0.2,0-0.2c-0.2-0.2-0.6-0.3-0.9-0.3c-0.3,0.1-0.6,0.2-0.8,0.5c-0.1,0.1-0.1,0.2,0,0.2
			C1028.5,94.5,1028.5,94.5,1028.6,94.5z"/>
		<path class="st15" d="M1030,94.9c0.1,0.1,0,0.2,0,0.3s-0.2,0-0.3,0v-0.1c0-0.1,0-0.2,0.1-0.2l0,0C1029.8,94.8,1030,94.8,1030,94.9
			z"/>
		<path class="st15" d="M1034.3,94.8c0,0.1,0,0.2-0.1,0.2s-0.2,0-0.2-0.1l0,0c0-0.1,0-0.2,0.1-0.2
			C1034.2,94.7,1034.3,94.7,1034.3,94.8z"/>
		<path d="M1028.7,95.2C1028.7,95.2,1028.8,95.2,1028.7,95.2c0.3-0.5,0.8-0.6,1.2-0.4c0.1,0,0.1,0,0.2,0l0,0c0,0,0-0.1,0-0.2l0,0
			c-0.5-0.3-1.1-0.1-1.4,0.4l0,0C1028.6,95.1,1028.6,95.1,1028.7,95.2L1028.7,95.2L1028.7,95.2z"/>
		<path d="M1033,94.8L1033,94.8c0.4-0.3,0.9-0.4,1.2-0.1l0,0c0.1,0,0.1,0,0.2,0c0-0.1,0-0.1,0-0.2c-0.4-0.4-1-0.4-1.4,0l-0.1,0.1
			C1032.9,94.7,1032.9,94.7,1033,94.8C1032.9,94.8,1032.9,94.8,1033,94.8L1033,94.8z"/>
		<path class="st20" d="M1031.6,94.4c0,0.1,0,0.2,0,0.2c-0.1,0.4-0.2,0.8-0.2,1.1c0,0.6-0.2,1.2-0.4,1.7c-0.1,0.1-0.1,0.2-0.1,0.2
			c-0.1,0.5,0.6,0.6,0.9,0.5s0.4-0.2,0.6-0.4c0.1-0.1,0.1-0.1,0.2-0.1s0.1,0.1,0.1,0.2c0,0.1-0.1,0.2-0.1,0.2
			c-0.5,0.5-1.5,0.6-1.8-0.2c-0.1-0.3-0.1-0.7,0.2-1c0,0,0,0,0-0.1s0,0,0,0c0.2-0.9,0.4-1.8,0.5-2.8c0-0.1,0.1-0.1,0.2-0.1l0,0
			C1031.6,94.2,1031.6,94.3,1031.6,94.4z"/>
		<path class="st21" d="M58,206l26.2-1.4c2-0.1,3.6,1.4,3.7,3.4c0,0.1,0,0.2,0,0.3l-0.7,24.1c-0.1,2-1.7,3.5-3.7,3.4h-0.1l-24.9-1.2
			c-1.8-0.1-3.1-1.6-3.1-3.4l-0.6-21.6C54.7,207.8,56.1,206.2,58,206z"/>
		<path class="st22" d="M40.8,170.2l12.1-0.6c0.9-0.1,1.7,0.6,1.7,1.5c0,0.1,0,0.1,0,0.2l-0.3,11.2c0,0.9-0.8,1.6-1.7,1.6l0,0
			l-11.5-0.6c-0.8-0.1-1.4-0.7-1.5-1.5l-0.3-10C39.3,171,40,170.3,40.8,170.2z"/>
		<path class="st21" d="M72.3,150.9l6.6-0.3c0.5-0.1,0.9,0.3,1,0.8c0,0.1,0,0.1,0,0.2l-0.2,6.1c0,0.5-0.4,0.9-0.9,0.9h-0.1l-6.3-0.3
			c-0.4,0-0.8-0.4-0.8-0.8l-0.2-5.5C71.5,151.3,71.8,150.9,72.3,150.9z"/>
		<path class="st22" d="M1075.8,74l26.2-1.4c2-0.1,3.7,1.4,3.8,3.3c0,0.1,0,0.3,0,0.4l-0.7,24.1c-0.1,2-1.7,3.5-3.7,3.4h-0.1
			l-24.9-1.2c-1.8-0.1-3.1-1.6-3.1-3.4l-0.6-21.6C1072.6,75.8,1073.9,74.2,1075.8,74z"/>
		<path class="st21" d="M1107.7,129.2l12.1-0.6c0.9-0.1,1.7,0.6,1.7,1.5c0,0.1,0,0.1,0,0.2l-0.3,11.2c0,0.9-0.8,1.6-1.7,1.6l0,0
			l-11.5-0.6c-0.8-0.1-1.4-0.7-1.4-1.5l-0.3-10C1106.2,130,1106.8,129.3,1107.7,129.2z"/>
		<path class="st21" d="M1079.1,160.9l6.6-0.3c0.5-0.1,0.9,0.3,1,0.8c0,0.1,0,0.1,0,0.2l-0.2,6.1c0,0.5-0.4,0.9-0.9,0.9h-0.1
			l-6.3-0.3c-0.4,0-0.8-0.4-0.8-0.8l-0.2-5.5C1078.3,161.3,1078.6,160.9,1079.1,160.9z"/>
		<path class="st22" d="M474.8,108.2l12.1-0.6c0.9-0.1,1.7,0.6,1.7,1.5c0,0.1,0,0.1,0,0.2l-0.3,11.2c0,0.9-0.8,1.6-1.7,1.6l0,0
			l-11.5-0.6c-0.8-0.1-1.4-0.7-1.5-1.5l-0.3-10C473.3,109,474,108.3,474.8,108.2z"/>
		<path class="st21" d="M553.8,115.2l12.1-0.6c0.9-0.1,1.7,0.6,1.7,1.5c0,0.1,0,0.1,0,0.2l-0.3,11.2c0,0.9-0.8,1.6-1.7,1.6l0,0
			l-11.5-0.6c-0.8-0.1-1.4-0.7-1.5-1.5l-0.3-10C552.3,116,553,115.3,553.8,115.2z"/>
		<path class="st21" d="M409.8,34.2l38.3-2c2.9-0.2,5.3,2,5.5,4.8c0,0.2,0,0.4,0,0.6l-1,35.2c-0.1,2.9-2.5,5.1-5.4,4.9h-0.1
			l-36.3-1.8c-2.6-0.2-4.5-2.3-4.6-4.9l-0.9-31.5C405.1,36.8,407.1,34.5,409.8,34.2z"/>
		<path class="st22" d="M774.7,3.3l-58.4-3c-4.4-0.3-8.2,3-8.4,7.4c0,0.3,0,0.6,0,0.9l1.5,53.7c0.2,4.4,3.9,7.7,8.2,7.5
			c0.1,0,0.1,0,0.2,0l55.5-2.7c3.9-0.3,6.9-3.6,7-7.5l1.3-48.1C781.7,7.1,778.7,3.5,774.7,3.3z"/>
		<path class="st21" d="M688,102.7l22.4-1.2c1.7-0.1,3.1,1.1,3.2,2.7c0,0.1,0,0.3,0,0.4l-0.6,20.6c-0.1,1.7-1.4,3-3.1,2.9h-0.1
			l-21.3-1c-1.5-0.1-2.6-1.4-2.7-2.9l-0.5-18.5C685.3,104.3,686.4,102.9,688,102.7z"/>
		<path class="st22" d="M307.3,122.9l6.6-0.3c0.5,0,0.9,0.3,0.9,0.8v0.1l-0.2,6.1c0,0.5-0.4,0.9-0.9,0.9l0,0l-6.3-0.3
			c-0.4,0-0.8-0.4-0.8-0.8l-0.2-5.5C306.5,123.3,306.8,122.9,307.3,122.9z"/>
		<path class="st22" d="M612.3,98.9l6.6-0.3c0.5-0.1,0.9,0.3,1,0.8c0,0.1,0,0.1,0,0.2l-0.2,6.1c0,0.5-0.4,0.9-0.9,0.9l0,0l-6.3-0.3
			c-0.4,0-0.8-0.4-0.8-0.8l-0.2-5.5C611.5,99.3,611.8,98.9,612.3,98.9z"/>
		
			<linearGradient id="SVGID_16_" gradientUnits="userSpaceOnUse" x1="877.6267" y1="798.9783" x2="911.4251" y2="798.9783" gradientTransform="matrix(1 0 0 1 0 -751.9999)">
			<stop  offset="0" style="stop-color:#FCDEB3"/>
			<stop  offset="1" style="stop-color:#F9C476"/>
		</linearGradient>
		<path class="st23" d="M878.4,34.3c1-0.8,8.9,2.6,8.8,3.8s5.5,12.9,5.5,12.9l9.7-7.7l0,0c0.1-0.3,1-3.3,1-3.8s1.7-1.5,2.4-1.4
			s-0.7,1.1-0.7,1.3c-0.2,0.5,0.7,0.7,0.7,0.7s2.8-1.5,2.9-2.4s0.6-2.8,1.2-2.4c0.3,0.2,0.3,1.5,0.2,2.2c0.2-0.7,0.4-1.5,0.7-1.6
			c0.5-0.2,0.7,0.4,0.6,0.7s-0.8,3.3-1,3.7s-4.7,4-5.4,4.8c0,0-12.5,14.3-13.4,14.7s-3.6-4.6-6.2-7.9S875.2,36.9,878.4,34.3z"/>
		<path class="st24" d="M853.1,139.5c0,0-1.7,1.7-1.8,2.3s-0.2,7.2,0.5,7.8s2.8,1.1,2.1,1.8c-0.5,0.5-4.4,0.4-6.9,0.3
			c-0.8,0-1.7-6-2-6.9c-0.4-1.3-1.5-4.1-1.1-5c0.6-0.9,1.4-1.6,2.4-2.2c1-0.8,1.9-1.7,2.6-2.8L853.1,139.5z"/>
		
			<linearGradient id="SVGID_17_" gradientUnits="userSpaceOnUse" x1="843.1201" y1="896.6774" x2="854.8426" y2="896.6774" gradientTransform="matrix(1 0 0 1 0 -751.9999)">
			<stop  offset="0" style="stop-color:#333333"/>
			<stop  offset="1" style="stop-color:#000000"/>
		</linearGradient>
		<path class="st25" d="M846.5,137.6c0,0,4,11.2,5.5,11.7c0.4,0.1,2.4,0.5,2.8,1.4c0.1,0.4,0.1,0.8,0,1.1h-8.3c0,0-1-4.9-1.5-7.1
			c0,0-2.2-5.3-1.9-5.8S846.5,137.6,846.5,137.6z"/>
		<path class="st26" d="M871.2,142.5c0,0-1.6,4.3-1.6,4.4c-0.2,1-0.4,2-0.6,3c0,2.4,9.3-1.2,9-1.6c-0.6-1-1.1-2-1.4-3.1
			c0-1,0.4-2,0.9-2.8L871.2,142.5z"/>
		
			<linearGradient id="SVGID_18_" gradientUnits="userSpaceOnUse" x1="869.99" y1="855.8773" x2="890.4361" y2="855.8773" gradientTransform="matrix(1 0 0 1 0 -751.9999)">
			<stop  offset="0" style="stop-color:#2B3582"/>
			<stop  offset="1" style="stop-color:#150E42"/>
		</linearGradient>
		<path class="st27" d="M887.6,62.5c0,0,0.8,7.8,0.8,7.9c0,12.6,2.5,37.2,2,39.6c-1.2,5.8-13.6,35.3-13.6,35.3l-6.7-0.8l8.8-35.3
			L875.7,95l-4.6-28.1L887.6,62.5z"/>
		
			<linearGradient id="SVGID_19_" gradientUnits="userSpaceOnUse" x1="847" y1="854.6774" x2="885.6" y2="854.6774" gradientTransform="matrix(1 0 0 1 0 -751.9999)">
			<stop  offset="0" style="stop-color:#2B3582"/>
			<stop  offset="1" style="stop-color:#150E42"/>
		</linearGradient>
		<path class="st28" d="M865,69.4l-1.3,7.4l-3.5,30.4L847,136.9c0,0,1.8,4.3,4.6,4.9l21-30.5l13-39l-0.5-8.7L865,69.4z"/>
		
			<linearGradient id="SVGID_20_" gradientUnits="userSpaceOnUse" x1="880.4999" y1="786.2249" x2="890.2899" y2="786.2249" gradientTransform="matrix(1 0 0 1 0 -751.9999)">
			<stop  offset="0" style="stop-color:#FDF53F"/>
			<stop  offset="0.18" style="stop-color:#FCEF40"/>
			<stop  offset="0.44" style="stop-color:#F9DD44"/>
			<stop  offset="0.73" style="stop-color:#F3C14A"/>
			<stop  offset="1" style="stop-color:#ED9F51"/>
		</linearGradient>
		<path class="st29" d="M890.3,43.9l-9.4,1c0,0-0.4-7.7-0.4-11.3c0-4.4,0.4-10.2,0.9-10c1.9,0.4,3.5,1.4,4.7,2.8
			C890.3,32.1,890.3,43.9,890.3,43.9z"/>
		
			<linearGradient id="SVGID_21_" gradientUnits="userSpaceOnUse" x1="876.0185" y1="775.1998" x2="876.0185" y2="826.9594" gradientTransform="matrix(1 0 0 1 0 -751.9999)">
			<stop  offset="0" style="stop-color:#FDF53F"/>
			<stop  offset="0.18" style="stop-color:#FCEF40"/>
			<stop  offset="0.44" style="stop-color:#F9DD44"/>
			<stop  offset="0.73" style="stop-color:#F3C14A"/>
			<stop  offset="1" style="stop-color:#ED9F51"/>
		</linearGradient>
		<path class="st30" d="M885.7,32.8c0.2,1.3,3.8,38.1,3.8,38.1c-17,8.2-26.4,1.5-26.4,1.5s0.5-25.8-0.1-29.3
			c-0.4-2.3-1-17.8,0.5-18.2c2.1-0.7,4.3-1.1,6.6-1.4c2.1-0.2,10.1-0.3,11.5,0.2C883.8,26.2,885.2,29.4,885.7,32.8z"/>
		
			<linearGradient id="SVGID_22_" gradientUnits="userSpaceOnUse" x1="901.87" y1="773.0773" x2="931.91" y2="773.0773" gradientTransform="matrix(1 0 0 1 0 -751.9999)">
			<stop  offset="4.000000e-02" style="stop-color:#F7D9CF"/>
			<stop  offset="0.46" style="stop-color:#FFE1C2"/>
			<stop  offset="0.87" style="stop-color:#F7CFC1"/>
		</linearGradient>
		<polygon class="st31" points="916.5,32.8 931.9,9.4 905.4,18.7 901.9,28.9 		"/>
		
			<linearGradient id="SVGID_23_" gradientUnits="userSpaceOnUse" x1="901.87" y1="771.6273" x2="931.91" y2="771.6273" gradientTransform="matrix(1 0 0 1 0 -751.9999)">
			<stop  offset="4.000000e-02" style="stop-color:#F7D9CF"/>
			<stop  offset="0.46" style="stop-color:#FFE1C2"/>
			<stop  offset="0.87" style="stop-color:#F7CFC1"/>
		</linearGradient>
		<polygon class="st32" points="901.9,28.9 905.6,29.9 931.9,9.4 905.4,18.7 		"/>
		
			<linearGradient id="SVGID_24_" gradientUnits="userSpaceOnUse" x1="823.7" y1="804.3273" x2="912.3" y2="804.3273" gradientTransform="matrix(1 0 0 1 0 -751.9999)">
			<stop  offset="0" style="stop-color:#00D5FC"/>
			<stop  offset="0.8575" style="stop-color:#009DC2"/>
			<stop  offset="1" style="stop-color:#009DC2"/>
		</linearGradient>
		<polygon class="st33" points="905.4,18.7 912.3,16.3 908.5,22.7 824.3,88.4 823.7,82.4 		"/>
		
			<linearGradient id="SVGID_25_" gradientUnits="userSpaceOnUse" x1="870.35" y1="773.4773" x2="870.35" y2="846.5773" gradientTransform="matrix(1 0 0 1 0 -751.9999)">
			<stop  offset="0" style="stop-color:#00D5FC"/>
			<stop  offset="0.8575" style="stop-color:#009DC2"/>
			<stop  offset="1" style="stop-color:#009DC2"/>
		</linearGradient>
		<polygon class="st34" points="908.5,22.7 916.4,21.5 913.3,28.8 829.1,94.6 824.3,88.4 		"/>
		
			<linearGradient id="SVGID_26_" gradientUnits="userSpaceOnUse" x1="829.1" y1="813.6773" x2="920.5" y2="813.6773" gradientTransform="matrix(1 0 0 1 0 -751.9999)">
			<stop  offset="0" style="stop-color:#00D5FC"/>
			<stop  offset="0.8575" style="stop-color:#009DC2"/>
			<stop  offset="1" style="stop-color:#009DC2"/>
		</linearGradient>
		<polygon class="st35" points="913.3,28.8 920.5,26.8 916.5,32.8 834.8,96.6 829.1,94.6 		"/>
		
			<linearGradient id="SVGID_27_" gradientUnits="userSpaceOnUse" x1="823.73" y1="840.0773" x2="838.46" y2="840.0773" gradientTransform="matrix(1 0 0 1 0 -751.9999)">
			<stop  offset="1.000000e-02" style="stop-color:#ED5EB6"/>
			<stop  offset="0.13" style="stop-color:#F783C5"/>
			<stop  offset="0.25" style="stop-color:#FFA3D2"/>
			<stop  offset="0.62" style="stop-color:#DC5199"/>
			<stop  offset="0.72" style="stop-color:#DF589E"/>
			<stop  offset="0.81" style="stop-color:#E463A6"/>
			<stop  offset="1" style="stop-color:#DC3D8F"/>
		</linearGradient>
		<polygon class="st36" points="835.3,89.8 830.5,83.6 827.4,79.6 823.7,82.4 824.3,88.4 829.1,94.6 834.8,96.6 838.5,93.8 		"/>
		
			<linearGradient id="SVGID_28_" gradientUnits="userSpaceOnUse" x1="827.8359" y1="830.7676" x2="845.2889" y2="840.8436" gradientTransform="matrix(1 0 0 1 0 -751.9999)">
			<stop  offset="0" style="stop-color:#BEC5D8"/>
			<stop  offset="0.21" style="stop-color:#EBEDF3"/>
			<stop  offset="0.24" style="stop-color:#E2E4EC"/>
			<stop  offset="0.5" style="stop-color:#9097B3"/>
			<stop  offset="0.62" style="stop-color:#70789C"/>
			<stop  offset="0.68" style="stop-color:#767EA3"/>
			<stop  offset="0.77" style="stop-color:#888EB5"/>
			<stop  offset="0.82" style="stop-color:#949AC2"/>
			<stop  offset="1" style="stop-color:#8B90B5"/>
		</linearGradient>
		<polygon class="st37" points="842.6,84.1 837.8,77.9 834.7,73.9 827.4,79.6 830.5,83.6 835.3,89.8 838.5,93.8 845.8,88.1 		"/>
		
			<linearGradient id="SVGID_29_" gradientUnits="userSpaceOnUse" x1="922.92" y1="765.2773" x2="931.91" y2="765.2773" gradientTransform="matrix(1 0 0 1 0 -751.9999)">
			<stop  offset="0" style="stop-color:#333333"/>
			<stop  offset="1" style="stop-color:#000000"/>
		</linearGradient>
		<path class="st38" d="M926.7,17.3c0.1-0.1,5.2-8,5.2-8l-9,3.2l3.2,1.4L926.7,17.3z"/>
		
			<linearGradient id="SVGID_30_" gradientUnits="userSpaceOnUse" x1="845.4706" y1="809.0699" x2="863.39" y2="809.0699" gradientTransform="matrix(1 0 0 1 0 -751.9999)">
			<stop  offset="0" style="stop-color:#FCDEB3"/>
			<stop  offset="1" style="stop-color:#F9C476"/>
		</linearGradient>
		<path class="st39" d="M846.2,71.3c0-0.1,0-0.2,0-0.2c0.2-2.5,2.4-23.9,2.7-24.8s9.8-14.4,9.8-14.4l4.7,6.3l-9.1,12.2
			c-0.2,0.8-3.5,15.2-3.5,15.2s-0.7,2.6-1,4.2c0.1,0.4,0.3,0.7,0.4,1c0.3,0.6,0.6,1.1,1,1.6c0.5,0.6,0.8,1.3,1.2,2.1
			c0.1,0.4,0.3,1.1,0.4,1.6s0.2,1,0.3,1.3c0.1,0.2,0.2,0.5,0.3,0.7s0,0.4-0.1,0.5s-0.2,0.1-0.3,0c-0.3-0.1-0.6-0.5-0.8-0.8
			c-0.5-0.8-0.7-2.1-0.8-2.1s-0.5,2.4-0.6,2.7c-0.2,1.2-0.5,2.3-0.8,3.5c-0.3,0.5-0.6,0.4-0.7,0.1s0.3-4.1,0.3-4.1s0-0.5-0.2-0.3
			s-0.6,3.6-0.7,4.1s-0.5,0.8-0.8,0.4s0.2-4.2,0.2-4.2s0.1-0.5-0.1-0.4s-0.5,3-0.6,3.2s-0.3,0.3-0.5,0.2c-0.1-0.1-0.2-0.1-0.2-0.2
			c0-1.3,0.1-2.5,0.3-3.8c0,0,0-0.3-0.2-0.2s-0.5,2.6-0.8,2.8c-0.1,0.1-0.3,0.1-0.4,0l0,0c-0.5-0.3,0.2-2.7,0.2-3.9s0.5-2.5,0.4-3.9
			C846.2,71.7,846.2,71.4,846.2,71.3z"/>
		
			<linearGradient id="SVGID_31_" gradientUnits="userSpaceOnUse" x1="859.4025" y1="776.8057" x2="859.4025" y2="797.8251" gradientTransform="matrix(1 0 0 1 0 -751.9999)">
			<stop  offset="0" style="stop-color:#FDF53F"/>
			<stop  offset="0.18" style="stop-color:#FCEF40"/>
			<stop  offset="0.44" style="stop-color:#F9DD44"/>
			<stop  offset="0.73" style="stop-color:#F3C14A"/>
			<stop  offset="1" style="stop-color:#ED9F51"/>
		</linearGradient>
		<path class="st40" d="M851.3,40.4l8.1,5.4c0,0,4.6-6.8,7-9.2c3.1-3-1.1-12.3-3.1-11.8C858.9,26,851.3,40.4,851.3,40.4z"/>
		
			<linearGradient id="SVGID_32_" gradientUnits="userSpaceOnUse" x1="874.9785" y1="783.4178" x2="874.9785" y2="767.8201" gradientTransform="matrix(1 0 0 1 0 -751.9999)">
			<stop  offset="0" style="stop-color:#FCDEB3"/>
			<stop  offset="1" style="stop-color:#F9A262"/>
		</linearGradient>
		<path class="st41" d="M872.3,16.3l-1.1,7.2c0,0,4,8.6,6.4,7.9c2-0.6,0.8-8.2,0.8-8.2s-1.1-4.1-0.8-6.2S872.3,16.3,872.3,16.3z"/>
		
			<linearGradient id="SVGID_33_" gradientUnits="userSpaceOnUse" x1="870.934" y1="763.317" x2="880.9987" y2="763.317" gradientTransform="matrix(1 0 0 1 0 -751.9999)">
			<stop  offset="0" style="stop-color:#FCDEB3"/>
			<stop  offset="1" style="stop-color:#F9C476"/>
		</linearGradient>
		<path class="st42" d="M871.4,6.1c-0.2-0.1-1.3,8.2,0.8,10.5s6.3,3,7.7,1.2c1.6-2,1.6-10.9-1.7-13.2S871.4,6.1,871.4,6.1z"/>
		
			<linearGradient id="SVGID_34_" gradientUnits="userSpaceOnUse" x1="866.86" y1="761.5063" x2="879.83" y2="761.5063" gradientTransform="matrix(1 0 0 1 0 -751.9999)">
			<stop  offset="1.000000e-02" style="stop-color:#603813"/>
			<stop  offset="1" style="stop-color:#C69C6D"/>
		</linearGradient>
		<path class="st43" d="M877,0.1c-1.8,0.4-3.5,1.4-4.8,2.7c-1.2,0.1-2.7,0.8-4.4,3.5c-1.7,3-0.9,6.7,1.8,8.8
			c1.3,0.9,2.1,2.3,2.3,3.9l0.4-1.1c0.3-0.8,0.4-1.7,0.3-2.5c0-0.5-0.2-1-0.4-1.5c-0.6-1.2,1.2-2,1.7-3c0.4-0.8,0.4-2.5,1-3.8l0.7-1
			c0.9-0.7,2.1-1.1,3.3-0.9C880.5,5.5,880.2-0.5,877,0.1z"/>
		
			<linearGradient id="SVGID_35_" gradientUnits="userSpaceOnUse" x1="871.65" y1="764.2773" x2="873.77" y2="764.2773" gradientTransform="matrix(1 0 0 1 0 -751.9999)">
			<stop  offset="0" style="stop-color:#FCDEB3"/>
			<stop  offset="1" style="stop-color:#F9C476"/>
		</linearGradient>
		<path class="st44" d="M873.8,12.3c0,1-0.4,1.8-1,1.8s-1.1-0.8-1.1-1.8s0.4-1.8,1-1.8S873.8,11.3,873.8,12.3z"/>
		<path class="st15" d="M876.2,15.7l3.2-0.2c0,0.8-0.7,1.3-1.4,1.3C876.3,17,876.2,15.7,876.2,15.7z"/>
		
			<linearGradient id="SVGID_36_" gradientUnits="userSpaceOnUse" x1="868.24" y1="901.6623" x2="885.6078" y2="901.6623" gradientTransform="matrix(1 0 0 1 0 -751.9999)">
			<stop  offset="0" style="stop-color:#333333"/>
			<stop  offset="1" style="stop-color:#000000"/>
		</linearGradient>
		<path class="st45" d="M868.2,152.2l1.2-4.8c0,0,2.5,1.4,3.8,1.1c1.3-0.4,2.5-0.8,3.7-1.3c1-0.4,9.3,3.3,8.6,5H868.2z"/>
		<path class="st15" d="M262.3,200.4c8,3,10.6,10.5,10.6,26.5c0,7.2,0.9,12.8,2.8,16.8h-22.3c-0.7-4.6-0.9-9.3-1.1-21.3
			c0-8.5-2.8-13.8-8.8-14.2c-2.5-0.1-4.7-0.1-7.2-0.1H228l-6.3,35.6h-20.5l16-90.7h34.4c4.5-0.1,9,0.2,13.5,0.7
			c11.3,1.3,20.4,7.1,20.4,19.7C285.5,187.7,276.9,196.7,262.3,200.4z M263.1,178.5c0-6.3-4.1-8.7-9.7-9.2c-1.8-0.1-4.1-0.3-7-0.3
			h-11.5l-4.2,23.9h10.9c2.9,0,5,0,7-0.1C256.1,192.2,263.1,188.5,263.1,178.5L263.1,178.5z"/>
		<path class="st15" d="M278.2,245.4h-26.3l-0.2-1.4c-0.7-4.8-0.9-9.9-1.1-21.5c0-8-2.4-12.3-7.3-12.6c-2.4-0.1-4.7-0.1-7.1-0.1
			h-6.9l-6.3,35.6h-23.8l16.6-94h35.8c4.6-0.1,9.2,0.2,13.7,0.7c13.9,1.6,21.8,9.4,21.8,21.3c0,13.4-7.1,22.8-20.6,27.4
			c6.5,4.6,8,13.6,8,26.1c0,7,0.9,12.2,2.6,16.1L278.2,245.4z M254.8,242.1h18.5c-1.5-4.9-2.1-10-2-15.2c0-15.8-2.5-22.3-9.6-25
			l-4.9-1.8l5.1-1.3c10-2.5,22-9,22-25.3c0-13.1-10.3-17.1-18.9-18.1c-4.4-0.5-8.9-0.7-13.3-0.6h-33l-15.4,87.4h17.2l6.3-35.6h9.6
			c2.5,0,4.8,0,7.3,0.1c4.7,0.3,10.4,3.3,10.4,15.8C254,232.8,254.2,237.8,254.8,242.1L254.8,242.1z M241.5,194.6h-12.9l4.8-27.2
			h12.9c2.9,0,5.2,0.1,7.1,0.3c7.5,0.7,11.3,4.3,11.3,10.8c0,9.4-5.7,15.1-16.1,16C246.6,194.6,244.4,194.6,241.5,194.6L241.5,194.6
			z M232.6,191.4h8.9c2.8,0,4.9,0,6.9-0.1c8.7-0.8,13.1-5,13.1-12.7c0-4.7-2.5-7-8.2-7.6c-1.8-0.1-4-0.3-6.8-0.3h-10.2L232.6,191.4z
			"/>
		<path class="st15" d="M317.2,190.2h42.5l-2.9,16h-42.5l-3.7,21.3h46.6l-2.9,16.2h-67.1l16-90.7H369l-2.9,16h-45.3L317.2,190.2z"/>
		<path class="st15" d="M355.8,245.4h-70.5l16.6-94h69.2l-3.5,19.3h-45.3l-3.1,17.9h42.5l-3.5,19.3h-42.4l-3.1,18h46.7L355.8,245.4z
			 M289.2,242.1H353l2.3-12.9h-46.6l4.2-24.6h42.5l2.3-12.7h-42.4l4.2-24.4h45.3l2.3-12.8h-62.5L289.2,242.1z"/>
		<path class="st15" d="M462.1,182.6l-0.1,1.3h-20.6v-1.3c-0.1-11.2-5.8-16.2-16.7-16.2c-15.9,0-30,14.7-30,40
			c0,16.4,7.8,23.9,18.4,23.9s18.9-6.2,23.4-17.8H418l2.9-16H459l-8.4,47.2h-16.3l0.9-14.2l-5.6,9.3c-5.9,4.7-12.9,6.7-22.7,6.7
			c-21.1,0-34-13.5-34-36.8c0-36.4,26.3-57.5,54.8-57.5C452.8,151.2,463.5,164.7,462.1,182.6z"/>
		<path class="st15" d="M406.8,247.2c-22.3,0-35.7-14.4-35.7-38.4c0-38.9,28.4-59.2,56.4-59.2c12.8,0,22.9,3.5,29.1,10.2
			c5.3,5.7,7.8,13.7,7.1,23l-0.3,2.8h-23.8v-3c-0.1-10-4.8-14.5-15-14.5c-14.1,0-28.3,13.2-28.3,38.3c0,14.2,6.1,22.3,16.8,22.3
			c9.2,0,16.6-5.1,20.9-14.5h-18l3.5-19.3H461l-9,50.5h-19.5l0.6-9.2l-2.5,4C424.5,245,417.1,247.2,406.8,247.2z M427.6,152.9
			c-26.4,0-53.2,19.2-53.2,55.9c0,22,12.1,35.2,32.4,35.2c9.5,0,16-1.8,21.5-6.2l9-14.8l-1.3,19.1h13.2l7.8-43.9h-34.7l-2.3,12.7h19
			l-0.9,2.2c-4.7,12.1-13.5,18.8-24.9,18.8c-12.5,0-20-9.6-20-25.6c0-27.3,15.9-41.6,31.6-41.6c11.9,0,18.1,5.9,18.3,17.5h17.5
			c0.6-8.3-1.6-15.3-6.2-20.3C448.7,156,439.5,152.9,427.6,152.9z"/>
		<path class="st15" d="M470.2,243.7l16-90.7h20.5l-16,90.7H470.2z"/>
		<path class="st15" d="M492,245.4h-23.8l16.6-94h23.8L492,245.4z M472.1,242.1h17.2l15.5-87.4h-17.1L472.1,242.1z"/>
		<path class="st15" d="M585,180.3h-20.8c0.5-8.4-3.4-13.8-12.1-13.8c-7.4,0-12.9,3.9-12.9,11.4c0,5.5,4.5,9.1,17.1,12.1
			c16.6,4.1,24,12.3,24,24.4c0,20.2-18.8,31.2-39.8,31.2s-35.2-9.5-33.4-29H528c0.1,9.3,6.7,13.8,15,13.8s15.2-4.6,15.2-12
			c0-5.1-4.2-9.3-14.6-12.1c-16.6-4.2-26.5-10.4-26.5-23.8c0-20,17.9-31.3,37.3-31.3C577,151.2,585.9,163.8,585,180.3z"/>
		<path class="st15" d="M540.6,247.2c-13,0-23-3.5-29-10c-4.8-5.3-6.8-12.3-6-20.8l0.1-1.5h23.9v1.6c0.1,7.6,5.1,12.2,13.3,12.2
			c8,0,13.6-4.2,13.6-10.3c0-4.6-4.5-8.2-13.4-10.5c-13.7-3.5-27.8-9.2-27.8-25.4c0-21.6,19.6-32.9,39-32.9c11.2,0,19.8,3,25.3,8.9
			c5,5.3,7.4,12.9,6.9,21.9l-0.1,1.5h-24.1l0.1-1.7c0.2-4-0.6-7.2-2.5-9.2s-4.4-2.8-7.9-2.8c-7,0-11.2,3.7-11.2,9.8
			c0,3.5,1.9,7.2,15.8,10.5c16.8,4.1,25.3,12.9,25.3,26C582.1,236.9,560.6,247.2,540.6,247.2z M508.7,218.2
			c-0.4,6.9,1.4,12.5,5.3,16.8c5.3,5.9,14.5,9,26.5,9c18.4,0,38.2-9.2,38.2-29.5c0-11.6-7.5-19.1-22.8-22.8
			c-13-3.1-18.3-7.1-18.3-13.7c0-7.9,5.7-13.1,14.5-13.1c4.5,0,7.9,1.3,10.3,3.9c2.2,2.4,3.4,5.8,3.5,9.9h17.5
			c0.1-7.4-2-13.5-6.1-17.9c-4.9-5.2-12.7-7.9-23-7.9c-17.7,0-35.7,10.2-35.7,29.6c0,11.2,7.3,17.6,25.3,22.2
			c10.5,2.8,15.8,7.4,15.8,13.7c0,7.9-7.1,13.6-16.9,13.6c-9.5,0-15.7-5.2-16.5-13.8H508.7z"/>
		<path class="st15" d="M645.7,169.1l-13.1,74.6h-20.5l13.1-74.6H595l2.9-16h81l-3,16H645.7z"/>
		<path class="st15" d="M634,245.4h-23.9l13.1-74.6H593l3.5-19.3h84.3l-3.6,19.3h-30L634,245.4z M614,242.1h17.2l13.1-74.6h30.1
			l2.4-12.8h-77.5l-2.3,12.8h30.2L614,242.1z"/>
		<path class="st15" d="M732.8,200.4c8,3,10.6,10.5,10.6,26.5c0,7.2,0.9,12.8,2.8,16.8h-22.3c-0.7-4.6-0.9-9.3-1-21.3
			c0-8.5-2.8-13.8-8.8-14.2c-2.5-0.1-4.7-0.1-7.2-0.1h-8.3l-6.3,35.6h-20.5l16-90.7h34.4c4.5-0.1,9,0.2,13.5,0.7
			c11.3,1.3,20.4,7.1,20.4,19.7C756.1,187.7,747.4,196.7,732.8,200.4z M733.6,178.5c0-6.3-4.1-8.7-9.7-9.2c-1.8-0.1-4.1-0.3-7-0.3
			h-11.5l-4.2,23.9h10.9c2.9,0,5,0,7-0.1C726.7,192.2,733.6,188.5,733.6,178.5L733.6,178.5z"/>
		<path class="st15" d="M748.8,245.4h-26.3l-0.2-1.4c-0.7-4.8-0.9-9.9-1.1-21.5c0-8-2.4-12.3-7.3-12.6c-2.4-0.1-4.7-0.1-7.1-0.1
			h-6.9l-6.3,35.6h-23.8l16.6-94h35.8c4.6-0.1,9.2,0.2,13.7,0.7c13.9,1.6,21.8,9.4,21.8,21.3c0,13.4-7.1,22.8-20.6,27.4
			c6.5,4.6,8,13.6,8,26.1c0,7,0.8,12.2,2.6,16.1L748.8,245.4z M725.3,242.1h18.5c-1.5-4.9-2.1-10-2-15.2c0-15.8-2.5-22.3-9.6-25
			l-4.9-1.8l5.1-1.3c10-2.5,22-9,22-25.3c0-13.1-10.3-17.1-18.9-18.1c-4.4-0.5-8.9-0.7-13.3-0.6h-33l-15.5,87.4h17.2l6.3-35.6h9.7
			c2.5,0,4.8,0,7.3,0.1c4.7,0.3,10.4,3.3,10.4,15.8C724.6,232.8,724.8,237.8,725.3,242.1L725.3,242.1z M712.1,194.6h-12.9l4.8-27.2
			h13c2.9,0,5.2,0.1,7.1,0.3c7.5,0.7,11.2,4.3,11.2,10.8c0,9.4-5.7,15.1-16.1,16C717.2,194.6,715,194.6,712.1,194.6L712.1,194.6z
			 M703.1,191.4h9c2.8,0,4.9,0,6.8-0.1c5.9-0.5,13.1-3.1,13.1-12.7c0-4.7-2.5-7-8.2-7.6c-1.8-0.1-4-0.3-6.8-0.3h-10.2L703.1,191.4z"
			/>
		<path class="st15" d="M784,218.1l-12.8,25.6h-22.1l48.1-90.7h26.9l15.8,90.7h-22.4l-3.7-25.6H784z M807.1,171.7L792,201.9h19.4
			L807.1,171.7z"/>
		<path class="st15" d="M841.9,245.4h-25.7l-3.7-25.6H785l-12.8,25.6h-25.8l49.8-94h29.3L841.9,245.4z M819,242.1h19l-15.2-87.4
			h-24.6l-46.3,87.4h18.3l12.8-25.6h32.4L819,242.1z M813.3,203.6h-24l18.7-37.3L813.3,203.6z M794.6,200.3h14.9l-3.3-23.2
			L794.6,200.3z"/>
		<path class="st15" d="M895.7,169.1l-13.1,74.6H862l13.1-74.6h-30.2l2.9-16h80.9l-3,16H895.7z"/>
		<path class="st15" d="M883.9,245.4h-23.8l13.1-74.6H843l3.5-19.3h84.3l-3.6,19.3H897L883.9,245.4z M864,242.1h17.2l13.1-74.6h30.1
			l2.4-12.8h-77.6l-2.3,12.8h30.2L864,242.1z"/>
		<path class="st15" d="M951.7,190.2h42.4l-2.9,16h-42.4l-3.7,21.3h46.7l-2.9,16.2h-67.2l16-90.7h65.8l-2.9,16h-45.3L951.7,190.2z"
			/>
		<path class="st15" d="M990.2,245.4h-70.5l16.6-94h69.2l-3.5,19.3h-45.3l-3.1,17.9h42.5l-3.5,19.3h-42.4l-3.1,18h46.7L990.2,245.4z
			 M923.7,242.1h63.8l2.3-12.9h-46.6l4.2-24.6h42.5l2.3-12.7h-42.4l4.3-24.4h45.3l2.3-12.8h-62.5L923.7,242.1z"/>
		
			<linearGradient id="SVGID_37_" gradientUnits="userSpaceOnUse" x1="404.1" y1="912.2402" x2="427.2321" y2="912.2402" gradientTransform="matrix(1 0 0 1 0 -751.9999)">
			<stop  offset="0" style="stop-color:#FCDEB3"/>
			<stop  offset="1" style="stop-color:#F9C476"/>
		</linearGradient>
		<path class="st46" d="M404.1,156.1c0,0,12.8,10,13.2,11.8c0.6,2.5,12.3-0.8,9.5-1.3c-0.6-0.1-2.7-0.6-2.9-0.7
			c-0.9-0.5-12.3-14.2-12.3-14.2L404.1,156.1z"/>
		
			<linearGradient id="SVGID_38_" gradientUnits="userSpaceOnUse" x1="416.8315" y1="921.78" x2="438.0907" y2="921.78" gradientTransform="matrix(1 0 0 1 0 -751.9999)">
			<stop  offset="0" style="stop-color:#333333"/>
			<stop  offset="1" style="stop-color:#000000"/>
		</linearGradient>
		<path class="st47" d="M432.3,166.5l-8.1-0.7c-2,1.4-4.4,2.1-6.8,2c-0.4,1.4-0.6,2.9-0.4,4.4c0.1,0.4,0.1,1.7,0.5,1.6
			c1.5-0.1,5.5-1.1,10.1-2c0,0,6.1-1.3,9.7-3.4S432.3,166.5,432.3,166.5z"/>
		
			<linearGradient id="SVGID_39_" gradientUnits="userSpaceOnUse" x1="343.6251" y1="897.0354" x2="418.3" y2="897.0354" gradientTransform="matrix(1 0 0 1 0 -751.9999)">
			<stop  offset="0" style="stop-color:#2B3582"/>
			<stop  offset="1" style="stop-color:#150E42"/>
		</linearGradient>
		<path class="st48" d="M346.9,131c6.6,0.9,13.2,0.6,19.7-0.8c12-2.8,25.2-5.4,29.1-3.1c3.1,1.8,22.6,31.3,22.6,31.3l-7.5,5.5
			l-21.5-24c0,0-27.4,10.1-33.5,9C341.7,146.2,341.5,135,346.9,131z"/>
		
			<linearGradient id="SVGID_40_" gradientUnits="userSpaceOnUse" x1="375.1771" y1="940.9761" x2="382.7" y2="940.9761" gradientTransform="matrix(1 0 0 1 0 -751.9999)">
			<stop  offset="0" style="stop-color:#FCDEB3"/>
			<stop  offset="1" style="stop-color:#F9C476"/>
		</linearGradient>
		<path class="st49" d="M376.1,175.8c0,0-0.6,15.4-0.9,18.1s6.6,10.5,5.7,7.7c-0.2-0.6-0.7-2.7-0.7-2.9c0-1,2.6-18.7,2.6-18.7
			L376.1,175.8z"/>
		
			<linearGradient id="SVGID_41_" gradientUnits="userSpaceOnUse" x1="368.622" y1="955.116" x2="386.067" y2="955.116" gradientTransform="matrix(1 0 0 1 0 -751.9999)">
			<stop  offset="0" style="stop-color:#333333"/>
			<stop  offset="1" style="stop-color:#000000"/>
		</linearGradient>
		<path class="st50" d="M385.3,207.3l-5.1-8.3c-2.2-1.1-3.9-2.8-5-5c-1.5,0.3-2.9,0.9-4.1,1.8c-0.3,0.2-2.6,1.9-2.5,2.3
			c0.6,1.4,3.7,4.5,7.1,7.8c2.7,2.2,5.5,4.2,8.4,6C387.6,213.9,385.3,207.3,385.3,207.3z"/>
		
			<linearGradient id="SVGID_42_" gradientUnits="userSpaceOnUse" x1="338.37" y1="908.4451" x2="392.1174" y2="908.4451" gradientTransform="matrix(1 0 0 1 0 -751.9999)">
			<stop  offset="0" style="stop-color:#2B3582"/>
			<stop  offset="1" style="stop-color:#150E42"/>
		</linearGradient>
		<path class="st51" d="M391.3,145.4c-3.3-4.4-29.7-8.5-29.7-8.5l-7.4-14.1l-15.9,10c0,0,1.2,13,2.5,16.4c1.6,4.6,12.6,4.8,19.2,4.8
			c6.1-0.1,17.4,1.2,17.4,1.2l-3.8,33.5c0,0,7.5,1.7,9.6,1.4C383.4,190,395.3,150.8,391.3,145.4z"/>
		
			<linearGradient id="SVGID_43_" gradientUnits="userSpaceOnUse" x1="357.85" y1="844.2374" x2="357.85" y2="815.2374" gradientTransform="matrix(1 0 0 1 0 -751.9999)">
			<stop  offset="0" style="stop-color:#FCDEB3"/>
			<stop  offset="1" style="stop-color:#F9A262"/>
		</linearGradient>
		<polygon class="st52" points="361.9,91.9 354.3,92.3 353.9,81.1 353.8,63.8 360.8,63.3 		"/>
		
			<linearGradient id="SVGID_44_" gradientUnits="userSpaceOnUse" x1="352.6413" y1="821.8308" x2="366.4813" y2="821.8308" gradientTransform="matrix(1 0 0 1 0 -751.9999)">
			<stop  offset="0" style="stop-color:#FCDEB3"/>
			<stop  offset="1" style="stop-color:#F9C476"/>
		</linearGradient>
		<path class="st53" d="M365.3,75.8c-0.1,1.4-0.8,2.8-1.9,3.7c-1,0.9-2.4,1.3-3.7,1.1l-1.2-0.2c-3.6-0.5-6.2-4.2-5.8-8.2l0.8-7.6
			c0.2-1.6,0.9-3.1,2.1-4.2c1.2-1,2.7-1.5,4.2-1.3l2.6,0.3c2.7,0.5,4.4,3,4,5.7L365.3,75.8z"/>
		
			<linearGradient id="SVGID_45_" gradientUnits="userSpaceOnUse" x1="352.66" y1="822.0464" x2="363.74" y2="822.0464" gradientTransform="matrix(1 0 0 1 0 -751.9999)">
			<stop  offset="0" style="stop-color:#FCDEB3"/>
			<stop  offset="1" style="stop-color:#F9C476"/>
		</linearGradient>
		<path class="st54" d="M361.1,79.6l-1.2-0.2c-3.6-0.5-6.2-4.2-5.8-8.3c0.3-3,2-6.5,6.3-11.5l-4,1c-1.6,0.5-2.8,1.9-2.9,3.6
			l-0.9,7.8c-0.5,4.1,2.1,7.8,5.8,8.3l1.2,0.2c1.5,0.2,3-0.4,4-1.5C362.9,79.5,362,79.7,361.1,79.6z"/>
		
			<linearGradient id="SVGID_46_" gradientUnits="userSpaceOnUse" x1="358.45" y1="817.3773" x2="361.35" y2="817.3773" gradientTransform="matrix(1 0 0 1 0 -751.9999)">
			<stop  offset="1.000000e-02" style="stop-color:#603813"/>
			<stop  offset="1" style="stop-color:#C69C6D"/>
		</linearGradient>
		<path class="st55" d="M360.6,66.2c-0.2-0.2-0.5-0.4-0.8-0.5c-0.3,0-0.6,0.2-0.8,0.4l-0.6-0.8c0.4-0.4,0.9-0.7,1.5-0.7
			c0.6,0.1,1.1,0.4,1.4,0.8L360.6,66.2l0.4-0.3L360.6,66.2z"/>
		
			<linearGradient id="SVGID_47_" gradientUnits="userSpaceOnUse" x1="363.84" y1="818.1773" x2="366.74" y2="818.1773" gradientTransform="matrix(1 0 0 1 0 -751.9999)">
			<stop  offset="1.000000e-02" style="stop-color:#603813"/>
			<stop  offset="1" style="stop-color:#C69C6D"/>
		</linearGradient>
		<path class="st56" d="M366,67c-0.2-0.2-0.5-0.4-0.8-0.5c-0.3,0-0.6,0.2-0.8,0.4l-0.6-0.8c0.4-0.4,0.9-0.7,1.5-0.7
			c0.6,0.1,1.1,0.4,1.4,0.8L366,67l0.4-0.3L366,67z"/>
		<path d="M366.3,68.3c-0.1,0-0.2,0-0.2-0.1c-0.3-0.6-1.1-0.8-1.6-0.5c-0.1,0-0.1,0.1-0.1,0.1c-0.1,0-0.2,0-0.2-0.1l0,0
			c0-0.1,0-0.2,0.1-0.3c0.7-0.5,1.7-0.3,2.2,0.3l0.1,0.1C366.5,68,366.4,68.2,366.3,68.3L366.3,68.3z"/>
		<path d="M360.8,67.7c-0.1,0-0.2,0-0.2-0.1c-0.3-0.6-1-0.8-1.6-0.5c-0.1,0-0.1,0.1-0.2,0.1s-0.2,0-0.2-0.1l0,0
			c-0.1-0.1,0-0.2,0.1-0.3c0.7-0.5,1.7-0.3,2.2,0.4l0.1,0.1C361,67.5,361,67.6,360.8,67.7L360.8,67.7z"/>
		
			<linearGradient id="SVGID_48_" gradientUnits="userSpaceOnUse" x1="350.804" y1="821.0273" x2="355.1741" y2="821.0273" gradientTransform="matrix(1 0 0 1 0 -751.9999)">
			<stop  offset="0" style="stop-color:#FCDEB3"/>
			<stop  offset="1" style="stop-color:#F9C476"/>
		</linearGradient>
		<path class="st57" d="M351.4,71.1c0.5,0.9,1.7,1.1,2.5,0.6c0.2-0.1,0.4-0.3,0.6-0.6c0.9-1.2,0.9-2.8,0.1-4.1
			c-0.5-0.9-1.7-1.1-2.5-0.6c-0.2,0.1-0.4,0.3-0.6,0.6C350.6,68.2,350.6,69.9,351.4,71.1z"/>
		
			<linearGradient id="SVGID_49_" gradientUnits="userSpaceOnUse" x1="350.81" y1="820.7582" x2="354.52" y2="820.7582" gradientTransform="matrix(1 0 0 1 0 -751.9999)">
			<stop  offset="0" style="stop-color:#FCDEB3"/>
			<stop  offset="1" style="stop-color:#F9C476"/>
		</linearGradient>
		<path class="st58" d="M351.3,68.6c0.4-1.5,1.6-2.4,2.8-1.9c0.2,0.1,0.3,0.1,0.4,0.2c-0.2-0.3-0.5-0.5-0.8-0.7
			c-1.1-0.5-2.4,0.4-2.8,2c-0.4,1.2,0,2.5,0.9,3.3C351.2,70.7,351.1,69.6,351.3,68.6z"/>
		
			<linearGradient id="SVGID_50_" gradientUnits="userSpaceOnUse" x1="354.35" y1="812.1041" x2="366.3185" y2="812.1041" gradientTransform="matrix(1 0 0 1 0 -751.9999)">
			<stop  offset="1.000000e-02" style="stop-color:#603813"/>
			<stop  offset="1" style="stop-color:#C69C6D"/>
		</linearGradient>
		<path class="st59" d="M354.4,62c0,0,2.2-5.4,6.8-4.8s5.2,4,5.1,5.9C366.3,63.1,362.6,56.7,354.4,62z"/>
		
			<linearGradient id="SVGID_51_" gradientUnits="userSpaceOnUse" x1="352.64" y1="827.7585" x2="365.4969" y2="827.7585" gradientTransform="matrix(1 0 0 1 0 -751.9999)">
			<stop  offset="1.000000e-02" style="stop-color:#603813"/>
			<stop  offset="1" style="stop-color:#C69C6D"/>
		</linearGradient>
		<path class="st60" d="M364,73.4l-1.4,0.2l-2.9,0.3l-0.9,0.9l-4.5-4.8l-1.6,1.4l-0.1,0.8c-0.3,2.4,0.6,4.9,2.4,6.6l0,0
			c0,0,4,5.4,8.9,1.1c0.8-0.7,1.3-1.8,1.4-2.9l0.1-3.1L364,73.4z"/>
		<path class="st15" d="M363,76c-0.8,0-1.4-0.6-1.4-1.3l0,0l2.6-0.2C364.3,75.1,363.8,75.8,363,76z"/>
		
			<linearGradient id="SVGID_52_" gradientUnits="userSpaceOnUse" x1="1898.3628" y1="853.6799" x2="1898.3628" y2="805.5275" gradientTransform="matrix(-1 0 0 1 2272.96 -751.9999)">
			<stop  offset="0" style="stop-color:#FDF53F"/>
			<stop  offset="0.18" style="stop-color:#FCEF40"/>
			<stop  offset="0.44" style="stop-color:#F9DD44"/>
			<stop  offset="0.73" style="stop-color:#F3C14A"/>
			<stop  offset="1" style="stop-color:#ED9F51"/>
		</linearGradient>
		<path class="st61" d="M363.3,87.9c0.8-0.3,1.7-0.7,2.5-1.1l2.5-1.1c1.7-0.8,3.4-1.5,5-2.3s3.2-1.7,4.7-2.5c0.7-0.4,1.4-0.9,2-1.3
			l0.6-0.5c0,0,0,0,0,0.1c0,0-0.1,0.1-0.1,0.2c0,0.1-0.1,0.2-0.1,0.3l-0.1,0.2c0,0.1-0.1,0.2-0.1,0.2v0.2v0.2c0,0.1-0.1,0.3-0.1,0.4
			l-0.1,1.3c0-0.5,0.1-0.9,0.1-1.5s0.1-1.1,0.1-1.6c0.1-1.1,0.1-2.2,0.2-3.3l0.2-6.7c0.2-4.5,0.3-8.9,0.4-13.4l0,0
			c0-1.1,0.9-2,1.9-2c0.9,0.1,1.6,0.7,1.8,1.6c0.9,4.4,1.9,8.7,2.8,13.1l1.4,6.6c0.2,1.1,0.4,2.2,0.6,3.3c0.1,0.5,0.2,1.1,0.3,1.7
			s0.2,1.2,0.3,1.8c0,0.3,0,0.5,0,0.8l-0.1,0.5c0,0.2-0.1,0.4-0.1,0.6l-0.1,0.3v0.1v0.1c0,0.1-0.1,0.3-0.1,0.4
			c0,0.1-0.1,0.3-0.2,0.4c-0.1,0.2-0.2,0.4-0.3,0.6l-0.3,0.5c-0.3,0.4-0.6,0.9-1,1.3c-0.5,0.6-1,1.1-1.5,1.6
			c-0.9,0.9-1.8,1.6-2.7,2.2c-1.7,1.3-3.4,2.5-5.1,3.6s-3.4,2.2-5.1,3.2l-2.5,1.5c-0.9,0.5-1.7,1-2.6,1.5l0,0
			c-3.1,1.8-7,0.4-8.6-3.1c-1.6-3.4-0.4-7.6,2.8-9.6C362.9,88.1,363.1,88,363.3,87.9z"/>
		
			<linearGradient id="SVGID_53_" gradientUnits="userSpaceOnUse" x1="379.2937" y1="804.4935" x2="385.5037" y2="804.4935" gradientTransform="matrix(1 0 0 1 0 -751.9999)">
			<stop  offset="0" style="stop-color:#FCDEB3"/>
			<stop  offset="1" style="stop-color:#F9C476"/>
		</linearGradient>
		<path class="st62" d="M383.1,57c-1.4,0.4-2.8-0.5-3.2-1.9c0,0,0,0,0-0.1l-0.6-4.1c-0.1-1.5,1-2.8,2.5-2.9c1.3-0.3,2.7,0.5,3,1.8
			l0,0l0.6,4.4C385.5,55.6,384.5,56.8,383.1,57z"/>
		
			<linearGradient id="SVGID_54_" gradientUnits="userSpaceOnUse" x1="381.2" y1="798.7576" x2="384.77" y2="798.7576" gradientTransform="matrix(1 0 0 1 0 -751.9999)">
			<stop  offset="0" style="stop-color:#FCDEB3"/>
			<stop  offset="1" style="stop-color:#F9C476"/>
		</linearGradient>
		<path class="st63" d="M383.5,50.1c0.1,0.1,0.3,0.2,0.4,0.2c0.4,0,0.8-0.3,0.8-0.7l0,0c0-0.2,0.3-3.9-2.4-6.2
			c-0.3-0.2-0.7-0.2-1,0.1l0,0c-0.2,0.4-0.2,0.8,0.1,1.1c1.3,1.2,1.9,2.9,1.8,4.7C383.3,49.6,383.4,49.9,383.5,50.1z"/>
		
			<linearGradient id="SVGID_55_" gradientUnits="userSpaceOnUse" x1="378.29" y1="799.3401" x2="383.99" y2="799.3401" gradientTransform="matrix(1 0 0 1 0 -751.9999)">
			<stop  offset="0" style="stop-color:#FCDEB3"/>
			<stop  offset="1" style="stop-color:#F9C476"/>
		</linearGradient>
		<path class="st64" d="M378.5,46.2c0.1,0.1,0.2,0.2,0.4,0.2c2.5,0.3,3.6,3,3.6,3c0.1,0.4,0.5,0.6,0.9,0.5h0.1
			c0.4-0.2,0.5-0.7,0.4-1.1c-0.1-0.2-1.5-3.6-4.8-4c-0.4,0-0.8,0.3-0.8,0.7l0,0C378.3,45.7,378.4,46,378.5,46.2z"/>
		
			<linearGradient id="SVGID_56_" gradientUnits="userSpaceOnUse" x1="376.64" y1="800.9013" x2="382.9778" y2="800.9013" gradientTransform="matrix(1 0 0 1 0 -751.9999)">
			<stop  offset="0" style="stop-color:#FCDEB3"/>
			<stop  offset="1" style="stop-color:#F9C476"/>
		</linearGradient>
		<path class="st65" d="M376.9,48.4c0.2,0.1,0.4,0.2,0.6,0.2c2.5-0.4,4.2,2,4.2,2c0.2,0.3,0.6,0.4,0.9,0.2c0,0,0,0,0.1,0
			c0.3-0.3,0.4-0.8,0.1-1.2c-0.1-0.1-2.2-3.1-5.5-2.6c-0.4,0.1-0.7,0.5-0.6,0.9C376.7,48.1,376.8,48.3,376.9,48.4z"/>
		
			<linearGradient id="SVGID_57_" gradientUnits="userSpaceOnUse" x1="376.5955" y1="802.4819" x2="382.7526" y2="802.4819" gradientTransform="matrix(1 0 0 1 0 -751.9999)">
			<stop  offset="0" style="stop-color:#FCDEB3"/>
			<stop  offset="1" style="stop-color:#F9C476"/>
		</linearGradient>
		<path class="st66" d="M376.9,51.6c0.3,0.2,0.6,0.2,0.9,0c1.1-0.9,2.7-1,3.9-0.2c0.3,0.2,0.7,0.2,1-0.1v-0.1
			c0.2-0.4,0.2-0.9-0.2-1.1c-1.7-1.2-4-1.1-5.5,0.2c-0.3,0.3-0.4,0.8-0.1,1.1C376.8,51.5,376.8,51.5,376.9,51.6z"/>
		
			<linearGradient id="SVGID_58_" gradientUnits="userSpaceOnUse" x1="1934.8879" y1="852.2618" x2="1934.8879" y2="805.5222" gradientTransform="matrix(-1 0 0 1 2272.96 -751.9999)">
			<stop  offset="0" style="stop-color:#FDF53F"/>
			<stop  offset="0.18" style="stop-color:#FCEF40"/>
			<stop  offset="0.44" style="stop-color:#F9DD44"/>
			<stop  offset="0.73" style="stop-color:#F3C14A"/>
			<stop  offset="1" style="stop-color:#ED9F51"/>
		</linearGradient>
		<path class="st67" d="M341.5,98.8c-0.8-0.6-1.5-1.2-2.2-1.8l-2.1-1.9c-1.4-1.3-2.8-2.5-4.2-3.9s-2.8-2.7-4.2-4.3
			c-0.7-0.8-1.4-1.6-2.2-2.6c-0.4-0.6-0.8-1.2-1.2-1.8l-0.3-0.6c-0.1-0.2-0.2-0.5-0.3-0.8c-0.3-0.8-0.6-1.6-0.6-2.5v-0.4
			c-0.1-0.3-0.1-0.6,0-0.9c0.1-0.7,0.3-1.3,0.5-2c0.2-0.6,0.4-1.1,0.6-1.6c0.4-1,0.8-2,1.2-2.9c0.8-1.9,1.6-3.7,2.5-5.5
			c1.7-3.6,3.5-7.1,5.3-10.7c0.4-0.9,1.4-1.3,2.3-0.9c0.1,0,0.1,0.1,0.2,0.1c0.7,0.5,1.1,1.4,0.9,2.3l0,0c-0.8,3.9-1.5,7.8-2.2,11.7
			c-0.3,1.9-0.6,3.9-0.9,5.8c-0.1,1-0.2,1.9-0.3,2.8c0,0.5-0.1,0.9-0.1,1.3c0,0.3,0,0.6,0,0.9v-1.4c0-0.4-0.1-0.8-0.2-1.1
			c0-0.1,0-0.1,0-0.1l0,0l0.5,0.5c0.4,0.4,1,1,1.6,1.5c1.2,1,2.5,2.1,3.9,3.1s2.8,2,4.3,3l2.2,1.4c0.7,0.5,1.5,1,2.2,1.4
			c3.2,2.1,4.2,6.3,2.5,9.7c-1.3,3.1-4.8,4.5-7.8,3.2C342.5,99.6,342,99.3,341.5,98.8L341.5,98.8z"/>
		
			<linearGradient id="SVGID_59_" gradientUnits="userSpaceOnUse" x1="333.18" y1="804.7438" x2="339.4" y2="804.7438" gradientTransform="matrix(1 0 0 1 0 -751.9999)">
			<stop  offset="0" style="stop-color:#FCDEB3"/>
			<stop  offset="1" style="stop-color:#F9C476"/>
		</linearGradient>
		<path class="st68" d="M335.6,57.2c1.4,0.4,2.8-0.5,3.2-1.8v-0.1l0.6-4.1c0.1-1.5-1-2.8-2.5-2.9c-1.3-0.3-2.7,0.5-3,1.8l0,0
			l-0.6,4.4C333.2,55.8,334.2,57,335.6,57.2z"/>
		
			<linearGradient id="SVGID_60_" gradientUnits="userSpaceOnUse" x1="333.9293" y1="799.0076" x2="337.5093" y2="799.0076" gradientTransform="matrix(1 0 0 1 0 -751.9999)">
			<stop  offset="0" style="stop-color:#FCDEB3"/>
			<stop  offset="1" style="stop-color:#F9C476"/>
		</linearGradient>
		<path class="st69" d="M335.1,50.3c-0.1,0.1-0.2,0.2-0.4,0.2c-0.4,0-0.8-0.3-0.8-0.7l0,0c0-0.2-0.3-3.9,2.4-6.1
			c0.3-0.2,0.7-0.2,1,0.1c0,0,0,0,0,0.1c0.2,0.4,0.2,0.9-0.2,1.1c-1.3,1.2-1.9,2.9-1.8,4.7C335.4,49.8,335.3,50.1,335.1,50.3z"/>
		
			<linearGradient id="SVGID_61_" gradientUnits="userSpaceOnUse" x1="334.7" y1="799.4901" x2="340.42" y2="799.4901" gradientTransform="matrix(1 0 0 1 0 -751.9999)">
			<stop  offset="0" style="stop-color:#FCDEB3"/>
			<stop  offset="1" style="stop-color:#F9C476"/>
		</linearGradient>
		<path class="st70" d="M340.1,46.4c-0.1,0.1-0.2,0.2-0.4,0.2c-2.5,0.3-3.7,3-3.7,3c-0.1,0.4-0.5,0.6-0.9,0.5c0,0-0.1,0-0.1-0.1
			c-0.4-0.2-0.5-0.7-0.4-1.1c0.1-0.2,1.5-3.6,4.8-4c0.4,0,0.8,0.3,0.8,0.7l0,0C340.4,45.9,340.4,46.2,340.1,46.4z"/>
		
			<linearGradient id="SVGID_62_" gradientUnits="userSpaceOnUse" x1="335.7188" y1="801.2013" x2="342.0638" y2="801.2013" gradientTransform="matrix(1 0 0 1 0 -751.9999)">
			<stop  offset="0" style="stop-color:#FCDEB3"/>
			<stop  offset="1" style="stop-color:#F9C476"/>
		</linearGradient>
		<path class="st71" d="M341.8,48.7c-0.1,0.1-0.4,0.2-0.6,0.2c-2.5-0.4-4.2,1.9-4.2,2c-0.2,0.3-0.6,0.4-0.9,0.2c0,0,0,0-0.1,0
			c-0.3-0.3-0.4-0.8-0.1-1.2c0.1-0.1,2.2-3.1,5.5-2.6c0.4,0.1,0.7,0.5,0.6,0.9C342,48.4,341.9,48.5,341.8,48.7z"/>
		
			<linearGradient id="SVGID_63_" gradientUnits="userSpaceOnUse" x1="335.93" y1="802.687" x2="342.0839" y2="802.687" gradientTransform="matrix(1 0 0 1 0 -751.9999)">
			<stop  offset="0" style="stop-color:#FCDEB3"/>
			<stop  offset="1" style="stop-color:#F9C476"/>
		</linearGradient>
		<path class="st72" d="M341.8,51.8c-0.3,0.2-0.6,0.2-0.9,0c-1.1-1-2.7-1.1-3.9-0.2c-0.3,0.2-0.7,0.2-1-0.1v-0.1
			c-0.2-0.4-0.1-0.9,0.2-1.1c1.7-1.2,4-1.1,5.5,0.3C342,50.9,342.1,51.4,341.8,51.8C341.9,51.7,341.9,51.8,341.8,51.8z"/>
		<path d="M359.4,67.5c0,0.4,0.2,0.7,0.6,0.8c0.4,0,0.7-0.3,0.7-0.6c0-0.4-0.2-0.7-0.6-0.8C359.7,66.9,359.4,67.2,359.4,67.5
			L359.4,67.5z"/>
		<path d="M364.7,68.1c-0.1,0.4,0.2,0.7,0.6,0.7l0,0c0.3,0,0.6-0.2,0.7-0.6l0,0c0-0.4-0.2-0.7-0.6-0.8
			C365,67.4,364.7,67.7,364.7,68.1L364.7,68.1z"/>
		
			<linearGradient id="SVGID_64_" gradientUnits="userSpaceOnUse" x1="1918.0099" y1="836.3674" x2="1918.0099" y2="919.0774" gradientTransform="matrix(-1 0 0 1 2272.96 -751.9999)">
			<stop  offset="0" style="stop-color:#FDF53F"/>
			<stop  offset="0.18" style="stop-color:#FCEF40"/>
			<stop  offset="0.44" style="stop-color:#F9DD44"/>
			<stop  offset="0.73" style="stop-color:#F3C14A"/>
			<stop  offset="1" style="stop-color:#ED9F51"/>
		</linearGradient>
		<path class="st73" d="M341,121.4c-0.6-7.1-1.8-18.8-1-25.9c0.4-3.5,2.5-6.8,5.2-7.8l6.1-1.3l2.7-1.9c0.3,3.5,2.1,5.2,3.8,5.3
			c2.2,0.1,3.1-1.2,3.8-4.1l1.1,1.6c0.7,0.3,0.9,0.8,1.5,1.5l7.7,4.7L369,123c-0.2,2.5-0.2,4.9,0.1,7.4l-31.1,2.7L341,121.4z"/>
		<path class="st15" d="M210.5,122.1l-2.1,1l0,0c-0.3,0.2-0.7,0-0.9-0.3s0-0.7,0.3-0.9l0,0l2.2-1c0.3-0.1,0.7,0,0.9,0.3
			C211,121.5,210.9,121.9,210.5,122.1L210.5,122.1L210.5,122.1z"/>
		<path class="st15" d="M203.5,125.4l-2.1,1.1l0,0c-0.3,0.2-0.8,0.1-0.9-0.2c-0.2-0.3-0.1-0.8,0.2-0.9c0,0,0,0,0.1,0l0,0l2.1-1.1
			c0.3-0.2,0.8,0,0.9,0.3C204,124.8,203.8,125.2,203.5,125.4L203.5,125.4L203.5,125.4z"/>
		<path class="st15" d="M196.6,129.2l-2,1.2l0,0c-0.3,0.2-0.8,0.1-1-0.2s-0.1-0.8,0.2-1l0,0l0,0l2-1.2c0.3-0.2,0.8-0.1,1,0.2l0,0
			C197.1,128.5,197,129,196.6,129.2C196.7,129.2,196.7,129.2,196.6,129.2L196.6,129.2z"/>
		<path class="st15" d="M190,133.4l-1.9,1.3l0,0c-0.3,0.2-0.8,0.1-1-0.2s-0.1-0.8,0.2-1l0,0l2-1.3c0.3-0.2,0.8-0.1,1,0.2
			S190.4,133.1,190,133.4L190,133.4L190,133.4z"/>
		<path class="st15" d="M183.6,137.9l-1.9,1.4l0,0c-0.3,0.2-0.8,0.2-1-0.1s-0.2-0.8,0.1-1l0,0l1.9-1.4c0.3-0.2,0.8-0.2,1,0.1
			C184,137.2,184,137.7,183.6,137.9L183.6,137.9z"/>
		<path class="st15" d="M177.5,142.8l-1.8,1.5l0,0c-0.3,0.3-0.8,0.2-1.1-0.1s-0.2-0.8,0.1-1.1l0,0l1.8-1.5c0.3-0.2,0.7-0.2,1,0.1
			S177.8,142.5,177.5,142.8L177.5,142.8L177.5,142.8z"/>
		<path class="st15" d="M171.7,148.1l-1.7,1.6l0,0c-0.3,0.3-0.8,0.3-1.1,0l0,0c-0.3-0.3-0.3-0.8,0-1.1l0,0l1.7-1.6
			c0.3-0.3,0.8-0.3,1.1,0S172,147.8,171.7,148.1L171.7,148.1z"/>
		<path class="st15" d="M166.2,153.6l-1.6,1.7l0,0c-0.3,0.3-0.8,0.3-1.1,0s-0.3-0.8,0-1.1l0,0l0,0l1.6-1.7c0.3-0.3,0.8-0.3,1.1,0
			C166.5,152.8,166.5,153.3,166.2,153.6L166.2,153.6L166.2,153.6z"/>
		<path class="st15" d="M161,159.5l-1.5,1.8l0,0c-0.3,0.3-0.8,0.4-1.1,0.1c-0.3-0.3-0.4-0.8-0.1-1.1l0,0l0,0l1.5-1.8
			c0.2-0.4,0.7-0.5,1.1-0.3c0.4,0.2,0.5,0.7,0.3,1.1C161.1,159.3,161.1,159.4,161,159.5L161,159.5z"/>
		<path class="st15" d="M156.1,165.6l-1.4,1.9l0,0c-0.3,0.4-0.8,0.4-1.2,0.2c-0.4-0.3-0.4-0.8-0.1-1.2l0,0l0,0l1.4-1.9
			c0.3-0.4,0.8-0.4,1.1-0.2C156.3,164.7,156.4,165.2,156.1,165.6L156.1,165.6z"/>
		<path class="st15" d="M151.6,172l-1.3,2l0,0c-0.2,0.4-0.8,0.5-1.1,0.2l0,0c-0.4-0.3-0.5-0.8-0.2-1.2l0,0l1.3-2
			c0.2-0.4,0.8-0.5,1.1-0.2l0,0C151.7,171.1,151.9,171.6,151.6,172L151.6,172L151.6,172z"/>
		<path class="st15" d="M147.4,178.6l-1.2,2l0,0c-0.2,0.4-0.8,0.5-1.2,0.3s-0.5-0.8-0.3-1.2l0,0l0,0l1.2-2c0.2-0.4,0.7-0.5,1.1-0.3
			C147.5,177.6,147.7,178.1,147.4,178.6C147.4,178.5,147.4,178.5,147.4,178.6L147.4,178.6z"/>
		<path class="st15" d="M143.6,185.5l-1.1,2.1l0,0c-0.2,0.4-0.7,0.6-1.2,0.4c-0.4-0.2-0.6-0.7-0.4-1.2l0,0l0,0l1.1-2.1
			c0.2-0.4,0.7-0.6,1.1-0.4C143.7,184.5,143.9,185,143.6,185.5L143.6,185.5L143.6,185.5z"/>
		<path class="st15" d="M140.2,192.5l-0.9,2.2l0,0c-0.2,0.4-0.7,0.6-1.1,0.5c-0.4-0.2-0.6-0.7-0.4-1.2l0,0l1-2.2
			c0.2-0.4,0.7-0.7,1.1-0.5s0.7,0.7,0.5,1.1C140.3,192.4,140.3,192.5,140.2,192.5L140.2,192.5z"/>
		<path class="st15" d="M137.2,199.7l-0.8,2.2l0,0c-0.2,0.5-0.7,0.7-1.1,0.5s-0.7-0.7-0.5-1.1l0,0l0.8-2.2c0.2-0.5,0.7-0.7,1.1-0.5
			S137.4,199.3,137.2,199.7L137.2,199.7L137.2,199.7z"/>
		<path class="st15" d="M134.7,207.1l-0.7,2.2l0,0c-0.2,0.5-0.7,0.7-1.1,0.6c-0.5-0.1-0.7-0.7-0.6-1.1l0,0l0,0l0.7-2.3
			c0.2-0.5,0.7-0.7,1.2-0.5C134.5,206.2,134.8,206.7,134.7,207.1L134.7,207.1z"/>
		<path class="st15" d="M132.5,214.6l-0.6,2.3l0,0c-0.1,0.5-0.6,0.8-1.1,0.7s-0.8-0.6-0.7-1.1l0,0l0.6-2.3c0.1-0.5,0.6-0.8,1.1-0.7
			C132.4,213.6,132.7,214.1,132.5,214.6L132.5,214.6z"/>
		<path class="st15" d="M130.9,222.3l-0.4,2.3l0,0c-0.1,0.5-0.6,0.8-1.1,0.8s-0.8-0.6-0.8-1.1l0,0l0.4-2.3c0.1-0.5,0.6-0.8,1.1-0.7
			C130.6,221.3,130.9,221.7,130.9,222.3C130.9,222.2,130.9,222.2,130.9,222.3L130.9,222.3z"/>
		<path class="st15" d="M129.6,230l-0.3,2.3l0,0c0,0.5-0.5,0.9-1,0.9s-0.9-0.5-0.9-1c0-0.1,0-0.1,0-0.2l0,0l0.3-2.4
			c0.1-0.5,0.5-0.9,1-0.8C129.3,229,129.7,229.4,129.6,230L129.6,230z"/>
		<path class="st15" d="M128.9,237.8l-0.1,2.3l0,0c0.1,0.5-0.2,1.1-0.7,1.2c-0.5,0.1-1.1-0.2-1.2-0.7c0-0.2,0-0.4,0-0.6l0,0l0.2-2.4
			c-0.1-0.5,0.2-1.1,0.7-1.2s1.1,0.2,1.2,0.7C129,237.3,129,237.5,128.9,237.8L128.9,237.8z"/>
		<path class="st15" d="M128.6,245.6v2.3l0,0c0,0.6-0.4,1-1,1c-0.6,0-1-0.4-1-1l0,0v-2.4c0-0.6,0.4-1,1-1
			C128.2,244.5,128.6,245,128.6,245.6L128.6,245.6z"/>
		<polygon class="st22" points="221.4,106.6 221,118.1 229,113.4 		"/>
		
			<linearGradient id="SVGID_65_" gradientUnits="userSpaceOnUse" x1="211.8532" y1="838.3095" x2="273.6" y2="838.3095" gradientTransform="matrix(1 0 0 -1 0 948.7875)">
			<stop  offset="0" style="stop-color:#00D5FC"/>
			<stop  offset="0.8575" style="stop-color:#009DC2"/>
			<stop  offset="1" style="stop-color:#009DC2"/>
		</linearGradient>
		<path class="st74" d="M273.6,101.8l-32.2,26.3c-1.2,1-3.1,0.8-4.1-0.4l-0.1-0.1l-25.1-33.4c-0.4-0.5-0.3-1.3,0.2-1.7
			c0.2-0.2,0.6-0.3,0.9-0.2L273.6,101.8z"/>
		<polygon class="st22" points="221.4,106.6 273.6,101.8 225.4,112 225.2,115.2 		"/>
		<polygon class="st75" points="227.9,115.1 221,118.1 225.4,112 		"/>
		<path class="st15" d="M74.1,209.5c-1-0.2-2,0.4-2.2,1.4c0,0.1,0,0.3,0,0.4c0,1.2-0.5,2.5-1.3,3.4l-2.4,2.7
			c-0.2-0.2-0.4-0.4-0.7-0.4h-4.7c-0.5,0-0.9,0.4-0.9,0.9l0,0v10.5c0,0.5,0.4,0.9,0.9,0.9l0,0h4.7c0.3,0,0.6-0.2,0.8-0.5
			c1,0.6,2.1,0.9,3.2,0.9h8.3c1.3,0,2.3-1.1,2.3-2.3l0,0c0-0.6,0-8.1,0-8.2c0-1.2-1-2.2-2.2-2.2h-4.3l0.2-0.4c0.8-1.9,0.7-4.2-0.4-6
			C75,209.9,74.6,209.6,74.1,209.5L74.1,209.5z M66.6,227.5h-2.9v-8.8h2.9V227.5z M79.7,218.5c0.3,0,0.5,0.2,0.5,0.5l0,0
			c0,0.2,0,0.6,0,1.2c0,3.4,0,6.6,0,7.1c0,0.1,0,0.3-0.1,0.4c-0.1,0.1-0.2,0.2-0.4,0.2h-8.3c-1,0-2-0.4-2.7-1l-0.4-0.3v-6.8l3.6-4
			c1.1-1.3,1.7-2.9,1.7-4.5c0,0,0.1-0.1,0.1,0c0.8,1.4,0.9,3,0.3,4.5l-0.7,1.6c-0.1,0.3-0.1,0.6,0.1,0.8s0.4,0.4,0.7,0.4L79.7,218.5
			z"/>
		<path class="st15" d="M767.8,29.6H767c-0.4-1.6-1.1-3.1-1.8-4.5l0.5-0.5c1.3-1.3,1.3-3.3,0-4.6l-3.5-3.5c-1.3-1.3-3.3-1.3-4.6,0
			l-0.5,0.5c-1.4-0.8-2.9-1.4-4.5-1.8v-0.8c0-1.8-1.4-3.2-3.2-3.2h-5c-1.8,0-3.2,1.5-3.2,3.2v0.8c-1.6,0.4-3.1,1.1-4.5,1.8l-0.5-0.5
			c-1.3-1.3-3.3-1.3-4.6,0l-3.5,3.5c-1.3,1.3-1.3,3.3,0,4.6l0.5,0.5c-0.8,1.4-1.4,2.9-1.8,4.5H726c-1.8,0-3.2,1.5-3.2,3.2v5
			c0,1.8,1.4,3.2,3.2,3.2h0.8c0.4,1.6,1.1,3,1.8,4.5l-0.5,0.5c-1.3,1.3-1.3,3.3,0,4.6l3.5,3.5c1.3,1.3,3.3,1.3,4.6,0l0.5-0.5
			c1.4,0.8,2.9,1.4,4.5,1.8v0.8c0,1.8,1.5,3.2,3.2,3.2h5c1.8,0,3.2-1.5,3.2-3.2v-0.8c1.6-0.4,3.1-1.1,4.5-1.8l0.5,0.5
			c1.3,1.3,3.3,1.3,4.6,0l3.5-3.5c1.3-1.3,1.3-3.3,0-4.6l-0.5-0.5c0.8-1.4,1.4-2.9,1.8-4.5h0.8c1.8,0,3.2-1.5,3.2-3.2v-5
			C771.1,31.1,769.6,29.6,767.8,29.6L767.8,29.6z M749.8,56.3c0,0.2-0.2,0.3-0.3,0.3h-5c-0.2,0-0.3-0.2-0.3-0.3v-11
			c0-0.6-0.4-1.1-0.9-1.4c-5.1-1.9-7.7-7.6-5.9-12.7c0.7-1.9,2-3.6,3.7-4.8c0.1-0.1,0.2-0.1,0.3-0.2c0,0.2,0,0.4,0,0.5s0,0.3,0,0.4
			v6.8c0,3.1,2.4,5.8,5.6,6h0.1c3.1-0.2,5.6-2.9,5.6-6v-6.8c0-0.1,0-0.2,0-0.4s0-0.3,0-0.5l0.3,0.2c4.5,3.1,5.7,9.2,2.7,13.7
			c-1.2,1.7-2.8,3-4.8,3.7c-0.6,0.2-1,0.7-1,1.4L749.8,56.3z M768.2,37.9c0,0.2-0.2,0.3-0.3,0.3H766c-0.7,0-1.3,0.5-1.4,1.1
			c-0.5,2-1.3,3.9-2.4,5.7c-0.4,0.6-0.3,1.3,0.2,1.8l1.3,1.3c0.1,0.1,0.1,0.2,0.1,0.2c0,0.1,0,0.2-0.1,0.2l-3.6,3.6
			c-0.1,0.1-0.1,0.1-0.2,0.1c-0.1,0-0.2,0-0.2-0.1l-1.3-1.3c-0.5-0.5-1.2-0.6-1.8-0.2c-1.2,0.8-2.5,1.4-3.9,1.9v-6.2
			c6.4-3,9.2-10.6,6.2-17c-1-2.1-2.5-3.9-4.4-5.2c-0.5-0.4-2.2-1.5-3.6-0.7s-1.3,2.7-1.2,3.5c0,0.1,0,0.1,0,0.2v6.8
			c0.2,1.5-0.9,2.9-2.5,3.1c-1.5,0.2-2.9-0.9-3.1-2.5c0-0.2,0-0.4,0-0.6v-6.8c0,0,0-0.1,0-0.2c0.1-0.8,0.2-2.7-1.2-3.5
			s-3.1,0.3-3.6,0.7c-5.8,4-7.4,11.9-3.4,17.8c1.3,1.9,3.1,3.5,5.2,4.4v6.2c-1.4-0.5-2.7-1.1-3.9-1.9c-0.6-0.4-1.3-0.3-1.8,0.2
			l-1.3,1.3c-0.1,0.1-0.1,0.1-0.2,0.1c-0.1,0-0.2,0-0.2-0.1l-3.5-3.5c-0.1-0.1-0.1-0.2-0.1-0.2c0-0.1,0-0.2,0.1-0.2l1.3-1.3
			c0.5-0.5,0.6-1.2,0.2-1.8c-1.1-1.7-1.9-3.7-2.3-5.7c-0.1-0.7-0.7-1.1-1.4-1.1h-2c-0.2,0-0.3-0.2-0.3-0.3v-5c0-0.2,0.2-0.3,0.3-0.3
			h1.9c0.7,0,1.3-0.5,1.4-1.1c0.4-2,1.2-3.9,2.3-5.7c0.4-0.6,0.3-1.3-0.2-1.8l-1.3-1.3c-0.1-0.1-0.1-0.2-0.1-0.2
			c0-0.1,0-0.2,0.1-0.2l3.6-3.6c0.1-0.1,0.2-0.1,0.2-0.1c0.1,0,0.2,0,0.2,0.1l1.3,1.3c0.5,0.5,1.2,0.6,1.8,0.2
			c1.7-1.1,3.7-1.9,5.7-2.4c0.7-0.1,1.1-0.7,1.1-1.4v-1.9c0-0.2,0.2-0.3,0.3-0.3h5c0.2,0,0.3,0.2,0.3,0.3v1.9c0,0.7,0.5,1.3,1.1,1.4
			c2,0.4,3.9,1.2,5.7,2.3c0.6,0.4,1.3,0.3,1.8-0.2l1.3-1.3c0.1-0.1,0.2-0.1,0.2-0.1c0.1,0,0.2,0,0.2,0.1l3.5,3.5
			c0.1,0.1,0.1,0.1,0.1,0.2c0,0.1,0,0.2-0.1,0.2l-1.3,1.3c-0.5,0.5-0.6,1.2-0.2,1.8c1.1,1.7,1.9,3.7,2.3,5.7
			c0.2,0.7,0.7,1.1,1.4,1.1h1.9c0.2,0,0.3,0.2,0.3,0.3L768.2,37.9z"/>
		<path class="st15" d="M435.2,57.7l-4.2-6.2c-0.1-0.2-0.4-0.3-0.6-0.1c-0.1,0-0.1,0.1-0.1,0.1l-4.3,6.2c-0.1,0.1-0.1,0.3-0.1,0.4
			l1.2,3.6h-0.3c-0.3,0-0.5,0.2-0.5,0.5v1.4c0,0.3,0.2,0.5,0.5,0.5l0,0h0.5v5.2c0,0.3,0.2,0.5,0.5,0.5h5.7c0.3,0,0.5-0.2,0.5-0.5
			v-5.1h0.5c0.3,0,0.5-0.2,0.5-0.5l0,0v-1.4c0-0.3-0.2-0.5-0.5-0.5h-0.3l1.2-3.6C435.4,58.1,435.3,57.9,435.2,57.7L435.2,57.7z
			 M430.6,57.1c0.2,0,0.4,0.1,0.4,0.3c0.1,0.2,0,0.4-0.1,0.5s-0.3,0.2-0.5,0.1c-0.2-0.1-0.3-0.2-0.3-0.4
			C430.1,57.3,430.3,57.1,430.6,57.1C430.6,57,430.6,57.1,430.6,57.1z M433,68.9h-4.7v-4.7h4.7V68.9z M434,63.2h-6.6v-0.5h6.6V63.2z
			 M433.1,61.8h-5l-1.2-3.7l3.3-4.7v2.8v0.1c-0.7,0.3-1.1,1.1-0.9,1.8s1.1,1.1,1.8,0.9s1.1-1.1,0.9-1.8c-0.1-0.4-0.5-0.7-0.9-0.9
			v-0.1v-2.8l3.3,4.7L433.1,61.8z"/>
		<path class="st15" d="M433.4,70.1h-5.7c-0.4,0-0.7-0.3-0.7-0.8v-4.9h-0.2c-0.4,0-0.7-0.3-0.8-0.7v-1.4c0-0.4,0.3-0.7,0.7-0.7
			l-1.1-3.3c-0.1-0.2,0-0.5,0.1-0.7l4.3-6.2c0.3-0.3,0.7-0.4,1.1-0.2c0.1,0,0.1,0.1,0.2,0.2l4.3,6.2c0.1,0.2,0.2,0.4,0.1,0.7
			l-1.1,3.3c0.4,0,0.7,0.4,0.7,0.7v1.4c0,0.4-0.3,0.7-0.8,0.7h-0.2v4.9C434.2,69.8,433.8,70.1,433.4,70.1L433.4,70.1z M426.8,62.1
			c-0.1,0-0.2,0.1-0.2,0.2l0,0v1.4c0,0.1,0.1,0.2,0.2,0.2l0,0h0.7v5.5c0,0.1,0.1,0.2,0.2,0.2l0,0h5.7c0.1,0,0.2-0.1,0.2-0.2l0,0
			v-5.5h0.7c0.1,0,0.2-0.1,0.2-0.2l0,0v-1.4c0-0.1-0.1-0.2-0.2-0.2l0,0h-0.7l1.3-4c0-0.1,0-0.1,0-0.2l-4.3-6.2
			c-0.1-0.1-0.2-0.1-0.3,0l0,0l-4.3,6.2c0,0.1,0,0.1,0,0.2l1.3,4H426.8z M433.2,69.2H428v-5.3h5.3L433.2,69.2z M428.5,68.6h4.2v-4.2
			h-4.2V68.6z M434.2,63.5H427v-1h7.2V63.5z M433.3,62.1h-5.4l-1.3-4l3.8-5.5v3.6v0.2l-0.2,0.1c-0.5,0.2-0.9,0.7-0.8,1.3
			s0.7,1,1.3,0.9c0.6-0.1,1-0.7,0.9-1.3c-0.1-0.4-0.4-0.8-0.8-0.9l-0.2-0.1v-0.2v-3.6l3.8,5.5L433.3,62.1z M428.3,61.5h4.6l1.1-3.4
			l-2.7-3.9V56c0.8,0.4,1.2,1.4,0.8,2.3c-0.4,0.8-1.4,1.2-2.3,0.8s-1.2-1.4-0.8-2.3c0.2-0.3,0.4-0.6,0.8-0.8v-1.8l-2.7,3.9
			L428.3,61.5z M430.6,58.3c-0.1,0-0.2,0-0.3,0c-0.4-0.1-0.6-0.6-0.4-1c0.1-0.3,0.4-0.5,0.7-0.5c0.3,0,0.6,0.2,0.7,0.5
			c0.1,0.4,0,0.8-0.4,0.9C430.8,58.3,430.7,58.3,430.6,58.3L430.6,58.3z M430.6,57.3c-0.1,0-0.2,0.1-0.2,0.2l0,0
			c0,0.1,0.1,0.2,0.1,0.2c0.1,0,0.2,0,0.2,0c0.1-0.1,0.1-0.2,0-0.3C430.7,57.4,430.6,57.4,430.6,57.3L430.6,57.3z"/>
		<path class="st15" d="M444.8,45.7h-1.9c-0.3,0-0.5,0.2-0.5,0.5v0.5H432v-0.5c0-0.3-0.2-0.5-0.5-0.5H431v-2.4h0.5
			c0.3,0,0.5-0.2,0.5-0.5v-1.9c0-0.3-0.2-0.5-0.5-0.5h-1.9c-0.3,0-0.5,0.2-0.5,0.5v1.9c0,0.3,0.2,0.5,0.5,0.5h0.5v2.4h-0.5
			c-0.3,0-0.5,0.2-0.5,0.5v0.5h-10.4v-0.5c0-0.3-0.2-0.5-0.5-0.5h-1.9c-0.3,0-0.5,0.2-0.5,0.5l0,0v1.9c0,0.3,0.2,0.5,0.5,0.5l0,0
			h1.9c0.3,0,0.5-0.2,0.5-0.5v-0.5h7.8c-0.6,0.4-1.2,0.9-1.6,1.5c-1.2,1.4-1.9,3.2-1.9,5.1h-0.5c-0.3,0-0.5,0.2-0.5,0.5v1.9
			c0,0.3,0.2,0.5,0.5,0.5l0,0h1.9c0.3,0,0.5-0.2,0.5-0.5l0,0v-1.9c0-0.3-0.2-0.5-0.5-0.5H424c0-3.5,2.7-6.3,5.2-6.6v0.5
			c0,0.3,0.2,0.5,0.5,0.5h1.9c0.3,0,0.5-0.2,0.5-0.5v-0.5c1.4,0.2,2.7,1,3.5,2.2c1,1.3,1.6,2.8,1.7,4.4h-0.5c-0.3,0-0.5,0.2-0.5,0.5
			v1.9c0,0.3,0.2,0.5,0.5,0.5l0,0h1.9c0.3,0,0.5-0.2,0.5-0.5l0,0v-1.9c0-0.3-0.2-0.5-0.5-0.5h-0.5c-0.1-1.8-0.8-3.6-1.9-5
			c-0.5-0.6-1.1-1.2-1.7-1.7h7.9V48c0,0.3,0.2,0.5,0.5,0.5h1.9c0.3,0,0.5-0.2,0.5-0.5v-1.8C445.3,45.9,445.1,45.7,444.8,45.7
			L444.8,45.7z M417.8,47.6h-1v-0.9h1V47.6z M424,56.1h-1v-0.9h1V56.1z M430.2,41.4h1v0.9h-1V41.4z M431.1,47.6h-1v-0.9h1V47.6z
			 M437.3,55.2h0.9v1h-0.9V55.2z M444.4,47.6h-1v-0.9h1V47.6z"/>
		<path class="st15" d="M438.6,57.3h-1.9c-0.4,0-0.7-0.3-0.7-0.8v-1.9c0-0.4,0.3-0.7,0.7-0.7h0.2c-0.2-1.5-0.7-2.8-1.6-4
			c-0.7-1-1.8-1.7-3-2V48c0,0.4-0.3,0.7-0.7,0.7h-1.9c-0.4,0-0.7-0.3-0.7-0.7v-0.1c-2.7,0.8-4.6,3.2-4.7,6h0.2
			c0.4,0,0.7,0.3,0.7,0.7v1.9c0,0.4-0.3,0.7-0.7,0.8h-1.9c-0.4,0-0.7-0.3-0.7-0.8v-1.9c0-0.4,0.3-0.7,0.7-0.7h0.2
			c0.1-1.8,0.8-3.6,2-5c0.3-0.4,0.7-0.7,1-1.1H419V48c0,0.4-0.3,0.7-0.7,0.7h-1.9c-0.4,0-0.7-0.3-0.8-0.7v-1.8
			c0-0.4,0.3-0.7,0.8-0.7h1.9c0.4,0,0.7,0.3,0.7,0.7v0.2h9.9v-0.2c0-0.4,0.3-0.7,0.7-0.7h0.2v-1.8h-0.2c-0.4,0-0.7-0.3-0.7-0.7v-1.9
			c0-0.4,0.3-0.7,0.7-0.7h1.9c0.4,0,0.7,0.3,0.7,0.7V43c0,0.4-0.3,0.7-0.7,0.7h-0.2v1.8h0.2c0.4,0,0.7,0.3,0.7,0.7v0.2h9.9v-0.2
			c0-0.4,0.3-0.7,0.7-0.7h1.9c0.4,0,0.7,0.3,0.7,0.7v1.9c0,0.4-0.3,0.7-0.7,0.7h-1.9c-0.4,0-0.7-0.3-0.7-0.7v-0.2h-6.8
			c0.4,0.4,0.8,0.8,1.2,1.2c1.1,1.4,1.8,3.1,1.9,4.9h0.2c0.4,0,0.7,0.3,0.7,0.7v1.9C439.3,57,439,57.3,438.6,57.3z M436.7,54.5
			c-0.1,0-0.2,0.1-0.2,0.2v1.9c0,0.1,0.1,0.2,0.2,0.2l0,0h1.9c0.1,0,0.2-0.1,0.2-0.2l0,0v-1.9c0-0.1-0.1-0.2-0.2-0.2h-0.7v-0.3
			c-0.1-1.8-0.8-3.4-1.8-4.8c-0.5-0.6-1-1.2-1.7-1.6l-0.7-0.5h8.7h0.3v0.3v0.5c0,0.1,0.1,0.2,0.2,0.2l0,0h1.9c0.1,0,0.2-0.1,0.2-0.2
			l0,0v-1.9c0-0.1-0.1-0.2-0.2-0.2l0,0h-1.9c-0.1,0-0.2,0.1-0.2,0.2l0,0V47h-0.3h-10.6v-0.8c0-0.1-0.1-0.2-0.2-0.2l0,0h-0.7v-2.9
			h0.7c0.1,0,0.2-0.1,0.2-0.2l0,0V41c0-0.1-0.1-0.2-0.2-0.2l0,0h-1.9c-0.1,0-0.2,0.1-0.2,0.2v1.9c0,0.1,0.1,0.2,0.2,0.2h0.7V46h-0.7
			c-0.1,0-0.2,0.1-0.2,0.2V47h-11v-0.8c0-0.1-0.1-0.2-0.2-0.2l0,0h-1.9c-0.1,0-0.2,0.1-0.2,0.2l0,0v1.9c0,0.1,0.1,0.2,0.2,0.2l0,0
			h1.9c0.1,0,0.2-0.1,0.2-0.2l0,0v-0.7h9l-0.8,0.5c-0.6,0.4-1.1,0.9-1.6,1.4c-1.2,1.4-1.8,3.2-1.9,5v0.3h-0.8
			c-0.1,0-0.2,0.1-0.2,0.2v1.9c0,0.1,0.1,0.2,0.2,0.2l0,0h1.9c0.1,0,0.2-0.1,0.2-0.2l0,0v-1.9c0-0.1-0.1-0.2-0.2-0.2h-0.7v-0.4
			c0-3.7,2.8-6.5,5.4-6.9h0.3v0.8c0,0.1,0.1,0.2,0.2,0.2h1.9c0.1,0,0.2-0.1,0.2-0.2l0,0v-0.8h0.3c1.5,0.2,2.8,1.1,3.7,2.3
			c1,1.3,1.6,2.9,1.7,4.5v0.3L436.7,54.5z M438.4,56.4H437v-1.5h1.5L438.4,56.4z M437.5,55.8h0.4v-0.4h-0.4V55.8z M424.2,56.4h-1.5
			v-1.5h1.5V56.4z M423.3,55.8h0.4v-0.4h-0.4V55.8z M444.6,47.8h-1.5v-1.5h1.5V47.8z M443.6,47.3h0.4v-0.4h-0.4V47.3z M431.3,47.8
			h-1.5v-1.5h1.5V47.8z M430.4,47.3h0.4v-0.4h-0.4V47.3z M418.1,47.8h-1.5v-1.5h1.5V47.8z M417.1,47.3h0.4v-0.4h-0.4V47.3z
			 M431.3,42.6h-1.5v-1.4h1.5V42.6z M430.4,42.1h0.4v-0.4h-0.4V42.1z"/>
		<path class="st76" d="M1088.9,81.1c0,0.2-0.2,0.4-0.4,0.4l0,0h-6.5v12.1l2.9-3.6c0.2-0.2,0.4-0.2,0.6-0.1c0,0,0,0,0.1,0.1l2.3,2.8
			l2.2-2.7c0.2-0.2,0.4-0.2,0.6,0c0.2,0.1,0.2,0.4,0.1,0.6l-4.6,5.6h10.7v-5.8l-3-3.7l-2,2.4c-0.1,0.2-0.4,0.2-0.6,0.1
			c-0.2-0.1-0.2-0.4-0.1-0.6l0,0l2.3-2.8c0.1-0.2,0.4-0.2,0.6-0.1c0,0,0,0,0.1,0.1l2.7,3.3v-7.7h-6.5c-0.2,0-0.4-0.2-0.4-0.4
			s0.2-0.4,0.4-0.4h6.9c0.2,0,0.4,0.2,0.4,0.4l0,0v-0.4h-9.2C1088.6,80.6,1088.9,80.7,1088.9,81.1C1088.9,81,1088.9,81,1088.9,81.1z
			 M1090.7,86c0,1.7-1.4,3.1-3.1,3.1s-3.1-1.4-3.1-3.1s1.4-3.1,3.1-3.1c0.8,0,1.6,0.3,2.2,0.9C1090.4,84.4,1090.7,85.2,1090.7,86
			L1090.7,86z"/>
		<polygon class="st76" points="1085.3,91 1082,94.9 1082,96.3 1085,96.3 1087.3,93.5 		"/>
		<path class="st76" d="M1086,84.4c-0.9,0.9-0.9,2.3,0,3.2l0,0c0.4,0.4,1,0.7,1.6,0.7c1.3,0,2.3-1,2.3-2.3s-1-2.3-2.3-2.3l0,0
			C1087,83.7,1086.4,84,1086,84.4z"/>
		<path class="st76" d="M1097.3,97.2h0.4v-0.4C1097.7,97,1097.5,97.2,1097.3,97.2L1097.3,97.2z"/>
		<path class="st76" d="M1081.2,96.8V81.1c0-0.2,0.2-0.4,0.4-0.4l0,0h-0.6v16.5h0.6C1081.4,97.2,1081.2,97,1081.2,96.8L1081.2,96.8z
			"/>
		<path class="st77" d="M1097.3,80.6h-6.9c-0.2,0-0.4,0.2-0.4,0.4s0.2,0.4,0.4,0.4h6.5v7.7l-2.7-3.3c-0.1-0.2-0.4-0.2-0.6-0.1
			c0,0,0,0-0.1,0.1l-2.3,2.8c-0.2,0.2-0.1,0.4,0,0.6s0.4,0.1,0.6,0l0,0l2-2.4l3,3.7v5.8h-10.7l4.6-5.6c0.1-0.2,0.1-0.5-0.1-0.6
			s-0.4-0.1-0.6,0.1l-2.2,2.7l-2.3-2.8c-0.2-0.2-0.4-0.2-0.6-0.1c0,0,0,0-0.1,0.1l-2.9,3.6V81.6h6.5c0.2,0,0.4-0.2,0.4-0.4
			s-0.2-0.4-0.4-0.4h-6.9c-0.2,0-0.4,0.2-0.4,0.4l0,0v15.7c0,0.2,0.2,0.4,0.4,0.4l0,0h15.7c0.2,0,0.4-0.2,0.4-0.4l0,0V81.2
			C1097.8,80.8,1097.6,80.6,1097.3,80.6L1097.3,80.6z M1082,96.3v-1.4l3.2-4l2.1,2.6l-2.3,2.8L1082,96.3z"/>
		<path class="st77" d="M1085.4,83.8c-1.2,1.2-1.2,3.2,0,4.4s3.2,1.2,4.4,0c1.2-1.2,1.2-3.2,0-4.4c-0.6-0.6-1.4-0.9-2.2-0.9
			C1086.8,82.9,1086,83.2,1085.4,83.8z M1089.9,86c0,1.2-1,2.2-2.3,2.2s-2.2-1-2.2-2.3c0-1.2,1-2.2,2.3-2.2c0.6,0,1.2,0.2,1.6,0.7
			C1089.6,84.8,1089.9,85.4,1089.9,86z"/>
		<rect x="1088.1" y="80.6" class="st77" width="3.6" height="0.8"/>
		<polygon class="st77" points="1089.7,90.7 1091.5,88.4 1092.2,88.9 1090.4,91.1 		"/>
		<path class="st20" d="M362.5,65.6l0.9,3.5c0,0.3,0.1,0.6,0.3,0.8c0.1,0.1,0.3,0.3,0.4,0.5s0.1,0.4,0,0.5c-0.2,0.4-0.9,0.5-1.3,0.6
			s-1-0.1-1.1-0.5s-0.6-0.1-0.5,0.2c0.3,0.4,0.7,0.7,1.2,0.7s1,0,1.5-0.3c0.8-0.3,1-1,0.7-1.5c-0.1-0.2-0.3-0.4-0.4-0.5l-0.1-0.1
			c0.2-0.2,0,0.2,0.1,0.1v-0.1l-0.5-2.1l-0.5-1.9C362.9,65.1,362.4,65.3,362.5,65.6L362.5,65.6z"/>
		
			<linearGradient id="SVGID_66_" gradientUnits="userSpaceOnUse" x1="113.2684" y1="977.8291" x2="121.6084" y2="977.8291" gradientTransform="matrix(0.9982 -4.220469e-03 -3.226768e-03 1.0375 5.9651 -786.4385)">
			<stop  offset="0" style="stop-color:#808080"/>
			<stop  offset="0.14" style="stop-color:#8A8A8A"/>
			<stop  offset="0.39" style="stop-color:#A5A5A5"/>
			<stop  offset="0.71" style="stop-color:#D1D1D1"/>
			<stop  offset="0.99" style="stop-color:#FFFFFF"/>
		</linearGradient>
		<polygon class="st78" points="119.5,208.8 121.1,209.1 114,246.4 112.5,246.1 		"/>
		
			<linearGradient id="SVGID_67_" gradientUnits="userSpaceOnUse" x1="180.05" y1="978.9773" x2="188.63" y2="978.9773" gradientTransform="matrix(1 0 0 1 0 -751.9999)">
			<stop  offset="0" style="stop-color:#808080"/>
			<stop  offset="0.14" style="stop-color:#8A8A8A"/>
			<stop  offset="0.39" style="stop-color:#A5A5A5"/>
			<stop  offset="0.71" style="stop-color:#D1D1D1"/>
			<stop  offset="0.99" style="stop-color:#FFFFFF"/>
		</linearGradient>
		<polygon class="st79" points="186.8,245.2 188.6,245.2 181.6,208.8 180,209.1 		"/>
		
			<linearGradient id="SVGID_68_" gradientUnits="userSpaceOnUse" x1="125.04" y1="978.9773" x2="133.63" y2="978.9773" gradientTransform="matrix(1 0 0 1 0 -751.9999)">
			<stop  offset="0" style="stop-color:#808080"/>
			<stop  offset="0.14" style="stop-color:#8A8A8A"/>
			<stop  offset="0.39" style="stop-color:#A5A5A5"/>
			<stop  offset="0.71" style="stop-color:#D1D1D1"/>
			<stop  offset="0.99" style="stop-color:#FFFFFF"/>
		</linearGradient>
		<polygon class="st80" points="131.8,245.2 133.6,245.2 126.6,208.8 125,209.1 		"/>
		<polygon class="st81" points="169.6,245.2 168.1,245.2 174.8,209 176.4,209.3 		"/>
		
			<linearGradient id="SVGID_69_" gradientUnits="userSpaceOnUse" x1="148.9148" y1="881.7678" x2="148.9148" y2="972.0912" gradientTransform="matrix(1 0 0 1 0 -751.9999)">
			<stop  offset="0" style="stop-color:#909090"/>
			<stop  offset="0.2" style="stop-color:#A1A1A1"/>
			<stop  offset="0.61" style="stop-color:#CFCFCF"/>
			<stop  offset="0.99" style="stop-color:#FFFFFF"/>
		</linearGradient>
		<path class="st82" d="M142.5,130c-8.4,0.9-19.2,1.8-30,20.3c-11.9,20.2-5.6,50.2,3.8,58.6s40,18.7,65.7,3.2c0,0,15.5-9.4,7.6-24.9
			c-12.3-23.9-10.5-28.9-16-38.3S160.2,128.1,142.5,130z"/>
		
			<linearGradient id="SVGID_70_" gradientUnits="userSpaceOnUse" x1="105.9295" y1="927.7711" x2="186.7" y2="927.7711" gradientTransform="matrix(1 0 0 1 0 -751.9999)">
			<stop  offset="0" style="stop-color:#808080"/>
			<stop  offset="0.14" style="stop-color:#8A8A8A"/>
			<stop  offset="0.39" style="stop-color:#A5A5A5"/>
			<stop  offset="0.71" style="stop-color:#D1D1D1"/>
			<stop  offset="0.99" style="stop-color:#FFFFFF"/>
		</linearGradient>
		<path class="st83" d="M112.4,150.3c7.4-12.6,14.8-17,21.4-18.8c-3,3.2-5.6,6.7-7.7,10.4c-11.9,20.2-5.6,50.3,3.8,58.6
			c8.3,7.4,33.3,16.4,56.8,7.5c-1.4,1.6-3,3-4.8,4.1c-25.7,15.5-56.3,5.1-65.7-3.2S100.6,170.4,112.4,150.3z"/>
		<polygon class="st84" points="169.3,160.6 171.5,167.1 164.9,164.5 		"/>
		
			<linearGradient id="SVGID_71_" gradientUnits="userSpaceOnUse" x1="164.95" y1="893.4173" x2="164.95" y2="917.6674" gradientTransform="matrix(1 0 0 1 0 -751.9999)">
			<stop  offset="0" style="stop-color:#FDF53F"/>
			<stop  offset="0.18" style="stop-color:#FCEF40"/>
			<stop  offset="0.44" style="stop-color:#F9DD44"/>
			<stop  offset="0.73" style="stop-color:#F3C14A"/>
			<stop  offset="1" style="stop-color:#ED9F51"/>
		</linearGradient>
		<path class="st85" d="M162.6,141.4c0.4,0,1.6,0.4,3.4,3.7c2.2,4.2,5.5,16.9,5.5,16.9l-9.8,3.6l-1.2-2.7l-2.1-20.4
			C158.4,142.6,162.4,141.4,162.6,141.4z"/>
		
			<linearGradient id="SVGID_72_" gradientUnits="userSpaceOnUse" x1="147.8197" y1="891.5773" x2="147.8197" y2="943.0773" gradientTransform="matrix(1 0 0 1 0 -751.9999)">
			<stop  offset="0" style="stop-color:#FDF53F"/>
			<stop  offset="0.18" style="stop-color:#FCEF40"/>
			<stop  offset="0.44" style="stop-color:#F9DD44"/>
			<stop  offset="0.73" style="stop-color:#F3C14A"/>
			<stop  offset="1" style="stop-color:#ED9F51"/>
		</linearGradient>
		<path class="st86" d="M149.7,139.6c4.4,0.1,8.7,0.8,12.9,1.8c0,0,2.4,20.2-2.1,35.5c-1,3.4,0.8,14.2,0.8,14.2l-28.9-0.4
			c0,0,3.4-26.1,2.1-30.3s-1.3-18.9-1.3-18.9l6.5-1.1C143,139.9,146.3,139.6,149.7,139.6z"/>
		
			<linearGradient id="SVGID_73_" gradientUnits="userSpaceOnUse" x1="138.1014" y1="988.6366" x2="148.6272" y2="988.6366" gradientTransform="matrix(1 0 0 1 0 -751.9999)">
			<stop  offset="0" style="stop-color:#FCDEB3"/>
			<stop  offset="1" style="stop-color:#F9C476"/>
		</linearGradient>
		<path class="st87" d="M146.3,228.5c0,0,0.6,7.4,1.8,9.4s-0.1,5.5-0.1,6s-2.5,1.2-6.3,0.8s-3.8-1.3-3.5-2.7s2.4-3.2,2.5-4.6
			s-1.2-6.2-1.2-6.2L146.3,228.5z"/>
		
			<linearGradient id="SVGID_74_" gradientUnits="userSpaceOnUse" x1="131.8993" y1="945.9753" x2="184.2118" y2="945.9753" gradientTransform="matrix(1 0 0 1 0 -751.9999)">
			<stop  offset="0" style="stop-color:#2B3582"/>
			<stop  offset="1" style="stop-color:#150E42"/>
		</linearGradient>
		<path class="st88" d="M158,185c0,0,19.9-1.1,24.4,1.6s-0.8,8.2-0.8,8.2s-16.2,7-43.4,8.6c-6.4,0.4-7-16.7-5.8-18.1
			S158,185,158,185z"/>
		
			<linearGradient id="SVGID_75_" gradientUnits="userSpaceOnUse" x1="137.8705" y1="993.8091" x2="149.04" y2="993.8091" gradientTransform="matrix(1 0 0 1 0 -751.9999)">
			<stop  offset="0" style="stop-color:#333333"/>
			<stop  offset="1" style="stop-color:#000000"/>
		</linearGradient>
		<path class="st89" d="M141.2,245.2c-3.9-0.4-3.5-2.3-3.1-3.8c0.2-0.9,1.3-2,2-3c0.8,0.6,1.7,1.1,2.6,1.3c1.8,0.5,4.2-0.5,5.8-1.2
			c0.4,1.7,0.6,3.4,0.5,5.1C149,244,145.2,245.6,141.2,245.2z"/>
		
			<linearGradient id="SVGID_76_" gradientUnits="userSpaceOnUse" x1="128.2983" y1="962.5116" x2="148.1214" y2="962.5116" gradientTransform="matrix(1 0 0 1 0 -751.9999)">
			<stop  offset="0" style="stop-color:#2B3582"/>
			<stop  offset="1" style="stop-color:#150E42"/>
		</linearGradient>
		<path class="st90" d="M143.4,199.3c0.8,6,4.7,35.9,4.7,35.9l-9.1,1.1c0,0-11.3-39-10.7-45s4.8-6.5,4.8-6.5
			S141.3,183.4,143.4,199.3z"/>
		
			<linearGradient id="SVGID_77_" gradientUnits="userSpaceOnUse" x1="128.3824" y1="916.4624" x2="166.4393" y2="916.4624" gradientTransform="matrix(1 0 0 1 0 -751.9999)">
			<stop  offset="0" style="stop-color:#FCDEB3"/>
			<stop  offset="1" style="stop-color:#F9C476"/>
		</linearGradient>
		<path class="st91" d="M132.9,143.8c2.7-1,4,23.2,4.4,33.2c5.1,0.3,10.1,0.2,15.2-0.2c1-0.1,3.2-0.9,4.2-1c0.8-0.1,1.6-0.2,2.4-0.1
			c1.9,0.7,3.8,1.5,5.6,2.5c0.5,0.6,2,2,1.7,2.5s-2.8-1.7-2.8-1.7l-1.2-0.7c1.5,1.5,4.4,3.4,4,4.2s-3-1.3-4.9-2.6
			c1.6,1.4,3.6,4,3.1,4.4s-2.7-2.6-5.1-3.5c-0.9-0.3-1.8,0.6-2.5,0.7c-0.6,0.1-1.2,0.2-1.8,0.1l-2.6-0.7c-0.9,0.1-0.9,0.6-1.8,0.8
			s-2.8,0.5-4.1,0.8c-7.7,1.9-10.2,2.7-12.6,2.7C126.9,185.3,126.5,146.2,132.9,143.8z"/>
		
			<linearGradient id="SVGID_78_" gradientUnits="userSpaceOnUse" x1="133.1957" y1="893.4988" x2="133.1957" y2="919.0242" gradientTransform="matrix(1 0 0 1 0 -751.9999)">
			<stop  offset="0" style="stop-color:#FDF53F"/>
			<stop  offset="0.18" style="stop-color:#FCEF40"/>
			<stop  offset="0.44" style="stop-color:#F9DD44"/>
			<stop  offset="0.73" style="stop-color:#F3C14A"/>
			<stop  offset="1" style="stop-color:#ED9F51"/>
		</linearGradient>
		<path class="st92" d="M127.8,166.6c-0.5-10.2-0.4-22.8,5.3-25c2.3-0.8,6.3,4.3,5.6,25.2C135,167.2,131.4,167.1,127.8,166.6z"/>
		
			<linearGradient id="SVGID_79_" gradientUnits="userSpaceOnUse" x1="165.91" y1="991.8773" x2="182.58" y2="991.8773" gradientTransform="matrix(1 0 0 1 0 -751.9999)">
			<stop  offset="0" style="stop-color:#FCDEB3"/>
			<stop  offset="1" style="stop-color:#F9C476"/>
		</linearGradient>
		<path class="st93" d="M173.1,234.8c0,0-0.8,2.5,0.6,4.2s7.4,3.3,8.1,4.3c0.4,0.5,0.7,1.1,0.7,1.7l-16.7-0.5l0.2-5l0.8-3.6
			L173.1,234.8z"/>
		
			<linearGradient id="SVGID_80_" gradientUnits="userSpaceOnUse" x1="164.97" y1="994.3916" x2="185.175" y2="994.3916" gradientTransform="matrix(1 0 0 1 0 -751.9999)">
			<stop  offset="0" style="stop-color:#333333"/>
			<stop  offset="1" style="stop-color:#000000"/>
		</linearGradient>
		<path class="st94" d="M174.8,239.9c0,0-4.3,1.7-6.4,0.7s-2-1.3-2.6-0.9s-0.8,5.5-0.8,5.5l18.8,0.1c1.3,0,2-1,0.9-1.8
			c-0.6-0.5-1.3-0.9-2-1.2C181.1,241.4,174.8,239.9,174.8,239.9z"/>
		
			<linearGradient id="SVGID_81_" gradientUnits="userSpaceOnUse" x1="166.23" y1="962.8566" x2="187.1181" y2="962.8566" gradientTransform="matrix(1 0 0 1 0 -751.9999)">
			<stop  offset="0" style="stop-color:#2B3582"/>
			<stop  offset="1" style="stop-color:#150E42"/>
		</linearGradient>
		<path class="st95" d="M172.4,189.7c1.3-2.7,4.2-6.2,9.4-4.1c4.9,2,6.2,7,4.7,12.1s-11.8,35-12.1,39.1h-8.2c0,0,1.5-23.7,1.8-29.4
			C168.5,201.4,170,195.4,172.4,189.7z"/>
		
			<linearGradient id="SVGID_82_" gradientUnits="userSpaceOnUse" x1="132.6" y1="925.7773" x2="187.4917" y2="925.7773" gradientTransform="matrix(1 0 0 1 0 -751.9999)">
			<stop  offset="0" style="stop-color:#4D4D4D"/>
			<stop  offset="1" style="stop-color:#1A1A1A"/>
		</linearGradient>
		<path class="st96" d="M185.7,162.2h-27.3c-0.7,0-1.4,0.4-1.6,1.1l-8.4,20.5h-15c-0.4,0-0.8,0.3-0.8,0.8l0,0l0,0
			c0,0.4,0.3,0.8,0.8,0.8l0,0h42.8c1.2,0,2.2-0.7,2.7-1.8l8.5-18.8c0.4-0.9,0-2-0.9-2.4C186.2,162.2,185.9,162.2,185.7,162.2z"/>
		
			<linearGradient id="SVGID_83_" gradientUnits="userSpaceOnUse" x1="149.5815" y1="901.3634" x2="149.5815" y2="882.4234" gradientTransform="matrix(1 0 0 1 0 -751.9999)">
			<stop  offset="0" style="stop-color:#FCDEB3"/>
			<stop  offset="1" style="stop-color:#F9A262"/>
		</linearGradient>
		<path class="st97" d="M146.4,131l-1.4,8.8c0,0,4.9,10.5,7.8,9.6c2.4-0.8,0.9-10,0.9-10s-1.3-5-0.9-7.5S146.4,131,146.4,131z"/>
		<path class="st98" d="M152.8,131.8c0.4-2.5-6.5-0.9-6.5-0.9l-0.1,0.7c0.2,0.4,0.4,0.9,0.8,1.2c1.6,1.6,3.7,2.6,6,2.7
			C152.8,134.4,152.7,133.1,152.8,131.8z"/>
		
			<linearGradient id="SVGID_84_" gradientUnits="userSpaceOnUse" x1="144.7082" y1="876.8909" x2="156.9404" y2="876.8909" gradientTransform="matrix(1 0 0 1 0 -751.9999)">
			<stop  offset="0" style="stop-color:#FCDEB3"/>
			<stop  offset="1" style="stop-color:#F9C476"/>
		</linearGradient>
		<path class="st99" d="M145.2,118.5c-0.2-0.1-1.6,10,1,12.8s7.6,3.7,9.4,1.5c2-2.4,1.9-13.3-2.1-16.1S145.2,118.5,145.2,118.5z"/>
		
			<linearGradient id="SVGID_85_" gradientUnits="userSpaceOnUse" x1="139.7562" y1="874.697" x2="155.5309" y2="874.697" gradientTransform="matrix(1 0 0 1 0 -751.9999)">
			<stop  offset="1.000000e-02" style="stop-color:#603813"/>
			<stop  offset="1" style="stop-color:#C69C6D"/>
		</linearGradient>
		<path class="st100" d="M152,111.3c-2.2,0.5-4.3,1.7-5.8,3.3c-1.4,0.2-3.3,0.9-5.3,4.2c-2.1,3.6-1.1,8.2,2.2,10.7
			c1.6,1.1,2.6,2.8,2.8,4.7l0.4-1.3c0.3-1,0.5-2,0.4-3.1c0-0.6-0.2-1.3-0.5-1.8c-0.7-1.5,1.5-2.4,2.1-3.7c0.5-0.9,0.5-3.1,1.2-4.6
			l0.9-1.2c0,0,2-1.6,4-1.1S156,110.5,152,111.3z"/>
		
			<linearGradient id="SVGID_86_" gradientUnits="userSpaceOnUse" x1="145.5695" y1="878.1773" x2="148.14" y2="878.1773" gradientTransform="matrix(1 0 0 1 0 -751.9999)">
			<stop  offset="0" style="stop-color:#FCDEB3"/>
			<stop  offset="1" style="stop-color:#F9C476"/>
		</linearGradient>
		<path class="st101" d="M148.1,126.2c0,1.2-0.5,2.2-1.2,2.2s-1.3-1-1.3-2.2s0.5-2.2,1.2-2.2S148.1,124.9,148.1,126.2z"/>
		<path class="st15" d="M151.6,129.6l3.9-0.2c0,0.9-0.8,1.6-1.7,1.6C151.7,131.1,151.6,129.6,151.6,129.6z"/>
		<path d="M150.7,123.7c-0.1,0.3,0.1,0.6,0.4,0.6s0.6-0.1,0.6-0.4c0.1-0.3-0.1-0.6-0.4-0.6l0,0C151,123.2,150.7,123.4,150.7,123.7z"
			/>
		<path d="M154.5,123.7c0,0.3,0.1,0.6,0.4,0.6c0.3,0.1,0.6-0.1,0.6-0.4c0.1-0.3-0.1-0.6-0.4-0.6S154.5,123.4,154.5,123.7
			L154.5,123.7z"/>
		<path d="M152,122.9c-0.1,0-0.1,0-0.2,0c-0.2-0.2-0.4-0.2-0.7-0.2c-0.2,0-0.5,0.2-0.6,0.4c-0.1,0.1-0.2,0.1-0.3,0l0,0
			c-0.1-0.1-0.1-0.2,0-0.3l0,0c0.2-0.3,0.5-0.5,0.9-0.5s0.7,0.1,1,0.3C152.2,122.7,152.2,122.8,152,122.9
			C152.1,122.8,152.1,122.8,152,122.9z"/>
		<path d="M155.8,122.9c-0.1,0-0.1,0-0.2,0c-0.2-0.2-0.4-0.2-0.7-0.2c-0.2,0-0.5,0.2-0.6,0.4c-0.1,0.1-0.2,0.1-0.3,0l0,0
			c-0.1-0.1-0.1-0.2,0-0.3c0.2-0.3,0.5-0.5,0.9-0.5s0.7,0.1,1,0.3C156,122.7,156,122.8,155.8,122.9L155.8,122.9
			C155.9,122.9,155.9,122.9,155.8,122.9z"/>
		<path class="st15" d="M154.4,123.7c0,0.1,0.1,0.2,0.2,0.2c0.1,0,0.2-0.1,0.2-0.2c0-0.1,0-0.2-0.2-0.2l0,0
			C154.5,123.5,154.4,123.6,154.4,123.7z"/>
		<path class="st15" d="M150.6,123.8c0,0.1,0,0.2,0.2,0.2l0,0c0.1,0,0.2-0.1,0.2-0.2c0-0.1-0.1-0.2-0.2-0.2
			C150.7,123.6,150.6,123.7,150.6,123.8z"/>
		<path d="M155.8,123.7c-0.1,0-0.1,0-0.1,0c-0.3-0.3-0.9-0.3-1.2,0l0,0c-0.1,0.1-0.1,0-0.2,0s0-0.1,0-0.2c0.5-0.5,1.2-0.5,1.6,0
			C155.9,123.4,155.9,123.5,155.8,123.7C155.9,123.6,155.9,123.6,155.8,123.7L155.8,123.7z"/>
		<path d="M152,123.6h-0.1c-0.3-0.3-0.9-0.3-1.2,0l0,0c-0.1,0.1-0.1,0.1-0.2,0c-0.1-0.1-0.1-0.1,0-0.2l0,0c0.5-0.5,1.2-0.5,1.6,0
			C152.1,123.5,152.1,123.6,152,123.6C152.1,123.6,152.1,123.6,152,123.6L152,123.6z"/>
		<path class="st20" d="M153.5,124l0.7,2.5c0,0.2,0.1,0.4,0.2,0.6c0.1,0.1,0.2,0.2,0.2,0.3c0.1,0.1,0.1,0.3,0,0.4
			c-0.1,0.3-0.6,0.3-0.9,0.4c-0.3,0-0.6-0.1-0.7-0.4c-0.1-0.2-0.4-0.1-0.4,0.1c0.2,0.3,0.5,0.5,0.8,0.6c0.3,0,0.7,0,0.9-0.2
			c0.4-0.1,0.6-0.6,0.5-1c0-0.1,0-0.1-0.1-0.2c-0.1-0.1-0.2-0.3-0.3-0.4l-0.1-0.1c0.1-0.1,0,0.2,0,0s0,0,0-0.1l-0.4-1.5l-0.4-1.4
			C153.8,123.6,153.4,123.7,153.5,124L153.5,124z"/>
		<path d="M875.5,10.9c0,0.3,0.2,0.5,0.4,0.5c0.3,0,0.5-0.2,0.5-0.4l0,0c0.1-0.3-0.1-0.5-0.4-0.6C875.8,10.4,875.5,10.5,875.5,10.9
			C875.5,10.8,875.5,10.8,875.5,10.9z"/>
		<path d="M878.8,10.6c0,0.3,0.2,0.5,0.4,0.5c0.3,0,0.5-0.2,0.5-0.4c0-0.3-0.2-0.5-0.4-0.5C879,10.1,878.8,10.3,878.8,10.6
			L878.8,10.6z"/>
		<path d="M876.5,10c0,0-0.1,0-0.2,0c-0.2-0.1-0.4-0.2-0.6-0.2c-0.2,0.1-0.4,0.2-0.5,0.4c0,0.1-0.1,0.1-0.2,0.1l0,0
			c-0.1-0.1-0.1-0.2,0-0.2c0.1-0.3,0.4-0.5,0.7-0.6c0.3,0,0.6,0,0.9,0.2C876.7,9.8,876.7,9.9,876.5,10C876.6,10,876.6,10,876.5,10z"
			/>
		<path d="M879.9,9.8c0,0-0.1,0-0.2,0c-0.2-0.1-0.4-0.2-0.6-0.2c-0.2,0.1-0.4,0.2-0.5,0.4c0,0.1-0.1,0.1-0.2,0.1l0,0
			c-0.1-0.1-0.1-0.2-0.1-0.2c0.1-0.3,0.4-0.5,0.7-0.6s0.6,0,0.9,0.2C880,9.6,880,9.7,879.9,9.8C879.9,9.7,879.9,9.8,879.9,9.8z"/>
		<path class="st15" d="M878.7,10.6c0,0.1,0.1,0.2,0.2,0.2l0,0c0.1,0,0.2-0.1,0.2-0.2l0,0c0-0.1-0.1-0.2-0.2-0.2l0,0
			C878.8,10.4,878.7,10.5,878.7,10.6L878.7,10.6z"/>
		<path class="st15" d="M875.4,11c0,0.1,0.1,0.2,0.2,0.2c0.1,0,0.2-0.1,0.2-0.2c0-0.1-0.1-0.1-0.2-0.2
			C875.5,10.8,875.4,10.9,875.4,11z"/>
		<path d="M879.9,10.5L879.9,10.5c-0.4-0.3-0.8-0.3-1.1,0c0,0,0,0-0.1,0.1c0,0-0.1,0.1-0.2,0l0,0c0-0.1,0-0.1,0-0.2
			c0.3-0.4,1-0.5,1.4-0.2c0,0,0,0,0.1,0C880,10.3,880,10.3,879.9,10.5L879.9,10.5z"/>
		<path d="M876.6,10.7L876.6,10.7c-0.4-0.3-0.9-0.3-1.1,0c0,0,0,0,0,0.1c0,0-0.1,0-0.2,0l0,0c0-0.1,0-0.1,0-0.2
			c0.4-0.4,1-0.5,1.4-0.1l0,0C876.7,10.6,876.7,10.7,876.6,10.7C876.7,10.7,876.6,10.7,876.6,10.7z"/>
		<path class="st20" d="M877.9,11.7l0.4,1.4c0,0.1,0,0.2,0.2,0.3c0.1,0,0.1,0.1,0.2,0.2c0,0.1,0,0.2,0,0.2c-0.2,0.2-0.4,0.3-0.7,0.4
			c-0.2,0.1-0.5,0-0.6-0.1s-0.3,0-0.3,0.1s0.4,0.2,0.7,0.2s0.5-0.1,0.8-0.3c0.4-0.2,0.6-0.5,0.4-0.7c-0.1-0.1-0.1-0.1-0.2-0.2l0,0
			c0.1-0.1,0,0.1,0,0s0,0,0,0l-0.2-0.8l-0.2-0.7C878.2,11.5,877.9,11.6,877.9,11.7L877.9,11.7z"/>
	</g>
</g>
</svg>
